<svg width="965" height="510" viewBox="0 0 965 510" fill="none" xmlns="http://www.w3.org/2000/svg">
<g clip-path="url(#clip0_1022_883)">
<rect width="965" height="510" fill="url(#paint0_linear_1022_883)"/>
<g clip-path="url(#clip1_1022_883)">
<rect width="981.117" height="675" transform="translate(-8.05859 -85)" fill="url(#paint1_linear_1022_883)"/>
<circle cx="756.868" cy="180.008" r="2.20228" fill="white"/>
<circle cx="868.45" cy="257.822" r="2.20228" fill="white"/>
<circle cx="693.736" cy="50.0734" r="2.20228" fill="white"/>
<circle cx="805.318" cy="127.888" r="2.20228" fill="white"/>
<circle cx="206.297" cy="133.026" r="2.20228" fill="white"/>
<circle cx="317.879" cy="210.84" r="2.20228" fill="white"/>
<circle cx="154.543" cy="385.188" r="2.20228" fill="white"/>
<circle cx="266.126" cy="463.002" r="2.20228" fill="white"/>
<circle cx="491.86" cy="360.962" r="2.20228" fill="white"/>
<circle cx="878.728" cy="366.468" r="2.20228" fill="white"/>
<circle cx="57.2758" cy="116.142" r="2.20228" fill="white"/>
<circle cx="168.858" cy="193.956" r="2.20228" fill="white"/>
<circle cx="344.674" cy="340.775" r="2.20228" fill="white"/>
<circle cx="656.297" cy="407.945" r="2.20228" fill="white"/>
<circle cx="767.879" cy="485.759" r="2.20228" fill="white"/>
<circle cx="707.684" cy="20.3427" r="2.20228" fill="white"/>
<circle cx="416.248" cy="36.4926" r="2.20228" fill="white"/>
<circle cx="527.83" cy="114.307" r="2.20228" fill="white"/>
<circle cx="168.858" cy="61.8187" r="2.20228" fill="white"/>
<circle cx="71.5907" cy="248.279" r="2.20228" fill="white"/>
<circle cx="183.173" cy="326.093" r="2.20228" fill="white"/>
<circle cx="15.7995" cy="504.845" r="2.20228" fill="white"/>
<circle cx="679.054" cy="262.961" r="2.20228" fill="white"/>
<circle cx="790.636" cy="340.775" r="2.20228" fill="white"/>
</g>
<path d="M185.58 250C185.207 250 184.857 249.86 184.53 249.58C184.25 249.3 184.11 248.95 184.11 248.53C184.11 248.343 184.157 248.133 184.25 247.9L201.12 202.75C201.26 202.283 201.517 201.887 201.89 201.56C202.31 201.187 202.87 201 203.57 201H211.2C211.9 201 212.437 201.187 212.81 201.56C213.183 201.887 213.463 202.283 213.65 202.75L230.52 247.9C230.567 248.133 230.59 248.343 230.59 248.53C230.59 248.95 230.45 249.3 230.17 249.58C229.89 249.86 229.563 250 229.19 250H223.1C222.447 250 221.957 249.86 221.63 249.58C221.35 249.253 221.163 248.95 221.07 248.67L217.78 240.13H196.99L193.7 248.67C193.607 248.95 193.397 249.253 193.07 249.58C192.79 249.86 192.323 250 191.67 250H185.58ZM199.44 232.08H215.33L207.35 210.45L199.44 232.08ZM254.805 250C254.338 250 253.942 249.837 253.615 249.51C253.288 249.183 253.125 248.787 253.125 248.32V221.02H247.455C246.988 221.02 246.592 220.857 246.265 220.53C245.938 220.203 245.775 219.783 245.775 219.27V215.28C245.775 214.813 245.938 214.417 246.265 214.09C246.592 213.763 246.988 213.6 247.455 213.6H253.125V210.73C253.125 207.93 253.638 205.62 254.665 203.8C255.692 201.933 257.208 200.533 259.215 199.6C261.222 198.667 263.765 198.2 266.845 198.2H271.605C272.118 198.2 272.515 198.363 272.795 198.69C273.122 199.017 273.285 199.413 273.285 199.88V203.87C273.285 204.383 273.122 204.803 272.795 205.13C272.515 205.457 272.118 205.62 271.605 205.62H267.125C265.258 205.62 263.975 206.087 263.275 207.02C262.575 207.953 262.225 209.307 262.225 211.08V213.6H270.905C271.418 213.6 271.815 213.763 272.095 214.09C272.422 214.417 272.585 214.813 272.585 215.28V219.27C272.585 219.783 272.422 220.203 272.095 220.53C271.815 220.857 271.418 221.02 270.905 221.02H262.225V248.32C262.225 248.787 262.062 249.183 261.735 249.51C261.408 249.837 261.012 250 260.545 250H254.805ZM288.281 250.7C285.854 250.7 283.661 250.233 281.701 249.3C279.741 248.32 278.177 247.037 277.011 245.45C275.891 243.817 275.331 241.997 275.331 239.99C275.331 236.723 276.661 234.133 279.321 232.22C281.981 230.26 285.457 228.953 289.751 228.3L299.341 226.9V225.43C299.341 223.47 298.851 221.953 297.871 220.88C296.891 219.807 295.211 219.27 292.831 219.27C291.151 219.27 289.774 219.62 288.701 220.32C287.674 220.973 286.904 221.86 286.391 222.98C286.017 223.587 285.481 223.89 284.781 223.89H279.251C278.737 223.89 278.341 223.75 278.061 223.47C277.827 223.19 277.711 222.817 277.711 222.35C277.757 221.603 278.061 220.693 278.621 219.62C279.227 218.547 280.114 217.52 281.281 216.54C282.494 215.513 284.057 214.65 285.971 213.95C287.884 213.25 290.194 212.9 292.901 212.9C295.841 212.9 298.314 213.273 300.321 214.02C302.374 214.72 304.007 215.677 305.221 216.89C306.434 218.103 307.321 219.527 307.881 221.16C308.441 222.793 308.721 224.52 308.721 226.34V248.32C308.721 248.787 308.557 249.183 308.231 249.51C307.904 249.837 307.507 250 307.041 250H301.371C300.857 250 300.437 249.837 300.111 249.51C299.831 249.183 299.691 248.787 299.691 248.32V245.59C299.084 246.43 298.267 247.247 297.241 248.04C296.214 248.833 294.954 249.487 293.461 250C292.014 250.467 290.287 250.7 288.281 250.7ZM290.661 244.05C292.294 244.05 293.764 243.7 295.071 243C296.424 242.3 297.474 241.227 298.221 239.78C299.014 238.287 299.411 236.42 299.411 234.18V232.71L292.411 233.83C289.657 234.25 287.604 234.927 286.251 235.86C284.897 236.793 284.221 237.937 284.221 239.29C284.221 240.317 284.524 241.203 285.131 241.95C285.784 242.65 286.601 243.187 287.581 243.56C288.561 243.887 289.587 244.05 290.661 244.05ZM319.381 250C318.914 250 318.518 249.837 318.191 249.51C317.864 249.183 317.701 248.787 317.701 248.32V215.28C317.701 214.813 317.864 214.417 318.191 214.09C318.518 213.763 318.914 213.6 319.381 213.6H325.121C325.588 213.6 325.984 213.763 326.311 214.09C326.638 214.417 326.801 214.813 326.801 215.28V218.15C328.014 216.657 329.554 215.42 331.421 214.44C333.334 213.413 335.691 212.9 338.491 212.9C341.338 212.9 343.811 213.553 345.911 214.86C348.011 216.12 349.621 217.917 350.741 220.25C351.908 222.583 352.491 225.383 352.491 228.65V248.32C352.491 248.787 352.328 249.183 352.001 249.51C351.674 249.837 351.278 250 350.811 250H344.651C344.184 250 343.788 249.837 343.461 249.51C343.134 249.183 342.971 248.787 342.971 248.32V229.07C342.971 226.363 342.294 224.24 340.941 222.7C339.634 221.16 337.721 220.39 335.201 220.39C332.774 220.39 330.838 221.16 329.391 222.7C327.944 224.24 327.221 226.363 327.221 229.07V248.32C327.221 248.787 327.058 249.183 326.731 249.51C326.404 249.837 326.008 250 325.541 250H319.381ZM377.423 250C374.623 250 372.266 249.51 370.353 248.53C368.439 247.55 367.016 246.103 366.083 244.19C365.149 242.23 364.683 239.803 364.683 236.91V221.02H359.153C358.686 221.02 358.289 220.857 357.963 220.53C357.636 220.203 357.473 219.783 357.473 219.27V215.28C357.473 214.813 357.636 214.417 357.963 214.09C358.289 213.763 358.686 213.6 359.153 213.6H364.683V201.98C364.683 201.513 364.823 201.117 365.103 200.79C365.429 200.463 365.849 200.3 366.363 200.3H372.033C372.499 200.3 372.896 200.463 373.223 200.79C373.549 201.117 373.713 201.513 373.713 201.98V213.6H382.463C382.929 213.6 383.326 213.763 383.653 214.09C383.979 214.417 384.143 214.813 384.143 215.28V219.27C384.143 219.783 383.979 220.203 383.653 220.53C383.326 220.857 382.929 221.02 382.463 221.02H373.713V236.21C373.713 238.123 374.039 239.617 374.693 240.69C375.393 241.763 376.583 242.3 378.263 242.3H383.093C383.559 242.3 383.956 242.463 384.283 242.79C384.609 243.117 384.773 243.513 384.773 243.98V248.32C384.773 248.787 384.609 249.183 384.283 249.51C383.956 249.837 383.559 250 383.093 250H377.423ZM401.552 250.7C399.126 250.7 396.932 250.233 394.972 249.3C393.012 248.32 391.449 247.037 390.282 245.45C389.162 243.817 388.602 241.997 388.602 239.99C388.602 236.723 389.932 234.133 392.592 232.22C395.252 230.26 398.729 228.953 403.022 228.3L412.612 226.9V225.43C412.612 223.47 412.122 221.953 411.142 220.88C410.162 219.807 408.482 219.27 406.102 219.27C404.422 219.27 403.046 219.62 401.972 220.32C400.946 220.973 400.176 221.86 399.662 222.98C399.289 223.587 398.752 223.89 398.052 223.89H392.522C392.009 223.89 391.612 223.75 391.332 223.47C391.099 223.19 390.982 222.817 390.982 222.35C391.029 221.603 391.332 220.693 391.892 219.62C392.499 218.547 393.386 217.52 394.552 216.54C395.766 215.513 397.329 214.65 399.242 213.95C401.156 213.25 403.466 212.9 406.172 212.9C409.112 212.9 411.586 213.273 413.592 214.02C415.646 214.72 417.279 215.677 418.492 216.89C419.706 218.103 420.592 219.527 421.152 221.16C421.712 222.793 421.992 224.52 421.992 226.34V248.32C421.992 248.787 421.829 249.183 421.502 249.51C421.176 249.837 420.779 250 420.312 250H414.642C414.129 250 413.709 249.837 413.382 249.51C413.102 249.183 412.962 248.787 412.962 248.32V245.59C412.356 246.43 411.539 247.247 410.512 248.04C409.486 248.833 408.226 249.487 406.732 250C405.286 250.467 403.559 250.7 401.552 250.7ZM403.932 244.05C405.566 244.05 407.036 243.7 408.342 243C409.696 242.3 410.746 241.227 411.492 239.78C412.286 238.287 412.682 236.42 412.682 234.18V232.71L405.682 233.83C402.929 234.25 400.876 234.927 399.522 235.86C398.169 236.793 397.492 237.937 397.492 239.29C397.492 240.317 397.796 241.203 398.402 241.95C399.056 242.65 399.872 243.187 400.852 243.56C401.832 243.887 402.859 244.05 403.932 244.05ZM444.763 250.7C441.963 250.7 439.559 250.373 437.553 249.72C435.593 249.067 433.983 248.25 432.723 247.27C431.463 246.29 430.529 245.31 429.923 244.33C429.316 243.35 428.989 242.533 428.943 241.88C428.896 241.367 429.036 240.97 429.363 240.69C429.736 240.363 430.133 240.2 430.553 240.2H436.083C436.269 240.2 436.433 240.223 436.573 240.27C436.713 240.317 436.899 240.457 437.133 240.69C437.739 241.203 438.369 241.74 439.023 242.3C439.723 242.86 440.539 243.35 441.473 243.77C442.406 244.143 443.573 244.33 444.973 244.33C446.793 244.33 448.309 243.98 449.523 243.28C450.783 242.533 451.413 241.483 451.413 240.13C451.413 239.15 451.133 238.357 450.573 237.75C450.059 237.143 449.079 236.607 447.633 236.14C446.186 235.627 444.133 235.09 441.473 234.53C438.859 233.923 436.689 233.153 434.963 232.22C433.236 231.287 431.953 230.12 431.113 228.72C430.273 227.32 429.853 225.687 429.853 223.82C429.853 222 430.389 220.273 431.463 218.64C432.583 216.96 434.216 215.583 436.363 214.51C438.556 213.437 441.263 212.9 444.483 212.9C447.003 212.9 449.196 213.227 451.063 213.88C452.929 214.487 454.469 215.257 455.683 216.19C456.943 217.123 457.899 218.08 458.553 219.06C459.206 219.993 459.556 220.81 459.603 221.51C459.649 222.023 459.509 222.443 459.183 222.77C458.856 223.05 458.483 223.19 458.063 223.19H452.883C452.649 223.19 452.439 223.143 452.253 223.05C452.066 222.957 451.879 222.84 451.693 222.7C451.179 222.233 450.619 221.743 450.013 221.23C449.406 220.67 448.659 220.203 447.773 219.83C446.933 219.457 445.813 219.27 444.413 219.27C442.639 219.27 441.286 219.667 440.353 220.46C439.419 221.207 438.953 222.163 438.953 223.33C438.953 224.123 439.163 224.823 439.583 225.43C440.049 225.99 440.959 226.527 442.313 227.04C443.666 227.553 445.719 228.09 448.473 228.65C451.599 229.21 454.073 230.05 455.893 231.17C457.759 232.243 459.066 233.503 459.813 234.95C460.606 236.35 461.003 237.913 461.003 239.64C461.003 241.74 460.373 243.63 459.113 245.31C457.899 246.99 456.079 248.32 453.653 249.3C451.273 250.233 448.309 250.7 444.763 250.7ZM473.441 263.3C473.068 263.3 472.741 263.16 472.461 262.88C472.181 262.6 472.041 262.273 472.041 261.9C472.041 261.713 472.041 261.527 472.041 261.34C472.088 261.2 472.181 261.013 472.321 260.78L477.781 247.83L464.341 216.12C464.155 215.653 464.061 215.327 464.061 215.14C464.108 214.72 464.271 214.37 464.551 214.09C464.831 213.763 465.181 213.6 465.601 213.6H471.271C471.831 213.6 472.251 213.74 472.531 214.02C472.811 214.3 473.021 214.603 473.161 214.93L482.471 237.82L492.061 214.93C492.201 214.557 492.411 214.253 492.691 214.02C492.971 213.74 493.391 213.6 493.951 213.6H499.551C499.925 213.6 500.251 213.74 500.531 214.02C500.858 214.3 501.021 214.627 501.021 215C501.021 215.28 500.928 215.653 500.741 216.12L480.931 261.97C480.745 262.343 480.511 262.647 480.231 262.88C479.951 263.16 479.531 263.3 478.971 263.3H473.441ZM522.887 250C522.42 250 522.024 249.837 521.697 249.51C521.37 249.183 521.207 248.787 521.207 248.32V215.28C521.207 214.813 521.37 214.417 521.697 214.09C522.024 213.763 522.42 213.6 522.887 213.6H528.697C529.21 213.6 529.607 213.763 529.887 214.09C530.214 214.417 530.377 214.813 530.377 215.28V248.32C530.377 248.787 530.214 249.183 529.887 249.51C529.607 249.837 529.21 250 528.697 250H522.887ZM522.607 207.58C522.14 207.58 521.744 207.417 521.417 207.09C521.09 206.763 520.927 206.367 520.927 205.9V200.86C520.927 200.393 521.09 199.997 521.417 199.67C521.744 199.343 522.14 199.18 522.607 199.18H528.977C529.49 199.18 529.91 199.343 530.237 199.67C530.564 199.997 530.727 200.393 530.727 200.86V205.9C530.727 206.367 530.564 206.763 530.237 207.09C529.91 207.417 529.49 207.58 528.977 207.58H522.607ZM541.344 250C540.877 250 540.481 249.837 540.154 249.51C539.827 249.183 539.664 248.787 539.664 248.32V215.28C539.664 214.813 539.827 214.417 540.154 214.09C540.481 213.763 540.877 213.6 541.344 213.6H547.084C547.551 213.6 547.947 213.763 548.274 214.09C548.601 214.417 548.764 214.813 548.764 215.28V218.15C549.977 216.657 551.517 215.42 553.384 214.44C555.297 213.413 557.654 212.9 560.454 212.9C563.301 212.9 565.774 213.553 567.874 214.86C569.974 216.12 571.584 217.917 572.704 220.25C573.871 222.583 574.454 225.383 574.454 228.65V248.32C574.454 248.787 574.291 249.183 573.964 249.51C573.637 249.837 573.241 250 572.774 250H566.614C566.147 250 565.751 249.837 565.424 249.51C565.097 249.183 564.934 248.787 564.934 248.32V229.07C564.934 226.363 564.257 224.24 562.904 222.7C561.597 221.16 559.684 220.39 557.164 220.39C554.737 220.39 552.801 221.16 551.354 222.7C549.907 224.24 549.184 226.363 549.184 229.07V248.32C549.184 248.787 549.021 249.183 548.694 249.51C548.367 249.837 547.971 250 547.504 250H541.344ZM599.385 250C596.585 250 594.229 249.51 592.315 248.53C590.402 247.55 588.979 246.103 588.045 244.19C587.112 242.23 586.645 239.803 586.645 236.91V221.02H581.115C580.649 221.02 580.252 220.857 579.925 220.53C579.599 220.203 579.435 219.783 579.435 219.27V215.28C579.435 214.813 579.599 214.417 579.925 214.09C580.252 213.763 580.649 213.6 581.115 213.6H586.645V201.98C586.645 201.513 586.785 201.117 587.065 200.79C587.392 200.463 587.812 200.3 588.325 200.3H593.995C594.462 200.3 594.859 200.463 595.185 200.79C595.512 201.117 595.675 201.513 595.675 201.98V213.6H604.425C604.892 213.6 605.289 213.763 605.615 214.09C605.942 214.417 606.105 214.813 606.105 215.28V219.27C606.105 219.783 605.942 220.203 605.615 220.53C605.289 220.857 604.892 221.02 604.425 221.02H595.675V236.21C595.675 238.123 596.002 239.617 596.655 240.69C597.355 241.763 598.545 242.3 600.225 242.3H605.055C605.522 242.3 605.919 242.463 606.245 242.79C606.572 243.117 606.735 243.513 606.735 243.98V248.32C606.735 248.787 606.572 249.183 606.245 249.51C605.919 249.837 605.522 250 605.055 250H599.385ZM628.625 250.7C623.445 250.7 619.339 249.207 616.305 246.22C613.272 243.233 611.639 238.987 611.405 233.48C611.359 233.013 611.335 232.43 611.335 231.73C611.335 230.983 611.359 230.4 611.405 229.98C611.592 226.433 612.385 223.4 613.785 220.88C615.232 218.313 617.215 216.353 619.735 215C622.255 213.6 625.219 212.9 628.625 212.9C632.405 212.9 635.579 213.693 638.145 215.28C640.712 216.82 642.649 218.99 643.955 221.79C645.262 224.543 645.915 227.74 645.915 231.38V232.85C645.915 233.317 645.752 233.713 645.425 234.04C645.099 234.367 644.679 234.53 644.165 234.53H620.925C620.925 234.53 620.925 234.6 620.925 234.74C620.925 234.88 620.925 234.997 620.925 235.09C620.972 236.723 621.275 238.24 621.835 239.64C622.442 240.993 623.305 242.09 624.425 242.93C625.592 243.77 626.969 244.19 628.555 244.19C629.862 244.19 630.959 244.003 631.845 243.63C632.732 243.21 633.455 242.743 634.015 242.23C634.575 241.717 634.972 241.297 635.205 240.97C635.625 240.41 635.952 240.083 636.185 239.99C636.465 239.85 636.862 239.78 637.375 239.78H643.395C643.862 239.78 644.235 239.92 644.515 240.2C644.842 240.48 644.982 240.83 644.935 241.25C644.889 241.997 644.492 242.907 643.745 243.98C643.045 245.053 642.019 246.103 640.665 247.13C639.312 248.157 637.609 249.02 635.555 249.72C633.549 250.373 631.239 250.7 628.625 250.7ZM620.925 228.65H636.395V228.44C636.395 226.62 636.092 225.033 635.485 223.68C634.879 222.28 633.992 221.207 632.825 220.46C631.659 219.667 630.259 219.27 628.625 219.27C626.992 219.27 625.592 219.667 624.425 220.46C623.259 221.207 622.372 222.28 621.765 223.68C621.205 225.033 620.925 226.62 620.925 228.44V228.65ZM655.026 250C654.559 250 654.162 249.837 653.836 249.51C653.509 249.183 653.346 248.787 653.346 248.32V215.35C653.346 214.837 653.509 214.417 653.836 214.09C654.162 213.763 654.559 213.6 655.026 213.6H660.696C661.162 213.6 661.559 213.763 661.886 214.09C662.259 214.417 662.446 214.837 662.446 215.35V218.22C663.519 216.727 664.896 215.583 666.576 214.79C668.302 213.997 670.286 213.6 672.526 213.6H675.396C675.909 213.6 676.306 213.763 676.586 214.09C676.912 214.417 677.076 214.813 677.076 215.28V220.32C677.076 220.787 676.912 221.183 676.586 221.51C676.306 221.837 675.909 222 675.396 222H669.936C667.696 222 665.946 222.63 664.686 223.89C663.472 225.103 662.866 226.83 662.866 229.07V248.32C662.866 248.787 662.702 249.183 662.376 249.51C662.049 249.837 661.629 250 661.116 250H655.026ZM684.215 250C683.748 250 683.352 249.837 683.025 249.51C682.698 249.183 682.535 248.787 682.535 248.32V215.28C682.535 214.813 682.698 214.417 683.025 214.09C683.352 213.763 683.748 213.6 684.215 213.6H689.955C690.422 213.6 690.818 213.763 691.145 214.09C691.472 214.417 691.635 214.813 691.635 215.28V218.15C692.848 216.657 694.388 215.42 696.255 214.44C698.168 213.413 700.525 212.9 703.325 212.9C706.172 212.9 708.645 213.553 710.745 214.86C712.845 216.12 714.455 217.917 715.575 220.25C716.742 222.583 717.325 225.383 717.325 228.65V248.32C717.325 248.787 717.162 249.183 716.835 249.51C716.508 249.837 716.112 250 715.645 250H709.485C709.018 250 708.622 249.837 708.295 249.51C707.968 249.183 707.805 248.787 707.805 248.32V229.07C707.805 226.363 707.128 224.24 705.775 222.7C704.468 221.16 702.555 220.39 700.035 220.39C697.608 220.39 695.672 221.16 694.225 222.7C692.778 224.24 692.055 226.363 692.055 229.07V248.32C692.055 248.787 691.892 249.183 691.565 249.51C691.238 249.837 690.842 250 690.375 250H684.215ZM741.897 250.7C736.717 250.7 732.61 249.207 729.577 246.22C726.543 243.233 724.91 238.987 724.677 233.48C724.63 233.013 724.607 232.43 724.607 231.73C724.607 230.983 724.63 230.4 724.677 229.98C724.863 226.433 725.657 223.4 727.057 220.88C728.503 218.313 730.487 216.353 733.007 215C735.527 213.6 738.49 212.9 741.897 212.9C745.677 212.9 748.85 213.693 751.417 215.28C753.983 216.82 755.92 218.99 757.227 221.79C758.533 224.543 759.187 227.74 759.187 231.38V232.85C759.187 233.317 759.023 233.713 758.697 234.04C758.37 234.367 757.95 234.53 757.437 234.53H734.197C734.197 234.53 734.197 234.6 734.197 234.74C734.197 234.88 734.197 234.997 734.197 235.09C734.243 236.723 734.547 238.24 735.107 239.64C735.713 240.993 736.577 242.09 737.697 242.93C738.863 243.77 740.24 244.19 741.827 244.19C743.133 244.19 744.23 244.003 745.117 243.63C746.003 243.21 746.727 242.743 747.287 242.23C747.847 241.717 748.243 241.297 748.477 240.97C748.897 240.41 749.223 240.083 749.457 239.99C749.737 239.85 750.133 239.78 750.647 239.78H756.667C757.133 239.78 757.507 239.92 757.787 240.2C758.113 240.48 758.253 240.83 758.207 241.25C758.16 241.997 757.763 242.907 757.017 243.98C756.317 245.053 755.29 246.103 753.937 247.13C752.583 248.157 750.88 249.02 748.827 249.72C746.82 250.373 744.51 250.7 741.897 250.7ZM734.197 228.65H749.667V228.44C749.667 226.62 749.363 225.033 748.757 223.68C748.15 222.28 747.263 221.207 746.097 220.46C744.93 219.667 743.53 219.27 741.897 219.27C740.263 219.27 738.863 219.667 737.697 220.46C736.53 221.207 735.643 222.28 735.037 223.68C734.477 225.033 734.197 226.62 734.197 228.44V228.65ZM782.93 250C780.13 250 777.774 249.51 775.86 248.53C773.947 247.55 772.524 246.103 771.59 244.19C770.657 242.23 770.19 239.803 770.19 236.91V221.02H764.66C764.194 221.02 763.797 220.857 763.47 220.53C763.144 220.203 762.98 219.783 762.98 219.27V215.28C762.98 214.813 763.144 214.417 763.47 214.09C763.797 213.763 764.194 213.6 764.66 213.6H770.19V201.98C770.19 201.513 770.33 201.117 770.61 200.79C770.937 200.463 771.357 200.3 771.87 200.3H777.54C778.007 200.3 778.404 200.463 778.73 200.79C779.057 201.117 779.22 201.513 779.22 201.98V213.6H787.97C788.437 213.6 788.834 213.763 789.16 214.09C789.487 214.417 789.65 214.813 789.65 215.28V219.27C789.65 219.783 789.487 220.203 789.16 220.53C788.834 220.857 788.437 221.02 787.97 221.02H779.22V236.21C779.22 238.123 779.547 239.617 780.2 240.69C780.9 241.763 782.09 242.3 783.77 242.3H788.6C789.067 242.3 789.464 242.463 789.79 242.79C790.117 243.117 790.28 243.513 790.28 243.98V248.32C790.28 248.787 790.117 249.183 789.79 249.51C789.464 249.837 789.067 250 788.6 250H782.93ZM345.334 333.7C342.534 333.7 340.13 333.373 338.124 332.72C336.164 332.067 334.554 331.25 333.294 330.27C332.034 329.29 331.1 328.31 330.494 327.33C329.887 326.35 329.56 325.533 329.514 324.88C329.467 324.367 329.607 323.97 329.934 323.69C330.307 323.363 330.704 323.2 331.124 323.2H336.654C336.84 323.2 337.004 323.223 337.144 323.27C337.284 323.317 337.47 323.457 337.704 323.69C338.31 324.203 338.94 324.74 339.594 325.3C340.294 325.86 341.11 326.35 342.044 326.77C342.977 327.143 344.144 327.33 345.544 327.33C347.364 327.33 348.88 326.98 350.094 326.28C351.354 325.533 351.984 324.483 351.984 323.13C351.984 322.15 351.704 321.357 351.144 320.75C350.63 320.143 349.65 319.607 348.204 319.14C346.757 318.627 344.704 318.09 342.044 317.53C339.43 316.923 337.26 316.153 335.534 315.22C333.807 314.287 332.524 313.12 331.684 311.72C330.844 310.32 330.424 308.687 330.424 306.82C330.424 305 330.96 303.273 332.034 301.64C333.154 299.96 334.787 298.583 336.934 297.51C339.127 296.437 341.834 295.9 345.054 295.9C347.574 295.9 349.767 296.227 351.634 296.88C353.5 297.487 355.04 298.257 356.254 299.19C357.514 300.123 358.47 301.08 359.124 302.06C359.777 302.993 360.127 303.81 360.174 304.51C360.22 305.023 360.08 305.443 359.754 305.77C359.427 306.05 359.054 306.19 358.634 306.19H353.454C353.22 306.19 353.01 306.143 352.824 306.05C352.637 305.957 352.45 305.84 352.264 305.7C351.75 305.233 351.19 304.743 350.584 304.23C349.977 303.67 349.23 303.203 348.344 302.83C347.504 302.457 346.384 302.27 344.984 302.27C343.21 302.27 341.857 302.667 340.924 303.46C339.99 304.207 339.524 305.163 339.524 306.33C339.524 307.123 339.734 307.823 340.154 308.43C340.62 308.99 341.53 309.527 342.884 310.04C344.237 310.553 346.29 311.09 349.044 311.65C352.17 312.21 354.644 313.05 356.464 314.17C358.33 315.243 359.637 316.503 360.384 317.95C361.177 319.35 361.574 320.913 361.574 322.64C361.574 324.74 360.944 326.63 359.684 328.31C358.47 329.99 356.65 331.32 354.224 332.3C351.844 333.233 348.88 333.7 345.334 333.7ZM370.48 333C370.013 333 369.616 332.837 369.29 332.51C368.963 332.183 368.8 331.787 368.8 331.32V298.28C368.8 297.813 368.963 297.417 369.29 297.09C369.616 296.763 370.013 296.6 370.48 296.6H376.29C376.803 296.6 377.2 296.763 377.48 297.09C377.806 297.417 377.97 297.813 377.97 298.28V331.32C377.97 331.787 377.806 332.183 377.48 332.51C377.2 332.837 376.803 333 376.29 333H370.48ZM370.2 290.58C369.733 290.58 369.336 290.417 369.01 290.09C368.683 289.763 368.52 289.367 368.52 288.9V283.86C368.52 283.393 368.683 282.997 369.01 282.67C369.336 282.343 369.733 282.18 370.2 282.18H376.57C377.083 282.18 377.503 282.343 377.83 282.67C378.156 282.997 378.32 283.393 378.32 283.86V288.9C378.32 289.367 378.156 289.763 377.83 290.09C377.503 290.417 377.083 290.58 376.57 290.58H370.2ZM388.937 333C388.47 333 388.073 332.837 387.747 332.51C387.42 332.183 387.257 331.787 387.257 331.32V298.28C387.257 297.813 387.42 297.417 387.747 297.09C388.073 296.763 388.47 296.6 388.937 296.6H394.397C394.863 296.6 395.26 296.763 395.587 297.09C395.913 297.417 396.077 297.813 396.077 298.28V300.66C397.057 299.353 398.363 298.257 399.997 297.37C401.677 296.437 403.66 295.947 405.947 295.9C411.267 295.807 414.977 297.883 417.077 302.13C418.15 300.263 419.69 298.77 421.697 297.65C423.75 296.483 426.013 295.9 428.487 295.9C430.913 295.9 433.107 296.46 435.067 297.58C437.073 298.7 438.637 300.403 439.757 302.69C440.923 304.93 441.507 307.777 441.507 311.23V331.32C441.507 331.787 441.343 332.183 441.017 332.51C440.69 332.837 440.293 333 439.827 333H434.087C433.62 333 433.223 332.837 432.897 332.51C432.57 332.183 432.407 331.787 432.407 331.32V311.79C432.407 309.69 432.103 308.033 431.497 306.82C430.89 305.56 430.073 304.673 429.047 304.16C428.02 303.647 426.877 303.39 425.617 303.39C424.59 303.39 423.563 303.647 422.537 304.16C421.51 304.673 420.67 305.56 420.017 306.82C419.363 308.033 419.037 309.69 419.037 311.79V331.32C419.037 331.787 418.873 332.183 418.547 332.51C418.22 332.837 417.823 333 417.357 333H411.617C411.15 333 410.753 332.837 410.427 332.51C410.1 332.183 409.937 331.787 409.937 331.32V311.79C409.937 309.69 409.61 308.033 408.957 306.82C408.303 305.56 407.463 304.673 406.437 304.16C405.41 303.647 404.313 303.39 403.147 303.39C402.073 303.39 401.023 303.67 399.997 304.23C398.97 304.743 398.13 305.607 397.477 306.82C396.823 308.033 396.497 309.69 396.497 311.79V331.32C396.497 331.787 396.333 332.183 396.007 332.51C395.68 332.837 395.283 333 394.817 333H388.937ZM463.931 333.7C461.084 333.7 458.611 333.07 456.511 331.81C454.457 330.503 452.871 328.683 451.751 326.35C450.631 323.97 450.071 321.17 450.071 317.95V298.28C450.071 297.813 450.234 297.417 450.561 297.09C450.887 296.763 451.284 296.6 451.751 296.6H457.911C458.424 296.6 458.821 296.763 459.101 297.09C459.427 297.417 459.591 297.813 459.591 298.28V317.53C459.591 323.317 462.134 326.21 467.221 326.21C469.647 326.21 471.561 325.44 472.961 323.9C474.407 322.36 475.131 320.237 475.131 317.53V298.28C475.131 297.813 475.294 297.417 475.621 297.09C475.947 296.763 476.344 296.6 476.811 296.6H482.971C483.437 296.6 483.834 296.763 484.161 297.09C484.487 297.417 484.651 297.813 484.651 298.28V331.32C484.651 331.787 484.487 332.183 484.161 332.51C483.834 332.837 483.437 333 482.971 333H477.301C476.787 333 476.367 332.837 476.041 332.51C475.761 332.183 475.621 331.787 475.621 331.32V328.45C474.361 330.083 472.797 331.367 470.931 332.3C469.064 333.233 466.731 333.7 463.931 333.7ZM495.647 333C495.181 333 494.784 332.837 494.457 332.51C494.131 332.183 493.967 331.787 493.967 331.32V284.98C493.967 284.513 494.131 284.117 494.457 283.79C494.784 283.463 495.181 283.3 495.647 283.3H501.457C501.924 283.3 502.321 283.463 502.647 283.79C502.974 284.117 503.137 284.513 503.137 284.98V331.32C503.137 331.787 502.974 332.183 502.647 332.51C502.321 332.837 501.924 333 501.457 333H495.647ZM522.993 333.7C520.566 333.7 518.373 333.233 516.413 332.3C514.453 331.32 512.889 330.037 511.723 328.45C510.603 326.817 510.043 324.997 510.043 322.99C510.043 319.723 511.373 317.133 514.033 315.22C516.693 313.26 520.169 311.953 524.463 311.3L534.053 309.9V308.43C534.053 306.47 533.563 304.953 532.583 303.88C531.603 302.807 529.923 302.27 527.543 302.27C525.863 302.27 524.486 302.62 523.413 303.32C522.386 303.973 521.616 304.86 521.103 305.98C520.729 306.587 520.193 306.89 519.493 306.89H513.963C513.449 306.89 513.053 306.75 512.773 306.47C512.539 306.19 512.423 305.817 512.423 305.35C512.469 304.603 512.773 303.693 513.333 302.62C513.939 301.547 514.826 300.52 515.993 299.54C517.206 298.513 518.769 297.65 520.683 296.95C522.596 296.25 524.906 295.9 527.613 295.9C530.553 295.9 533.026 296.273 535.033 297.02C537.086 297.72 538.719 298.677 539.933 299.89C541.146 301.103 542.033 302.527 542.593 304.16C543.153 305.793 543.433 307.52 543.433 309.34V331.32C543.433 331.787 543.269 332.183 542.943 332.51C542.616 332.837 542.219 333 541.753 333H536.083C535.569 333 535.149 332.837 534.823 332.51C534.543 332.183 534.403 331.787 534.403 331.32V328.59C533.796 329.43 532.979 330.247 531.953 331.04C530.926 331.833 529.666 332.487 528.173 333C526.726 333.467 524.999 333.7 522.993 333.7ZM525.373 327.05C527.006 327.05 528.476 326.7 529.783 326C531.136 325.3 532.186 324.227 532.933 322.78C533.726 321.287 534.123 319.42 534.123 317.18V315.71L527.123 316.83C524.369 317.25 522.316 317.927 520.963 318.86C519.609 319.793 518.933 320.937 518.933 322.29C518.933 323.317 519.236 324.203 519.843 324.95C520.496 325.65 521.313 326.187 522.293 326.56C523.273 326.887 524.299 327.05 525.373 327.05ZM568.521 333C565.721 333 563.365 332.51 561.451 331.53C559.538 330.55 558.115 329.103 557.181 327.19C556.248 325.23 555.781 322.803 555.781 319.91V304.02H550.251C549.785 304.02 549.388 303.857 549.061 303.53C548.735 303.203 548.571 302.783 548.571 302.27V298.28C548.571 297.813 548.735 297.417 549.061 297.09C549.388 296.763 549.785 296.6 550.251 296.6H555.781V284.98C555.781 284.513 555.921 284.117 556.201 283.79C556.528 283.463 556.948 283.3 557.461 283.3H563.131C563.598 283.3 563.995 283.463 564.321 283.79C564.648 284.117 564.811 284.513 564.811 284.98V296.6H573.561C574.028 296.6 574.425 296.763 574.751 297.09C575.078 297.417 575.241 297.813 575.241 298.28V302.27C575.241 302.783 575.078 303.203 574.751 303.53C574.425 303.857 574.028 304.02 573.561 304.02H564.811V319.21C564.811 321.123 565.138 322.617 565.791 323.69C566.491 324.763 567.681 325.3 569.361 325.3H574.191C574.658 325.3 575.055 325.463 575.381 325.79C575.708 326.117 575.871 326.513 575.871 326.98V331.32C575.871 331.787 575.708 332.183 575.381 332.51C575.055 332.837 574.658 333 574.191 333H568.521ZM598.181 333.7C594.448 333.7 591.298 333.047 588.731 331.74C586.211 330.433 584.274 328.59 582.921 326.21C581.614 323.83 580.868 321.053 580.681 317.88C580.634 317.04 580.611 316.013 580.611 314.8C580.611 313.587 580.634 312.56 580.681 311.72C580.868 308.5 581.638 305.723 582.991 303.39C584.391 301.01 586.351 299.167 588.871 297.86C591.438 296.553 594.541 295.9 598.181 295.9C601.821 295.9 604.901 296.553 607.421 297.86C609.988 299.167 611.948 301.01 613.301 303.39C614.701 305.723 615.494 308.5 615.681 311.72C615.728 312.56 615.751 313.587 615.751 314.8C615.751 316.013 615.728 317.04 615.681 317.88C615.494 321.053 614.724 323.83 613.371 326.21C612.064 328.59 610.128 330.433 607.561 331.74C605.041 333.047 601.914 333.7 598.181 333.7ZM598.181 326.77C600.654 326.77 602.568 326 603.921 324.46C605.274 322.873 606.021 320.563 606.161 317.53C606.208 316.83 606.231 315.92 606.231 314.8C606.231 313.68 606.208 312.77 606.161 312.07C606.021 309.037 605.274 306.75 603.921 305.21C602.568 303.623 600.654 302.83 598.181 302.83C595.708 302.83 593.794 303.623 592.441 305.21C591.088 306.75 590.341 309.037 590.201 312.07C590.154 312.77 590.131 313.68 590.131 314.8C590.131 315.92 590.154 316.83 590.201 317.53C590.341 320.563 591.088 322.873 592.441 324.46C593.794 326 595.708 326.77 598.181 326.77ZM625.187 333C624.72 333 624.323 332.837 623.997 332.51C623.67 332.183 623.507 331.787 623.507 331.32V298.35C623.507 297.837 623.67 297.417 623.997 297.09C624.323 296.763 624.72 296.6 625.187 296.6H630.857C631.323 296.6 631.72 296.763 632.047 297.09C632.42 297.417 632.607 297.837 632.607 298.35V301.22C633.68 299.727 635.057 298.583 636.737 297.79C638.463 296.997 640.447 296.6 642.687 296.6H645.557C646.07 296.6 646.467 296.763 646.747 297.09C647.073 297.417 647.237 297.813 647.237 298.28V303.32C647.237 303.787 647.073 304.183 646.747 304.51C646.467 304.837 646.07 305 645.557 305H640.097C637.857 305 636.107 305.63 634.847 306.89C633.633 308.103 633.027 309.83 633.027 312.07V331.32C633.027 331.787 632.863 332.183 632.537 332.51C632.21 332.837 631.79 333 631.277 333H625.187Z" fill="white"/>
</g>
<defs>
<linearGradient id="paint0_linear_1022_883" x1="337.5" y1="-142.5" x2="820" y2="655" gradientUnits="userSpaceOnUse">
<stop stop-color="#00FFE0"/>
<stop offset="1" stop-color="#5423E2"/>
</linearGradient>
<linearGradient id="paint1_linear_1022_883" x1="490.559" y1="0" x2="490.559" y2="675" gradientUnits="userSpaceOnUse">
<stop stop-color="#383956"/>
<stop offset="1" stop-color="#0C0B36"/>
</linearGradient>
<clipPath id="clip0_1022_883">
<rect width="965" height="510" fill="white"/>
</clipPath>
<clipPath id="clip1_1022_883">
<rect width="981.117" height="675" fill="white" transform="translate(-8.05859 -85)"/>
</clipPath>
</defs>
</svg>
