<svg width="543" height="318" viewBox="0 0 543 318" fill="none" xmlns="http://www.w3.org/2000/svg">
<g clip-path="url(#clip0_1016_803)">
<path fill-rule="evenodd" clip-rule="evenodd" d="M543 0H0V318H543V0ZM62.1163 287C46.1188 245.557 37.3477 200.52 37.3477 153.435C37.3477 110.533 44.6294 69.3318 58.0244 31H268.999H269H482.975C496.37 69.3318 503.651 110.533 503.651 153.435C503.651 200.52 494.88 245.557 478.883 287H269H268.999H62.1163Z" fill="#5423E2"/>
<path fill-rule="evenodd" clip-rule="evenodd" d="M543 0H0V318H543V0ZM62.1163 287C46.1188 245.557 37.3477 200.52 37.3477 153.435C37.3477 110.533 44.6294 69.3318 58.0244 31H268.999H269H482.975C496.37 69.3318 503.651 110.533 503.651 153.435C503.651 200.52 494.88 245.557 478.883 287H269H268.999H62.1163Z" fill="#260F68" fill-opacity="0.2"/>
<path opacity="0.3" d="M3 0H541L482.5 31H57L3 0Z" fill="#260978"/>
<path opacity="0.1" d="M3 318H541L479.5 286H61L3 318Z" fill="white"/>
<mask id="mask0_1016_803" style="mask-type:alpha" maskUnits="userSpaceOnUse" x="37" y="31" width="467" height="256">
<path fill-rule="evenodd" clip-rule="evenodd" d="M37.3477 153.435C37.3477 200.52 46.1188 245.557 62.1163 287H268.999H269H478.883C494.88 245.557 503.651 200.52 503.651 153.435C503.651 110.533 496.37 69.3318 482.975 31H269H268.999H58.0244C44.6294 69.3318 37.3477 110.533 37.3477 153.435Z" fill="black"/>
</mask>
<g mask="url(#mask0_1016_803)">
<rect x="37" y="31" width="467" height="135" fill="url(#paint0_linear_1016_803)"/>
<rect width="467" height="135" transform="matrix(1 0 0 -1 37 289)" fill="url(#paint1_linear_1016_803)"/>
</g>
</g>
<defs>
<linearGradient id="paint0_linear_1016_803" x1="270.5" y1="31" x2="270.5" y2="166" gradientUnits="userSpaceOnUse">
<stop stop-color="#310BA5" stop-opacity="0.82"/>
<stop offset="0.607407" stop-color="#310BA5" stop-opacity="0.17"/>
<stop offset="1" stop-color="#310BA5" stop-opacity="0"/>
</linearGradient>
<linearGradient id="paint1_linear_1016_803" x1="233.5" y1="0" x2="233.5" y2="135" gradientUnits="userSpaceOnUse">
<stop stop-color="#310BA5"/>
<stop offset="0.607407" stop-color="#310BA5" stop-opacity="0.25"/>
<stop offset="1" stop-color="#310BA5" stop-opacity="0"/>
</linearGradient>
<clipPath id="clip0_1016_803">
<rect width="543" height="318" fill="white"/>
</clipPath>
</defs>
</svg>
