<svg width="2103" height="510" viewBox="0 0 2103 510" fill="none" xmlns="http://www.w3.org/2000/svg">
<g clip-path="url(#clip0_1023_963)">
<g clip-path="url(#clip1_1023_963)">
<rect width="2195" height="675" transform="translate(-46 -85)" fill="url(#paint0_linear_1023_963)"/>
<circle cx="718.927" cy="180.008" r="2.20228" fill="white"/>
<circle cx="830.509" cy="257.822" r="2.20228" fill="white"/>
<circle cx="655.795" cy="50.0734" r="2.20228" fill="white"/>
<circle cx="767.377" cy="127.888" r="2.20228" fill="white"/>
<circle cx="168.356" cy="133.026" r="2.20228" fill="white"/>
<circle cx="279.938" cy="210.84" r="2.20228" fill="white"/>
<circle cx="116.602" cy="385.188" r="2.20228" fill="white"/>
<circle cx="228.184" cy="463.002" r="2.20228" fill="white"/>
<circle cx="453.918" cy="360.962" r="2.20228" fill="white"/>
<circle cx="840.786" cy="366.468" r="2.20228" fill="white"/>
<circle cx="952.369" cy="444.282" r="2.20228" fill="white"/>
<circle cx="19.3341" cy="116.142" r="2.20228" fill="white"/>
<circle cx="130.917" cy="193.956" r="2.20228" fill="white"/>
<circle cx="306.733" cy="340.775" r="2.20228" fill="white"/>
<circle cx="618.356" cy="407.945" r="2.20228" fill="white"/>
<circle cx="729.938" cy="485.759" r="2.20228" fill="white"/>
<circle cx="993.845" cy="61.8187" r="2.20228" fill="white"/>
<circle cx="669.742" cy="20.3427" r="2.20228" fill="white"/>
<circle cx="378.307" cy="36.4926" r="2.20228" fill="white"/>
<circle cx="489.889" cy="114.307" r="2.20228" fill="white"/>
<circle cx="130.917" cy="61.8187" r="2.20228" fill="white"/>
<circle cx="33.6496" cy="248.279" r="2.20228" fill="white"/>
<circle cx="145.232" cy="326.093" r="2.20228" fill="white"/>
<circle cx="641.112" cy="262.961" r="2.20228" fill="white"/>
<circle cx="752.695" cy="340.775" r="2.20228" fill="white"/>
<circle cx="1858.93" cy="180.008" r="2.20228" fill="white"/>
<circle cx="1970.51" cy="257.822" r="2.20228" fill="white"/>
<circle cx="1795.79" cy="50.0734" r="2.20228" fill="white"/>
<circle cx="1907.38" cy="127.888" r="2.20228" fill="white"/>
<circle cx="1308.36" cy="133.026" r="2.20228" fill="white"/>
<circle cx="1419.94" cy="210.84" r="2.20228" fill="white"/>
<circle cx="1256.6" cy="385.188" r="2.20228" fill="white"/>
<circle cx="1368.18" cy="463.002" r="2.20228" fill="white"/>
<circle cx="1593.92" cy="360.962" r="2.20228" fill="white"/>
<circle cx="1980.79" cy="366.468" r="2.20228" fill="white"/>
<circle cx="2092.37" cy="444.282" r="2.20228" fill="white"/>
<circle cx="1159.33" cy="116.142" r="2.20228" fill="white"/>
<circle cx="1270.92" cy="193.956" r="2.20228" fill="white"/>
<circle cx="1446.73" cy="340.775" r="2.20228" fill="white"/>
<circle cx="1758.36" cy="407.945" r="2.20228" fill="white"/>
<circle cx="1869.94" cy="485.759" r="2.20228" fill="white"/>
<circle cx="1809.74" cy="20.3427" r="2.20228" fill="white"/>
<circle cx="1518.31" cy="36.4926" r="2.20228" fill="white"/>
<circle cx="1629.89" cy="114.307" r="2.20228" fill="white"/>
<circle cx="1270.92" cy="61.8187" r="2.20228" fill="white"/>
<circle cx="1173.65" cy="248.279" r="2.20228" fill="white"/>
<circle cx="1285.23" cy="326.093" r="2.20228" fill="white"/>
<circle cx="1117.86" cy="504.845" r="2.20228" fill="white"/>
<circle cx="1781.11" cy="262.961" r="2.20228" fill="white"/>
<circle cx="1892.69" cy="340.775" r="2.20228" fill="white"/>
</g>
<path d="M754.58 250C754.207 250 753.857 249.86 753.53 249.58C753.25 249.3 753.11 248.95 753.11 248.53C753.11 248.343 753.157 248.133 753.25 247.9L770.12 202.75C770.26 202.283 770.517 201.887 770.89 201.56C771.31 201.187 771.87 201 772.57 201H780.2C780.9 201 781.437 201.187 781.81 201.56C782.183 201.887 782.463 202.283 782.65 202.75L799.52 247.9C799.567 248.133 799.59 248.343 799.59 248.53C799.59 248.95 799.45 249.3 799.17 249.58C798.89 249.86 798.563 250 798.19 250H792.1C791.447 250 790.957 249.86 790.63 249.58C790.35 249.253 790.163 248.95 790.07 248.67L786.78 240.13H765.99L762.7 248.67C762.607 248.95 762.397 249.253 762.07 249.58C761.79 249.86 761.323 250 760.67 250H754.58ZM768.44 232.08H784.33L776.35 210.45L768.44 232.08ZM823.805 250C823.338 250 822.942 249.837 822.615 249.51C822.288 249.183 822.125 248.787 822.125 248.32V221.02H816.455C815.988 221.02 815.592 220.857 815.265 220.53C814.938 220.203 814.775 219.783 814.775 219.27V215.28C814.775 214.813 814.938 214.417 815.265 214.09C815.592 213.763 815.988 213.6 816.455 213.6H822.125V210.73C822.125 207.93 822.638 205.62 823.665 203.8C824.692 201.933 826.208 200.533 828.215 199.6C830.222 198.667 832.765 198.2 835.845 198.2H840.605C841.118 198.2 841.515 198.363 841.795 198.69C842.122 199.017 842.285 199.413 842.285 199.88V203.87C842.285 204.383 842.122 204.803 841.795 205.13C841.515 205.457 841.118 205.62 840.605 205.62H836.125C834.258 205.62 832.975 206.087 832.275 207.02C831.575 207.953 831.225 209.307 831.225 211.08V213.6H839.905C840.418 213.6 840.815 213.763 841.095 214.09C841.422 214.417 841.585 214.813 841.585 215.28V219.27C841.585 219.783 841.422 220.203 841.095 220.53C840.815 220.857 840.418 221.02 839.905 221.02H831.225V248.32C831.225 248.787 831.062 249.183 830.735 249.51C830.408 249.837 830.012 250 829.545 250H823.805ZM857.281 250.7C854.854 250.7 852.661 250.233 850.701 249.3C848.741 248.32 847.177 247.037 846.011 245.45C844.891 243.817 844.331 241.997 844.331 239.99C844.331 236.723 845.661 234.133 848.321 232.22C850.981 230.26 854.457 228.953 858.751 228.3L868.341 226.9V225.43C868.341 223.47 867.851 221.953 866.871 220.88C865.891 219.807 864.211 219.27 861.831 219.27C860.151 219.27 858.774 219.62 857.701 220.32C856.674 220.973 855.904 221.86 855.391 222.98C855.017 223.587 854.481 223.89 853.781 223.89H848.251C847.737 223.89 847.341 223.75 847.061 223.47C846.827 223.19 846.711 222.817 846.711 222.35C846.757 221.603 847.061 220.693 847.621 219.62C848.227 218.547 849.114 217.52 850.281 216.54C851.494 215.513 853.057 214.65 854.971 213.95C856.884 213.25 859.194 212.9 861.901 212.9C864.841 212.9 867.314 213.273 869.321 214.02C871.374 214.72 873.007 215.677 874.221 216.89C875.434 218.103 876.321 219.527 876.881 221.16C877.441 222.793 877.721 224.52 877.721 226.34V248.32C877.721 248.787 877.557 249.183 877.231 249.51C876.904 249.837 876.507 250 876.041 250H870.371C869.857 250 869.437 249.837 869.111 249.51C868.831 249.183 868.691 248.787 868.691 248.32V245.59C868.084 246.43 867.267 247.247 866.241 248.04C865.214 248.833 863.954 249.487 862.461 250C861.014 250.467 859.287 250.7 857.281 250.7ZM859.661 244.05C861.294 244.05 862.764 243.7 864.071 243C865.424 242.3 866.474 241.227 867.221 239.78C868.014 238.287 868.411 236.42 868.411 234.18V232.71L861.411 233.83C858.657 234.25 856.604 234.927 855.251 235.86C853.897 236.793 853.221 237.937 853.221 239.29C853.221 240.317 853.524 241.203 854.131 241.95C854.784 242.65 855.601 243.187 856.581 243.56C857.561 243.887 858.587 244.05 859.661 244.05ZM888.381 250C887.914 250 887.518 249.837 887.191 249.51C886.864 249.183 886.701 248.787 886.701 248.32V215.28C886.701 214.813 886.864 214.417 887.191 214.09C887.518 213.763 887.914 213.6 888.381 213.6H894.121C894.588 213.6 894.984 213.763 895.311 214.09C895.638 214.417 895.801 214.813 895.801 215.28V218.15C897.014 216.657 898.554 215.42 900.421 214.44C902.334 213.413 904.691 212.9 907.491 212.9C910.338 212.9 912.811 213.553 914.911 214.86C917.011 216.12 918.621 217.917 919.741 220.25C920.908 222.583 921.491 225.383 921.491 228.65V248.32C921.491 248.787 921.328 249.183 921.001 249.51C920.674 249.837 920.278 250 919.811 250H913.651C913.184 250 912.788 249.837 912.461 249.51C912.134 249.183 911.971 248.787 911.971 248.32V229.07C911.971 226.363 911.294 224.24 909.941 222.7C908.634 221.16 906.721 220.39 904.201 220.39C901.774 220.39 899.838 221.16 898.391 222.7C896.944 224.24 896.221 226.363 896.221 229.07V248.32C896.221 248.787 896.058 249.183 895.731 249.51C895.404 249.837 895.008 250 894.541 250H888.381ZM946.423 250C943.623 250 941.266 249.51 939.353 248.53C937.439 247.55 936.016 246.103 935.083 244.19C934.149 242.23 933.683 239.803 933.683 236.91V221.02H928.153C927.686 221.02 927.289 220.857 926.963 220.53C926.636 220.203 926.473 219.783 926.473 219.27V215.28C926.473 214.813 926.636 214.417 926.963 214.09C927.289 213.763 927.686 213.6 928.153 213.6H933.683V201.98C933.683 201.513 933.823 201.117 934.103 200.79C934.429 200.463 934.849 200.3 935.363 200.3H941.033C941.499 200.3 941.896 200.463 942.223 200.79C942.549 201.117 942.713 201.513 942.713 201.98V213.6H951.463C951.929 213.6 952.326 213.763 952.653 214.09C952.979 214.417 953.143 214.813 953.143 215.28V219.27C953.143 219.783 952.979 220.203 952.653 220.53C952.326 220.857 951.929 221.02 951.463 221.02H942.713V236.21C942.713 238.123 943.039 239.617 943.693 240.69C944.393 241.763 945.583 242.3 947.263 242.3H952.093C952.559 242.3 952.956 242.463 953.283 242.79C953.609 243.117 953.773 243.513 953.773 243.98V248.32C953.773 248.787 953.609 249.183 953.283 249.51C952.956 249.837 952.559 250 952.093 250H946.423ZM970.552 250.7C968.126 250.7 965.932 250.233 963.972 249.3C962.012 248.32 960.449 247.037 959.282 245.45C958.162 243.817 957.602 241.997 957.602 239.99C957.602 236.723 958.932 234.133 961.592 232.22C964.252 230.26 967.729 228.953 972.022 228.3L981.612 226.9V225.43C981.612 223.47 981.122 221.953 980.142 220.88C979.162 219.807 977.482 219.27 975.102 219.27C973.422 219.27 972.046 219.62 970.972 220.32C969.946 220.973 969.176 221.86 968.662 222.98C968.289 223.587 967.752 223.89 967.052 223.89H961.522C961.009 223.89 960.612 223.75 960.332 223.47C960.099 223.19 959.982 222.817 959.982 222.35C960.029 221.603 960.332 220.693 960.892 219.62C961.499 218.547 962.386 217.52 963.552 216.54C964.766 215.513 966.329 214.65 968.242 213.95C970.156 213.25 972.466 212.9 975.172 212.9C978.112 212.9 980.586 213.273 982.592 214.02C984.646 214.72 986.279 215.677 987.492 216.89C988.706 218.103 989.592 219.527 990.152 221.16C990.712 222.793 990.992 224.52 990.992 226.34V248.32C990.992 248.787 990.829 249.183 990.502 249.51C990.176 249.837 989.779 250 989.312 250H983.642C983.129 250 982.709 249.837 982.382 249.51C982.102 249.183 981.962 248.787 981.962 248.32V245.59C981.356 246.43 980.539 247.247 979.512 248.04C978.486 248.833 977.226 249.487 975.732 250C974.286 250.467 972.559 250.7 970.552 250.7ZM972.932 244.05C974.566 244.05 976.036 243.7 977.342 243C978.696 242.3 979.746 241.227 980.492 239.78C981.286 238.287 981.682 236.42 981.682 234.18V232.71L974.682 233.83C971.929 234.25 969.876 234.927 968.522 235.86C967.169 236.793 966.492 237.937 966.492 239.29C966.492 240.317 966.796 241.203 967.402 241.95C968.056 242.65 968.872 243.187 969.852 243.56C970.832 243.887 971.859 244.05 972.932 244.05ZM1013.76 250.7C1010.96 250.7 1008.56 250.373 1006.55 249.72C1004.59 249.067 1002.98 248.25 1001.72 247.27C1000.46 246.29 999.529 245.31 998.923 244.33C998.316 243.35 997.989 242.533 997.943 241.88C997.896 241.367 998.036 240.97 998.363 240.69C998.736 240.363 999.133 240.2 999.553 240.2H1005.08C1005.27 240.2 1005.43 240.223 1005.57 240.27C1005.71 240.317 1005.9 240.457 1006.13 240.69C1006.74 241.203 1007.37 241.74 1008.02 242.3C1008.72 242.86 1009.54 243.35 1010.47 243.77C1011.41 244.143 1012.57 244.33 1013.97 244.33C1015.79 244.33 1017.31 243.98 1018.52 243.28C1019.78 242.533 1020.41 241.483 1020.41 240.13C1020.41 239.15 1020.13 238.357 1019.57 237.75C1019.06 237.143 1018.08 236.607 1016.63 236.14C1015.19 235.627 1013.13 235.09 1010.47 234.53C1007.86 233.923 1005.69 233.153 1003.96 232.22C1002.24 231.287 1000.95 230.12 1000.11 228.72C999.273 227.32 998.853 225.687 998.853 223.82C998.853 222 999.389 220.273 1000.46 218.64C1001.58 216.96 1003.22 215.583 1005.36 214.51C1007.56 213.437 1010.26 212.9 1013.48 212.9C1016 212.9 1018.2 213.227 1020.06 213.88C1021.93 214.487 1023.47 215.257 1024.68 216.19C1025.94 217.123 1026.9 218.08 1027.55 219.06C1028.21 219.993 1028.56 220.81 1028.6 221.51C1028.65 222.023 1028.51 222.443 1028.18 222.77C1027.86 223.05 1027.48 223.19 1027.06 223.19H1021.88C1021.65 223.19 1021.44 223.143 1021.25 223.05C1021.07 222.957 1020.88 222.84 1020.69 222.7C1020.18 222.233 1019.62 221.743 1019.01 221.23C1018.41 220.67 1017.66 220.203 1016.77 219.83C1015.93 219.457 1014.81 219.27 1013.41 219.27C1011.64 219.27 1010.29 219.667 1009.35 220.46C1008.42 221.207 1007.95 222.163 1007.95 223.33C1007.95 224.123 1008.16 224.823 1008.58 225.43C1009.05 225.99 1009.96 226.527 1011.31 227.04C1012.67 227.553 1014.72 228.09 1017.47 228.65C1020.6 229.21 1023.07 230.05 1024.89 231.17C1026.76 232.243 1028.07 233.503 1028.81 234.95C1029.61 236.35 1030 237.913 1030 239.64C1030 241.74 1029.37 243.63 1028.11 245.31C1026.9 246.99 1025.08 248.32 1022.65 249.3C1020.27 250.233 1017.31 250.7 1013.76 250.7ZM1042.44 263.3C1042.07 263.3 1041.74 263.16 1041.46 262.88C1041.18 262.6 1041.04 262.273 1041.04 261.9C1041.04 261.713 1041.04 261.527 1041.04 261.34C1041.09 261.2 1041.18 261.013 1041.32 260.78L1046.78 247.83L1033.34 216.12C1033.15 215.653 1033.06 215.327 1033.06 215.14C1033.11 214.72 1033.27 214.37 1033.55 214.09C1033.83 213.763 1034.18 213.6 1034.6 213.6H1040.27C1040.83 213.6 1041.25 213.74 1041.53 214.02C1041.81 214.3 1042.02 214.603 1042.16 214.93L1051.47 237.82L1061.06 214.93C1061.2 214.557 1061.41 214.253 1061.69 214.02C1061.97 213.74 1062.39 213.6 1062.95 213.6H1068.55C1068.92 213.6 1069.25 213.74 1069.53 214.02C1069.86 214.3 1070.02 214.627 1070.02 215C1070.02 215.28 1069.93 215.653 1069.74 216.12L1049.93 261.97C1049.74 262.343 1049.51 262.647 1049.23 262.88C1048.95 263.16 1048.53 263.3 1047.97 263.3H1042.44ZM1091.89 250C1091.42 250 1091.02 249.837 1090.7 249.51C1090.37 249.183 1090.21 248.787 1090.21 248.32V215.28C1090.21 214.813 1090.37 214.417 1090.7 214.09C1091.02 213.763 1091.42 213.6 1091.89 213.6H1097.7C1098.21 213.6 1098.61 213.763 1098.89 214.09C1099.21 214.417 1099.38 214.813 1099.38 215.28V248.32C1099.38 248.787 1099.21 249.183 1098.89 249.51C1098.61 249.837 1098.21 250 1097.7 250H1091.89ZM1091.61 207.58C1091.14 207.58 1090.74 207.417 1090.42 207.09C1090.09 206.763 1089.93 206.367 1089.93 205.9V200.86C1089.93 200.393 1090.09 199.997 1090.42 199.67C1090.74 199.343 1091.14 199.18 1091.61 199.18H1097.98C1098.49 199.18 1098.91 199.343 1099.24 199.67C1099.56 199.997 1099.73 200.393 1099.73 200.86V205.9C1099.73 206.367 1099.56 206.763 1099.24 207.09C1098.91 207.417 1098.49 207.58 1097.98 207.58H1091.61ZM1110.34 250C1109.88 250 1109.48 249.837 1109.15 249.51C1108.83 249.183 1108.66 248.787 1108.66 248.32V215.28C1108.66 214.813 1108.83 214.417 1109.15 214.09C1109.48 213.763 1109.88 213.6 1110.34 213.6H1116.08C1116.55 213.6 1116.95 213.763 1117.27 214.09C1117.6 214.417 1117.76 214.813 1117.76 215.28V218.15C1118.98 216.657 1120.52 215.42 1122.38 214.44C1124.3 213.413 1126.65 212.9 1129.45 212.9C1132.3 212.9 1134.77 213.553 1136.87 214.86C1138.97 216.12 1140.58 217.917 1141.7 220.25C1142.87 222.583 1143.45 225.383 1143.45 228.65V248.32C1143.45 248.787 1143.29 249.183 1142.96 249.51C1142.64 249.837 1142.24 250 1141.77 250H1135.61C1135.15 250 1134.75 249.837 1134.42 249.51C1134.1 249.183 1133.93 248.787 1133.93 248.32V229.07C1133.93 226.363 1133.26 224.24 1131.9 222.7C1130.6 221.16 1128.68 220.39 1126.16 220.39C1123.74 220.39 1121.8 221.16 1120.35 222.7C1118.91 224.24 1118.18 226.363 1118.18 229.07V248.32C1118.18 248.787 1118.02 249.183 1117.69 249.51C1117.37 249.837 1116.97 250 1116.5 250H1110.34ZM1168.39 250C1165.59 250 1163.23 249.51 1161.32 248.53C1159.4 247.55 1157.98 246.103 1157.05 244.19C1156.11 242.23 1155.65 239.803 1155.65 236.91V221.02H1150.12C1149.65 221.02 1149.25 220.857 1148.93 220.53C1148.6 220.203 1148.44 219.783 1148.44 219.27V215.28C1148.44 214.813 1148.6 214.417 1148.93 214.09C1149.25 213.763 1149.65 213.6 1150.12 213.6H1155.65V201.98C1155.65 201.513 1155.79 201.117 1156.07 200.79C1156.39 200.463 1156.81 200.3 1157.33 200.3H1163C1163.46 200.3 1163.86 200.463 1164.19 200.79C1164.51 201.117 1164.68 201.513 1164.68 201.98V213.6H1173.43C1173.89 213.6 1174.29 213.763 1174.62 214.09C1174.94 214.417 1175.11 214.813 1175.11 215.28V219.27C1175.11 219.783 1174.94 220.203 1174.62 220.53C1174.29 220.857 1173.89 221.02 1173.43 221.02H1164.68V236.21C1164.68 238.123 1165 239.617 1165.66 240.69C1166.36 241.763 1167.55 242.3 1169.23 242.3H1174.06C1174.52 242.3 1174.92 242.463 1175.25 242.79C1175.57 243.117 1175.74 243.513 1175.74 243.98V248.32C1175.74 248.787 1175.57 249.183 1175.25 249.51C1174.92 249.837 1174.52 250 1174.06 250H1168.39ZM1197.63 250.7C1192.45 250.7 1188.34 249.207 1185.31 246.22C1182.27 243.233 1180.64 238.987 1180.41 233.48C1180.36 233.013 1180.34 232.43 1180.34 231.73C1180.34 230.983 1180.36 230.4 1180.41 229.98C1180.59 226.433 1181.39 223.4 1182.79 220.88C1184.23 218.313 1186.22 216.353 1188.74 215C1191.26 213.6 1194.22 212.9 1197.63 212.9C1201.41 212.9 1204.58 213.693 1207.15 215.28C1209.71 216.82 1211.65 218.99 1212.96 221.79C1214.26 224.543 1214.92 227.74 1214.92 231.38V232.85C1214.92 233.317 1214.75 233.713 1214.43 234.04C1214.1 234.367 1213.68 234.53 1213.17 234.53H1189.93C1189.93 234.53 1189.93 234.6 1189.93 234.74C1189.93 234.88 1189.93 234.997 1189.93 235.09C1189.97 236.723 1190.28 238.24 1190.84 239.64C1191.44 240.993 1192.31 242.09 1193.43 242.93C1194.59 243.77 1195.97 244.19 1197.56 244.19C1198.86 244.19 1199.96 244.003 1200.85 243.63C1201.73 243.21 1202.46 242.743 1203.02 242.23C1203.58 241.717 1203.97 241.297 1204.21 240.97C1204.63 240.41 1204.95 240.083 1205.19 239.99C1205.47 239.85 1205.86 239.78 1206.38 239.78H1212.4C1212.86 239.78 1213.24 239.92 1213.52 240.2C1213.84 240.48 1213.98 240.83 1213.94 241.25C1213.89 241.997 1213.49 242.907 1212.75 243.98C1212.05 245.053 1211.02 246.103 1209.67 247.13C1208.31 248.157 1206.61 249.02 1204.56 249.72C1202.55 250.373 1200.24 250.7 1197.63 250.7ZM1189.93 228.65H1205.4V228.44C1205.4 226.62 1205.09 225.033 1204.49 223.68C1203.88 222.28 1202.99 221.207 1201.83 220.46C1200.66 219.667 1199.26 219.27 1197.63 219.27C1195.99 219.27 1194.59 219.667 1193.43 220.46C1192.26 221.207 1191.37 222.28 1190.77 223.68C1190.21 225.033 1189.93 226.62 1189.93 228.44V228.65ZM1224.03 250C1223.56 250 1223.16 249.837 1222.84 249.51C1222.51 249.183 1222.35 248.787 1222.35 248.32V215.35C1222.35 214.837 1222.51 214.417 1222.84 214.09C1223.16 213.763 1223.56 213.6 1224.03 213.6H1229.7C1230.16 213.6 1230.56 213.763 1230.89 214.09C1231.26 214.417 1231.45 214.837 1231.45 215.35V218.22C1232.52 216.727 1233.9 215.583 1235.58 214.79C1237.3 213.997 1239.29 213.6 1241.53 213.6H1244.4C1244.91 213.6 1245.31 213.763 1245.59 214.09C1245.91 214.417 1246.08 214.813 1246.08 215.28V220.32C1246.08 220.787 1245.91 221.183 1245.59 221.51C1245.31 221.837 1244.91 222 1244.4 222H1238.94C1236.7 222 1234.95 222.63 1233.69 223.89C1232.47 225.103 1231.87 226.83 1231.87 229.07V248.32C1231.87 248.787 1231.7 249.183 1231.38 249.51C1231.05 249.837 1230.63 250 1230.12 250H1224.03ZM1253.22 250C1252.75 250 1252.35 249.837 1252.03 249.51C1251.7 249.183 1251.54 248.787 1251.54 248.32V215.28C1251.54 214.813 1251.7 214.417 1252.03 214.09C1252.35 213.763 1252.75 213.6 1253.22 213.6H1258.96C1259.42 213.6 1259.82 213.763 1260.15 214.09C1260.47 214.417 1260.64 214.813 1260.64 215.28V218.15C1261.85 216.657 1263.39 215.42 1265.26 214.44C1267.17 213.413 1269.53 212.9 1272.33 212.9C1275.17 212.9 1277.65 213.553 1279.75 214.86C1281.85 216.12 1283.46 217.917 1284.58 220.25C1285.74 222.583 1286.33 225.383 1286.33 228.65V248.32C1286.33 248.787 1286.16 249.183 1285.84 249.51C1285.51 249.837 1285.11 250 1284.65 250H1278.49C1278.02 250 1277.62 249.837 1277.3 249.51C1276.97 249.183 1276.81 248.787 1276.81 248.32V229.07C1276.81 226.363 1276.13 224.24 1274.78 222.7C1273.47 221.16 1271.56 220.39 1269.04 220.39C1266.61 220.39 1264.67 221.16 1263.23 222.7C1261.78 224.24 1261.06 226.363 1261.06 229.07V248.32C1261.06 248.787 1260.89 249.183 1260.57 249.51C1260.24 249.837 1259.84 250 1259.38 250H1253.22ZM1310.9 250.7C1305.72 250.7 1301.61 249.207 1298.58 246.22C1295.54 243.233 1293.91 238.987 1293.68 233.48C1293.63 233.013 1293.61 232.43 1293.61 231.73C1293.61 230.983 1293.63 230.4 1293.68 229.98C1293.86 226.433 1294.66 223.4 1296.06 220.88C1297.5 218.313 1299.49 216.353 1302.01 215C1304.53 213.6 1307.49 212.9 1310.9 212.9C1314.68 212.9 1317.85 213.693 1320.42 215.28C1322.98 216.82 1324.92 218.99 1326.23 221.79C1327.53 224.543 1328.19 227.74 1328.19 231.38V232.85C1328.19 233.317 1328.02 233.713 1327.7 234.04C1327.37 234.367 1326.95 234.53 1326.44 234.53H1303.2C1303.2 234.53 1303.2 234.6 1303.2 234.74C1303.2 234.88 1303.2 234.997 1303.2 235.09C1303.24 236.723 1303.55 238.24 1304.11 239.64C1304.71 240.993 1305.58 242.09 1306.7 242.93C1307.86 243.77 1309.24 244.19 1310.83 244.19C1312.13 244.19 1313.23 244.003 1314.12 243.63C1315 243.21 1315.73 242.743 1316.29 242.23C1316.85 241.717 1317.24 241.297 1317.48 240.97C1317.9 240.41 1318.22 240.083 1318.46 239.99C1318.74 239.85 1319.13 239.78 1319.65 239.78H1325.67C1326.13 239.78 1326.51 239.92 1326.79 240.2C1327.11 240.48 1327.25 240.83 1327.21 241.25C1327.16 241.997 1326.76 242.907 1326.02 243.98C1325.32 245.053 1324.29 246.103 1322.94 247.13C1321.58 248.157 1319.88 249.02 1317.83 249.72C1315.82 250.373 1313.51 250.7 1310.9 250.7ZM1303.2 228.65H1318.67V228.44C1318.67 226.62 1318.36 225.033 1317.76 223.68C1317.15 222.28 1316.26 221.207 1315.1 220.46C1313.93 219.667 1312.53 219.27 1310.9 219.27C1309.26 219.27 1307.86 219.667 1306.7 220.46C1305.53 221.207 1304.64 222.28 1304.04 223.68C1303.48 225.033 1303.2 226.62 1303.2 228.44V228.65ZM1351.93 250C1349.13 250 1346.77 249.51 1344.86 248.53C1342.95 247.55 1341.52 246.103 1340.59 244.19C1339.66 242.23 1339.19 239.803 1339.19 236.91V221.02H1333.66C1333.19 221.02 1332.8 220.857 1332.47 220.53C1332.14 220.203 1331.98 219.783 1331.98 219.27V215.28C1331.98 214.813 1332.14 214.417 1332.47 214.09C1332.8 213.763 1333.19 213.6 1333.66 213.6H1339.19V201.98C1339.19 201.513 1339.33 201.117 1339.61 200.79C1339.94 200.463 1340.36 200.3 1340.87 200.3H1346.54C1347.01 200.3 1347.4 200.463 1347.73 200.79C1348.06 201.117 1348.22 201.513 1348.22 201.98V213.6H1356.97C1357.44 213.6 1357.83 213.763 1358.16 214.09C1358.49 214.417 1358.65 214.813 1358.65 215.28V219.27C1358.65 219.783 1358.49 220.203 1358.16 220.53C1357.83 220.857 1357.44 221.02 1356.97 221.02H1348.22V236.21C1348.22 238.123 1348.55 239.617 1349.2 240.69C1349.9 241.763 1351.09 242.3 1352.77 242.3H1357.6C1358.07 242.3 1358.46 242.463 1358.79 242.79C1359.12 243.117 1359.28 243.513 1359.28 243.98V248.32C1359.28 248.787 1359.12 249.183 1358.79 249.51C1358.46 249.837 1358.07 250 1357.6 250H1351.93ZM914.334 333.7C911.534 333.7 909.13 333.373 907.124 332.72C905.164 332.067 903.554 331.25 902.294 330.27C901.034 329.29 900.1 328.31 899.494 327.33C898.887 326.35 898.56 325.533 898.514 324.88C898.467 324.367 898.607 323.97 898.934 323.69C899.307 323.363 899.704 323.2 900.124 323.2H905.654C905.84 323.2 906.004 323.223 906.144 323.27C906.284 323.317 906.47 323.457 906.704 323.69C907.31 324.203 907.94 324.74 908.594 325.3C909.294 325.86 910.11 326.35 911.044 326.77C911.977 327.143 913.144 327.33 914.544 327.33C916.364 327.33 917.88 326.98 919.094 326.28C920.354 325.533 920.984 324.483 920.984 323.13C920.984 322.15 920.704 321.357 920.144 320.75C919.63 320.143 918.65 319.607 917.204 319.14C915.757 318.627 913.704 318.09 911.044 317.53C908.43 316.923 906.26 316.153 904.534 315.22C902.807 314.287 901.524 313.12 900.684 311.72C899.844 310.32 899.424 308.687 899.424 306.82C899.424 305 899.96 303.273 901.034 301.64C902.154 299.96 903.787 298.583 905.934 297.51C908.127 296.437 910.834 295.9 914.054 295.9C916.574 295.9 918.767 296.227 920.634 296.88C922.5 297.487 924.04 298.257 925.254 299.19C926.514 300.123 927.47 301.08 928.124 302.06C928.777 302.993 929.127 303.81 929.174 304.51C929.22 305.023 929.08 305.443 928.754 305.77C928.427 306.05 928.054 306.19 927.634 306.19H922.454C922.22 306.19 922.01 306.143 921.824 306.05C921.637 305.957 921.45 305.84 921.264 305.7C920.75 305.233 920.19 304.743 919.584 304.23C918.977 303.67 918.23 303.203 917.344 302.83C916.504 302.457 915.384 302.27 913.984 302.27C912.21 302.27 910.857 302.667 909.924 303.46C908.99 304.207 908.524 305.163 908.524 306.33C908.524 307.123 908.734 307.823 909.154 308.43C909.62 308.99 910.53 309.527 911.884 310.04C913.237 310.553 915.29 311.09 918.044 311.65C921.17 312.21 923.644 313.05 925.464 314.17C927.33 315.243 928.637 316.503 929.384 317.95C930.177 319.35 930.574 320.913 930.574 322.64C930.574 324.74 929.944 326.63 928.684 328.31C927.47 329.99 925.65 331.32 923.224 332.3C920.844 333.233 917.88 333.7 914.334 333.7ZM939.48 333C939.013 333 938.616 332.837 938.29 332.51C937.963 332.183 937.8 331.787 937.8 331.32V298.28C937.8 297.813 937.963 297.417 938.29 297.09C938.616 296.763 939.013 296.6 939.48 296.6H945.29C945.803 296.6 946.2 296.763 946.48 297.09C946.806 297.417 946.97 297.813 946.97 298.28V331.32C946.97 331.787 946.806 332.183 946.48 332.51C946.2 332.837 945.803 333 945.29 333H939.48ZM939.2 290.58C938.733 290.58 938.336 290.417 938.01 290.09C937.683 289.763 937.52 289.367 937.52 288.9V283.86C937.52 283.393 937.683 282.997 938.01 282.67C938.336 282.343 938.733 282.18 939.2 282.18H945.57C946.083 282.18 946.503 282.343 946.83 282.67C947.156 282.997 947.32 283.393 947.32 283.86V288.9C947.32 289.367 947.156 289.763 946.83 290.09C946.503 290.417 946.083 290.58 945.57 290.58H939.2ZM957.937 333C957.47 333 957.073 332.837 956.747 332.51C956.42 332.183 956.257 331.787 956.257 331.32V298.28C956.257 297.813 956.42 297.417 956.747 297.09C957.073 296.763 957.47 296.6 957.937 296.6H963.397C963.863 296.6 964.26 296.763 964.587 297.09C964.913 297.417 965.077 297.813 965.077 298.28V300.66C966.057 299.353 967.363 298.257 968.997 297.37C970.677 296.437 972.66 295.947 974.947 295.9C980.267 295.807 983.977 297.883 986.077 302.13C987.15 300.263 988.69 298.77 990.697 297.65C992.75 296.483 995.013 295.9 997.487 295.9C999.913 295.9 1002.11 296.46 1004.07 297.58C1006.07 298.7 1007.64 300.403 1008.76 302.69C1009.92 304.93 1010.51 307.777 1010.51 311.23V331.32C1010.51 331.787 1010.34 332.183 1010.02 332.51C1009.69 332.837 1009.29 333 1008.83 333H1003.09C1002.62 333 1002.22 332.837 1001.9 332.51C1001.57 332.183 1001.41 331.787 1001.41 331.32V311.79C1001.41 309.69 1001.1 308.033 1000.5 306.82C999.89 305.56 999.073 304.673 998.047 304.16C997.02 303.647 995.877 303.39 994.617 303.39C993.59 303.39 992.563 303.647 991.537 304.16C990.51 304.673 989.67 305.56 989.017 306.82C988.363 308.033 988.037 309.69 988.037 311.79V331.32C988.037 331.787 987.873 332.183 987.547 332.51C987.22 332.837 986.823 333 986.357 333H980.617C980.15 333 979.753 332.837 979.427 332.51C979.1 332.183 978.937 331.787 978.937 331.32V311.79C978.937 309.69 978.61 308.033 977.957 306.82C977.303 305.56 976.463 304.673 975.437 304.16C974.41 303.647 973.313 303.39 972.147 303.39C971.073 303.39 970.023 303.67 968.997 304.23C967.97 304.743 967.13 305.607 966.477 306.82C965.823 308.033 965.497 309.69 965.497 311.79V331.32C965.497 331.787 965.333 332.183 965.007 332.51C964.68 332.837 964.283 333 963.817 333H957.937ZM1032.93 333.7C1030.08 333.7 1027.61 333.07 1025.51 331.81C1023.46 330.503 1021.87 328.683 1020.75 326.35C1019.63 323.97 1019.07 321.17 1019.07 317.95V298.28C1019.07 297.813 1019.23 297.417 1019.56 297.09C1019.89 296.763 1020.28 296.6 1020.75 296.6H1026.91C1027.42 296.6 1027.82 296.763 1028.1 297.09C1028.43 297.417 1028.59 297.813 1028.59 298.28V317.53C1028.59 323.317 1031.13 326.21 1036.22 326.21C1038.65 326.21 1040.56 325.44 1041.96 323.9C1043.41 322.36 1044.13 320.237 1044.13 317.53V298.28C1044.13 297.813 1044.29 297.417 1044.62 297.09C1044.95 296.763 1045.34 296.6 1045.81 296.6H1051.97C1052.44 296.6 1052.83 296.763 1053.16 297.09C1053.49 297.417 1053.65 297.813 1053.65 298.28V331.32C1053.65 331.787 1053.49 332.183 1053.16 332.51C1052.83 332.837 1052.44 333 1051.97 333H1046.3C1045.79 333 1045.37 332.837 1045.04 332.51C1044.76 332.183 1044.62 331.787 1044.62 331.32V328.45C1043.36 330.083 1041.8 331.367 1039.93 332.3C1038.06 333.233 1035.73 333.7 1032.93 333.7ZM1064.65 333C1064.18 333 1063.78 332.837 1063.46 332.51C1063.13 332.183 1062.97 331.787 1062.97 331.32V284.98C1062.97 284.513 1063.13 284.117 1063.46 283.79C1063.78 283.463 1064.18 283.3 1064.65 283.3H1070.46C1070.92 283.3 1071.32 283.463 1071.65 283.79C1071.97 284.117 1072.14 284.513 1072.14 284.98V331.32C1072.14 331.787 1071.97 332.183 1071.65 332.51C1071.32 332.837 1070.92 333 1070.46 333H1064.65ZM1091.99 333.7C1089.57 333.7 1087.37 333.233 1085.41 332.3C1083.45 331.32 1081.89 330.037 1080.72 328.45C1079.6 326.817 1079.04 324.997 1079.04 322.99C1079.04 319.723 1080.37 317.133 1083.03 315.22C1085.69 313.26 1089.17 311.953 1093.46 311.3L1103.05 309.9V308.43C1103.05 306.47 1102.56 304.953 1101.58 303.88C1100.6 302.807 1098.92 302.27 1096.54 302.27C1094.86 302.27 1093.49 302.62 1092.41 303.32C1091.39 303.973 1090.62 304.86 1090.1 305.98C1089.73 306.587 1089.19 306.89 1088.49 306.89H1082.96C1082.45 306.89 1082.05 306.75 1081.77 306.47C1081.54 306.19 1081.42 305.817 1081.42 305.35C1081.47 304.603 1081.77 303.693 1082.33 302.62C1082.94 301.547 1083.83 300.52 1084.99 299.54C1086.21 298.513 1087.77 297.65 1089.68 296.95C1091.6 296.25 1093.91 295.9 1096.61 295.9C1099.55 295.9 1102.03 296.273 1104.03 297.02C1106.09 297.72 1107.72 298.677 1108.93 299.89C1110.15 301.103 1111.03 302.527 1111.59 304.16C1112.15 305.793 1112.43 307.52 1112.43 309.34V331.32C1112.43 331.787 1112.27 332.183 1111.94 332.51C1111.62 332.837 1111.22 333 1110.75 333H1105.08C1104.57 333 1104.15 332.837 1103.82 332.51C1103.54 332.183 1103.4 331.787 1103.4 331.32V328.59C1102.8 329.43 1101.98 330.247 1100.95 331.04C1099.93 331.833 1098.67 332.487 1097.17 333C1095.73 333.467 1094 333.7 1091.99 333.7ZM1094.37 327.05C1096.01 327.05 1097.48 326.7 1098.78 326C1100.14 325.3 1101.19 324.227 1101.93 322.78C1102.73 321.287 1103.12 319.42 1103.12 317.18V315.71L1096.12 316.83C1093.37 317.25 1091.32 317.927 1089.96 318.86C1088.61 319.793 1087.93 320.937 1087.93 322.29C1087.93 323.317 1088.24 324.203 1088.84 324.95C1089.5 325.65 1090.31 326.187 1091.29 326.56C1092.27 326.887 1093.3 327.05 1094.37 327.05ZM1137.52 333C1134.72 333 1132.36 332.51 1130.45 331.53C1128.54 330.55 1127.11 329.103 1126.18 327.19C1125.25 325.23 1124.78 322.803 1124.78 319.91V304.02H1119.25C1118.78 304.02 1118.39 303.857 1118.06 303.53C1117.73 303.203 1117.57 302.783 1117.57 302.27V298.28C1117.57 297.813 1117.73 297.417 1118.06 297.09C1118.39 296.763 1118.78 296.6 1119.25 296.6H1124.78V284.98C1124.78 284.513 1124.92 284.117 1125.2 283.79C1125.53 283.463 1125.95 283.3 1126.46 283.3H1132.13C1132.6 283.3 1132.99 283.463 1133.32 283.79C1133.65 284.117 1133.81 284.513 1133.81 284.98V296.6H1142.56C1143.03 296.6 1143.42 296.763 1143.75 297.09C1144.08 297.417 1144.24 297.813 1144.24 298.28V302.27C1144.24 302.783 1144.08 303.203 1143.75 303.53C1143.42 303.857 1143.03 304.02 1142.56 304.02H1133.81V319.21C1133.81 321.123 1134.14 322.617 1134.79 323.69C1135.49 324.763 1136.68 325.3 1138.36 325.3H1143.19C1143.66 325.3 1144.05 325.463 1144.38 325.79C1144.71 326.117 1144.87 326.513 1144.87 326.98V331.32C1144.87 331.787 1144.71 332.183 1144.38 332.51C1144.05 332.837 1143.66 333 1143.19 333H1137.52ZM1167.18 333.7C1163.45 333.7 1160.3 333.047 1157.73 331.74C1155.21 330.433 1153.27 328.59 1151.92 326.21C1150.61 323.83 1149.87 321.053 1149.68 317.88C1149.63 317.04 1149.61 316.013 1149.61 314.8C1149.61 313.587 1149.63 312.56 1149.68 311.72C1149.87 308.5 1150.64 305.723 1151.99 303.39C1153.39 301.01 1155.35 299.167 1157.87 297.86C1160.44 296.553 1163.54 295.9 1167.18 295.9C1170.82 295.9 1173.9 296.553 1176.42 297.86C1178.99 299.167 1180.95 301.01 1182.3 303.39C1183.7 305.723 1184.49 308.5 1184.68 311.72C1184.73 312.56 1184.75 313.587 1184.75 314.8C1184.75 316.013 1184.73 317.04 1184.68 317.88C1184.49 321.053 1183.72 323.83 1182.37 326.21C1181.06 328.59 1179.13 330.433 1176.56 331.74C1174.04 333.047 1170.91 333.7 1167.18 333.7ZM1167.18 326.77C1169.65 326.77 1171.57 326 1172.92 324.46C1174.27 322.873 1175.02 320.563 1175.16 317.53C1175.21 316.83 1175.23 315.92 1175.23 314.8C1175.23 313.68 1175.21 312.77 1175.16 312.07C1175.02 309.037 1174.27 306.75 1172.92 305.21C1171.57 303.623 1169.65 302.83 1167.18 302.83C1164.71 302.83 1162.79 303.623 1161.44 305.21C1160.09 306.75 1159.34 309.037 1159.2 312.07C1159.15 312.77 1159.13 313.68 1159.13 314.8C1159.13 315.92 1159.15 316.83 1159.2 317.53C1159.34 320.563 1160.09 322.873 1161.44 324.46C1162.79 326 1164.71 326.77 1167.18 326.77ZM1194.19 333C1193.72 333 1193.32 332.837 1193 332.51C1192.67 332.183 1192.51 331.787 1192.51 331.32V298.35C1192.51 297.837 1192.67 297.417 1193 297.09C1193.32 296.763 1193.72 296.6 1194.19 296.6H1199.86C1200.32 296.6 1200.72 296.763 1201.05 297.09C1201.42 297.417 1201.61 297.837 1201.61 298.35V301.22C1202.68 299.727 1204.06 298.583 1205.74 297.79C1207.46 296.997 1209.45 296.6 1211.69 296.6H1214.56C1215.07 296.6 1215.47 296.763 1215.75 297.09C1216.07 297.417 1216.24 297.813 1216.24 298.28V303.32C1216.24 303.787 1216.07 304.183 1215.75 304.51C1215.47 304.837 1215.07 305 1214.56 305H1209.1C1206.86 305 1205.11 305.63 1203.85 306.89C1202.63 308.103 1202.03 309.83 1202.03 312.07V331.32C1202.03 331.787 1201.86 332.183 1201.54 332.51C1201.21 332.837 1200.79 333 1200.28 333H1194.19Z" fill="white"/>
</g>
<defs>
<linearGradient id="paint0_linear_1023_963" x1="1097.5" y1="0" x2="1097" y2="631.5" gradientUnits="userSpaceOnUse">
<stop stop-color="#484B84"/>
<stop offset="1" stop-color="#0C0B36"/>
</linearGradient>
<clipPath id="clip0_1023_963">
<rect width="2103" height="510" fill="white"/>
</clipPath>
<clipPath id="clip1_1023_963">
<rect width="2195" height="675" fill="white" transform="translate(-46 -85)"/>
</clipPath>
</defs>
</svg>
