<svg width="1143" height="1143" viewBox="0 0 1143 1143" fill="none" xmlns="http://www.w3.org/2000/svg">
<g clip-path="url(#clip0_1015_473)">
<path fill-rule="evenodd" clip-rule="evenodd" d="M677.074 -227.58L573.618 566.302L573.586 -235C608.058 -234.758 642.618 -232.314 677.074 -227.58ZM571.969 565.108L466.639 -226.918C432.005 -222.605 398.066 -216.097 364.939 -207.536L571.969 565.108ZM568.306 566.434L81.074 -66.816C53.2365 -45.7638 27.0982 -23.1581 2.69 0.819654L568.306 566.434ZM578.157 567.461L582.607 564.891L1143.84 3.66257C1167.81 28.0706 1190.42 54.209 1211.47 82.0462L587.873 561.851L1270.1 167.969C1287.53 197.614 1303.13 228.456 1316.73 260.369L583.434 565.266L578.221 569.278L581.376 566.122L578.157 567.461ZM578.711 569.049L1352.11 361.817C1361.2 394.874 1368.26 428.781 1373.11 463.391L578.711 569.049ZM566.084 571.569L-225.944 676.898C-221.631 711.532 -215.123 745.471 -206.562 778.599L566.084 571.569ZM-172.762 880.551L566.487 573.207L-127.445 973.883C-144.464 943.913 -159.63 912.758 -172.762 880.551ZM1378.26 570.212H579.276L1372.44 673.547C1376.63 639.112 1378.54 604.602 1378.26 570.212ZM578.963 571.864L1352.36 779.097C1343.71 812.271 1332.87 845.165 1319.76 877.56L578.963 571.864ZM566.767 567.734L-171.814 262.939C-185.396 295.089 -196.729 327.735 -205.879 360.704L566.767 567.734ZM-227.588 465.895L566.295 569.351L-235 569.383C-234.758 534.919 -232.314 500.359 -227.588 465.895ZM1269.84 974.327L577.901 574.836L1213.13 1060.91C1233.98 1033.18 1252.88 1004.25 1269.84 974.327ZM576.803 576.11L1142.97 1142.28C1118.89 1166.68 1093.05 1189.75 1065.5 1211.25L576.803 576.11ZM-68.7037 81.0668L567.089 567.603L-126.873 166.979C-109.427 137.255 -90.0295 108.543 -68.7037 81.0668ZM975.569 1269.12L576.077 577.181L883.169 1315.75C915.083 1302.15 945.924 1286.55 975.569 1269.12ZM574.49 577.736L781.722 1351.14C748.665 1360.23 714.757 1367.29 680.147 1372.13L574.49 577.736ZM262.986 -173.735L570.328 565.511L169.652 -128.415C199.623 -145.441 230.78 -160.604 262.986 -173.735ZM572.762 1378.26V579.278L469.428 1372.44C503.862 1376.63 538.372 1378.54 572.762 1378.26ZM571.11 578.964L363.877 1352.36C330.703 1343.71 297.809 1332.87 265.413 1319.76L571.11 578.964ZM575.241 566.768L880.036 -171.812C847.886 -185.393 815.239 -196.727 782.27 -205.876L575.241 566.768ZM170.327 1270.81L569.819 578.872L83.7461 1214.11C111.476 1234.95 140.407 1253.85 170.327 1270.81ZM568.545 577.774L2.37528 1143.94C-22.0271 1119.86 -45.0939 1094.02 -66.5945 1066.47L568.545 577.774ZM1063.59 -67.7306L577.054 568.06L977.673 -125.899C1007.4 -108.453 1036.11 -89.0556 1063.59 -67.7306Z" fill="white"/>
</g>
<defs>
<clipPath id="clip0_1015_473">
<rect width="1143" height="1143" fill="white"/>
</clipPath>
</defs>
</svg>
