<svg preserveAspectRatio="none" width="219" height="187" viewBox="0 0 219 187" fill="none" xmlns="http://www.w3.org/2000/svg">
<g clip-path="url(#clip0_1068_1121)">
<path fill-rule="evenodd" clip-rule="evenodd" d="M219 0H0V187H219V0ZM21.0153 21.8204C19.3132 22.1301 18.0773 23.5229 17.9339 25.2469C17.1854 34.2407 15 63.1036 15 93.5C15 123.739 17.1628 152.46 17.9221 161.612C18.0707 163.403 19.3834 164.834 21.1591 165.11C30.7589 166.602 62.9992 171 109.5 171C155.997 171 188.235 166.603 197.838 165.11C199.615 164.834 200.928 163.402 201.076 161.609C201.834 152.414 204 123.5 204 93.5C204 63.3451 201.811 34.2872 201.064 25.2497C200.922 23.5243 199.685 22.1298 197.982 21.8199C189.435 20.2649 161.275 16 109.5 16C57.7198 16 29.559 20.2658 21.0153 21.8204Z" fill="#C5C5B9"/>
<path d="M1 186H219L201 163C129.913 176.517 90.0636 176.622 19 163L1 186Z" fill="#B7B7AC"/>
<path d="M1 1H219L201 22C129.553 13.9083 89.7014 13.6532 19 22L1 1Z" fill="#B7B7AC"/>
<g filter="url(#filter0_i_1068_1121)">
<path d="M17.9339 25.2469C18.0773 23.5229 19.3132 22.1301 21.0153 21.8204C29.559 20.2658 57.7198 16 109.5 16C161.275 16 189.435 20.2649 197.982 21.8199C199.685 22.1298 200.922 23.5243 201.064 25.2497C201.811 34.2872 204 63.3451 204 93.5C204 123.5 201.834 152.414 201.076 161.609C200.928 163.402 199.615 164.834 197.838 165.11C188.235 166.603 155.997 171 109.5 171C62.9992 171 30.7589 166.602 21.1591 165.11C19.3834 164.834 18.0707 163.403 17.9221 161.612C17.1628 152.46 15 123.739 15 93.5C15 63.1036 17.1854 34.2407 17.9339 25.2469Z" stroke="url(#paint0_linear_1068_1121)" stroke-width="5"/>
</g>
<path opacity="0.3" d="M31.2062 36.5602C31.4696 35.1534 32.5561 34.125 33.9649 33.8725C41.0472 32.6031 65.0636 29 109.5 29C153.888 29 177.901 32.5953 185.012 33.8684C186.433 34.1227 187.528 35.1642 187.79 36.5835C188.573 40.8183 190 51.5458 190 73.5C190 93.7824 188.782 99.99 187.979 101.878C187.69 102.558 186.926 102.756 186.197 102.873C180.402 103.803 151.915 108 109.5 108C67.5221 108 39.1865 103.889 32.9892 102.902C32.1503 102.769 31.2466 102.529 30.9386 101.737C30.1374 99.6784 29 93.2734 29 73.5C29 51.3889 30.4222 40.7469 31.2062 36.5602Z" fill="url(#paint1_linear_1068_1121)"/>
</g>
<defs>
<filter id="filter0_i_1068_1121" x="12.5" y="13.5" width="194" height="160" filterUnits="userSpaceOnUse" color-interpolation-filters="sRGB">
<feFlood flood-opacity="0" result="BackgroundImageFix"/>
<feBlend mode="normal" in="SourceGraphic" in2="BackgroundImageFix" result="shape"/>
<feColorMatrix in="SourceAlpha" type="matrix" values="0 0 0 0 0 0 0 0 0 0 0 0 0 0 0 0 0 0 127 0" result="hardAlpha"/>
<feOffset/>
<feGaussianBlur stdDeviation="5"/>
<feComposite in2="hardAlpha" operator="arithmetic" k2="-1" k3="1"/>
<feColorMatrix type="matrix" values="0 0 0 0 0 0 0 0 0 0 0 0 0 0 0 0 0 0 1 0"/>
<feBlend mode="normal" in2="shape" result="effect1_innerShadow_1068_1121"/>
</filter>
<linearGradient id="paint0_linear_1068_1121" x1="109.5" y1="16" x2="110" y2="282" gradientUnits="userSpaceOnUse">
<stop stop-color="#F7F3E7"/>
<stop offset="1" stop-color="#AFB0A5"/>
</linearGradient>
<linearGradient id="paint1_linear_1068_1121" x1="109.5" y1="29" x2="110" y2="148" gradientUnits="userSpaceOnUse">
<stop stop-color="white"/>
<stop offset="1" stop-color="white" stop-opacity="0"/>
</linearGradient>
<clipPath id="clip0_1068_1121">
<rect width="219" height="187" rx="2" fill="white"/>
</clipPath>
</defs>
</svg>
