<svg width="65" height="199" viewBox="0 0 65 199" fill="none" xmlns="http://www.w3.org/2000/svg">
<g clip-path="url(#clip0_1068_1247)">
<g filter="url(#filter0_d_1068_1247)">
<rect x="7" y="6" width="51" height="100" rx="3" fill="#C3C5C9" fill-opacity="0.9" shape-rendering="crispEdges"/>
<rect x="7" y="6" width="51" height="100" rx="3" fill="url(#paint0_linear_1068_1247)" fill-opacity="0.1" shape-rendering="crispEdges"/>
<rect x="7" y="6" width="51" height="100" rx="3" fill="url(#paint1_linear_1068_1247)" fill-opacity="0.8" shape-rendering="crispEdges"/>
<rect x="7" y="6" width="51" height="100" rx="3" fill="url(#paint2_linear_1068_1247)" fill-opacity="0.8" shape-rendering="crispEdges"/>
<rect x="7.5" y="6.5" width="50" height="99" rx="2.5" stroke="url(#paint3_angular_1068_1247)" stroke-opacity="0.33" shape-rendering="crispEdges"/>
</g>
<circle opacity="0.6" cx="10.5" cy="117" r="2" fill="black"/>
<circle opacity="0.6" cx="19" cy="117" r="2" fill="black"/>
<circle opacity="0.6" cx="27.5" cy="117" r="2" fill="black"/>
<circle opacity="0.6" cx="36" cy="117" r="2" fill="black"/>
<circle opacity="0.6" cx="44.5" cy="117" r="2" fill="black"/>
<circle opacity="0.6" cx="53" cy="117" r="2" fill="black"/>
<circle opacity="0.6" cx="10.5" cy="125.5" r="2" fill="black"/>
<circle opacity="0.6" cx="19" cy="125.5" r="2" fill="black"/>
<circle opacity="0.6" cx="27.5" cy="125.5" r="2" fill="black"/>
<circle opacity="0.6" cx="36" cy="125.5" r="2" fill="black"/>
<circle opacity="0.6" cx="44.5" cy="125.5" r="2" fill="black"/>
<circle opacity="0.6" cx="53" cy="125.5" r="2" fill="black"/>
<circle opacity="0.6" cx="10.5" cy="134" r="2" fill="black"/>
<circle opacity="0.6" cx="19" cy="134" r="2" fill="black"/>
<circle opacity="0.6" cx="27.5" cy="134" r="2" fill="black"/>
<circle opacity="0.6" cx="36" cy="134" r="2" fill="black"/>
<circle opacity="0.6" cx="44.5" cy="134" r="2" fill="black"/>
<circle opacity="0.6" cx="53" cy="134" r="2" fill="black"/>
<circle opacity="0.6" cx="10.5" cy="142.5" r="2" fill="black"/>
<circle opacity="0.6" cx="19" cy="142.5" r="2" fill="black"/>
<circle opacity="0.6" cx="27.5" cy="142.5" r="2" fill="black"/>
<circle opacity="0.6" cx="36" cy="142.5" r="2" fill="black"/>
<circle opacity="0.6" cx="44.5" cy="142.5" r="2" fill="black"/>
<circle opacity="0.6" cx="53" cy="142.5" r="2" fill="black"/>
<circle opacity="0.6" cx="10.5" cy="151" r="2" fill="black"/>
<circle opacity="0.6" cx="19" cy="151" r="2" fill="black"/>
<circle opacity="0.6" cx="27.5" cy="151" r="2" fill="black"/>
<circle opacity="0.6" cx="36" cy="151" r="2" fill="black"/>
<circle opacity="0.6" cx="44.5" cy="151" r="2" fill="black"/>
<circle opacity="0.6" cx="53" cy="151" r="2" fill="black"/>
<circle opacity="0.6" cx="10.5" cy="159.5" r="2" fill="black"/>
<circle opacity="0.6" cx="19" cy="159.5" r="2" fill="black"/>
<circle opacity="0.6" cx="27.5" cy="159.5" r="2" fill="black"/>
<circle opacity="0.6" cx="36" cy="159.5" r="2" fill="black"/>
<circle opacity="0.6" cx="44.5" cy="159.5" r="2" fill="black"/>
<circle opacity="0.6" cx="53" cy="159.5" r="2" fill="black"/>
<circle opacity="0.6" cx="10.5" cy="168" r="2" fill="black"/>
<circle opacity="0.6" cx="19" cy="168" r="2" fill="black"/>
<circle opacity="0.6" cx="27.5" cy="168" r="2" fill="black"/>
<circle opacity="0.6" cx="36" cy="168" r="2" fill="black"/>
<circle opacity="0.6" cx="44.5" cy="168" r="2" fill="black"/>
<circle opacity="0.6" cx="53" cy="168" r="2" fill="black"/>
<g filter="url(#filter1_d_1068_1247)">
<mask id="path-45-inside-1_1068_1247" fill="white">
<path d="M15.0802 178.9H17.8102V188.455L11.8952 183.879V188H9.1652V178.445L15.0802 183.021V178.9ZM23.0061 178.9H25.8661V188H23.0061V178.9ZM24.8521 181.175V178.9H26.5811C27.4738 178.9 28.1975 179.026 28.7521 179.277C29.3155 179.528 29.7271 179.888 29.9871 180.356C30.2558 180.815 30.3901 181.37 30.3901 182.02C30.3901 182.661 30.2558 183.216 29.9871 183.684C29.7271 184.152 29.3155 184.512 28.7521 184.763C28.1975 185.014 27.4738 185.14 26.5811 185.14H24.8521V182.865H26.5811C26.9365 182.865 27.2051 182.791 27.3871 182.644C27.5691 182.497 27.6601 182.289 27.6601 182.02C27.6601 181.751 27.5691 181.543 27.3871 181.396C27.2051 181.249 26.9365 181.175 26.5811 181.175H24.8521ZM33.7662 181.435V178.9H41.8262V181.435H39.2262V188H36.3662V181.435H33.7662ZM50.6712 183.346L52.4263 178.9H55.8063L50.6712 188.65L45.5362 178.9H48.9163L50.6712 183.346Z"/>
</mask>
<path d="M15.0802 178.9H17.8102V188.455L11.8952 183.879V188H9.1652V178.445L15.0802 183.021V178.9ZM23.0061 178.9H25.8661V188H23.0061V178.9ZM24.8521 181.175V178.9H26.5811C27.4738 178.9 28.1975 179.026 28.7521 179.277C29.3155 179.528 29.7271 179.888 29.9871 180.356C30.2558 180.815 30.3901 181.37 30.3901 182.02C30.3901 182.661 30.2558 183.216 29.9871 183.684C29.7271 184.152 29.3155 184.512 28.7521 184.763C28.1975 185.014 27.4738 185.14 26.5811 185.14H24.8521V182.865H26.5811C26.9365 182.865 27.2051 182.791 27.3871 182.644C27.5691 182.497 27.6601 182.289 27.6601 182.02C27.6601 181.751 27.5691 181.543 27.3871 181.396C27.2051 181.249 26.9365 181.175 26.5811 181.175H24.8521ZM33.7662 181.435V178.9H41.8262V181.435H39.2262V188H36.3662V181.435H33.7662ZM50.6712 183.346L52.4263 178.9H55.8063L50.6712 188.65L45.5362 178.9H48.9163L50.6712 183.346Z" fill="#C3C5C9" fill-opacity="0.9" shape-rendering="crispEdges"/>
<path d="M15.0802 178.9H17.8102V188.455L11.8952 183.879V188H9.1652V178.445L15.0802 183.021V178.9ZM23.0061 178.9H25.8661V188H23.0061V178.9ZM24.8521 181.175V178.9H26.5811C27.4738 178.9 28.1975 179.026 28.7521 179.277C29.3155 179.528 29.7271 179.888 29.9871 180.356C30.2558 180.815 30.3901 181.37 30.3901 182.02C30.3901 182.661 30.2558 183.216 29.9871 183.684C29.7271 184.152 29.3155 184.512 28.7521 184.763C28.1975 185.014 27.4738 185.14 26.5811 185.14H24.8521V182.865H26.5811C26.9365 182.865 27.2051 182.791 27.3871 182.644C27.5691 182.497 27.6601 182.289 27.6601 182.02C27.6601 181.751 27.5691 181.543 27.3871 181.396C27.2051 181.249 26.9365 181.175 26.5811 181.175H24.8521ZM33.7662 181.435V178.9H41.8262V181.435H39.2262V188H36.3662V181.435H33.7662ZM50.6712 183.346L52.4263 178.9H55.8063L50.6712 188.65L45.5362 178.9H48.9163L50.6712 183.346Z" fill="url(#paint4_linear_1068_1247)" fill-opacity="0.1" shape-rendering="crispEdges"/>
<path d="M15.0802 178.9H17.8102V188.455L11.8952 183.879V188H9.1652V178.445L15.0802 183.021V178.9ZM23.0061 178.9H25.8661V188H23.0061V178.9ZM24.8521 181.175V178.9H26.5811C27.4738 178.9 28.1975 179.026 28.7521 179.277C29.3155 179.528 29.7271 179.888 29.9871 180.356C30.2558 180.815 30.3901 181.37 30.3901 182.02C30.3901 182.661 30.2558 183.216 29.9871 183.684C29.7271 184.152 29.3155 184.512 28.7521 184.763C28.1975 185.014 27.4738 185.14 26.5811 185.14H24.8521V182.865H26.5811C26.9365 182.865 27.2051 182.791 27.3871 182.644C27.5691 182.497 27.6601 182.289 27.6601 182.02C27.6601 181.751 27.5691 181.543 27.3871 181.396C27.2051 181.249 26.9365 181.175 26.5811 181.175H24.8521ZM33.7662 181.435V178.9H41.8262V181.435H39.2262V188H36.3662V181.435H33.7662ZM50.6712 183.346L52.4263 178.9H55.8063L50.6712 188.65L45.5362 178.9H48.9163L50.6712 183.346Z" fill="url(#paint5_linear_1068_1247)" fill-opacity="0.8" shape-rendering="crispEdges"/>
<path d="M15.0802 178.9H17.8102V188.455L11.8952 183.879V188H9.1652V178.445L15.0802 183.021V178.9ZM23.0061 178.9H25.8661V188H23.0061V178.9ZM24.8521 181.175V178.9H26.5811C27.4738 178.9 28.1975 179.026 28.7521 179.277C29.3155 179.528 29.7271 179.888 29.9871 180.356C30.2558 180.815 30.3901 181.37 30.3901 182.02C30.3901 182.661 30.2558 183.216 29.9871 183.684C29.7271 184.152 29.3155 184.512 28.7521 184.763C28.1975 185.014 27.4738 185.14 26.5811 185.14H24.8521V182.865H26.5811C26.9365 182.865 27.2051 182.791 27.3871 182.644C27.5691 182.497 27.6601 182.289 27.6601 182.02C27.6601 181.751 27.5691 181.543 27.3871 181.396C27.2051 181.249 26.9365 181.175 26.5811 181.175H24.8521ZM33.7662 181.435V178.9H41.8262V181.435H39.2262V188H36.3662V181.435H33.7662ZM50.6712 183.346L52.4263 178.9H55.8063L50.6712 188.65L45.5362 178.9H48.9163L50.6712 183.346Z" fill="url(#paint6_linear_1068_1247)" fill-opacity="0.8" shape-rendering="crispEdges"/>
<path d="M15.0802 178.9V177.9H14.0802V178.9H15.0802ZM17.8102 178.9H18.8102V177.9H17.8102V178.9ZM17.8102 188.455L17.1983 189.246L18.8102 190.493V188.455H17.8102ZM11.8952 183.879L12.5071 183.088L10.8952 181.841V183.879H11.8952ZM11.8952 188V189H12.8952V188H11.8952ZM9.1652 188H8.1652V189H9.1652V188ZM9.1652 178.445L9.77709 177.654L8.1652 176.407V178.445H9.1652ZM15.0802 183.021L14.4683 183.812L16.0802 185.059V183.021H15.0802ZM15.0802 179.9H17.8102V177.9H15.0802V179.9ZM16.8102 178.9V188.455H18.8102V178.9H16.8102ZM18.4221 187.664L12.5071 183.088L11.2833 184.67L17.1983 189.246L18.4221 187.664ZM10.8952 183.879V188H12.8952V183.879H10.8952ZM11.8952 187H9.1652V189H11.8952V187ZM10.1652 188V178.445H8.1652V188H10.1652ZM8.5533 179.236L14.4683 183.812L15.6921 182.23L9.77709 177.654L8.5533 179.236ZM16.0802 183.021V178.9H14.0802V183.021H16.0802ZM23.0061 178.9V177.9H22.0061V178.9H23.0061ZM25.8661 178.9H26.8661V177.9H25.8661V178.9ZM25.8661 188V189H26.8661V188H25.8661ZM23.0061 188H22.0061V189H23.0061V188ZM24.8521 181.175H23.8521V182.175H24.8521V181.175ZM24.8521 178.9V177.9H23.8521V178.9H24.8521ZM28.7521 179.277L28.3394 180.188L28.3447 180.19L28.7521 179.277ZM29.9871 180.356L29.113 180.842L29.1184 180.851L29.1239 180.861L29.9871 180.356ZM29.9871 183.684L29.1198 183.186L29.113 183.198L29.9871 183.684ZM28.7521 184.763L28.3447 183.85L28.3394 183.852L28.7521 184.763ZM24.8521 185.14H23.8521V186.14H24.8521V185.14ZM24.8521 182.865V181.865H23.8521V182.865H24.8521ZM27.3871 182.644L26.7579 181.867L26.7579 181.867L27.3871 182.644ZM27.3871 181.396L26.7579 182.173L26.7579 182.173L27.3871 181.396ZM23.0061 179.9H25.8661V177.9H23.0061V179.9ZM24.8661 178.9V188H26.8661V178.9H24.8661ZM25.8661 187H23.0061V189H25.8661V187ZM24.0061 188V178.9H22.0061V188H24.0061ZM25.8521 181.175V178.9H23.8521V181.175H25.8521ZM24.8521 179.9H26.5811V177.9H24.8521V179.9ZM26.5811 179.9C27.3923 179.9 27.9603 180.016 28.3394 180.188L29.1649 178.366C28.4347 178.035 27.5553 177.9 26.5811 177.9V179.9ZM28.3447 180.19C28.7416 180.367 28.9737 180.591 29.113 180.842L30.8613 179.87C30.4806 179.185 29.8893 178.689 29.1596 178.364L28.3447 180.19ZM29.1239 180.861C29.2851 181.136 29.3901 181.508 29.3901 182.02H31.3901C31.3901 181.232 31.2265 180.494 30.8503 179.851L29.1239 180.861ZM29.3901 182.02C29.3901 182.52 29.2865 182.896 29.1199 183.186L30.8544 184.182C31.2251 183.536 31.3901 182.803 31.3901 182.02H29.3901ZM29.113 183.198C28.9737 183.449 28.7416 183.673 28.3447 183.85L29.1596 185.676C29.8893 185.351 30.4806 184.855 30.8613 184.17L29.113 183.198ZM28.3394 183.852C27.9603 184.024 27.3923 184.14 26.5811 184.14V186.14C27.5553 186.14 28.4347 186.005 29.1649 185.674L28.3394 183.852ZM26.5811 184.14H24.8521V186.14H26.5811V184.14ZM25.8521 185.14V182.865H23.8521V185.14H25.8521ZM24.8521 183.865H26.5811V181.865H24.8521V183.865ZM26.5811 183.865C27.0523 183.865 27.5847 183.771 28.0163 183.421L26.7579 181.867C26.7927 181.839 26.8107 181.838 26.7847 181.845C26.7564 181.853 26.6927 181.865 26.5811 181.865V183.865ZM28.0163 183.421C28.4692 183.055 28.6601 182.54 28.6601 182.02H26.6601C26.6601 182.041 26.6567 182.02 26.6757 181.977C26.6964 181.929 26.7286 181.891 26.7579 181.867L28.0163 183.421ZM28.6601 182.02C28.6601 181.5 28.4692 180.985 28.0163 180.619L26.7579 182.173C26.7286 182.149 26.6964 182.111 26.6757 182.063C26.6567 182.02 26.6601 181.999 26.6601 182.02H28.6601ZM28.0163 180.619C27.5847 180.269 27.0523 180.175 26.5811 180.175V182.175C26.6927 182.175 26.7564 182.187 26.7847 182.195C26.8107 182.202 26.7927 182.201 26.7579 182.173L28.0163 180.619ZM26.5811 180.175H24.8521V182.175H26.5811V180.175ZM33.7662 181.435H32.7662V182.435H33.7662V181.435ZM33.7662 178.9V177.9H32.7662V178.9H33.7662ZM41.8262 178.9H42.8262V177.9H41.8262V178.9ZM41.8262 181.435V182.435H42.8262V181.435H41.8262ZM39.2262 181.435V180.435H38.2262V181.435H39.2262ZM39.2262 188V189H40.2262V188H39.2262ZM36.3662 188H35.3662V189H36.3662V188ZM36.3662 181.435H37.3662V180.435H36.3662V181.435ZM34.7662 181.435V178.9H32.7662V181.435H34.7662ZM33.7662 179.9H41.8262V177.9H33.7662V179.9ZM40.8262 178.9V181.435H42.8262V178.9H40.8262ZM41.8262 180.435H39.2262V182.435H41.8262V180.435ZM38.2262 181.435V188H40.2262V181.435H38.2262ZM39.2262 187H36.3662V189H39.2262V187ZM37.3662 188V181.435H35.3662V188H37.3662ZM36.3662 180.435H33.7662V182.435H36.3662V180.435ZM50.6712 183.346L49.7411 183.713L50.6712 186.07L51.6014 183.713L50.6712 183.346ZM52.4263 178.9V177.9H51.7459L51.4961 178.533L52.4263 178.9ZM55.8063 178.9L56.691 179.366L57.4631 177.9H55.8063V178.9ZM50.6712 188.65L49.7865 189.116L50.6712 190.796L51.556 189.116L50.6712 188.65ZM45.5362 178.9V177.9H43.8794L44.6515 179.366L45.5362 178.9ZM48.9163 178.9L49.8464 178.533L49.5966 177.9H48.9163V178.9ZM51.6014 183.713L53.3564 179.267L51.4961 178.533L49.7411 182.979L51.6014 183.713ZM52.4263 179.9H55.8063V177.9H52.4263V179.9ZM54.9215 178.434L49.7865 188.184L51.556 189.116L56.691 179.366L54.9215 178.434ZM51.556 188.184L46.421 178.434L44.6515 179.366L49.7865 189.116L51.556 188.184ZM45.5362 179.9H48.9163V177.9H45.5362V179.9ZM47.9861 179.267L49.7411 183.713L51.6014 182.979L49.8464 178.533L47.9861 179.267Z" fill="url(#paint7_angular_1068_1247)" fill-opacity="0.33" mask="url(#path-45-inside-1_1068_1247)"/>
</g>
</g>
<defs>
<filter id="filter0_d_1068_1247" x="-1" y="-2" width="67" height="116" filterUnits="userSpaceOnUse" color-interpolation-filters="sRGB">
<feFlood flood-opacity="0" result="BackgroundImageFix"/>
<feColorMatrix in="SourceAlpha" type="matrix" values="0 0 0 0 0 0 0 0 0 0 0 0 0 0 0 0 0 0 127 0" result="hardAlpha"/>
<feOffset/>
<feGaussianBlur stdDeviation="4"/>
<feComposite in2="hardAlpha" operator="out"/>
<feColorMatrix type="matrix" values="0 0 0 0 0 0 0 0 0 0 0 0 0 0 0 0 0 0 0.3 0"/>
<feBlend mode="normal" in2="BackgroundImageFix" result="effect1_dropShadow_1068_1247"/>
<feBlend mode="normal" in="SourceGraphic" in2="effect1_dropShadow_1068_1247" result="shape"/>
</filter>
<filter id="filter1_d_1068_1247" x="1.16504" y="170.445" width="62.6411" height="26.205" filterUnits="userSpaceOnUse" color-interpolation-filters="sRGB">
<feFlood flood-opacity="0" result="BackgroundImageFix"/>
<feColorMatrix in="SourceAlpha" type="matrix" values="0 0 0 0 0 0 0 0 0 0 0 0 0 0 0 0 0 0 127 0" result="hardAlpha"/>
<feOffset/>
<feGaussianBlur stdDeviation="4"/>
<feComposite in2="hardAlpha" operator="out"/>
<feColorMatrix type="matrix" values="0 0 0 0 0 0 0 0 0 0 0 0 0 0 0 0 0 0 0.3 0"/>
<feBlend mode="normal" in2="BackgroundImageFix" result="effect1_dropShadow_1068_1247"/>
<feBlend mode="normal" in="SourceGraphic" in2="effect1_dropShadow_1068_1247" result="shape"/>
</filter>
<linearGradient id="paint0_linear_1068_1247" x1="32.5" y1="6" x2="32.5" y2="106" gradientUnits="userSpaceOnUse">
<stop stop-opacity="0"/>
<stop offset="1"/>
</linearGradient>
<linearGradient id="paint1_linear_1068_1247" x1="96" y1="-63.5" x2="-14.5" y2="126" gradientUnits="userSpaceOnUse">
<stop offset="0.49455" stop-color="white" stop-opacity="0"/>
<stop offset="0.643362" stop-color="white" stop-opacity="0.546657"/>
<stop offset="0.757675" stop-color="white" stop-opacity="0"/>
</linearGradient>
<linearGradient id="paint2_linear_1068_1247" x1="96" y1="-63.5" x2="-14.5" y2="126" gradientUnits="userSpaceOnUse">
<stop offset="0.252591" stop-color="white" stop-opacity="0"/>
<stop offset="0.356771" stop-color="white" stop-opacity="0.546657"/>
<stop offset="0.411447" stop-color="white" stop-opacity="0"/>
</linearGradient>
<radialGradient id="paint3_angular_1068_1247" cx="0" cy="0" r="1" gradientUnits="userSpaceOnUse" gradientTransform="translate(32.5 56) rotate(90) scale(50 25.5)">
<stop stop-color="white"/>
<stop offset="0.167477" stop-color="white"/>
<stop offset="0.304856" stop-color="white" stop-opacity="0"/>
<stop offset="0.448235" stop-color="white"/>
<stop offset="0.602263" stop-color="white" stop-opacity="0"/>
<stop offset="0.719632" stop-color="white"/>
<stop offset="0.834485" stop-color="white" stop-opacity="0.165515"/>
<stop offset="0.980268" stop-color="white"/>
<stop offset="1" stop-color="white" stop-opacity="0"/>
</radialGradient>
<linearGradient id="paint4_linear_1068_1247" x1="32" y1="177" x2="32" y2="189" gradientUnits="userSpaceOnUse">
<stop stop-opacity="0"/>
<stop offset="1"/>
</linearGradient>
<linearGradient id="paint5_linear_1068_1247" x1="91.7647" y1="168.66" x2="89.5117" y2="198.965" gradientUnits="userSpaceOnUse">
<stop offset="0.49455" stop-color="white" stop-opacity="0"/>
<stop offset="0.643362" stop-color="white" stop-opacity="0.546657"/>
<stop offset="0.757675" stop-color="white" stop-opacity="0"/>
</linearGradient>
<linearGradient id="paint6_linear_1068_1247" x1="91.7647" y1="168.66" x2="89.5117" y2="198.965" gradientUnits="userSpaceOnUse">
<stop offset="0.252591" stop-color="white" stop-opacity="0"/>
<stop offset="0.356771" stop-color="white" stop-opacity="0.546657"/>
<stop offset="0.411447" stop-color="white" stop-opacity="0"/>
</linearGradient>
<radialGradient id="paint7_angular_1068_1247" cx="0" cy="0" r="1" gradientUnits="userSpaceOnUse" gradientTransform="translate(32 183) rotate(90) scale(6 24)">
<stop stop-color="white"/>
<stop offset="0.167477" stop-color="white"/>
<stop offset="0.304856" stop-color="white" stop-opacity="0"/>
<stop offset="0.448235" stop-color="white"/>
<stop offset="0.602263" stop-color="white" stop-opacity="0"/>
<stop offset="0.719632" stop-color="white"/>
<stop offset="0.834485" stop-color="white" stop-opacity="0.165515"/>
<stop offset="0.980268" stop-color="white"/>
<stop offset="1" stop-color="white" stop-opacity="0"/>
</radialGradient>
<clipPath id="clip0_1068_1247">
<rect width="65" height="199" fill="white"/>
</clipPath>
</defs>
</svg>
