<svg width="57" height="57" viewBox="0 0 57 57" fill="none" xmlns="http://www.w3.org/2000/svg">
<rect width="57" height="57" fill="#1185FE"/>
<path d="M17.237 14.2213C21.5936 17.4472 26.2796 23.9879 28.0001 27.4981C29.7207 23.9882 34.4065 17.4471 38.7632 14.2213C41.9067 11.8936 47 10.0926 47 15.8235C47 16.9681 46.3347 25.4383 45.9445 26.8134C44.5881 31.5942 39.6454 32.8136 35.2488 32.0756C42.934 33.3657 44.889 37.6388 40.6669 41.912C32.6483 50.0276 29.1418 39.8758 28.2429 37.2745C28.0782 36.7976 28.0011 36.5745 28 36.7642C27.9989 36.5745 27.9218 36.7976 27.7571 37.2745C26.8586 39.8758 23.3522 50.0278 15.3331 41.912C11.111 37.6388 13.0659 33.3654 20.7512 32.0756C16.3545 32.8136 11.4117 31.5942 10.0555 26.8134C9.66531 25.4382 9 16.968 9 15.8235C9 10.0926 14.0934 11.8936 17.2368 14.2213H17.237Z" fill="white"/>
</svg>
