<svg width="57" height="57" viewBox="0 0 57 57" fill="none" xmlns="http://www.w3.org/2000/svg">
<rect width="57" height="57" fill="#1B1F23"/>
<g clip-path="url(#clip0_1208_829)">
<path fill-rule="evenodd" clip-rule="evenodd" d="M28 8C16.95 8 8 16.95 8 28C8 36.85 13.725 44.325 21.675 46.975C22.675 47.15 23.05 46.55 23.05 46.025C23.05 45.55 23.025 43.975 23.025 42.3C18 43.225 16.7 41.075 16.3 39.95C16.075 39.375 15.1 37.6 14.25 37.125C13.55 36.75 12.55 35.825 14.225 35.8C15.8 35.775 16.925 37.25 17.3 37.85C19.1 40.875 21.975 40.025 23.125 39.5C23.3 38.2 23.825 37.325 24.4 36.825C19.95 36.325 15.3 34.6 15.3 26.95C15.3 24.775 16.075 22.975 17.35 21.575C17.15 21.075 16.45 19.025 17.55 16.275C17.55 16.275 19.225 15.75 23.05 18.325C24.65 17.875 26.35 17.65 28.05 17.65C29.75 17.65 31.45 17.875 33.05 18.325C36.875 15.725 38.55 16.275 38.55 16.275C39.65 19.025 38.95 21.075 38.75 21.575C40.025 22.975 40.8 24.75 40.8 26.95C40.8 34.625 36.125 36.325 31.675 36.825C32.4 37.45 33.025 38.65 33.025 40.525C33.025 43.2 33 45.35 33 46.025C33 46.55 33.375 47.175 34.375 46.975C42.275 44.325 48 36.825 48 28C48 16.95 39.05 8 28 8Z" fill="white"/>
</g>
<defs>
<clipPath id="clip0_1208_829">
<rect width="40" height="40" fill="white" transform="translate(8 8)"/>
</clipPath>
</defs>
</svg>
