<svg width="57" height="57" viewBox="0 0 57 57" fill="none" xmlns="http://www.w3.org/2000/svg">
<rect width="57" height="57" fill="#F33397"/>
<path fill-rule="evenodd" clip-rule="evenodd" d="M28 39C34.0751 39 39 34.0751 39 28C39 21.9249 34.0751 17 28 17C21.9249 17 17 21.9249 17 28C17 34.0751 21.9249 39 28 39ZM28 35.3333C32.05 35.3333 35.3333 32.05 35.3333 28C35.3333 23.9499 32.05 20.6667 28 20.6667C23.9499 20.6667 20.6667 23.9499 20.6667 28C20.6667 32.05 23.9499 35.3333 28 35.3333Z" fill="white"/>
<path d="M39 15.1666C37.9875 15.1666 37.1667 15.9874 37.1667 17C37.1667 18.0125 37.9875 18.8333 39 18.8333C40.0126 18.8333 40.8334 18.0125 40.8334 17C40.8334 15.9874 40.0126 15.1666 39 15.1666Z" fill="white"/>
<path fill-rule="evenodd" clip-rule="evenodd" d="M9.03224 13.8395C7.83331 16.1925 7.83331 19.2728 7.83331 25.4334V30.5667C7.83331 36.7273 7.83331 39.8076 9.03224 42.1605C10.0868 44.2304 11.7696 45.9132 13.8394 46.9677C16.1925 48.1667 19.2727 48.1667 25.4333 48.1667H30.5666C36.7272 48.1667 39.8076 48.1667 42.1605 46.9677C44.2303 45.9132 45.9131 44.2304 46.9676 42.1605C48.1666 39.8076 48.1666 36.7273 48.1666 30.5667V25.4334C48.1666 19.2728 48.1666 16.1925 46.9676 13.8395C45.9131 11.7697 44.2303 10.0869 42.1605 9.0323C39.8076 7.83337 36.7272 7.83337 30.5666 7.83337H25.4333C19.2727 7.83337 16.1925 7.83337 13.8394 9.0323C11.7696 10.0869 10.0868 11.7697 9.03224 13.8395ZM30.5666 11.5H25.4333C22.2925 11.5 20.1574 11.5029 18.5071 11.6377C16.8996 11.7691 16.0775 12.0071 15.5041 12.2993C14.1242 13.0024 13.0023 14.1243 12.2993 15.5041C12.0071 16.0776 11.769 16.8996 11.6377 18.5072C11.5028 20.1575 11.5 22.2926 11.5 25.4334V30.5667C11.5 33.7076 11.5028 35.8425 11.6377 37.4929C11.769 39.1005 12.0071 39.9226 12.2993 40.496C13.0023 41.8758 14.1242 42.9976 15.5041 43.7007C16.0775 43.9929 16.8996 44.2311 18.5071 44.3624C20.1574 44.4971 22.2925 44.5 25.4333 44.5H30.5666C33.7075 44.5 35.8424 44.4971 37.4928 44.3624C39.1004 44.2311 39.9225 43.9929 40.496 43.7007C41.8757 42.9976 42.9976 41.8758 43.7006 40.496C43.9929 39.9226 44.231 39.1005 44.3623 37.4929C44.497 35.8425 44.5 33.7076 44.5 30.5667V25.4334C44.5 22.2926 44.497 20.1575 44.3623 18.5072C44.231 16.8996 43.9929 16.0776 43.7006 15.5041C42.9976 14.1243 41.8757 13.0024 40.496 12.2993C39.9225 12.0071 39.1004 11.7691 37.4928 11.6377C35.8424 11.5029 33.7075 11.5 30.5666 11.5Z" fill="white"/>
</svg>
