<svg width="57" height="57" viewBox="0 0 57 57" fill="none" xmlns="http://www.w3.org/2000/svg">
<rect width="57" height="57" fill="#5423E2"/>
<path d="M44.9987 22.1473C44.9987 14.12 39.8175 11.7686 39.8175 11.7686C37.206 10.5513 32.721 10.0389 28.0611 10H27.9463C23.2863 10.0389 18.805 10.5513 16.1916 11.7686C16.1916 11.7686 11.0105 14.1219 11.0105 22.1473C11.0105 23.9844 10.9759 26.1823 11.0324 28.5133C11.2201 36.363 12.4502 44.0999 19.5996 46.0202C22.8963 46.9064 25.7266 47.0914 28.0046 46.9637C32.1378 46.7306 34.4578 45.467 34.4578 45.467L34.3211 42.4219C34.3211 42.4219 31.367 43.3672 28.0501 43.2525C24.7625 43.1378 21.2944 42.8936 20.7623 38.7958C20.712 38.415 20.6877 38.0311 20.6894 37.6469C20.6894 37.6469 23.9151 38.448 28.0046 38.6386C30.5049 38.7551 32.8486 38.4905 35.2305 38.2019C39.7975 37.6488 43.774 34.7923 44.2733 32.1819C45.0643 28.0693 44.9987 22.1473 44.9987 22.1473ZM38.8881 32.489H35.0956V23.0557C35.0956 21.0669 34.2719 20.0586 32.6226 20.0586C30.8002 20.0586 29.8871 21.2556 29.8871 23.6237V28.7871H26.1166V23.6237C26.1166 21.2556 25.2035 20.0586 23.3793 20.0586C21.73 20.0586 20.9063 21.0688 20.9063 23.0557V32.489H17.1138V22.7708C17.1138 20.7839 17.6113 19.2058 18.6136 18.0384C19.6451 16.871 20.9956 16.2716 22.674 16.2716C24.6149 16.2716 26.0856 17.0283 27.0569 18.5435L28.0009 20.1511L28.9468 18.5435C29.9181 17.0283 31.3888 16.2716 33.3297 16.2716C35.0063 16.2716 36.3586 16.871 37.3901 18.0384C38.3906 19.2058 38.8881 20.7839 38.8881 22.7708V32.489Z" fill="white"/>
</svg>
