<svg width="57" height="57" viewBox="0 0 57 57" fill="none" xmlns="http://www.w3.org/2000/svg">
<rect width="57" height="57" fill="#00FF9F"/>
<path d="M37.4569 26.5392C37.2867 26.4566 37.1138 26.3772 36.9386 26.3011C36.6336 20.6121 33.5624 17.3552 28.4055 17.3219C28.3821 17.3217 28.3589 17.3217 28.3355 17.3217C25.251 17.3217 22.6857 18.6544 21.1067 21.0793L23.9429 23.0485C25.1224 21.2371 26.9736 20.851 28.3369 20.851C28.3526 20.851 28.3684 20.851 28.384 20.8511C30.082 20.8621 31.3633 21.3618 32.1926 22.3363C32.7961 23.0457 33.1997 24.026 33.3996 25.2633C31.8941 25.0043 30.266 24.9247 28.5255 25.0257C23.6225 25.3115 20.4705 28.2058 20.6822 32.2275C20.7896 34.2675 21.7937 36.0225 23.5094 37.169C24.96 38.1381 26.8282 38.6121 28.7699 38.5048C31.3341 38.3625 33.3456 37.3723 34.749 35.5617C35.8148 34.1867 36.4889 32.4048 36.7865 30.1596C38.0085 30.906 38.9142 31.8883 39.4144 33.0692C40.2649 35.0765 40.3145 38.375 37.6553 41.0642C35.3255 43.42 32.525 44.4392 28.2926 44.4706C23.5977 44.4354 20.0471 42.9115 17.7385 39.941C15.5768 37.1596 14.4595 33.1421 14.4179 28C14.4595 22.8579 15.5768 18.8403 17.7385 16.0589C20.0471 13.0885 23.5977 11.5646 28.2925 11.5293C33.0215 11.5649 36.634 13.0961 39.0309 16.0808C40.2062 17.5445 41.0923 19.3852 41.6764 21.5313L45 20.6338C44.2919 17.9921 43.1778 15.7158 41.6616 13.8279C38.5888 10.0014 34.0947 8.04066 28.3041 8H28.2809C22.5022 8.04051 18.0584 10.0087 15.073 13.8499C12.4165 17.268 11.0462 22.0241 11.0001 27.9859L11 28L11.0001 28.0141C11.0462 33.9758 12.4165 38.7321 15.073 42.1502C18.0584 45.9913 22.5022 47.9596 28.2809 48H28.3041C33.4418 47.964 37.0632 46.6025 40.0465 43.5856C43.9496 39.6388 43.8321 34.6915 42.5457 31.6544C41.6227 29.4765 39.8631 27.7075 37.4569 26.5392ZM28.5863 34.9806C26.4374 35.1031 24.205 34.1269 24.0949 32.0358C24.0133 30.4854 25.185 28.7554 28.7182 28.5493C29.1228 28.5257 29.5199 28.5142 29.9099 28.5142C31.1933 28.5142 32.3939 28.6404 33.4854 28.8819C33.0783 34.0281 30.6902 34.8638 28.5863 34.9806Z" fill="black"/>
</svg>
