<svg width="57" height="57" viewBox="0 0 57 57" fill="none" xmlns="http://www.w3.org/2000/svg">
<rect width="57" height="57" fill="#FFE817"/>
<path fill-rule="evenodd" clip-rule="evenodd" d="M21.2655 44C35.9822 44 44.0318 32.4565 44.0318 22.4473C44.0318 22.1187 44.0317 21.7926 44.0083 21.4677C45.5742 20.397 46.9256 19.0675 48 17.5464C46.5414 18.1593 44.9911 18.5612 43.4058 18.7384C45.075 17.7914 46.325 16.3036 46.9236 14.548C45.3519 15.4304 43.6339 16.0532 41.8419 16.3873C38.8116 13.3377 33.7436 13.1899 30.5202 16.0587C28.4435 17.9084 27.5601 20.6663 28.2056 23.2969C21.7725 22.9905 15.7782 20.1144 11.7144 15.383C9.59085 18.8443 10.677 23.2707 14.1929 25.4933C12.9195 25.4582 11.6735 25.1337 10.56 24.5466V24.6428C10.562 28.2481 13.2471 31.3525 16.9794 32.0669C15.8016 32.3715 14.5653 32.4156 13.368 32.196C14.4151 35.2825 17.4201 37.3966 20.8424 37.4576C18.009 39.5657 14.5088 40.7105 10.9052 40.7068C10.2695 40.705 9.63375 40.6698 9 40.5979C12.6602 42.8205 16.917 44 21.2655 43.9945" fill="black"/>
</svg>
