<svg width="477" height="52" viewBox="0 0 477 52" fill="none" xmlns="http://www.w3.org/2000/svg">
<g filter="url(#filter0_d_1015_673)">
<path d="M13.399 37.28C11.6443 37.28 10.1417 36.9907 8.89098 36.412C7.65898 35.8147 6.69765 34.956 6.00698 33.836C5.33498 32.6973 4.97098 31.3253 4.91498 29.72C4.89632 28.9173 4.88698 28.0587 4.88698 27.144C4.88698 26.2293 4.89632 25.3613 4.91498 24.54C4.97098 22.972 5.33498 21.6373 6.00698 20.536C6.69765 19.4347 7.66832 18.5947 8.91898 18.016C10.1883 17.4187 11.6817 17.12 13.399 17.12C14.7803 17.12 15.9937 17.2973 17.039 17.652C18.0843 18.0067 18.9617 18.4733 19.671 19.052C20.3803 19.612 20.9217 20.228 21.295 20.9C21.6683 21.572 21.8643 22.216 21.883 22.832C21.883 23 21.827 23.1493 21.715 23.28C21.603 23.392 21.4537 23.448 21.267 23.448H17.795C17.6083 23.448 17.459 23.4107 17.347 23.336C17.2537 23.2613 17.1697 23.1493 17.095 23C16.9643 22.664 16.7497 22.328 16.451 21.992C16.171 21.6373 15.7883 21.3387 15.303 21.096C14.8177 20.8533 14.183 20.732 13.399 20.732C12.223 20.732 11.2897 21.04 10.599 21.656C9.92698 22.272 9.56298 23.28 9.50698 24.68C9.45098 26.2853 9.45098 27.9187 9.50698 29.58C9.56298 31.036 9.93632 32.0813 10.627 32.716C11.3363 33.3507 12.279 33.668 13.455 33.668C14.2203 33.668 14.9017 33.5373 15.499 33.276C16.115 32.996 16.6003 32.5667 16.955 31.988C17.3097 31.4093 17.487 30.672 17.487 29.776V29.076H14.435C14.2483 29.076 14.0897 29.0107 13.959 28.88C13.8283 28.7307 13.763 28.5627 13.763 28.376V26.584C13.763 26.3787 13.8283 26.2107 13.959 26.08C14.0897 25.9493 14.2483 25.884 14.435 25.884H21.295C21.5003 25.884 21.6683 25.9493 21.799 26.08C21.9297 26.2107 21.995 26.3787 21.995 26.584V29.636C21.995 31.2413 21.6403 32.6133 20.931 33.752C20.2403 34.8907 19.2417 35.768 17.935 36.384C16.647 36.9813 15.135 37.28 13.399 37.28ZM23.8517 37C23.6837 37 23.5437 36.944 23.4317 36.832C23.3197 36.7013 23.2637 36.5613 23.2637 36.412C23.2637 36.3187 23.2731 36.2347 23.2917 36.16L29.9557 18.156C30.0117 17.9507 30.1237 17.7733 30.2917 17.624C30.4597 17.4747 30.6931 17.4 30.9917 17.4H34.5757C34.8744 17.4 35.1077 17.4747 35.2757 17.624C35.4437 17.7733 35.5557 17.9507 35.6117 18.156L42.2757 36.16C42.2944 36.2347 42.3037 36.3187 42.3037 36.412C42.3037 36.5613 42.2477 36.7013 42.1357 36.832C42.0237 36.944 41.8837 37 41.7157 37H38.8037C38.5237 37 38.3184 36.9347 38.1877 36.804C38.0571 36.6733 37.9731 36.552 37.9357 36.44L36.7317 33.304H28.8357L27.6317 36.44C27.5944 36.552 27.5104 36.6733 27.3797 36.804C27.2491 36.9347 27.0437 37 26.7637 37H23.8517ZM29.8717 29.692H35.6677L32.7837 21.628L29.8717 29.692ZM45.4146 37C45.2279 37 45.0599 36.9347 44.9106 36.804C44.7799 36.6733 44.7146 36.5053 44.7146 36.3V18.1C44.7146 17.8947 44.7799 17.7267 44.9106 17.596C45.0599 17.4653 45.2279 17.4 45.4146 17.4H48.0186C48.2986 17.4 48.5039 17.4747 48.6346 17.624C48.7839 17.7733 48.8866 17.8853 48.9426 17.96L54.0946 27.452L59.3026 17.96C59.3399 17.8853 59.4239 17.7733 59.5546 17.624C59.7039 17.4747 59.9186 17.4 60.1986 17.4H62.8026C63.0079 17.4 63.1759 17.4653 63.3066 17.596C63.4372 17.7267 63.5026 17.8947 63.5026 18.1V36.3C63.5026 36.5053 63.4372 36.6733 63.3066 36.804C63.1759 36.9347 63.0079 37 62.8026 37H59.9466C59.7599 37 59.6012 36.9347 59.4706 36.804C59.3399 36.6733 59.2746 36.5053 59.2746 36.3V24.988L55.7186 31.652C55.6252 31.82 55.5039 31.9693 55.3546 32.1C55.2052 32.2307 55.0092 32.296 54.7666 32.296H53.4506C53.2079 32.296 53.0119 32.2307 52.8626 32.1C52.7132 31.9693 52.5919 31.82 52.4986 31.652L48.9426 24.988V36.3C48.9426 36.5053 48.8772 36.6733 48.7466 36.804C48.6159 36.9347 48.4572 37 48.2706 37H45.4146ZM68.356 37C68.1507 37 67.9827 36.9347 67.852 36.804C67.7213 36.6733 67.656 36.5053 67.656 36.3V18.1C67.656 17.8947 67.7213 17.7267 67.852 17.596C67.9827 17.4653 68.1507 17.4 68.356 17.4H76.672C78.2213 17.4 79.4907 17.624 80.48 18.072C81.4693 18.52 82.1973 19.1547 82.664 19.976C83.1493 20.7973 83.392 21.7587 83.392 22.86C83.392 23.5507 83.2613 24.1573 83 24.68C82.7573 25.2027 82.4493 25.632 82.076 25.968C81.7213 26.304 81.376 26.556 81.04 26.724C81.768 27.06 82.4027 27.62 82.944 28.404C83.504 29.1693 83.784 30.084 83.784 31.148C83.784 32.324 83.5227 33.3507 83 34.228C82.4773 35.1053 81.7027 35.7867 80.676 36.272C79.6493 36.7573 78.3987 37 76.924 37H68.356ZM72.108 33.724H76.392C77.3067 33.724 77.9973 33.472 78.464 32.968C78.9307 32.4453 79.164 31.8293 79.164 31.12C79.164 30.392 78.9213 29.7853 78.436 29.3C77.9693 28.796 77.288 28.544 76.392 28.544H72.108V33.724ZM72.108 25.324H76.14C77.0173 25.324 77.6707 25.1093 78.1 24.68C78.548 24.232 78.772 23.6627 78.772 22.972C78.772 22.2813 78.548 21.7307 78.1 21.32C77.6707 20.8907 77.0173 20.676 76.14 20.676H72.108V25.324ZM87.8247 37C87.6194 37 87.4514 36.9347 87.3207 36.804C87.1901 36.6733 87.1247 36.5053 87.1247 36.3V18.1C87.1247 17.8947 87.1901 17.7267 87.3207 17.596C87.4514 17.4653 87.6194 17.4 87.8247 17.4H90.9327C91.1381 17.4 91.3061 17.4653 91.4367 17.596C91.5674 17.7267 91.6327 17.8947 91.6327 18.1V33.248H100.313C100.518 33.248 100.686 33.3133 100.817 33.444C100.947 33.5747 101.013 33.7427 101.013 33.948V36.3C101.013 36.5053 100.947 36.6733 100.817 36.804C100.686 36.9347 100.518 37 100.313 37H87.8247ZM104.286 37C104.08 37 103.912 36.9347 103.782 36.804C103.651 36.6733 103.586 36.5053 103.586 36.3V18.1C103.586 17.8947 103.651 17.7267 103.782 17.596C103.912 17.4653 104.08 17.4 104.286 17.4H116.97C117.175 17.4 117.343 17.4653 117.474 17.596C117.604 17.7267 117.67 17.8947 117.67 18.1V20.34C117.67 20.5267 117.604 20.6853 117.474 20.816C117.343 20.9467 117.175 21.012 116.97 21.012H107.898V25.408H116.354C116.559 25.408 116.727 25.4733 116.858 25.604C116.988 25.7347 117.054 25.9027 117.054 26.108V28.18C117.054 28.3667 116.988 28.5253 116.858 28.656C116.727 28.7867 116.559 28.852 116.354 28.852H107.898V33.388H117.194C117.399 33.388 117.567 33.4533 117.698 33.584C117.828 33.7147 117.894 33.8827 117.894 34.088V36.3C117.894 36.5053 117.828 36.6733 117.698 36.804C117.567 36.9347 117.399 37 117.194 37H104.286ZM125.543 37C125.375 37 125.235 36.944 125.123 36.832C125.011 36.7013 124.955 36.5613 124.955 36.412C124.955 36.3187 124.964 36.2347 124.983 36.16L131.647 18.156C131.703 17.9507 131.815 17.7733 131.983 17.624C132.151 17.4747 132.384 17.4 132.683 17.4H136.267C136.566 17.4 136.799 17.4747 136.967 17.624C137.135 17.7733 137.247 17.9507 137.303 18.156L143.967 36.16C143.986 36.2347 143.995 36.3187 143.995 36.412C143.995 36.5613 143.939 36.7013 143.827 36.832C143.715 36.944 143.575 37 143.407 37H140.495C140.215 37 140.01 36.9347 139.879 36.804C139.748 36.6733 139.664 36.552 139.627 36.44L138.423 33.304H130.527L129.323 36.44C129.286 36.552 129.202 36.6733 129.071 36.804C128.94 36.9347 128.735 37 128.455 37H125.543ZM131.563 29.692H137.359L134.475 21.628L131.563 29.692ZM148.805 37C148.506 37 148.264 36.916 148.077 36.748C147.909 36.58 147.806 36.3747 147.769 36.132L144.577 18.184C144.558 18.1467 144.549 18.1093 144.549 18.072C144.549 18.0347 144.549 18.0067 144.549 17.988C144.549 17.8387 144.605 17.708 144.717 17.596C144.829 17.4653 144.969 17.4 145.137 17.4H148.077C148.562 17.4 148.833 17.596 148.889 17.988L150.989 29.832L153.257 22.468C153.313 22.3187 153.406 22.16 153.537 21.992C153.668 21.824 153.882 21.74 154.181 21.74H155.945C156.244 21.74 156.458 21.824 156.589 21.992C156.72 22.16 156.804 22.3187 156.841 22.468L159.137 29.804L161.209 17.988C161.265 17.596 161.545 17.4 162.049 17.4H164.989C165.157 17.4 165.297 17.4653 165.409 17.596C165.521 17.708 165.577 17.8387 165.577 17.988C165.577 18.0067 165.577 18.0347 165.577 18.072C165.577 18.1093 165.568 18.1467 165.549 18.184L162.357 36.132C162.32 36.3747 162.208 36.58 162.021 36.748C161.853 36.916 161.62 37 161.321 37H159.053C158.754 37 158.521 36.9253 158.353 36.776C158.204 36.608 158.101 36.44 158.045 36.272L155.049 27.592L152.081 36.272C152.025 36.44 151.913 36.608 151.745 36.776C151.596 36.9253 151.362 37 151.045 37H148.805ZM166.723 37C166.555 37 166.415 36.944 166.303 36.832C166.191 36.7013 166.135 36.5613 166.135 36.412C166.135 36.3187 166.144 36.2347 166.163 36.16L172.827 18.156C172.883 17.9507 172.995 17.7733 173.163 17.624C173.331 17.4747 173.564 17.4 173.863 17.4H177.447C177.745 17.4 177.979 17.4747 178.147 17.624C178.315 17.7733 178.427 17.9507 178.483 18.156L185.147 36.16C185.165 36.2347 185.175 36.3187 185.175 36.412C185.175 36.5613 185.119 36.7013 185.007 36.832C184.895 36.944 184.755 37 184.587 37H181.675C181.395 37 181.189 36.9347 181.059 36.804C180.928 36.6733 180.844 36.552 180.807 36.44L179.603 33.304H171.707L170.503 36.44C170.465 36.552 170.381 36.6733 170.251 36.804C170.12 36.9347 169.915 37 169.635 37H166.723ZM172.743 29.692H178.539L175.655 21.628L172.743 29.692ZM191.194 37C190.989 37 190.821 36.9347 190.69 36.804C190.56 36.6733 190.494 36.5053 190.494 36.3V30.14L183.942 18.296C183.924 18.24 183.905 18.1933 183.886 18.156C183.868 18.1 183.858 18.044 183.858 17.988C183.858 17.8387 183.914 17.708 184.026 17.596C184.157 17.4653 184.297 17.4 184.446 17.4H187.414C187.676 17.4 187.881 17.4653 188.03 17.596C188.18 17.7267 188.282 17.848 188.338 17.96L192.734 25.66L197.13 17.96C197.186 17.848 197.289 17.7267 197.438 17.596C197.588 17.4653 197.793 17.4 198.054 17.4H201.022C201.172 17.4 201.302 17.4653 201.414 17.596C201.545 17.708 201.61 17.8387 201.61 17.988C201.61 18.044 201.601 18.1 201.582 18.156C201.564 18.1933 201.545 18.24 201.526 18.296L194.974 30.14V36.3C194.974 36.5053 194.909 36.6733 194.778 36.804C194.648 36.9347 194.48 37 194.274 37H191.194ZM214.6 37C214.395 37 214.227 36.9347 214.096 36.804C213.966 36.6733 213.9 36.5053 213.9 36.3V30.14L207.348 18.296C207.33 18.24 207.311 18.1933 207.292 18.156C207.274 18.1 207.264 18.044 207.264 17.988C207.264 17.8387 207.32 17.708 207.432 17.596C207.563 17.4653 207.703 17.4 207.852 17.4H210.82C211.082 17.4 211.287 17.4653 211.436 17.596C211.586 17.7267 211.688 17.848 211.744 17.96L216.14 25.66L220.536 17.96C220.592 17.848 220.695 17.7267 220.844 17.596C220.994 17.4653 221.199 17.4 221.46 17.4H224.428C224.578 17.4 224.708 17.4653 224.82 17.596C224.951 17.708 225.016 17.8387 225.016 17.988C225.016 18.044 225.007 18.1 224.988 18.156C224.97 18.1933 224.951 18.24 224.932 18.296L218.38 30.14V36.3C218.38 36.5053 218.315 36.6733 218.184 36.804C218.054 36.9347 217.886 37 217.68 37H214.6ZM234.499 37.28C232.8 37.28 231.335 37 230.103 36.44C228.871 35.88 227.909 35.04 227.219 33.92C226.528 32.7813 226.155 31.3533 226.099 29.636C226.08 28.8333 226.071 28.04 226.071 27.256C226.071 26.4533 226.08 25.6413 226.099 24.82C226.155 23.14 226.528 21.7307 227.219 20.592C227.928 19.4347 228.899 18.5667 230.131 17.988C231.381 17.4093 232.837 17.12 234.499 17.12C236.141 17.12 237.579 17.4093 238.811 17.988C240.061 18.5667 241.041 19.4347 241.751 20.592C242.46 21.7307 242.833 23.14 242.871 24.82C242.908 25.6413 242.927 26.4533 242.927 27.256C242.927 28.04 242.908 28.8333 242.871 29.636C242.815 31.3533 242.441 32.7813 241.751 33.92C241.06 35.04 240.099 35.88 238.867 36.44C237.635 37 236.179 37.28 234.499 37.28ZM234.499 33.668C235.581 33.668 236.468 33.3413 237.159 32.688C237.868 32.016 238.241 30.952 238.279 29.496C238.316 28.6747 238.335 27.9093 238.335 27.2C238.335 26.472 238.316 25.7067 238.279 24.904C238.26 23.9333 238.083 23.14 237.747 22.524C237.411 21.908 236.963 21.46 236.403 21.18C235.861 20.8813 235.227 20.732 234.499 20.732C233.771 20.732 233.127 20.8813 232.567 21.18C232.007 21.46 231.559 21.908 231.223 22.524C230.905 23.14 230.728 23.9333 230.691 24.904C230.672 25.7067 230.663 26.472 230.663 27.2C230.663 27.9093 230.672 28.6747 230.691 29.496C230.747 30.952 231.12 32.016 231.811 32.688C232.501 33.3413 233.397 33.668 234.499 33.668ZM254.41 37.28C252.767 37.28 251.33 37.0093 250.098 36.468C248.866 35.908 247.914 35.0587 247.242 33.92C246.57 32.7627 246.234 31.2973 246.234 29.524V18.1C246.234 17.8947 246.299 17.7267 246.43 17.596C246.561 17.4653 246.729 17.4 246.934 17.4H249.986C250.191 17.4 250.359 17.4653 250.49 17.596C250.621 17.7267 250.686 17.8947 250.686 18.1V29.496C250.686 30.8773 251.013 31.904 251.666 32.576C252.319 33.248 253.234 33.584 254.41 33.584C255.567 33.584 256.473 33.248 257.126 32.576C257.779 31.904 258.106 30.8773 258.106 29.496V18.1C258.106 17.8947 258.171 17.7267 258.302 17.596C258.451 17.4653 258.619 17.4 258.806 17.4H261.886C262.073 17.4 262.231 17.4653 262.362 17.596C262.493 17.7267 262.558 17.8947 262.558 18.1V29.524C262.558 31.2973 262.222 32.7627 261.55 33.92C260.878 35.0587 259.935 35.908 258.722 36.468C257.509 37.0093 256.071 37.28 254.41 37.28ZM267.227 37C267.022 37 266.854 36.9347 266.723 36.804C266.592 36.6733 266.527 36.5053 266.527 36.3V18.1C266.527 17.8947 266.592 17.7267 266.723 17.596C266.854 17.4653 267.022 17.4 267.227 17.4H274.647C276.98 17.4 278.819 17.9413 280.163 19.024C281.507 20.088 282.179 21.628 282.179 23.644C282.179 25.0067 281.852 26.1453 281.199 27.06C280.546 27.9747 279.668 28.656 278.567 29.104L282.515 36.104C282.571 36.216 282.599 36.3187 282.599 36.412C282.599 36.5613 282.543 36.7013 282.431 36.832C282.319 36.944 282.179 37 282.011 37H278.903C278.567 37 278.315 36.916 278.147 36.748C277.979 36.5613 277.858 36.3933 277.783 36.244L274.367 29.832H270.979V36.3C270.979 36.5053 270.914 36.6733 270.783 36.804C270.652 36.9347 270.484 37 270.279 37H267.227ZM270.979 26.276H274.563C275.59 26.276 276.346 26.0427 276.831 25.576C277.335 25.1093 277.587 24.456 277.587 23.616C277.587 22.776 277.344 22.1133 276.859 21.628C276.374 21.1427 275.608 20.9 274.563 20.9H270.979V26.276Z" fill="white"/>
</g>
<g filter="url(#filter1_d_1015_673)">
<path d="M303.749 27.3872C303.652 27.4135 303.564 27.4002 303.487 27.3474C303.41 27.2946 303.367 27.2118 303.358 27.0989L302.827 17.0141C302.817 16.9012 302.848 16.7987 302.917 16.7066C302.987 16.6144 303.071 16.5553 303.169 16.5291L305.062 16.0216C305.17 15.9928 305.262 16.0048 305.339 16.0575C305.417 16.1103 305.46 16.1931 305.469 16.306L305.668 20.0445L309.28 19.0769L309.08 15.3384C309.071 15.2255 309.096 15.1243 309.156 15.0348C309.226 14.9427 309.315 14.8822 309.422 14.8534L311.316 14.346C311.424 14.3171 311.516 14.3291 311.593 14.3819C311.67 14.4346 311.713 14.5175 311.723 14.6304L312.239 24.7191C312.246 24.8223 312.215 24.9248 312.148 25.0266C312.088 25.1161 312.005 25.1753 311.897 25.2041L310.003 25.7116C309.895 25.7404 309.803 25.7284 309.726 25.6757C309.656 25.6105 309.618 25.5263 309.611 25.4232L309.41 21.5594L305.799 22.5271L306 26.3909C306.007 26.494 305.976 26.5965 305.909 26.6984C305.84 26.7905 305.751 26.851 305.643 26.8798L303.749 27.3872ZM313.763 24.7041C313.646 24.7356 313.549 24.709 313.474 24.6242C313.399 24.5394 313.378 24.4403 313.41 24.3267L316.331 13.4428C316.361 13.3194 316.419 13.2041 316.506 13.097C316.59 12.98 316.715 12.8993 316.882 12.8547L319.142 12.2489C319.309 12.2044 319.438 12.2169 319.53 12.2867C319.629 12.344 319.698 12.4252 319.737 12.5302L323.701 21.5693C323.767 21.6984 323.771 21.8126 323.714 21.9119C323.657 22.0112 323.579 22.0739 323.481 22.1002L321.705 22.5761C321.558 22.6154 321.441 22.61 321.354 22.5599C321.277 22.5071 321.216 22.4344 321.17 22.3418L320.531 20.9553L316.611 22.0056L316.132 23.739C316.101 23.8206 316.051 23.9074 315.981 23.9995C315.922 24.089 315.818 24.1534 315.671 24.1928L313.763 24.7041ZM317.087 19.6124L319.818 18.8807L318.236 15.1508L317.087 19.6124ZM325.473 21.5664C325.366 21.5952 325.273 21.5832 325.196 21.5305C325.126 21.4653 325.088 21.3811 325.081 21.278L324.55 11.1932C324.541 11.0803 324.571 10.9778 324.641 10.8857C324.711 10.7936 324.799 10.7331 324.907 10.7043L328.9 9.63434C330.172 9.29343 331.186 9.3366 331.94 9.76384C332.692 10.1813 333.098 10.9535 333.159 12.0806C333.198 12.8148 333.062 13.4807 332.75 14.0782C332.448 14.6732 332.031 15.1729 331.5 15.5776L333.715 18.8545C333.733 18.8812 333.744 18.9044 333.749 18.924C333.755 18.9435 333.758 18.9742 333.758 19.016C333.769 19.0969 333.745 19.1821 333.685 19.2716C333.623 19.3513 333.552 19.4016 333.474 19.4226L331.521 19.9458C331.335 19.9956 331.196 19.9856 331.104 19.9159C331.019 19.8338 330.952 19.7575 330.901 19.6871L329.052 16.721L327.555 17.1222L327.724 20.57C327.73 20.6731 327.7 20.7756 327.633 20.8775C327.563 20.9696 327.475 21.0301 327.367 21.0589L325.473 21.5664ZM327.422 14.9236L329.125 14.4673C329.585 14.3441 329.922 14.1332 330.136 13.8347C330.349 13.5361 330.449 13.1842 330.435 12.779C330.411 12.3763 330.279 12.0811 330.04 11.8934C329.811 11.7031 329.457 11.6722 328.977 11.8007L327.289 12.2531L327.422 14.9236ZM335.418 18.9018C335.32 18.928 335.232 18.9147 335.155 18.862C335.075 18.7994 335.032 18.7166 335.026 18.6135L334.495 8.52861C334.485 8.41571 334.516 8.31321 334.585 8.2211C334.655 8.12899 334.739 8.06983 334.837 8.0436L338.419 7.08383C339.055 6.91338 339.661 6.84543 340.236 6.87998C340.822 6.91192 341.346 7.04932 341.81 7.29221C342.281 7.52269 342.662 7.86651 342.952 8.32367C343.252 8.77821 343.425 9.34549 343.471 10.0255C343.518 10.4745 343.55 10.8696 343.568 11.2109C343.586 11.5522 343.598 11.9477 343.603 12.3974C343.622 13.3679 343.501 14.208 343.24 14.9178C342.989 15.6249 342.565 16.2157 341.968 16.6903C341.369 17.155 340.56 17.5237 339.543 17.7965L335.418 18.9018ZM337.567 16.0602L339.108 15.6471C339.539 15.5318 339.889 15.3698 340.158 15.1613C340.435 14.9404 340.633 14.6618 340.752 14.3255C340.882 13.9866 340.939 13.5728 340.923 13.084C340.916 12.7818 340.906 12.5116 340.895 12.2734C340.893 12.0326 340.882 11.7944 340.861 11.5588C340.849 11.3206 340.831 11.0579 340.807 10.7708C340.746 10.0738 340.543 9.60902 340.197 9.37644C339.849 9.13406 339.352 9.09942 338.706 9.27249L337.238 9.66584L337.567 16.0602ZM345.528 12.6053C345.42 12.6342 345.328 12.6222 345.251 12.5694C345.184 12.514 345.145 12.4299 345.136 12.317L345.06 10.8584C345.061 10.7429 345.091 10.6404 345.151 10.5509C345.22 10.4588 345.304 10.3996 345.402 10.3734L350.012 9.13827C350.119 9.10942 350.212 9.12139 350.289 9.17416C350.366 9.22693 350.404 9.31108 350.404 9.4266L350.48 10.8852C350.489 10.9981 350.459 11.1006 350.389 11.1927C350.319 11.2848 350.231 11.3453 350.123 11.3741L345.528 12.6053ZM301.948 43.3992C301.85 43.4254 301.762 43.4122 301.685 43.3594C301.605 43.2968 301.562 43.214 301.556 43.1109L301.025 33.026C301.015 32.9131 301.046 32.8106 301.115 32.7185C301.185 32.6264 301.269 32.5673 301.367 32.541L308.222 30.7041C308.33 30.6752 308.422 30.6872 308.499 30.74C308.576 30.7927 308.62 30.8756 308.629 30.9885L308.705 32.4471C308.714 32.56 308.684 32.6625 308.614 32.7546C308.545 32.8467 308.456 32.9072 308.348 32.936L303.68 34.1869L303.771 36.2867L308.131 35.1184C308.238 35.0896 308.327 35.1077 308.397 35.1729C308.474 35.2257 308.517 35.3085 308.527 35.4214L308.59 36.7733C308.596 36.8764 308.566 36.9789 308.499 37.0808C308.439 37.1703 308.355 37.2295 308.248 37.2583L303.888 38.4266L304.009 40.5812L308.795 39.2989C308.902 39.27 308.99 39.2833 309.057 39.3387C309.134 39.3915 309.177 39.4743 309.186 39.5872L309.263 41.0458C309.269 41.1489 309.239 41.2514 309.172 41.3533C309.112 41.4428 309.028 41.5019 308.921 41.5308L301.948 43.3992ZM310.384 41.1386C310.267 41.1701 310.17 41.1435 310.095 41.0587C310.02 40.974 309.999 40.8748 310.031 40.7612L312.952 29.8773C312.982 29.7539 313.04 29.6386 313.127 29.5315C313.211 29.4146 313.336 29.3338 313.503 29.2892L315.763 28.6835C315.93 28.6389 316.059 28.6515 316.151 28.7212C316.25 28.7785 316.319 28.8597 316.358 28.9647L320.322 38.0038C320.388 38.1329 320.392 38.2471 320.335 38.3464C320.278 38.4457 320.2 38.5084 320.102 38.5347L318.326 39.0106C318.179 39.05 318.062 39.0445 317.975 38.9944C317.898 38.9416 317.837 38.8689 317.791 38.7763L317.152 37.3898L313.233 38.4401L312.753 40.1735C312.722 40.2551 312.672 40.3419 312.603 40.4341C312.543 40.5235 312.439 40.588 312.292 40.6273L310.384 41.1386ZM313.708 36.0469L316.439 35.3153L314.857 31.5853L313.708 36.0469ZM322.094 38.0009C321.987 38.0297 321.894 38.0178 321.817 37.965C321.747 37.8998 321.709 37.8157 321.702 37.7125L321.171 27.6277C321.162 27.5148 321.192 27.4123 321.262 27.3202C321.332 27.2281 321.421 27.1676 321.528 27.1388L325.521 26.0688C326.793 25.7279 327.807 25.7711 328.561 26.1984C329.313 26.6158 329.719 27.3881 329.78 28.5151C329.819 29.2493 329.683 29.9152 329.371 30.5127C329.069 31.1077 328.652 31.6074 328.121 32.0121L330.336 35.289C330.354 35.3158 330.365 35.3389 330.37 35.3585C330.376 35.3781 330.379 35.4087 330.379 35.4505C330.391 35.5314 330.366 35.6166 330.306 35.7061C330.244 35.7858 330.173 35.8361 330.095 35.8571L328.143 36.3803C327.957 36.4301 327.818 36.4201 327.725 36.3504C327.641 36.2683 327.573 36.192 327.523 36.1216L325.674 33.1555L324.176 33.5567L324.345 37.0045C324.351 37.1076 324.321 37.2101 324.254 37.312C324.184 37.4041 324.096 37.4646 323.988 37.4935L322.094 38.0009ZM324.043 31.3581L325.746 30.9018C326.206 30.7786 326.543 30.5677 326.757 30.2692C326.971 29.9706 327.07 29.6187 327.056 29.2135C327.032 28.8108 326.901 28.5156 326.661 28.328C326.432 28.1377 326.078 28.1068 325.598 28.2352L323.91 28.6876L324.043 31.3581ZM332.039 35.3363C331.941 35.3625 331.853 35.3492 331.776 35.2965C331.697 35.2339 331.653 35.1511 331.647 35.048L331.116 24.9631C331.107 24.8502 331.132 24.749 331.192 24.6595C331.262 24.5674 331.35 24.507 331.458 24.4781L333.014 24.0612C333.171 24.0192 333.287 24.0246 333.364 24.0774C333.442 24.1302 333.496 24.1784 333.529 24.2221L337.444 29.2621L337.135 23.3504C337.125 23.2375 337.156 23.135 337.225 23.0429C337.295 22.9508 337.379 22.8916 337.477 22.8654L339.238 22.3934C339.346 22.3645 339.438 22.3765 339.515 22.4293C339.592 22.482 339.636 22.5649 339.645 22.6778L340.157 32.7519C340.167 32.8648 340.138 32.9721 340.071 33.074C340.011 33.1635 339.927 33.2227 339.819 33.2515L338.263 33.6685C338.106 33.7104 337.99 33.705 337.913 33.6523C337.833 33.5897 337.778 33.5415 337.748 33.5076L333.859 28.681L334.157 34.3753C334.164 34.4784 334.133 34.581 334.066 34.6828C333.997 34.775 333.908 34.8354 333.8 34.8643L332.039 35.3363ZM342.604 32.5052C342.506 32.5315 342.419 32.5182 342.342 32.4654C342.262 32.4029 342.219 32.32 342.212 32.2169L341.681 22.1321C341.672 22.0192 341.702 21.9167 341.772 21.8246C341.842 21.7325 341.926 21.6733 342.024 21.6471L348.879 19.8101C348.987 19.7813 349.079 19.7932 349.156 19.846C349.233 19.8988 349.276 19.9816 349.286 20.0945L349.362 21.5531C349.371 21.666 349.341 21.7685 349.271 21.8606C349.201 21.9527 349.113 22.0132 349.005 22.0421L344.337 23.2929L344.427 25.3927L348.787 24.2245C348.895 24.1956 348.984 24.2138 349.054 24.279C349.131 24.3317 349.174 24.4146 349.183 24.5275L349.247 25.8794C349.253 25.9825 349.223 26.085 349.156 26.1869C349.096 26.2764 349.012 26.3355 348.905 26.3644L344.545 27.5326L344.666 29.6872L349.451 28.4049C349.559 28.3761 349.646 28.3893 349.714 28.4447C349.791 28.4975 349.834 28.5803 349.843 28.6932L349.919 30.1518C349.926 30.2549 349.896 30.3574 349.829 30.4593C349.769 30.5488 349.685 30.608 349.577 30.6368L342.604 32.5052ZM351.966 29.9969C351.868 30.0231 351.78 30.0098 351.703 29.957C351.624 29.8945 351.58 29.8117 351.574 29.7085L351.043 19.6237C351.034 19.5108 351.064 19.4083 351.134 19.3162C351.203 19.2241 351.287 19.1649 351.385 19.1387L354.967 18.1789C355.603 18.0085 356.209 17.9405 356.785 17.9751C357.37 18.007 357.895 18.1444 358.358 18.3873C358.829 18.6178 359.21 18.9616 359.5 19.4188C359.8 19.8733 359.973 20.4406 360.019 21.1206C360.066 21.5696 360.098 21.9647 360.116 22.306C360.134 22.6473 360.146 23.0428 360.151 23.4925C360.17 24.463 360.049 25.3031 359.788 26.0128C359.537 26.72 359.113 27.3108 358.516 27.7853C357.917 28.2501 357.109 28.6188 356.091 28.8916L351.966 29.9969ZM354.115 27.1553L355.656 26.7422C356.087 26.6269 356.437 26.4649 356.706 26.2564C356.983 26.0355 357.181 25.7569 357.301 25.4206C357.43 25.0817 357.487 24.6679 357.471 24.179C357.464 23.8769 357.454 23.6067 357.443 23.3685C357.441 23.1277 357.43 22.8894 357.409 22.6539C357.397 22.4157 357.38 22.153 357.355 21.8658C357.294 21.1689 357.091 20.7041 356.745 20.4715C356.397 20.2292 355.9 20.1945 355.254 20.3676L353.786 20.7609L354.115 27.1553Z" fill="white"/>
</g>
<g filter="url(#filter2_d_1015_673)">
<path d="M389.934 37.28C388.179 37.28 386.686 36.9907 385.454 36.412C384.241 35.8147 383.298 34.956 382.626 33.836C381.954 32.6973 381.581 31.316 381.506 29.692C381.487 28.9267 381.478 28.1053 381.478 27.228C381.478 26.3507 381.487 25.5107 381.506 24.708C381.581 23.1027 381.954 21.74 382.626 20.62C383.317 19.4813 384.278 18.6133 385.51 18.016C386.742 17.4187 388.217 17.12 389.934 17.12C391.185 17.12 392.323 17.2787 393.35 17.596C394.377 17.9133 395.263 18.3707 396.01 18.968C396.757 19.5653 397.335 20.2653 397.746 21.068C398.157 21.8707 398.381 22.7667 398.418 23.756C398.418 23.924 398.353 24.064 398.222 24.176C398.11 24.288 397.97 24.344 397.802 24.344H394.61C394.386 24.344 394.209 24.288 394.078 24.176C393.947 24.064 393.845 23.8773 393.77 23.616C393.49 22.5147 393.023 21.7587 392.37 21.348C391.717 20.9373 390.905 20.732 389.934 20.732C388.777 20.732 387.862 21.0493 387.19 21.684C386.518 22.3187 386.154 23.3733 386.098 24.848C386.042 26.3787 386.042 27.9467 386.098 29.552C386.154 31.0267 386.518 32.0813 387.19 32.716C387.862 33.3507 388.777 33.668 389.934 33.668C390.905 33.668 391.717 33.4627 392.37 33.052C393.042 32.6227 393.509 31.8667 393.77 30.784C393.845 30.504 393.947 30.3173 394.078 30.224C394.209 30.112 394.386 30.056 394.61 30.056H397.802C397.97 30.056 398.11 30.112 398.222 30.224C398.353 30.336 398.418 30.476 398.418 30.644C398.381 31.6333 398.157 32.5293 397.746 33.332C397.335 34.1347 396.757 34.8347 396.01 35.432C395.263 36.0293 394.377 36.4867 393.35 36.804C392.323 37.1213 391.185 37.28 389.934 37.28ZM409.348 37.28C407.65 37.28 406.184 37 404.952 36.44C403.72 35.88 402.759 35.04 402.068 33.92C401.378 32.7813 401.004 31.3533 400.948 29.636C400.93 28.8333 400.92 28.04 400.92 27.256C400.92 26.4533 400.93 25.6413 400.948 24.82C401.004 23.14 401.378 21.7307 402.068 20.592C402.778 19.4347 403.748 18.5667 404.98 17.988C406.231 17.4093 407.687 17.12 409.348 17.12C410.991 17.12 412.428 17.4093 413.66 17.988C414.911 18.5667 415.891 19.4347 416.6 20.592C417.31 21.7307 417.683 23.14 417.72 24.82C417.758 25.6413 417.776 26.4533 417.776 27.256C417.776 28.04 417.758 28.8333 417.72 29.636C417.664 31.3533 417.291 32.7813 416.6 33.92C415.91 35.04 414.948 35.88 413.716 36.44C412.484 37 411.028 37.28 409.348 37.28ZM409.348 33.668C410.431 33.668 411.318 33.3413 412.008 32.688C412.718 32.016 413.091 30.952 413.128 29.496C413.166 28.6747 413.184 27.9093 413.184 27.2C413.184 26.472 413.166 25.7067 413.128 24.904C413.11 23.9333 412.932 23.14 412.596 22.524C412.26 21.908 411.812 21.46 411.252 21.18C410.711 20.8813 410.076 20.732 409.348 20.732C408.62 20.732 407.976 20.8813 407.416 21.18C406.856 21.46 406.408 21.908 406.072 22.524C405.755 23.14 405.578 23.9333 405.54 24.904C405.522 25.7067 405.512 26.472 405.512 27.2C405.512 27.9093 405.522 28.6747 405.54 29.496C405.596 30.952 405.97 32.016 406.66 32.688C407.351 33.3413 408.247 33.668 409.348 33.668ZM421.952 37C421.746 37 421.578 36.9347 421.448 36.804C421.317 36.6733 421.252 36.5053 421.252 36.3V18.1C421.252 17.8947 421.317 17.7267 421.448 17.596C421.578 17.4653 421.746 17.4 421.952 17.4H425.116C425.321 17.4 425.489 17.4653 425.62 17.596C425.75 17.7267 425.816 17.8947 425.816 18.1V36.3C425.816 36.5053 425.75 36.6733 425.62 36.804C425.489 36.9347 425.321 37 425.116 37H421.952ZM430.647 37C430.442 37 430.274 36.9347 430.143 36.804C430.012 36.6733 429.947 36.5053 429.947 36.3V18.1C429.947 17.8947 430.012 17.7267 430.143 17.596C430.274 17.4653 430.442 17.4 430.647 17.4H433.195C433.475 17.4 433.68 17.4653 433.811 17.596C433.942 17.7267 434.026 17.8293 434.063 17.904L441.539 29.58V18.1C441.539 17.8947 441.604 17.7267 441.735 17.596C441.866 17.4653 442.024 17.4 442.211 17.4H445.067C445.272 17.4 445.44 17.4653 445.571 17.596C445.702 17.7267 445.767 17.8947 445.767 18.1V36.3C445.767 36.4867 445.702 36.6547 445.571 36.804C445.44 36.9347 445.272 37 445.067 37H442.491C442.211 37 442.006 36.9347 441.875 36.804C441.763 36.6547 441.679 36.552 441.623 36.496L434.175 25.184V36.3C434.175 36.5053 434.11 36.6733 433.979 36.804C433.848 36.9347 433.68 37 433.475 37H430.647ZM456.964 37.28C455.172 37.28 453.669 37.0187 452.456 36.496C451.261 35.9733 450.356 35.292 449.74 34.452C449.124 33.612 448.797 32.716 448.76 31.764C448.76 31.6147 448.816 31.484 448.928 31.372C449.04 31.2413 449.18 31.176 449.348 31.176H452.344C452.587 31.176 452.773 31.232 452.904 31.344C453.035 31.4373 453.156 31.5587 453.268 31.708C453.399 32.0253 453.604 32.3333 453.884 32.632C454.183 32.9307 454.584 33.1827 455.088 33.388C455.592 33.5747 456.217 33.668 456.964 33.668C458.177 33.668 459.083 33.472 459.68 33.08C460.296 32.688 460.604 32.156 460.604 31.484C460.604 30.9987 460.436 30.6067 460.1 30.308C459.783 30.0093 459.269 29.7387 458.56 29.496C457.869 29.2533 456.945 28.992 455.788 28.712C454.388 28.4133 453.193 28.0307 452.204 27.564C451.233 27.0787 450.496 26.4627 449.992 25.716C449.507 24.9507 449.264 24.008 449.264 22.888C449.264 21.768 449.572 20.7787 450.188 19.92C450.804 19.0427 451.672 18.3613 452.792 17.876C453.912 17.372 455.247 17.12 456.796 17.12C458.047 17.12 459.148 17.288 460.1 17.624C461.071 17.96 461.873 18.3987 462.508 18.94C463.161 19.4813 463.656 20.06 463.992 20.676C464.328 21.292 464.505 21.8893 464.524 22.468C464.524 22.6173 464.468 22.7573 464.356 22.888C464.244 23 464.104 23.056 463.936 23.056H460.8C460.613 23.056 460.445 23.0187 460.296 22.944C460.147 22.8693 460.025 22.7387 459.932 22.552C459.82 22.0667 459.484 21.6467 458.924 21.292C458.383 20.9187 457.673 20.732 456.796 20.732C455.881 20.732 455.153 20.9 454.612 21.236C454.089 21.572 453.828 22.0853 453.828 22.776C453.828 23.224 453.959 23.6067 454.22 23.924C454.5 24.2227 454.957 24.4933 455.592 24.736C456.245 24.96 457.104 25.212 458.168 25.492C459.811 25.828 461.145 26.2293 462.172 26.696C463.199 27.1627 463.955 27.7693 464.44 28.516C464.925 29.244 465.168 30.168 465.168 31.288C465.168 32.5387 464.813 33.612 464.104 34.508C463.413 35.404 462.452 36.0947 461.22 36.58C460.007 37.0467 458.588 37.28 456.964 37.28ZM468.65 31.204C468.444 31.204 468.276 31.1387 468.146 31.008C468.015 30.8773 467.95 30.7093 467.95 30.504V18.1C467.95 17.8947 468.015 17.7267 468.146 17.596C468.276 17.4653 468.444 17.4 468.65 17.4H471.366C471.571 17.4 471.739 17.4653 471.87 17.596C472 17.7267 472.066 17.8947 472.066 18.1V30.504C472.066 30.7093 472 30.8773 471.87 31.008C471.739 31.1387 471.571 31.204 471.366 31.204H468.65ZM468.482 37C468.295 37 468.136 36.9347 468.006 36.804C467.875 36.6733 467.81 36.5053 467.81 36.3V33.304C467.81 33.0987 467.875 32.9307 468.006 32.8C468.136 32.6693 468.295 32.604 468.482 32.604H471.506C471.711 32.604 471.879 32.6693 472.01 32.8C472.14 32.9307 472.206 33.0987 472.206 33.304V36.3C472.206 36.5053 472.14 36.6733 472.01 36.804C471.879 36.9347 471.711 37 471.506 37H468.482Z" fill="white"/>
</g>
<defs>
<filter id="filter0_d_1015_673" x="0.887207" y="17.12" width="285.712" height="28.16" filterUnits="userSpaceOnUse" color-interpolation-filters="sRGB">
<feFlood flood-opacity="0" result="BackgroundImageFix"/>
<feColorMatrix in="SourceAlpha" type="matrix" values="0 0 0 0 0 0 0 0 0 0 0 0 0 0 0 0 0 0 127 0" result="hardAlpha"/>
<feOffset dy="4"/>
<feGaussianBlur stdDeviation="2"/>
<feComposite in2="hardAlpha" operator="out"/>
<feColorMatrix type="matrix" values="0 0 0 0 0 0 0 0 0 0 0 0 0 0 0 0 0 0 0.25 0"/>
<feBlend mode="normal" in2="BackgroundImageFix" result="effect1_dropShadow_1015_673"/>
<feBlend mode="normal" in="SourceGraphic" in2="effect1_dropShadow_1015_673" result="shape"/>
</filter>
<filter id="filter1_d_1015_673" x="290.989" y="2.57288" width="74.9004" height="48.9128" filterUnits="userSpaceOnUse" color-interpolation-filters="sRGB">
<feFlood flood-opacity="0" result="BackgroundImageFix"/>
<feColorMatrix in="SourceAlpha" type="matrix" values="0 0 0 0 0 0 0 0 0 0 0 0 0 0 0 0 0 0 127 0" result="hardAlpha"/>
<feOffset dy="4"/>
<feGaussianBlur stdDeviation="2"/>
<feComposite in2="hardAlpha" operator="out"/>
<feColorMatrix type="matrix" values="0 0 0 0 0 0 0 0 0 0 0 0 0 0 0 0 0 0 0.25 0"/>
<feBlend mode="normal" in2="BackgroundImageFix" result="effect1_dropShadow_1015_673"/>
<feBlend mode="normal" in="SourceGraphic" in2="effect1_dropShadow_1015_673" result="shape"/>
</filter>
<filter id="filter2_d_1015_673" x="377.478" y="17.12" width="98.7271" height="28.16" filterUnits="userSpaceOnUse" color-interpolation-filters="sRGB">
<feFlood flood-opacity="0" result="BackgroundImageFix"/>
<feColorMatrix in="SourceAlpha" type="matrix" values="0 0 0 0 0 0 0 0 0 0 0 0 0 0 0 0 0 0 127 0" result="hardAlpha"/>
<feOffset dy="4"/>
<feGaussianBlur stdDeviation="2"/>
<feComposite in2="hardAlpha" operator="out"/>
<feColorMatrix type="matrix" values="0 0 0 0 0 0 0 0 0 0 0 0 0 0 0 0 0 0 0.25 0"/>
<feBlend mode="normal" in2="BackgroundImageFix" result="effect1_dropShadow_1015_673"/>
<feBlend mode="normal" in="SourceGraphic" in2="effect1_dropShadow_1015_673" result="shape"/>
</filter>
</defs>
</svg>
