<svg width="439" height="115" viewBox="0 0 439 115" fill="none" xmlns="http://www.w3.org/2000/svg">
<path d="M8.96 35C8.76 35 8.6 34.93 8.48 34.79C8.36 34.63 8.32 34.45 8.36 34.25L12.5 14.75C12.54 14.53 12.64 14.35 12.8 14.21C12.98 14.07 13.18 14 13.4 14H16.58C16.9 14 17.12 14.07 17.24 14.21C17.36 14.35 17.44 14.47 17.48 14.57L22.37 26.18L24.8 14.75C24.84 14.53 24.95 14.35 25.13 14.21C25.31 14.07 25.5 14 25.7 14H29.3C29.52 14 29.69 14.07 29.81 14.21C29.93 14.35 29.97 14.53 29.93 14.75L25.76 34.22C25.72 34.44 25.61 34.63 25.43 34.79C25.27 34.93 25.08 35 24.86 35H21.68C21.36 35 21.14 34.93 21.02 34.79C20.9 34.63 20.82 34.51 20.78 34.43L15.83 23.24L13.49 34.25C13.45 34.45 13.34 34.63 13.16 34.79C12.98 34.93 12.78 35 12.56 35H8.96ZM28.6618 35C28.4218 35 28.2518 34.9 28.1518 34.7C28.0518 34.5 28.0618 34.3 28.1818 34.1L39.3118 14.84C39.4318 14.62 39.6018 14.43 39.8218 14.27C40.0418 14.09 40.3218 14 40.6618 14H45.2818C45.6218 14 45.8618 14.09 46.0018 14.27C46.1618 14.43 46.2518 14.62 46.2718 14.84L49.2118 34.1C49.2718 34.38 49.2218 34.6 49.0618 34.76C48.9018 34.92 48.7218 35 48.5218 35H44.8918C44.5918 35 44.3718 34.93 44.2318 34.79C44.1118 34.65 44.0318 34.48 43.9918 34.28L43.4818 31.31H35.4718L33.6718 34.37C33.5718 34.51 33.4318 34.65 33.2518 34.79C33.0918 34.93 32.8618 35 32.5618 35H28.6618ZM37.6018 26.99H43.1818L42.0718 19.07L37.6018 26.99ZM54.4777 35C54.2577 35 54.0877 34.93 53.9677 34.79C53.8477 34.63 53.8077 34.45 53.8477 34.25L57.1777 18.71H51.8377C51.6377 18.71 51.4777 18.64 51.3577 18.5C51.2377 18.34 51.1977 18.16 51.2377 17.96L51.9277 14.75C51.9677 14.53 52.0677 14.35 52.2277 14.21C52.4077 14.07 52.6077 14 52.8277 14H68.9677C69.1877 14 69.3477 14.07 69.4477 14.21C69.5677 14.35 69.6077 14.53 69.5677 14.75L68.8777 17.96C68.8377 18.16 68.7277 18.34 68.5477 18.5C68.3877 18.64 68.1977 18.71 67.9777 18.71H62.6677L59.3377 34.25C59.2977 34.45 59.1877 34.63 59.0077 34.79C58.8477 34.93 58.6577 35 58.4377 35H54.4777ZM68.6963 35C68.4963 35 68.3363 34.93 68.2163 34.79C68.0963 34.63 68.0563 34.45 68.0963 34.25L72.2363 14.75C72.2763 14.53 72.3863 14.35 72.5663 14.21C72.7463 14.07 72.9363 14 73.1363 14H87.1463C87.3663 14 87.5363 14.07 87.6563 14.21C87.7763 14.35 87.8163 14.53 87.7763 14.75L87.1763 17.57C87.1363 17.79 87.0263 17.97 86.8463 18.11C86.6663 18.25 86.4663 18.32 86.2463 18.32H76.7063L75.8063 22.37H84.7163C84.9363 22.37 85.0963 22.45 85.1963 22.61C85.3163 22.75 85.3563 22.93 85.3163 23.15L84.7463 25.76C84.7063 25.96 84.5963 26.14 84.4163 26.3C84.2563 26.44 84.0663 26.51 83.8463 26.51H74.9363L74.0663 30.68H83.8463C84.0663 30.68 84.2263 30.75 84.3263 30.89C84.4463 31.03 84.4863 31.21 84.4463 31.43L83.8463 34.25C83.8063 34.45 83.6963 34.63 83.5163 34.79C83.3563 34.93 83.1663 35 82.9463 35H68.6963ZM94.3311 35C94.1311 35 93.9711 34.93 93.8511 34.79C93.7311 34.63 93.6911 34.45 93.7311 34.25L97.8711 14.75C97.9111 14.53 98.0211 14.35 98.2011 14.21C98.3811 14.07 98.5711 14 98.7711 14H106.751C107.971 14 109.071 14.14 110.051 14.42C111.051 14.7 111.881 15.13 112.541 15.71C113.201 16.29 113.661 17.02 113.921 17.9C114.181 18.76 114.191 19.77 113.951 20.93C113.471 23.23 112.461 24.93 110.921 26.03C109.381 27.13 107.321 27.68 104.741 27.68H100.691L99.3111 34.25C99.2711 34.45 99.1611 34.63 98.9811 34.79C98.8211 34.93 98.6311 35 98.4111 35H94.3311ZM101.501 23.54H104.951C105.751 23.54 106.471 23.32 107.111 22.88C107.771 22.44 108.201 21.77 108.401 20.87C108.501 20.35 108.521 19.89 108.461 19.49C108.401 19.09 108.191 18.77 107.831 18.53C107.491 18.29 106.961 18.17 106.241 18.17H102.641L101.501 23.54ZM111.572 35C111.332 35 111.162 34.9 111.062 34.7C110.962 34.5 110.972 34.3 111.092 34.1L122.222 14.84C122.342 14.62 122.512 14.43 122.732 14.27C122.952 14.09 123.232 14 123.572 14H128.192C128.532 14 128.772 14.09 128.912 14.27C129.072 14.43 129.162 14.62 129.182 14.84L132.122 34.1C132.182 34.38 132.132 34.6 131.972 34.76C131.812 34.92 131.632 35 131.432 35H127.802C127.502 35 127.282 34.93 127.142 34.79C127.022 34.65 126.942 34.48 126.902 34.28L126.392 31.31H118.382L116.582 34.37C116.482 34.51 116.342 34.65 116.162 34.79C116.002 34.93 115.772 35 115.472 35H111.572ZM120.512 26.99H126.092L124.982 19.07L120.512 26.99ZM135.503 35C135.283 35 135.113 34.93 134.993 34.79C134.893 34.63 134.863 34.45 134.903 34.25L139.043 14.75C139.083 14.53 139.193 14.35 139.373 14.21C139.553 14.07 139.753 14 139.973 14H148.133C150.733 14 152.643 14.6 153.863 15.8C155.083 16.98 155.463 18.66 155.003 20.84C154.703 22.26 154.103 23.46 153.203 24.44C152.323 25.42 151.273 26.16 150.053 26.66L152.603 34.04C152.623 34.1 152.633 34.15 152.633 34.19C152.633 34.23 152.623 34.29 152.603 34.37C152.583 34.53 152.493 34.68 152.333 34.82C152.173 34.94 152.013 35 151.853 35H147.863C147.483 35 147.223 34.91 147.083 34.73C146.963 34.53 146.873 34.35 146.813 34.19L144.803 27.59H141.743L140.303 34.25C140.263 34.45 140.153 34.63 139.973 34.79C139.793 34.93 139.593 35 139.373 35H135.503ZM142.613 23.33H146.093C147.033 23.33 147.783 23.1 148.343 22.64C148.903 22.18 149.273 21.56 149.453 20.78C149.613 20 149.513 19.37 149.153 18.89C148.813 18.41 148.153 18.17 147.173 18.17H143.723L142.613 23.33ZM156.245 35C156.025 35 155.855 34.93 155.735 34.79C155.635 34.63 155.605 34.45 155.645 34.25L159.785 14.75C159.825 14.53 159.935 14.35 160.115 14.21C160.295 14.07 160.495 14 160.715 14H168.875C171.475 14 173.385 14.6 174.605 15.8C175.825 16.98 176.205 18.66 175.745 20.84C175.445 22.26 174.845 23.46 173.945 24.44C173.065 25.42 172.015 26.16 170.795 26.66L173.345 34.04C173.365 34.1 173.375 34.15 173.375 34.19C173.375 34.23 173.365 34.29 173.345 34.37C173.325 34.53 173.235 34.68 173.075 34.82C172.915 34.94 172.755 35 172.595 35H168.605C168.225 35 167.965 34.91 167.825 34.73C167.705 34.53 167.615 34.35 167.555 34.19L165.545 27.59H162.485L161.045 34.25C161.005 34.45 160.895 34.63 160.715 34.79C160.535 34.93 160.335 35 160.115 35H156.245ZM163.355 23.33H166.835C167.775 23.33 168.525 23.1 169.085 22.64C169.645 22.18 170.015 21.56 170.195 20.78C170.355 20 170.255 19.37 169.895 18.89C169.555 18.41 168.895 18.17 167.915 18.17H164.465L163.355 23.33ZM184.7 35.3C183.44 35.3 182.27 35.13 181.19 34.79C180.13 34.45 179.22 33.94 178.46 33.26C177.72 32.58 177.19 31.73 176.87 30.71C176.57 29.69 176.53 28.5 176.75 27.14C176.91 26.28 177.08 25.42 177.26 24.56C177.46 23.68 177.66 22.81 177.86 21.95C178.52 19.25 179.71 17.2 181.43 15.8C183.15 14.4 185.47 13.7 188.39 13.7C189.65 13.7 190.81 13.88 191.87 14.24C192.95 14.58 193.86 15.1 194.6 15.8C195.36 16.5 195.89 17.36 196.19 18.38C196.51 19.4 196.55 20.59 196.31 21.95C196.17 22.81 196 23.68 195.8 24.56C195.62 25.42 195.43 26.28 195.23 27.14C194.55 29.88 193.35 31.93 191.63 33.29C189.91 34.63 187.6 35.3 184.7 35.3ZM185.12 30.98C186.2 30.98 187.14 30.66 187.94 30.02C188.76 29.38 189.34 28.36 189.68 26.96C189.9 26.08 190.09 25.25 190.25 24.47C190.43 23.69 190.59 22.88 190.73 22.04C190.99 20.64 190.87 19.62 190.37 18.98C189.87 18.34 189.08 18.02 188 18.02C186.92 18.02 185.97 18.34 185.15 18.98C184.35 19.62 183.78 20.64 183.44 22.04C183.22 22.88 183.02 23.69 182.84 24.47C182.68 25.25 182.52 26.08 182.36 26.96C182.12 28.36 182.24 29.38 182.72 30.02C183.2 30.66 184 30.98 185.12 30.98ZM201.988 35C201.768 35 201.598 34.93 201.478 34.79C201.358 34.63 201.318 34.45 201.358 34.25L204.688 18.71H199.348C199.148 18.71 198.988 18.64 198.868 18.5C198.748 18.34 198.708 18.16 198.748 17.96L199.438 14.75C199.478 14.53 199.578 14.35 199.738 14.21C199.918 14.07 200.118 14 200.338 14H216.478C216.698 14 216.858 14.07 216.958 14.21C217.078 14.35 217.118 14.53 217.078 14.75L216.388 17.96C216.348 18.16 216.238 18.34 216.058 18.5C215.898 18.64 215.708 18.71 215.488 18.71H210.178L206.848 34.25C206.808 34.45 206.698 34.63 206.518 34.79C206.358 34.93 206.168 35 205.948 35H201.988ZM220.796 35C220.576 35 220.406 34.93 220.286 34.79C220.166 34.63 220.126 34.45 220.166 34.25L223.496 18.71H218.156C217.956 18.71 217.796 18.64 217.676 18.5C217.556 18.34 217.516 18.16 217.556 17.96L218.246 14.75C218.286 14.53 218.386 14.35 218.546 14.21C218.726 14.07 218.926 14 219.146 14H235.286C235.506 14 235.666 14.07 235.766 14.21C235.886 14.35 235.926 14.53 235.886 14.75L235.196 17.96C235.156 18.16 235.046 18.34 234.866 18.5C234.706 18.64 234.516 18.71 234.296 18.71H228.986L225.656 34.25C225.616 34.45 225.506 34.63 225.326 34.79C225.166 34.93 224.976 35 224.756 35H220.796Z" fill="white"/>
<path d="M10.04 72C9.90667 72 9.79333 71.9533 9.7 71.86C9.60667 71.7667 9.56 71.6533 9.56 71.52V58.5C9.56 58.3533 9.60667 58.2333 9.7 58.14C9.79333 58.0467 9.90667 58 10.04 58H14.92C16.2667 58 17.3733 58.2067 18.24 58.62C19.12 59.0333 19.78 59.6467 20.22 60.46C20.6733 61.2733 20.9067 62.2667 20.92 63.44C20.9467 64.0267 20.96 64.5467 20.96 65C20.96 65.4533 20.9467 65.9667 20.92 66.54C20.8933 67.78 20.6667 68.8067 20.24 69.62C19.8133 70.42 19.1667 71.02 18.3 71.42C17.4467 71.8067 16.3533 72 15.02 72H10.04ZM12.34 69.7H14.92C15.6667 69.7 16.2733 69.5933 16.74 69.38C17.2067 69.1667 17.5467 68.8267 17.76 68.36C17.9867 67.88 18.1067 67.2533 18.12 66.48C18.1333 66.08 18.14 65.7333 18.14 65.44C18.1533 65.1333 18.1533 64.8333 18.14 64.54C18.14 64.2333 18.1333 63.8867 18.12 63.5C18.0933 62.4067 17.82 61.6 17.3 61.08C16.78 60.56 15.9533 60.3 14.82 60.3H12.34V69.7ZM27.8625 72.2C26.3825 72.2 25.2092 71.7733 24.3425 70.92C23.4758 70.0667 23.0092 68.8533 22.9425 67.28C22.9292 67.1467 22.9225 66.98 22.9225 66.78C22.9225 66.5667 22.9292 66.4 22.9425 66.28C22.9958 65.2667 23.2225 64.4 23.6225 63.68C24.0358 62.9467 24.6025 62.3867 25.3225 62C26.0425 61.6 26.8892 61.4 27.8625 61.4C28.9425 61.4 29.8492 61.6267 30.5825 62.08C31.3158 62.52 31.8692 63.14 32.2425 63.94C32.6158 64.7267 32.8025 65.64 32.8025 66.68V67.1C32.8025 67.2333 32.7558 67.3467 32.6625 67.44C32.5692 67.5333 32.4492 67.58 32.3025 67.58H25.6625C25.6625 67.58 25.6625 67.6 25.6625 67.64C25.6625 67.68 25.6625 67.7133 25.6625 67.74C25.6758 68.2067 25.7625 68.64 25.9225 69.04C26.0958 69.4267 26.3425 69.74 26.6625 69.98C26.9958 70.22 27.3892 70.34 27.8425 70.34C28.2158 70.34 28.5292 70.2867 28.7825 70.18C29.0358 70.06 29.2425 69.9267 29.4025 69.78C29.5625 69.6333 29.6758 69.5133 29.7425 69.42C29.8625 69.26 29.9558 69.1667 30.0225 69.14C30.1025 69.1 30.2158 69.08 30.3625 69.08H32.0825C32.2158 69.08 32.3225 69.12 32.4025 69.2C32.4958 69.28 32.5358 69.38 32.5225 69.5C32.5092 69.7133 32.3958 69.9733 32.1825 70.28C31.9825 70.5867 31.6892 70.8867 31.3025 71.18C30.9158 71.4733 30.4292 71.72 29.8425 71.92C29.2692 72.1067 28.6092 72.2 27.8625 72.2ZM25.6625 65.9H30.0825V65.84C30.0825 65.32 29.9958 64.8667 29.8225 64.48C29.6492 64.08 29.3958 63.7733 29.0625 63.56C28.7292 63.3333 28.3292 63.22 27.8625 63.22C27.3958 63.22 26.9958 63.3333 26.6625 63.56C26.3292 63.7733 26.0758 64.08 25.9025 64.48C25.7425 64.8667 25.6625 65.32 25.6625 65.84V65.9ZM38.8655 72.2C38.0655 72.2 37.3788 72.1067 36.8055 71.92C36.2455 71.7333 35.7855 71.5 35.4255 71.22C35.0655 70.94 34.7988 70.66 34.6255 70.38C34.4521 70.1 34.3588 69.8667 34.3455 69.68C34.3321 69.5333 34.3721 69.42 34.4655 69.34C34.5721 69.2467 34.6855 69.2 34.8055 69.2H36.3855C36.4388 69.2 36.4855 69.2067 36.5255 69.22C36.5655 69.2333 36.6188 69.2733 36.6855 69.34C36.8588 69.4867 37.0388 69.64 37.2255 69.8C37.4255 69.96 37.6588 70.1 37.9255 70.22C38.1921 70.3267 38.5255 70.38 38.9255 70.38C39.4455 70.38 39.8788 70.28 40.2255 70.08C40.5855 69.8667 40.7655 69.5667 40.7655 69.18C40.7655 68.9 40.6855 68.6733 40.5255 68.5C40.3788 68.3267 40.0988 68.1733 39.6855 68.04C39.2721 67.8933 38.6855 67.74 37.9255 67.58C37.1788 67.4067 36.5588 67.1867 36.0655 66.92C35.5721 66.6533 35.2055 66.32 34.9655 65.92C34.7255 65.52 34.6055 65.0533 34.6055 64.52C34.6055 64 34.7588 63.5067 35.0655 63.04C35.3855 62.56 35.8521 62.1667 36.4655 61.86C37.0921 61.5533 37.8655 61.4 38.7855 61.4C39.5055 61.4 40.1321 61.4933 40.6655 61.68C41.1988 61.8533 41.6388 62.0733 41.9855 62.34C42.3455 62.6067 42.6188 62.88 42.8055 63.16C42.9921 63.4267 43.0921 63.66 43.1055 63.86C43.1188 64.0067 43.0788 64.1267 42.9855 64.22C42.8921 64.3 42.7855 64.34 42.6655 64.34H41.1855C41.1188 64.34 41.0588 64.3267 41.0055 64.3C40.9521 64.2733 40.8988 64.24 40.8455 64.2C40.6988 64.0667 40.5388 63.9267 40.3655 63.78C40.1921 63.62 39.9788 63.4867 39.7255 63.38C39.4855 63.2733 39.1655 63.22 38.7655 63.22C38.2588 63.22 37.8721 63.3333 37.6055 63.56C37.3388 63.7733 37.2055 64.0467 37.2055 64.38C37.2055 64.6067 37.2655 64.8067 37.3855 64.98C37.5188 65.14 37.7788 65.2933 38.1655 65.44C38.5521 65.5867 39.1388 65.74 39.9255 65.9C40.8188 66.06 41.5255 66.3 42.0455 66.62C42.5788 66.9267 42.9521 67.2867 43.1655 67.7C43.3921 68.1 43.5055 68.5467 43.5055 69.04C43.5055 69.64 43.3255 70.18 42.9655 70.66C42.6188 71.14 42.0988 71.52 41.4055 71.8C40.7255 72.0667 39.8788 72.2 38.8655 72.2ZM46.05 72C45.9167 72 45.8033 71.9533 45.71 71.86C45.6167 71.7667 45.57 71.6533 45.57 71.52V62.08C45.57 61.9467 45.6167 61.8333 45.71 61.74C45.8033 61.6467 45.9167 61.6 46.05 61.6H47.71C47.8567 61.6 47.97 61.6467 48.05 61.74C48.1433 61.8333 48.19 61.9467 48.19 62.08V71.52C48.19 71.6533 48.1433 71.7667 48.05 71.86C47.97 71.9533 47.8567 72 47.71 72H46.05ZM45.97 59.88C45.8367 59.88 45.7233 59.8333 45.63 59.74C45.5367 59.6467 45.49 59.5333 45.49 59.4V57.96C45.49 57.8267 45.5367 57.7133 45.63 57.62C45.7233 57.5267 45.8367 57.48 45.97 57.48H47.79C47.9367 57.48 48.0567 57.5267 48.15 57.62C48.2433 57.7133 48.29 57.8267 48.29 57.96V59.4C48.29 59.5333 48.2433 59.6467 48.15 59.74C48.0567 59.8333 47.9367 59.88 47.79 59.88H45.97ZM55.5434 76.4C54.5701 76.4 53.7701 76.2733 53.1434 76.02C52.5168 75.7667 52.0234 75.46 51.6634 75.1C51.3034 74.74 51.0434 74.38 50.8834 74.02C50.7368 73.6733 50.6568 73.4 50.6434 73.2C50.6301 73.0667 50.6701 72.9467 50.7634 72.84C50.8701 72.7467 50.9901 72.7 51.1234 72.7H52.8634C52.9968 72.7 53.1034 72.7267 53.1834 72.78C53.2634 72.8467 53.3301 72.96 53.3834 73.12C53.4634 73.2933 53.5701 73.48 53.7034 73.68C53.8368 73.88 54.0368 74.0467 54.3034 74.18C54.5834 74.3267 54.9634 74.4 55.4434 74.4C55.9501 74.4 56.3768 74.3267 56.7234 74.18C57.0701 74.0333 57.3301 73.7867 57.5034 73.44C57.6901 73.0933 57.7834 72.6133 57.7834 72V70.64C57.4634 71.0267 57.0501 71.34 56.5434 71.58C56.0501 71.82 55.4368 71.94 54.7034 71.94C53.9968 71.94 53.3768 71.8267 52.8434 71.6C52.3234 71.36 51.8901 71.0333 51.5434 70.62C51.1968 70.1933 50.9301 69.6933 50.7434 69.12C50.5701 68.5467 50.4701 67.9133 50.4434 67.22C50.4301 66.86 50.4301 66.5 50.4434 66.14C50.4701 65.4733 50.5701 64.8533 50.7434 64.28C50.9301 63.7067 51.1968 63.2067 51.5434 62.78C51.8901 62.34 52.3234 62 52.8434 61.76C53.3768 61.52 53.9968 61.4 54.7034 61.4C55.4634 61.4 56.1034 61.5467 56.6234 61.84C57.1434 62.12 57.5701 62.4733 57.9034 62.9V62.1C57.9034 61.9533 57.9501 61.8333 58.0434 61.74C58.1368 61.6467 58.2501 61.6 58.3834 61.6H60.0034C60.1368 61.6 60.2501 61.6467 60.3434 61.74C60.4368 61.8333 60.4834 61.9533 60.4834 62.1L60.5034 71.74C60.5034 72.7 60.3234 73.5267 59.9634 74.22C59.6034 74.9133 59.0568 75.4467 58.3234 75.82C57.6034 76.2067 56.6768 76.4 55.5434 76.4ZM55.4434 69.82C55.9901 69.82 56.4301 69.7 56.7634 69.46C57.0968 69.22 57.3434 68.9067 57.5034 68.52C57.6634 68.1333 57.7568 67.74 57.7834 67.34C57.7968 67.1667 57.8034 66.9467 57.8034 66.68C57.8034 66.4133 57.7968 66.2 57.7834 66.04C57.7568 65.6267 57.6634 65.2333 57.5034 64.86C57.3434 64.4733 57.0968 64.16 56.7634 63.92C56.4301 63.6667 55.9901 63.54 55.4434 63.54C54.8968 63.54 54.4568 63.6667 54.1234 63.92C53.7901 64.16 53.5501 64.48 53.4034 64.88C53.2701 65.28 53.1901 65.72 53.1634 66.2C53.1368 66.52 53.1368 66.8467 53.1634 67.18C53.1901 67.6467 53.2701 68.0867 53.4034 68.5C53.5501 68.9 53.7901 69.22 54.1234 69.46C54.4568 69.7 54.8968 69.82 55.4434 69.82ZM63.6477 72C63.5143 72 63.401 71.9533 63.3077 71.86C63.2143 71.7667 63.1677 71.6533 63.1677 71.52V62.08C63.1677 61.9467 63.2143 61.8333 63.3077 61.74C63.401 61.6467 63.5143 61.6 63.6477 61.6H65.2877C65.421 61.6 65.5343 61.6467 65.6277 61.74C65.721 61.8333 65.7677 61.9467 65.7677 62.08V62.9C66.1143 62.4733 66.5543 62.12 67.0877 61.84C67.6343 61.5467 68.3077 61.4 69.1077 61.4C69.921 61.4 70.6277 61.5867 71.2277 61.96C71.8277 62.32 72.2877 62.8333 72.6077 63.5C72.941 64.1667 73.1077 64.9667 73.1077 65.9V71.52C73.1077 71.6533 73.061 71.7667 72.9677 71.86C72.8743 71.9533 72.761 72 72.6277 72H70.8677C70.7343 72 70.621 71.9533 70.5277 71.86C70.4343 71.7667 70.3877 71.6533 70.3877 71.52V66.02C70.3877 65.2467 70.1943 64.64 69.8077 64.2C69.4343 63.76 68.8877 63.54 68.1677 63.54C67.4743 63.54 66.921 63.76 66.5077 64.2C66.0943 64.64 65.8877 65.2467 65.8877 66.02V71.52C65.8877 71.6533 65.841 71.7667 65.7477 71.86C65.6543 71.9533 65.541 72 65.4077 72H63.6477ZM80.1281 72.2C78.6481 72.2 77.4748 71.7733 76.6081 70.92C75.7415 70.0667 75.2748 68.8533 75.2081 67.28C75.1948 67.1467 75.1881 66.98 75.1881 66.78C75.1881 66.5667 75.1948 66.4 75.2081 66.28C75.2615 65.2667 75.4881 64.4 75.8881 63.68C76.3015 62.9467 76.8681 62.3867 77.5881 62C78.3081 61.6 79.1548 61.4 80.1281 61.4C81.2081 61.4 82.1148 61.6267 82.8481 62.08C83.5815 62.52 84.1348 63.14 84.5081 63.94C84.8815 64.7267 85.0681 65.64 85.0681 66.68V67.1C85.0681 67.2333 85.0215 67.3467 84.9281 67.44C84.8348 67.5333 84.7148 67.58 84.5681 67.58H77.9281C77.9281 67.58 77.9281 67.6 77.9281 67.64C77.9281 67.68 77.9281 67.7133 77.9281 67.74C77.9415 68.2067 78.0281 68.64 78.1881 69.04C78.3615 69.4267 78.6081 69.74 78.9281 69.98C79.2615 70.22 79.6548 70.34 80.1081 70.34C80.4815 70.34 80.7948 70.2867 81.0481 70.18C81.3015 70.06 81.5081 69.9267 81.6681 69.78C81.8281 69.6333 81.9415 69.5133 82.0081 69.42C82.1281 69.26 82.2215 69.1667 82.2881 69.14C82.3681 69.1 82.4815 69.08 82.6281 69.08H84.3481C84.4815 69.08 84.5881 69.12 84.6681 69.2C84.7615 69.28 84.8015 69.38 84.7881 69.5C84.7748 69.7133 84.6615 69.9733 84.4481 70.28C84.2481 70.5867 83.9548 70.8867 83.5681 71.18C83.1815 71.4733 82.6948 71.72 82.1081 71.92C81.5348 72.1067 80.8748 72.2 80.1281 72.2ZM77.9281 65.9H82.3481V65.84C82.3481 65.32 82.2615 64.8667 82.0881 64.48C81.9148 64.08 81.6615 63.7733 81.3281 63.56C80.9948 63.3333 80.5948 63.22 80.1281 63.22C79.6615 63.22 79.2615 63.3333 78.9281 63.56C78.5948 63.7733 78.3415 64.08 78.1681 64.48C78.0081 64.8667 77.9281 65.32 77.9281 65.84V65.9ZM87.6711 72C87.5378 72 87.4244 71.9533 87.3311 71.86C87.2378 71.7667 87.1911 71.6533 87.1911 71.52V62.1C87.1911 61.9533 87.2378 61.8333 87.3311 61.74C87.4244 61.6467 87.5378 61.6 87.6711 61.6H89.2911C89.4244 61.6 89.5378 61.6467 89.6311 61.74C89.7378 61.8333 89.7911 61.9533 89.7911 62.1V62.92C90.0978 62.4933 90.4911 62.1667 90.9711 61.94C91.4644 61.7133 92.0311 61.6 92.6711 61.6H93.4911C93.6378 61.6 93.7511 61.6467 93.8311 61.74C93.9244 61.8333 93.9711 61.9467 93.9711 62.08V63.52C93.9711 63.6533 93.9244 63.7667 93.8311 63.86C93.7511 63.9533 93.6378 64 93.4911 64H91.9311C91.2911 64 90.7911 64.18 90.4311 64.54C90.0844 64.8867 89.9111 65.38 89.9111 66.02V71.52C89.9111 71.6533 89.8644 71.7667 89.7711 71.86C89.6778 71.9533 89.5578 72 89.4111 72H87.6711ZM94.3367 73.5C94.2167 73.5 94.1234 73.46 94.0567 73.38C93.9901 73.3 93.9634 73.2 93.9767 73.08L94.5167 69.68C94.5434 69.5067 94.6034 69.36 94.6967 69.24C94.8034 69.1067 94.9567 69.04 95.1567 69.04H96.9967C97.1034 69.04 97.1901 69.08 97.2567 69.16C97.3234 69.2267 97.3567 69.3133 97.3567 69.42C97.3567 69.5133 97.3367 69.6 97.2967 69.68L96.0167 73C95.9634 73.1333 95.8834 73.2467 95.7767 73.34C95.6834 73.4467 95.5434 73.5 95.3567 73.5H94.3367ZM108.8 72.2C107.84 72.2 106.994 72.02 106.26 71.66C105.54 71.3 104.974 70.78 104.56 70.1C104.16 69.4067 103.94 68.5733 103.9 67.6C103.887 67.4 103.88 67.14 103.88 66.82C103.88 66.4867 103.887 66.2133 103.9 66C103.94 65.0267 104.16 64.2 104.56 63.52C104.974 62.8267 105.54 62.3 106.26 61.94C106.994 61.58 107.84 61.4 108.8 61.4C109.654 61.4 110.38 61.52 110.98 61.76C111.58 61.9867 112.074 62.2867 112.46 62.66C112.847 63.02 113.134 63.4 113.32 63.8C113.52 64.1867 113.627 64.54 113.64 64.86C113.654 65.0067 113.607 65.1267 113.5 65.22C113.407 65.3 113.294 65.34 113.16 65.34H111.4C111.267 65.34 111.16 65.3067 111.08 65.24C111.014 65.1733 110.947 65.0733 110.88 64.94C110.68 64.4067 110.414 64.0333 110.08 63.82C109.76 63.5933 109.347 63.48 108.84 63.48C108.174 63.48 107.64 63.6933 107.24 64.12C106.854 64.5333 106.647 65.1933 106.62 66.1C106.594 66.6067 106.594 67.0733 106.62 67.5C106.647 68.42 106.854 69.0867 107.24 69.5C107.64 69.9133 108.174 70.12 108.84 70.12C109.36 70.12 109.78 70.0133 110.1 69.8C110.42 69.5733 110.68 69.1933 110.88 68.66C110.947 68.5267 111.014 68.4267 111.08 68.36C111.16 68.2933 111.267 68.26 111.4 68.26H113.16C113.294 68.26 113.407 68.3067 113.5 68.4C113.607 68.48 113.654 68.5933 113.64 68.74C113.627 68.98 113.56 69.2533 113.44 69.56C113.334 69.8533 113.154 70.16 112.9 70.48C112.66 70.7867 112.354 71.0733 111.98 71.34C111.607 71.5933 111.154 71.8 110.62 71.96C110.1 72.12 109.494 72.2 108.8 72.2ZM120.326 72.2C119.26 72.2 118.36 72.0133 117.626 71.64C116.906 71.2667 116.353 70.74 115.966 70.06C115.593 69.38 115.38 68.5867 115.326 67.68C115.313 67.44 115.306 67.1467 115.306 66.8C115.306 66.4533 115.313 66.16 115.326 65.92C115.38 65 115.6 64.2067 115.986 63.54C116.386 62.86 116.946 62.3333 117.666 61.96C118.4 61.5867 119.286 61.4 120.326 61.4C121.366 61.4 122.246 61.5867 122.966 61.96C123.7 62.3333 124.26 62.86 124.646 63.54C125.046 64.2067 125.273 65 125.326 65.92C125.34 66.16 125.346 66.4533 125.346 66.8C125.346 67.1467 125.34 67.44 125.326 67.68C125.273 68.5867 125.053 69.38 124.666 70.06C124.293 70.74 123.74 71.2667 123.006 71.64C122.286 72.0133 121.393 72.2 120.326 72.2ZM120.326 70.22C121.033 70.22 121.58 70 121.966 69.56C122.353 69.1067 122.566 68.4467 122.606 67.58C122.62 67.38 122.626 67.12 122.626 66.8C122.626 66.48 122.62 66.22 122.606 66.02C122.566 65.1533 122.353 64.5 121.966 64.06C121.58 63.6067 121.033 63.38 120.326 63.38C119.62 63.38 119.073 63.6067 118.686 64.06C118.3 64.5 118.086 65.1533 118.046 66.02C118.033 66.22 118.026 66.48 118.026 66.8C118.026 67.12 118.033 67.38 118.046 67.58C118.086 68.4467 118.3 69.1067 118.686 69.56C119.073 70 119.62 70.22 120.326 70.22ZM131.422 72.2C130.729 72.2 130.116 72.0867 129.582 71.86C129.062 71.62 128.629 71.2867 128.282 70.86C127.936 70.4333 127.669 69.9333 127.482 69.36C127.296 68.7733 127.189 68.1333 127.162 67.44C127.149 67.2 127.142 66.9867 127.142 66.8C127.142 66.6 127.149 66.38 127.162 66.14C127.189 65.4733 127.289 64.8533 127.462 64.28C127.649 63.7067 127.916 63.2067 128.262 62.78C128.622 62.34 129.062 62 129.582 61.76C130.116 61.52 130.729 61.4 131.422 61.4C132.142 61.4 132.749 61.5267 133.242 61.78C133.749 62.02 134.169 62.3333 134.502 62.72V58.28C134.502 58.1467 134.542 58.0333 134.622 57.94C134.716 57.8467 134.836 57.8 134.982 57.8H136.682C136.816 57.8 136.929 57.8467 137.022 57.94C137.116 58.0333 137.162 58.1467 137.162 58.28V71.52C137.162 71.6533 137.116 71.7667 137.022 71.86C136.929 71.9533 136.816 72 136.682 72H135.102C134.956 72 134.836 71.9533 134.742 71.86C134.662 71.7667 134.622 71.6533 134.622 71.52V70.78C134.289 71.1933 133.862 71.5333 133.342 71.8C132.836 72.0667 132.196 72.2 131.422 72.2ZM132.162 70.06C132.722 70.06 133.169 69.9333 133.502 69.68C133.836 69.4267 134.082 69.1067 134.242 68.72C134.402 68.32 134.489 67.9133 134.502 67.5C134.516 67.26 134.522 67.0067 134.522 66.74C134.522 66.46 134.516 66.2 134.502 65.96C134.489 65.56 134.396 65.18 134.222 64.82C134.049 64.4467 133.796 64.14 133.462 63.9C133.129 63.66 132.696 63.54 132.162 63.54C131.602 63.54 131.156 63.6667 130.822 63.92C130.502 64.16 130.269 64.48 130.122 64.88C129.976 65.28 129.889 65.72 129.862 66.2C129.849 66.6 129.849 67 129.862 67.4C129.889 67.88 129.976 68.32 130.122 68.72C130.269 69.12 130.502 69.4467 130.822 69.7C131.156 69.94 131.602 70.06 132.162 70.06ZM144.308 72.2C142.828 72.2 141.654 71.7733 140.788 70.92C139.921 70.0667 139.454 68.8533 139.388 67.28C139.374 67.1467 139.368 66.98 139.368 66.78C139.368 66.5667 139.374 66.4 139.388 66.28C139.441 65.2667 139.668 64.4 140.068 63.68C140.481 62.9467 141.048 62.3867 141.768 62C142.488 61.6 143.334 61.4 144.308 61.4C145.388 61.4 146.294 61.6267 147.028 62.08C147.761 62.52 148.314 63.14 148.688 63.94C149.061 64.7267 149.248 65.64 149.248 66.68V67.1C149.248 67.2333 149.201 67.3467 149.108 67.44C149.014 67.5333 148.894 67.58 148.748 67.58H142.108C142.108 67.58 142.108 67.6 142.108 67.64C142.108 67.68 142.108 67.7133 142.108 67.74C142.121 68.2067 142.208 68.64 142.368 69.04C142.541 69.4267 142.788 69.74 143.108 69.98C143.441 70.22 143.834 70.34 144.288 70.34C144.661 70.34 144.974 70.2867 145.228 70.18C145.481 70.06 145.688 69.9267 145.848 69.78C146.008 69.6333 146.121 69.5133 146.188 69.42C146.308 69.26 146.401 69.1667 146.468 69.14C146.548 69.1 146.661 69.08 146.808 69.08H148.528C148.661 69.08 148.768 69.12 148.848 69.2C148.941 69.28 148.981 69.38 148.968 69.5C148.954 69.7133 148.841 69.9733 148.628 70.28C148.428 70.5867 148.134 70.8867 147.748 71.18C147.361 71.4733 146.874 71.72 146.288 71.92C145.714 72.1067 145.054 72.2 144.308 72.2ZM142.108 65.9H146.528V65.84C146.528 65.32 146.441 64.8667 146.268 64.48C146.094 64.08 145.841 63.7733 145.508 63.56C145.174 63.3333 144.774 63.22 144.308 63.22C143.841 63.22 143.441 63.3333 143.108 63.56C142.774 63.7733 142.521 64.08 142.348 64.48C142.188 64.8667 142.108 65.32 142.108 65.84V65.9ZM151.851 72C151.717 72 151.604 71.9533 151.511 71.86C151.417 71.7667 151.371 71.6533 151.371 71.52V62.1C151.371 61.9533 151.417 61.8333 151.511 61.74C151.604 61.6467 151.717 61.6 151.851 61.6H153.471C153.604 61.6 153.717 61.6467 153.811 61.74C153.917 61.8333 153.971 61.9533 153.971 62.1V62.92C154.277 62.4933 154.671 62.1667 155.151 61.94C155.644 61.7133 156.211 61.6 156.851 61.6H157.671C157.817 61.6 157.931 61.6467 158.011 61.74C158.104 61.8333 158.151 61.9467 158.151 62.08V63.52C158.151 63.6533 158.104 63.7667 158.011 63.86C157.931 63.9533 157.817 64 157.671 64H156.111C155.471 64 154.971 64.18 154.611 64.54C154.264 64.8867 154.091 65.38 154.091 66.02V71.52C154.091 71.6533 154.044 71.7667 153.951 71.86C153.857 71.9533 153.737 72 153.591 72H151.851ZM166.871 72.2C166.178 72.2 165.551 72.0667 164.991 71.8C164.431 71.52 163.985 71.1533 163.651 70.7C163.331 70.2333 163.171 69.7133 163.171 69.14C163.171 68.2067 163.551 67.4667 164.311 66.92C165.071 66.36 166.065 65.9867 167.291 65.8L170.031 65.4V64.98C170.031 64.42 169.891 63.9867 169.611 63.68C169.331 63.3733 168.851 63.22 168.171 63.22C167.691 63.22 167.298 63.32 166.991 63.52C166.698 63.7067 166.478 63.96 166.331 64.28C166.225 64.4533 166.071 64.54 165.871 64.54H164.291C164.145 64.54 164.031 64.5 163.951 64.42C163.885 64.34 163.851 64.2333 163.851 64.1C163.865 63.8867 163.951 63.6267 164.111 63.32C164.285 63.0133 164.538 62.72 164.871 62.44C165.218 62.1467 165.665 61.9 166.211 61.7C166.758 61.5 167.418 61.4 168.191 61.4C169.031 61.4 169.738 61.5067 170.311 61.72C170.898 61.92 171.365 62.1933 171.711 62.54C172.058 62.8867 172.311 63.2933 172.471 63.76C172.631 64.2267 172.711 64.72 172.711 65.24V71.52C172.711 71.6533 172.665 71.7667 172.571 71.86C172.478 71.9533 172.365 72 172.231 72H170.611C170.465 72 170.345 71.9533 170.251 71.86C170.171 71.7667 170.131 71.6533 170.131 71.52V70.74C169.958 70.98 169.725 71.2133 169.431 71.44C169.138 71.6667 168.778 71.8533 168.351 72C167.938 72.1333 167.445 72.2 166.871 72.2ZM167.551 70.3C168.018 70.3 168.438 70.2 168.811 70C169.198 69.8 169.498 69.4933 169.711 69.08C169.938 68.6533 170.051 68.12 170.051 67.48V67.06L168.051 67.38C167.265 67.5 166.678 67.6933 166.291 67.96C165.905 68.2267 165.711 68.5533 165.711 68.94C165.711 69.2333 165.798 69.4867 165.971 69.7C166.158 69.9 166.391 70.0533 166.671 70.16C166.951 70.2533 167.245 70.3 167.551 70.3ZM175.757 72C175.624 72 175.51 71.9533 175.417 71.86C175.324 71.7667 175.277 71.6533 175.277 71.52V62.08C175.277 61.9467 175.324 61.8333 175.417 61.74C175.51 61.6467 175.624 61.6 175.757 61.6H177.397C177.53 61.6 177.644 61.6467 177.737 61.74C177.83 61.8333 177.877 61.9467 177.877 62.08V62.9C178.224 62.4733 178.664 62.12 179.197 61.84C179.744 61.5467 180.417 61.4 181.217 61.4C182.03 61.4 182.737 61.5867 183.337 61.96C183.937 62.32 184.397 62.8333 184.717 63.5C185.05 64.1667 185.217 64.9667 185.217 65.9V71.52C185.217 71.6533 185.17 71.7667 185.077 71.86C184.984 71.9533 184.87 72 184.737 72H182.977C182.844 72 182.73 71.9533 182.637 71.86C182.544 71.7667 182.497 71.6533 182.497 71.52V66.02C182.497 65.2467 182.304 64.64 181.917 64.2C181.544 63.76 180.997 63.54 180.277 63.54C179.584 63.54 179.03 63.76 178.617 64.2C178.204 64.64 177.997 65.2467 177.997 66.02V71.52C177.997 71.6533 177.95 71.7667 177.857 71.86C177.764 71.9533 177.65 72 177.517 72H175.757ZM191.618 72.2C190.924 72.2 190.311 72.0867 189.778 71.86C189.258 71.62 188.824 71.2867 188.478 70.86C188.131 70.4333 187.864 69.9333 187.678 69.36C187.491 68.7733 187.384 68.1333 187.358 67.44C187.344 67.2 187.338 66.9867 187.338 66.8C187.338 66.6 187.344 66.38 187.358 66.14C187.384 65.4733 187.484 64.8533 187.658 64.28C187.844 63.7067 188.111 63.2067 188.458 62.78C188.818 62.34 189.258 62 189.778 61.76C190.311 61.52 190.924 61.4 191.618 61.4C192.338 61.4 192.944 61.5267 193.438 61.78C193.944 62.02 194.364 62.3333 194.698 62.72V58.28C194.698 58.1467 194.738 58.0333 194.818 57.94C194.911 57.8467 195.031 57.8 195.178 57.8H196.878C197.011 57.8 197.124 57.8467 197.218 57.94C197.311 58.0333 197.358 58.1467 197.358 58.28V71.52C197.358 71.6533 197.311 71.7667 197.218 71.86C197.124 71.9533 197.011 72 196.878 72H195.298C195.151 72 195.031 71.9533 194.938 71.86C194.858 71.7667 194.818 71.6533 194.818 71.52V70.78C194.484 71.1933 194.058 71.5333 193.538 71.8C193.031 72.0667 192.391 72.2 191.618 72.2ZM192.358 70.06C192.918 70.06 193.364 69.9333 193.698 69.68C194.031 69.4267 194.278 69.1067 194.438 68.72C194.598 68.32 194.684 67.9133 194.698 67.5C194.711 67.26 194.718 67.0067 194.718 66.74C194.718 66.46 194.711 66.2 194.698 65.96C194.684 65.56 194.591 65.18 194.418 64.82C194.244 64.4467 193.991 64.14 193.658 63.9C193.324 63.66 192.891 63.54 192.358 63.54C191.798 63.54 191.351 63.6667 191.018 63.92C190.698 64.16 190.464 64.48 190.318 64.88C190.171 65.28 190.084 65.72 190.058 66.2C190.044 66.6 190.044 67 190.058 67.4C190.084 67.88 190.171 68.32 190.318 68.72C190.464 69.12 190.698 69.4467 191.018 69.7C191.351 69.94 191.798 70.06 192.358 70.06ZM143.195 98.2C141.715 98.2 140.541 97.7733 139.675 96.92C138.808 96.0667 138.341 94.8533 138.275 93.28C138.261 93.1467 138.255 92.98 138.255 92.78C138.255 92.5667 138.261 92.4 138.275 92.28C138.328 91.2667 138.555 90.4 138.955 89.68C139.368 88.9467 139.935 88.3867 140.655 88C141.375 87.6 142.221 87.4 143.195 87.4C144.275 87.4 145.181 87.6267 145.915 88.08C146.648 88.52 147.201 89.14 147.575 89.94C147.948 90.7267 148.135 91.64 148.135 92.68V93.1C148.135 93.2333 148.088 93.3467 147.995 93.44C147.901 93.5333 147.781 93.58 147.635 93.58H140.995C140.995 93.58 140.995 93.6 140.995 93.64C140.995 93.68 140.995 93.7133 140.995 93.74C141.008 94.2067 141.095 94.64 141.255 95.04C141.428 95.4267 141.675 95.74 141.995 95.98C142.328 96.22 142.721 96.34 143.175 96.34C143.548 96.34 143.861 96.2867 144.115 96.18C144.368 96.06 144.575 95.9267 144.735 95.78C144.895 95.6333 145.008 95.5133 145.075 95.42C145.195 95.26 145.288 95.1667 145.355 95.14C145.435 95.1 145.548 95.08 145.695 95.08H147.415C147.548 95.08 147.655 95.12 147.735 95.2C147.828 95.28 147.868 95.38 147.855 95.5C147.841 95.7133 147.728 95.9733 147.515 96.28C147.315 96.5867 147.021 96.8867 146.635 97.18C146.248 97.4733 145.761 97.72 145.175 97.92C144.601 98.1067 143.941 98.2 143.195 98.2ZM140.995 91.9H145.415V91.84C145.415 91.32 145.328 90.8667 145.155 90.48C144.981 90.08 144.728 89.7733 144.395 89.56C144.061 89.3333 143.661 89.22 143.195 89.22C142.728 89.22 142.328 89.3333 141.995 89.56C141.661 89.7733 141.408 90.08 141.235 90.48C141.075 90.8667 140.995 91.32 140.995 91.84V91.9ZM150.738 98C150.604 98 150.491 97.9533 150.398 97.86C150.304 97.7667 150.257 97.6533 150.257 97.52V88.08C150.257 87.9467 150.304 87.8333 150.398 87.74C150.491 87.6467 150.604 87.6 150.738 87.6H152.378C152.511 87.6 152.624 87.6467 152.718 87.74C152.811 87.8333 152.858 87.9467 152.858 88.08V88.9C153.204 88.4733 153.644 88.12 154.178 87.84C154.724 87.5467 155.398 87.4 156.198 87.4C157.011 87.4 157.718 87.5867 158.318 87.96C158.918 88.32 159.378 88.8333 159.698 89.5C160.031 90.1667 160.198 90.9667 160.198 91.9V97.52C160.198 97.6533 160.151 97.7667 160.058 97.86C159.964 97.9533 159.851 98 159.718 98H157.958C157.824 98 157.711 97.9533 157.618 97.86C157.524 97.7667 157.478 97.6533 157.478 97.52V92.02C157.478 91.2467 157.284 90.64 156.898 90.2C156.524 89.76 155.978 89.54 155.258 89.54C154.564 89.54 154.011 89.76 153.598 90.2C153.184 90.64 152.978 91.2467 152.978 92.02V97.52C152.978 97.6533 152.931 97.7667 152.838 97.86C152.744 97.9533 152.631 98 152.498 98H150.738ZM167.321 98C166.521 98 165.847 97.86 165.301 97.58C164.754 97.3 164.347 96.8867 164.081 96.34C163.814 95.78 163.681 95.0867 163.681 94.26V89.72H162.101C161.967 89.72 161.854 89.6733 161.761 89.58C161.667 89.4867 161.621 89.3667 161.621 89.22V88.08C161.621 87.9467 161.667 87.8333 161.761 87.74C161.854 87.6467 161.967 87.6 162.101 87.6H163.681V84.28C163.681 84.1467 163.721 84.0333 163.801 83.94C163.894 83.8467 164.014 83.8 164.161 83.8H165.781C165.914 83.8 166.027 83.8467 166.121 83.94C166.214 84.0333 166.261 84.1467 166.261 84.28V87.6H168.761C168.894 87.6 169.007 87.6467 169.101 87.74C169.194 87.8333 169.241 87.9467 169.241 88.08V89.22C169.241 89.3667 169.194 89.4867 169.101 89.58C169.007 89.6733 168.894 89.72 168.761 89.72H166.261V94.06C166.261 94.6067 166.354 95.0333 166.541 95.34C166.741 95.6467 167.081 95.8 167.561 95.8H168.941C169.074 95.8 169.187 95.8467 169.281 95.94C169.374 96.0333 169.421 96.1467 169.421 96.28V97.52C169.421 97.6533 169.374 97.7667 169.281 97.86C169.187 97.9533 169.074 98 168.941 98H167.321ZM171.695 98C171.562 98 171.448 97.9533 171.355 97.86C171.262 97.7667 171.215 97.6533 171.215 97.52V84.28C171.215 84.1467 171.262 84.0333 171.355 83.94C171.448 83.8467 171.562 83.8 171.695 83.8H173.475C173.622 83.8 173.735 83.8467 173.815 83.94C173.908 84.0333 173.955 84.1467 173.955 84.28V88.84C174.315 88.4133 174.755 88.0667 175.275 87.8C175.795 87.5333 176.435 87.4 177.195 87.4C178.008 87.4 178.715 87.5867 179.315 87.96C179.928 88.32 180.402 88.8333 180.735 89.5C181.068 90.1667 181.235 90.9667 181.235 91.9V97.52C181.235 97.6533 181.188 97.7667 181.095 97.86C181.002 97.9533 180.888 98 180.755 98H178.955C178.822 98 178.708 97.9533 178.615 97.86C178.522 97.7667 178.475 97.6533 178.475 97.52V92.02C178.475 91.2467 178.282 90.64 177.895 90.2C177.522 89.76 176.975 89.54 176.255 89.54C175.562 89.54 175.002 89.76 174.575 90.2C174.162 90.64 173.955 91.2467 173.955 92.02V97.52C173.955 97.6533 173.908 97.7667 173.815 97.86C173.735 97.9533 173.622 98 173.475 98H171.695ZM187.633 98.2C186.82 98.2 186.113 98.02 185.513 97.66C184.926 97.2867 184.473 96.7667 184.153 96.1C183.833 95.42 183.673 94.62 183.673 93.7V88.08C183.673 87.9467 183.72 87.8333 183.813 87.74C183.906 87.6467 184.02 87.6 184.153 87.6H185.913C186.06 87.6 186.173 87.6467 186.253 87.74C186.346 87.8333 186.393 87.9467 186.393 88.08V93.58C186.393 95.2333 187.12 96.06 188.573 96.06C189.266 96.06 189.813 95.84 190.213 95.4C190.626 94.96 190.833 94.3533 190.833 93.58V88.08C190.833 87.9467 190.88 87.8333 190.973 87.74C191.066 87.6467 191.18 87.6 191.313 87.6H193.073C193.206 87.6 193.32 87.6467 193.413 87.74C193.506 87.8333 193.553 87.9467 193.553 88.08V97.52C193.553 97.6533 193.506 97.7667 193.413 97.86C193.32 97.9533 193.206 98 193.073 98H191.453C191.306 98 191.186 97.9533 191.093 97.86C191.013 97.7667 190.973 97.6533 190.973 97.52V96.7C190.613 97.1667 190.166 97.5333 189.633 97.8C189.1 98.0667 188.433 98.2 187.633 98.2ZM200.135 98.2C199.335 98.2 198.648 98.1067 198.075 97.92C197.515 97.7333 197.055 97.5 196.695 97.22C196.335 96.94 196.068 96.66 195.895 96.38C195.722 96.1 195.628 95.8667 195.615 95.68C195.602 95.5333 195.642 95.42 195.735 95.34C195.842 95.2467 195.955 95.2 196.075 95.2H197.655C197.708 95.2 197.755 95.2067 197.795 95.22C197.835 95.2333 197.888 95.2733 197.955 95.34C198.128 95.4867 198.308 95.64 198.495 95.8C198.695 95.96 198.928 96.1 199.195 96.22C199.462 96.3267 199.795 96.38 200.195 96.38C200.715 96.38 201.148 96.28 201.495 96.08C201.855 95.8667 202.035 95.5667 202.035 95.18C202.035 94.9 201.955 94.6733 201.795 94.5C201.648 94.3267 201.368 94.1733 200.955 94.04C200.542 93.8933 199.955 93.74 199.195 93.58C198.448 93.4067 197.828 93.1867 197.335 92.92C196.842 92.6533 196.475 92.32 196.235 91.92C195.995 91.52 195.875 91.0533 195.875 90.52C195.875 90 196.028 89.5067 196.335 89.04C196.655 88.56 197.122 88.1667 197.735 87.86C198.362 87.5533 199.135 87.4 200.055 87.4C200.775 87.4 201.402 87.4933 201.935 87.68C202.468 87.8533 202.908 88.0733 203.255 88.34C203.615 88.6067 203.888 88.88 204.075 89.16C204.262 89.4267 204.362 89.66 204.375 89.86C204.388 90.0067 204.348 90.1267 204.255 90.22C204.162 90.3 204.055 90.34 203.935 90.34H202.455C202.388 90.34 202.328 90.3267 202.275 90.3C202.222 90.2733 202.168 90.24 202.115 90.2C201.968 90.0667 201.808 89.9267 201.635 89.78C201.462 89.62 201.248 89.4867 200.995 89.38C200.755 89.2733 200.435 89.22 200.035 89.22C199.528 89.22 199.142 89.3333 198.875 89.56C198.608 89.7733 198.475 90.0467 198.475 90.38C198.475 90.6067 198.535 90.8067 198.655 90.98C198.788 91.14 199.048 91.2933 199.435 91.44C199.822 91.5867 200.408 91.74 201.195 91.9C202.088 92.06 202.795 92.3 203.315 92.62C203.848 92.9267 204.222 93.2867 204.435 93.7C204.662 94.1 204.775 94.5467 204.775 95.04C204.775 95.64 204.595 96.18 204.235 96.66C203.888 97.14 203.368 97.52 202.675 97.8C201.995 98.0667 201.148 98.2 200.135 98.2ZM207.32 98C207.186 98 207.073 97.9533 206.98 97.86C206.886 97.7667 206.84 97.6533 206.84 97.52V88.08C206.84 87.9467 206.886 87.8333 206.98 87.74C207.073 87.6467 207.186 87.6 207.32 87.6H208.98C209.126 87.6 209.24 87.6467 209.32 87.74C209.413 87.8333 209.46 87.9467 209.46 88.08V97.52C209.46 97.6533 209.413 97.7667 209.32 97.86C209.24 97.9533 209.126 98 208.98 98H207.32ZM207.24 85.88C207.106 85.88 206.993 85.8333 206.9 85.74C206.806 85.6467 206.76 85.5333 206.76 85.4V83.96C206.76 83.8267 206.806 83.7133 206.9 83.62C206.993 83.5267 207.106 83.48 207.24 83.48H209.06C209.206 83.48 209.326 83.5267 209.42 83.62C209.513 83.7133 209.56 83.8267 209.56 83.96V85.4C209.56 85.5333 209.513 85.6467 209.42 85.74C209.326 85.8333 209.206 85.88 209.06 85.88H207.24ZM215.133 98.2C214.44 98.2 213.813 98.0667 213.253 97.8C212.693 97.52 212.246 97.1533 211.913 96.7C211.593 96.2333 211.433 95.7133 211.433 95.14C211.433 94.2067 211.813 93.4667 212.573 92.92C213.333 92.36 214.326 91.9867 215.553 91.8L218.293 91.4V90.98C218.293 90.42 218.153 89.9867 217.873 89.68C217.593 89.3733 217.113 89.22 216.433 89.22C215.953 89.22 215.56 89.32 215.253 89.52C214.96 89.7067 214.74 89.96 214.593 90.28C214.486 90.4533 214.333 90.54 214.133 90.54H212.553C212.406 90.54 212.293 90.5 212.213 90.42C212.146 90.34 212.113 90.2333 212.113 90.1C212.126 89.8867 212.213 89.6267 212.373 89.32C212.546 89.0133 212.8 88.72 213.133 88.44C213.48 88.1467 213.926 87.9 214.473 87.7C215.02 87.5 215.68 87.4 216.453 87.4C217.293 87.4 218 87.5067 218.573 87.72C219.16 87.92 219.626 88.1933 219.973 88.54C220.32 88.8867 220.573 89.2933 220.733 89.76C220.893 90.2267 220.973 90.72 220.973 91.24V97.52C220.973 97.6533 220.926 97.7667 220.833 97.86C220.74 97.9533 220.626 98 220.493 98H218.873C218.726 98 218.606 97.9533 218.513 97.86C218.433 97.7667 218.393 97.6533 218.393 97.52V96.74C218.22 96.98 217.986 97.2133 217.693 97.44C217.4 97.6667 217.04 97.8533 216.613 98C216.2 98.1333 215.706 98.2 215.133 98.2ZM215.813 96.3C216.28 96.3 216.7 96.2 217.073 96C217.46 95.8 217.76 95.4933 217.973 95.08C218.2 94.6533 218.313 94.12 218.313 93.48V93.06L216.313 93.38C215.526 93.5 214.94 93.6933 214.553 93.96C214.166 94.2267 213.973 94.5533 213.973 94.94C213.973 95.2333 214.06 95.4867 214.233 95.7C214.42 95.9 214.653 96.0533 214.933 96.16C215.213 96.2533 215.506 96.3 215.813 96.3ZM227.479 98.2C226.679 98.2 225.992 98.1067 225.419 97.92C224.859 97.7333 224.399 97.5 224.039 97.22C223.679 96.94 223.412 96.66 223.239 96.38C223.065 96.1 222.972 95.8667 222.959 95.68C222.945 95.5333 222.985 95.42 223.079 95.34C223.185 95.2467 223.299 95.2 223.419 95.2H224.999C225.052 95.2 225.099 95.2067 225.139 95.22C225.179 95.2333 225.232 95.2733 225.299 95.34C225.472 95.4867 225.652 95.64 225.839 95.8C226.039 95.96 226.272 96.1 226.539 96.22C226.805 96.3267 227.139 96.38 227.539 96.38C228.059 96.38 228.492 96.28 228.839 96.08C229.199 95.8667 229.379 95.5667 229.379 95.18C229.379 94.9 229.299 94.6733 229.139 94.5C228.992 94.3267 228.712 94.1733 228.299 94.04C227.885 93.8933 227.299 93.74 226.539 93.58C225.792 93.4067 225.172 93.1867 224.679 92.92C224.185 92.6533 223.819 92.32 223.579 91.92C223.339 91.52 223.219 91.0533 223.219 90.52C223.219 90 223.372 89.5067 223.679 89.04C223.999 88.56 224.465 88.1667 225.079 87.86C225.705 87.5533 226.479 87.4 227.399 87.4C228.119 87.4 228.745 87.4933 229.279 87.68C229.812 87.8533 230.252 88.0733 230.599 88.34C230.959 88.6067 231.232 88.88 231.419 89.16C231.605 89.4267 231.705 89.66 231.719 89.86C231.732 90.0067 231.692 90.1267 231.599 90.22C231.505 90.3 231.399 90.34 231.279 90.34H229.799C229.732 90.34 229.672 90.3267 229.619 90.3C229.565 90.2733 229.512 90.24 229.459 90.2C229.312 90.0667 229.152 89.9267 228.979 89.78C228.805 89.62 228.592 89.4867 228.339 89.38C228.099 89.2733 227.779 89.22 227.379 89.22C226.872 89.22 226.485 89.3333 226.219 89.56C225.952 89.7733 225.819 90.0467 225.819 90.38C225.819 90.6067 225.879 90.8067 225.999 90.98C226.132 91.14 226.392 91.2933 226.779 91.44C227.165 91.5867 227.752 91.74 228.539 91.9C229.432 92.06 230.139 92.3 230.659 92.62C231.192 92.9267 231.565 93.2867 231.779 93.7C232.005 94.1 232.119 94.5467 232.119 95.04C232.119 95.64 231.939 96.18 231.579 96.66C231.232 97.14 230.712 97.52 230.019 97.8C229.339 98.0667 228.492 98.2 227.479 98.2ZM238.844 98C238.044 98 237.371 97.86 236.824 97.58C236.278 97.3 235.871 96.8867 235.604 96.34C235.338 95.78 235.204 95.0867 235.204 94.26V89.72H233.624C233.491 89.72 233.378 89.6733 233.284 89.58C233.191 89.4867 233.144 89.3667 233.144 89.22V88.08C233.144 87.9467 233.191 87.8333 233.284 87.74C233.378 87.6467 233.491 87.6 233.624 87.6H235.204V84.28C235.204 84.1467 235.244 84.0333 235.324 83.94C235.418 83.8467 235.538 83.8 235.684 83.8H237.304C237.438 83.8 237.551 83.8467 237.644 83.94C237.738 84.0333 237.784 84.1467 237.784 84.28V87.6H240.284C240.418 87.6 240.531 87.6467 240.624 87.74C240.718 87.8333 240.764 87.9467 240.764 88.08V89.22C240.764 89.3667 240.718 89.4867 240.624 89.58C240.531 89.6733 240.418 89.72 240.284 89.72H237.784V94.06C237.784 94.6067 237.878 95.0333 238.064 95.34C238.264 95.6467 238.604 95.8 239.084 95.8H240.464C240.598 95.8 240.711 95.8467 240.804 95.94C240.898 96.0333 240.944 96.1467 240.944 96.28V97.52C240.944 97.6533 240.898 97.7667 240.804 97.86C240.711 97.9533 240.598 98 240.464 98H238.844ZM243.078 98C242.945 98 242.832 97.9533 242.738 97.86C242.645 97.7667 242.598 97.6533 242.598 97.52V95.54C242.598 95.3933 242.645 95.2733 242.738 95.18C242.832 95.0867 242.945 95.04 243.078 95.04H245.078C245.212 95.04 245.325 95.0867 245.418 95.18C245.512 95.2733 245.558 95.3933 245.558 95.54V97.52C245.558 97.6533 245.512 97.7667 245.418 97.86C245.325 97.9533 245.212 98 245.078 98H243.078Z" fill="white"/>
<path d="M14.02 102.4C13.0467 102.4 12.2467 102.273 11.62 102.02C10.9933 101.767 10.5 101.46 10.14 101.1C9.78 100.74 9.52 100.38 9.36 100.02C9.21333 99.6733 9.13333 99.4 9.12 99.2C9.10667 99.0667 9.14667 98.9467 9.24 98.84C9.34667 98.7467 9.46667 98.7 9.6 98.7H11.34C11.4733 98.7 11.58 98.7267 11.66 98.78C11.74 98.8467 11.8067 98.96 11.86 99.12C11.94 99.2933 12.0467 99.48 12.18 99.68C12.3133 99.88 12.5133 100.047 12.78 100.18C13.06 100.327 13.44 100.4 13.92 100.4C14.4267 100.4 14.8533 100.327 15.2 100.18C15.5467 100.033 15.8067 99.7867 15.98 99.44C16.1667 99.0933 16.26 98.6133 16.26 98V96.64C15.94 97.0267 15.5267 97.34 15.02 97.58C14.5267 97.82 13.9133 97.94 13.18 97.94C12.4733 97.94 11.8533 97.8267 11.32 97.6C10.8 97.36 10.3667 97.0333 10.02 96.62C9.67333 96.1933 9.40667 95.6933 9.22 95.12C9.04667 94.5467 8.94667 93.9133 8.92 93.22C8.90667 92.86 8.90667 92.5 8.92 92.14C8.94667 91.4733 9.04667 90.8533 9.22 90.28C9.40667 89.7067 9.67333 89.2067 10.02 88.78C10.3667 88.34 10.8 88 11.32 87.76C11.8533 87.52 12.4733 87.4 13.18 87.4C13.94 87.4 14.58 87.5467 15.1 87.84C15.62 88.12 16.0467 88.4733 16.38 88.9V88.1C16.38 87.9533 16.4267 87.8333 16.52 87.74C16.6133 87.6467 16.7267 87.6 16.86 87.6H18.48C18.6133 87.6 18.7267 87.6467 18.82 87.74C18.9133 87.8333 18.96 87.9533 18.96 88.1L18.98 97.74C18.98 98.7 18.8 99.5267 18.44 100.22C18.08 100.913 17.5333 101.447 16.8 101.82C16.08 102.207 15.1533 102.4 14.02 102.4ZM13.92 95.82C14.4667 95.82 14.9067 95.7 15.24 95.46C15.5733 95.22 15.82 94.9067 15.98 94.52C16.14 94.1333 16.2333 93.74 16.26 93.34C16.2733 93.1667 16.28 92.9467 16.28 92.68C16.28 92.4133 16.2733 92.2 16.26 92.04C16.2333 91.6267 16.14 91.2333 15.98 90.86C15.82 90.4733 15.5733 90.16 15.24 89.92C14.9067 89.6667 14.4667 89.54 13.92 89.54C13.3733 89.54 12.9333 89.6667 12.6 89.92C12.2667 90.16 12.0267 90.48 11.88 90.88C11.7467 91.28 11.6667 91.72 11.64 92.2C11.6133 92.52 11.6133 92.8467 11.64 93.18C11.6667 93.6467 11.7467 94.0867 11.88 94.5C12.0267 94.9 12.2667 95.22 12.6 95.46C12.9333 95.7 13.3733 95.82 13.92 95.82ZM24.6642 98.2C23.9709 98.2 23.3442 98.0667 22.7842 97.8C22.2242 97.52 21.7776 97.1533 21.4442 96.7C21.1242 96.2333 20.9642 95.7133 20.9642 95.14C20.9642 94.2067 21.3442 93.4667 22.1042 92.92C22.8642 92.36 23.8576 91.9867 25.0842 91.8L27.8242 91.4V90.98C27.8242 90.42 27.6842 89.9867 27.4042 89.68C27.1242 89.3733 26.6442 89.22 25.9642 89.22C25.4842 89.22 25.0909 89.32 24.7842 89.52C24.4909 89.7067 24.2709 89.96 24.1242 90.28C24.0176 90.4533 23.8642 90.54 23.6642 90.54H22.0842C21.9376 90.54 21.8242 90.5 21.7442 90.42C21.6776 90.34 21.6442 90.2333 21.6442 90.1C21.6576 89.8867 21.7442 89.6267 21.9042 89.32C22.0776 89.0133 22.3309 88.72 22.6642 88.44C23.0109 88.1467 23.4576 87.9 24.0042 87.7C24.5509 87.5 25.2109 87.4 25.9842 87.4C26.8242 87.4 27.5309 87.5067 28.1042 87.72C28.6909 87.92 29.1576 88.1933 29.5042 88.54C29.8509 88.8867 30.1042 89.2933 30.2642 89.76C30.4242 90.2267 30.5042 90.72 30.5042 91.24V97.52C30.5042 97.6533 30.4576 97.7667 30.3642 97.86C30.2709 97.9533 30.1576 98 30.0242 98H28.4042C28.2576 98 28.1376 97.9533 28.0442 97.86C27.9642 97.7667 27.9242 97.6533 27.9242 97.52V96.74C27.7509 96.98 27.5176 97.2133 27.2242 97.44C26.9309 97.6667 26.5709 97.8533 26.1442 98C25.7309 98.1333 25.2376 98.2 24.6642 98.2ZM25.3442 96.3C25.8109 96.3 26.2309 96.2 26.6042 96C26.9909 95.8 27.2909 95.4933 27.5042 95.08C27.7309 94.6533 27.8442 94.12 27.8442 93.48V93.06L25.8442 93.38C25.0576 93.5 24.4709 93.6933 24.0842 93.96C23.6976 94.2267 23.5042 94.5533 23.5042 94.94C23.5042 95.2333 23.5909 95.4867 23.7642 95.7C23.9509 95.9 24.1842 96.0533 24.4642 96.16C24.7442 96.2533 25.0376 96.3 25.3442 96.3ZM33.55 98C33.4167 98 33.3033 97.9533 33.21 97.86C33.1167 97.7667 33.07 97.6533 33.07 97.52V88.08C33.07 87.9467 33.1167 87.8333 33.21 87.74C33.3033 87.6467 33.4167 87.6 33.55 87.6H35.11C35.2433 87.6 35.3567 87.6467 35.45 87.74C35.5433 87.8333 35.59 87.9467 35.59 88.08V88.76C35.87 88.3867 36.2433 88.0733 36.71 87.82C37.19 87.5533 37.7567 87.4133 38.41 87.4C39.93 87.3733 40.99 87.9667 41.59 89.18C41.8967 88.6467 42.3367 88.22 42.91 87.9C43.4967 87.5667 44.1433 87.4 44.85 87.4C45.5433 87.4 46.17 87.56 46.73 87.88C47.3033 88.2 47.75 88.6867 48.07 89.34C48.4033 89.98 48.57 90.7933 48.57 91.78V97.52C48.57 97.6533 48.5233 97.7667 48.43 97.86C48.3367 97.9533 48.2233 98 48.09 98H46.45C46.3167 98 46.2033 97.9533 46.11 97.86C46.0167 97.7667 45.97 97.6533 45.97 97.52V91.94C45.97 91.34 45.8833 90.8667 45.71 90.52C45.5367 90.16 45.3033 89.9067 45.01 89.76C44.7167 89.6133 44.39 89.54 44.03 89.54C43.7367 89.54 43.4433 89.6133 43.15 89.76C42.8567 89.9067 42.6167 90.16 42.43 90.52C42.2433 90.8667 42.15 91.34 42.15 91.94V97.52C42.15 97.6533 42.1033 97.7667 42.01 97.86C41.9167 97.9533 41.8033 98 41.67 98H40.03C39.8967 98 39.7833 97.9533 39.69 97.86C39.5967 97.7667 39.55 97.6533 39.55 97.52V91.94C39.55 91.34 39.4567 90.8667 39.27 90.52C39.0833 90.16 38.8433 89.9067 38.55 89.76C38.2567 89.6133 37.9433 89.54 37.61 89.54C37.3033 89.54 37.0033 89.62 36.71 89.78C36.4167 89.9267 36.1767 90.1733 35.99 90.52C35.8033 90.8667 35.71 91.34 35.71 91.94V97.52C35.71 97.6533 35.6633 97.7667 35.57 97.86C35.4767 97.9533 35.3633 98 35.23 98H33.55ZM51.5969 98C51.4635 98 51.3502 97.9533 51.2569 97.86C51.1635 97.7667 51.1169 97.6533 51.1169 97.52V88.08C51.1169 87.9467 51.1635 87.8333 51.2569 87.74C51.3502 87.6467 51.4635 87.6 51.5969 87.6H53.2569C53.4035 87.6 53.5169 87.6467 53.5969 87.74C53.6902 87.8333 53.7369 87.9467 53.7369 88.08V97.52C53.7369 97.6533 53.6902 97.7667 53.5969 97.86C53.5169 97.9533 53.4035 98 53.2569 98H51.5969ZM51.5169 85.88C51.3835 85.88 51.2702 85.8333 51.1769 85.74C51.0835 85.6467 51.0369 85.5333 51.0369 85.4V83.96C51.0369 83.8267 51.0835 83.7133 51.1769 83.62C51.2702 83.5267 51.3835 83.48 51.5169 83.48H53.3369C53.4835 83.48 53.6035 83.5267 53.6969 83.62C53.7902 83.7133 53.8369 83.8267 53.8369 83.96V85.4C53.8369 85.5333 53.7902 85.6467 53.6969 85.74C53.6035 85.8333 53.4835 85.88 53.3369 85.88H51.5169ZM57.9903 98C57.857 98 57.7436 97.9533 57.6503 97.86C57.557 97.7667 57.5103 97.6533 57.5103 97.52V89.72H55.8903C55.757 89.72 55.6436 89.6733 55.5503 89.58C55.457 89.4867 55.4103 89.3667 55.4103 89.22V88.08C55.4103 87.9467 55.457 87.8333 55.5503 87.74C55.6436 87.6467 55.757 87.6 55.8903 87.6H57.5103V86.78C57.5103 85.98 57.657 85.32 57.9503 84.8C58.2436 84.2667 58.677 83.8667 59.2503 83.6C59.8236 83.3333 60.5503 83.2 61.4303 83.2H65.5103C65.657 83.2 65.7703 83.2467 65.8503 83.34C65.9436 83.4333 65.9903 83.5467 65.9903 83.68V84.82C65.9903 84.9667 65.9436 85.0867 65.8503 85.18C65.7703 85.2733 65.657 85.32 65.5103 85.32H61.5103C60.977 85.32 60.6103 85.4533 60.4103 85.72C60.2103 85.9867 60.1103 86.3733 60.1103 86.88V87.6H65.5103C65.657 87.6 65.7703 87.6467 65.8503 87.74C65.9436 87.8333 65.9903 87.9467 65.9903 88.08V97.52C65.9903 97.6533 65.9436 97.7667 65.8503 97.86C65.7703 97.9533 65.657 98 65.5103 98H63.8903C63.757 98 63.6436 97.9533 63.5503 97.86C63.457 97.7667 63.4103 97.6533 63.4103 97.52V89.72H60.1103V97.52C60.1103 97.6533 60.0636 97.7667 59.9703 97.86C59.877 97.9533 59.7636 98 59.6303 98H57.9903ZM73.1559 98.2C72.1959 98.2 71.3493 98.02 70.6159 97.66C69.8959 97.3 69.3293 96.78 68.9159 96.1C68.5159 95.4067 68.2959 94.5733 68.2559 93.6C68.2426 93.4 68.2359 93.14 68.2359 92.82C68.2359 92.4867 68.2426 92.2133 68.2559 92C68.2959 91.0267 68.5159 90.2 68.9159 89.52C69.3293 88.8267 69.8959 88.3 70.6159 87.94C71.3493 87.58 72.1959 87.4 73.1559 87.4C74.0093 87.4 74.7359 87.52 75.3359 87.76C75.9359 87.9867 76.4293 88.2867 76.8159 88.66C77.2026 89.02 77.4893 89.4 77.6759 89.8C77.8759 90.1867 77.9826 90.54 77.9959 90.86C78.0093 91.0067 77.9626 91.1267 77.8559 91.22C77.7626 91.3 77.6493 91.34 77.5159 91.34H75.7559C75.6226 91.34 75.5159 91.3067 75.4359 91.24C75.3693 91.1733 75.3026 91.0733 75.2359 90.94C75.0359 90.4067 74.7693 90.0333 74.4359 89.82C74.1159 89.5933 73.7026 89.48 73.1959 89.48C72.5293 89.48 71.9959 89.6933 71.5959 90.12C71.2093 90.5333 71.0026 91.1933 70.9759 92.1C70.9493 92.6067 70.9493 93.0733 70.9759 93.5C71.0026 94.42 71.2093 95.0867 71.5959 95.5C71.9959 95.9133 72.5293 96.12 73.1959 96.12C73.7159 96.12 74.1359 96.0133 74.4559 95.8C74.7759 95.5733 75.0359 95.1933 75.2359 94.66C75.3026 94.5267 75.3693 94.4267 75.4359 94.36C75.5159 94.2933 75.6226 94.26 75.7559 94.26H77.5159C77.6493 94.26 77.7626 94.3067 77.8559 94.4C77.9626 94.48 78.0093 94.5933 77.9959 94.74C77.9826 94.98 77.9159 95.2533 77.7959 95.56C77.6893 95.8533 77.5093 96.16 77.2559 96.48C77.0159 96.7867 76.7093 97.0733 76.3359 97.34C75.9626 97.5933 75.5093 97.8 74.9759 97.96C74.4559 98.12 73.8493 98.2 73.1559 98.2ZM83.1017 98.2C82.4084 98.2 81.7817 98.0667 81.2217 97.8C80.6617 97.52 80.2151 97.1533 79.8817 96.7C79.5617 96.2333 79.4017 95.7133 79.4017 95.14C79.4017 94.2067 79.7817 93.4667 80.5417 92.92C81.3017 92.36 82.2951 91.9867 83.5217 91.8L86.2617 91.4V90.98C86.2617 90.42 86.1217 89.9867 85.8417 89.68C85.5617 89.3733 85.0817 89.22 84.4017 89.22C83.9217 89.22 83.5284 89.32 83.2217 89.52C82.9284 89.7067 82.7084 89.96 82.5617 90.28C82.4551 90.4533 82.3017 90.54 82.1017 90.54H80.5217C80.3751 90.54 80.2617 90.5 80.1817 90.42C80.1151 90.34 80.0817 90.2333 80.0817 90.1C80.0951 89.8867 80.1817 89.6267 80.3417 89.32C80.5151 89.0133 80.7684 88.72 81.1017 88.44C81.4484 88.1467 81.8951 87.9 82.4417 87.7C82.9884 87.5 83.6484 87.4 84.4217 87.4C85.2617 87.4 85.9684 87.5067 86.5417 87.72C87.1284 87.92 87.5951 88.1933 87.9417 88.54C88.2884 88.8867 88.5417 89.2933 88.7017 89.76C88.8617 90.2267 88.9417 90.72 88.9417 91.24V97.52C88.9417 97.6533 88.8951 97.7667 88.8017 97.86C88.7084 97.9533 88.5951 98 88.4617 98H86.8417C86.6951 98 86.5751 97.9533 86.4817 97.86C86.4017 97.7667 86.3617 97.6533 86.3617 97.52V96.74C86.1884 96.98 85.9551 97.2133 85.6617 97.44C85.3684 97.6667 85.0084 97.8533 84.5817 98C84.1684 98.1333 83.6751 98.2 83.1017 98.2ZM83.7817 96.3C84.2484 96.3 84.6684 96.2 85.0417 96C85.4284 95.8 85.7284 95.4933 85.9417 95.08C86.1684 94.6533 86.2817 94.12 86.2817 93.48V93.06L84.2817 93.38C83.4951 93.5 82.9084 93.6933 82.5217 93.96C82.1351 94.2267 81.9417 94.5533 81.9417 94.94C81.9417 95.2333 82.0284 95.4867 82.2017 95.7C82.3884 95.9 82.6217 96.0533 82.9017 96.16C83.1817 96.2533 83.4751 96.3 83.7817 96.3ZM96.1098 98C95.3098 98 94.6365 97.86 94.0898 97.58C93.5432 97.3 93.1365 96.8867 92.8698 96.34C92.6032 95.78 92.4698 95.0867 92.4698 94.26V89.72H90.8898C90.7565 89.72 90.6432 89.6733 90.5498 89.58C90.4565 89.4867 90.4098 89.3667 90.4098 89.22V88.08C90.4098 87.9467 90.4565 87.8333 90.5498 87.74C90.6432 87.6467 90.7565 87.6 90.8898 87.6H92.4698V84.28C92.4698 84.1467 92.5098 84.0333 92.5898 83.94C92.6832 83.8467 92.8032 83.8 92.9498 83.8H94.5698C94.7032 83.8 94.8165 83.8467 94.9098 83.94C95.0032 84.0333 95.0498 84.1467 95.0498 84.28V87.6H97.5498C97.6832 87.6 97.7965 87.6467 97.8898 87.74C97.9832 87.8333 98.0298 87.9467 98.0298 88.08V89.22C98.0298 89.3667 97.9832 89.4867 97.8898 89.58C97.7965 89.6733 97.6832 89.72 97.5498 89.72H95.0498V94.06C95.0498 94.6067 95.1432 95.0333 95.3298 95.34C95.5298 95.6467 95.8698 95.8 96.3498 95.8H97.7298C97.8632 95.8 97.9765 95.8467 98.0698 95.94C98.1632 96.0333 98.2098 96.1467 98.2098 96.28V97.52C98.2098 97.6533 98.1632 97.7667 98.0698 97.86C97.9765 97.9533 97.8632 98 97.7298 98H96.1098ZM100.464 98C100.331 98 100.217 97.9533 100.124 97.86C100.031 97.7667 99.9841 97.6533 99.9841 97.52V88.08C99.9841 87.9467 100.031 87.8333 100.124 87.74C100.217 87.6467 100.331 87.6 100.464 87.6H102.124C102.271 87.6 102.384 87.6467 102.464 87.74C102.557 87.8333 102.604 87.9467 102.604 88.08V97.52C102.604 97.6533 102.557 97.7667 102.464 97.86C102.384 97.9533 102.271 98 102.124 98H100.464ZM100.384 85.88C100.251 85.88 100.137 85.8333 100.044 85.74C99.9507 85.6467 99.9041 85.5333 99.9041 85.4V83.96C99.9041 83.8267 99.9507 83.7133 100.044 83.62C100.137 83.5267 100.251 83.48 100.384 83.48H102.204C102.351 83.48 102.471 83.5267 102.564 83.62C102.657 83.7133 102.704 83.8267 102.704 83.96V85.4C102.704 85.5333 102.657 85.6467 102.564 85.74C102.471 85.8333 102.351 85.88 102.204 85.88H100.384ZM109.858 98.2C108.791 98.2 107.891 98.0133 107.158 97.64C106.438 97.2667 105.884 96.74 105.498 96.06C105.124 95.38 104.911 94.5867 104.858 93.68C104.844 93.44 104.838 93.1467 104.838 92.8C104.838 92.4533 104.844 92.16 104.858 91.92C104.911 91 105.131 90.2067 105.518 89.54C105.918 88.86 106.478 88.3333 107.198 87.96C107.931 87.5867 108.818 87.4 109.858 87.4C110.898 87.4 111.778 87.5867 112.498 87.96C113.231 88.3333 113.791 88.86 114.178 89.54C114.578 90.2067 114.804 91 114.858 91.92C114.871 92.16 114.878 92.4533 114.878 92.8C114.878 93.1467 114.871 93.44 114.858 93.68C114.804 94.5867 114.584 95.38 114.198 96.06C113.824 96.74 113.271 97.2667 112.538 97.64C111.818 98.0133 110.924 98.2 109.858 98.2ZM109.858 96.22C110.564 96.22 111.111 96 111.498 95.56C111.884 95.1067 112.098 94.4467 112.138 93.58C112.151 93.38 112.158 93.12 112.158 92.8C112.158 92.48 112.151 92.22 112.138 92.02C112.098 91.1533 111.884 90.5 111.498 90.06C111.111 89.6067 110.564 89.38 109.858 89.38C109.151 89.38 108.604 89.6067 108.218 90.06C107.831 90.5 107.618 91.1533 107.578 92.02C107.564 92.22 107.558 92.48 107.558 92.8C107.558 93.12 107.564 93.38 107.578 93.58C107.618 94.4467 107.831 95.1067 108.218 95.56C108.604 96 109.151 96.22 109.858 96.22ZM117.573 98C117.44 98 117.327 97.9533 117.233 97.86C117.14 97.7667 117.093 97.6533 117.093 97.52V88.08C117.093 87.9467 117.14 87.8333 117.233 87.74C117.327 87.6467 117.44 87.6 117.573 87.6H119.213C119.347 87.6 119.46 87.6467 119.553 87.74C119.647 87.8333 119.693 87.9467 119.693 88.08V88.9C120.04 88.4733 120.48 88.12 121.013 87.84C121.56 87.5467 122.233 87.4 123.033 87.4C123.847 87.4 124.553 87.5867 125.153 87.96C125.753 88.32 126.213 88.8333 126.533 89.5C126.867 90.1667 127.033 90.9667 127.033 91.9V97.52C127.033 97.6533 126.987 97.7667 126.893 97.86C126.8 97.9533 126.687 98 126.553 98H124.793C124.66 98 124.547 97.9533 124.453 97.86C124.36 97.7667 124.313 97.6533 124.313 97.52V92.02C124.313 91.2467 124.12 90.64 123.733 90.2C123.36 89.76 122.813 89.54 122.093 89.54C121.4 89.54 120.847 89.76 120.433 90.2C120.02 90.64 119.813 91.2467 119.813 92.02V97.52C119.813 97.6533 119.767 97.7667 119.673 97.86C119.58 97.9533 119.467 98 119.333 98H117.573Z" fill="#00FFE0"/>
<path d="M131.635 89.2326C131.576 89.2561 131.517 89.2553 131.46 89.2303C131.404 89.2112 131.363 89.169 131.337 89.1039L131.091 88.4817C130.648 88.6093 130.241 88.6542 129.869 88.6163C129.501 88.5701 129.19 88.4603 128.936 88.2867C128.686 88.1048 128.501 87.8799 128.381 87.6121C128.36 87.5587 128.36 87.5072 128.382 87.4576C128.409 87.4056 128.449 87.3691 128.503 87.3479L129.294 87.0345C129.359 87.0086 129.415 87.0035 129.462 87.019C129.513 87.0263 129.568 87.0525 129.627 87.0977C129.772 87.2733 129.975 87.3882 130.237 87.4422C130.504 87.494 130.824 87.4459 131.198 87.298C131.612 87.1336 131.899 86.941 132.059 86.7202C132.216 86.4935 132.245 86.2557 132.146 86.0069C132.081 85.841 131.973 85.7258 131.824 85.6614C131.675 85.597 131.476 85.5698 131.226 85.5796C130.974 85.5835 130.614 85.6167 130.145 85.6791C129.38 85.7903 128.781 85.7742 128.347 85.6308C127.916 85.4791 127.6 85.1485 127.398 84.6389C127.215 84.1767 127.227 83.7229 127.435 83.2774C127.646 82.8236 128.027 82.4461 128.58 82.1449L128.337 81.5316C128.311 81.4665 128.312 81.4079 128.339 81.3559C128.364 81.298 128.406 81.2573 128.465 81.2338L129.008 81.019C129.067 80.9955 129.125 80.9963 129.183 81.0213C129.241 81.0463 129.282 81.0885 129.305 81.1477L129.555 81.7788C129.962 81.6795 130.336 81.6647 130.679 81.7344C131.026 81.7959 131.316 81.914 131.55 82.0887C131.79 82.2611 131.959 82.4545 132.058 82.6691C132.079 82.7224 132.079 82.7739 132.057 82.8235C132.036 82.8732 131.998 82.9086 131.945 82.9297L131.118 83.2572C130.988 83.3089 130.877 83.2878 130.785 83.194C130.68 83.0162 130.502 82.9049 130.251 82.8603C129.998 82.8098 129.721 82.8444 129.419 82.9642C129.093 83.0933 128.86 83.2577 128.719 83.4573C128.579 83.6568 128.556 83.8751 128.65 84.1121C128.715 84.278 128.817 84.3955 128.954 84.4646C129.091 84.5337 129.277 84.5698 129.511 84.5729C129.751 84.5736 130.084 84.5481 130.509 84.4962C131.077 84.4081 131.545 84.377 131.912 84.403C132.284 84.4267 132.59 84.5218 132.827 84.6882C133.064 84.8547 133.252 85.1127 133.391 85.4623C133.593 85.9718 133.574 86.4623 133.336 86.9338C133.096 87.3993 132.671 87.7903 132.063 88.1067L132.306 88.72C132.33 88.7792 132.329 88.8378 132.304 88.8957C132.279 88.9536 132.237 88.9943 132.177 89.0178L131.635 89.2326Z" fill="#00FFE0"/>
<path d="M4.54655 106.13C4.49816 106.143 4.45261 106.137 4.40991 106.112C4.36847 106.092 4.34081 106.055 4.32694 106.002L4.19449 105.494C3.83726 105.55 3.5158 105.546 3.23012 105.481C2.94802 105.41 2.71641 105.295 2.5353 105.135C2.35777 104.97 2.23516 104.777 2.16745 104.557C2.1561 104.513 2.16116 104.473 2.18262 104.437C2.20893 104.399 2.24385 104.374 2.2874 104.363L2.93339 104.194C2.98662 104.181 3.03091 104.182 3.06625 104.199C3.10516 104.209 3.14545 104.235 3.18709 104.276C3.28321 104.426 3.43046 104.535 3.62883 104.602C3.83204 104.668 4.08607 104.661 4.39092 104.582C4.72965 104.494 4.9716 104.371 5.11679 104.214C5.26071 104.053 5.30619 103.87 5.25321 103.667C5.21789 103.532 5.14532 103.432 5.03552 103.367C4.92571 103.303 4.77309 103.263 4.57765 103.246C4.38095 103.225 4.09705 103.217 3.72595 103.22C3.11964 103.234 2.6544 103.164 2.33024 103.011C2.00965 102.851 1.79511 102.564 1.68663 102.147C1.58824 101.77 1.6411 101.418 1.84523 101.091C2.05293 100.757 2.38631 100.5 2.84539 100.318L2.71483 99.8175C2.70095 99.7643 2.70717 99.7187 2.73347 99.6809C2.75851 99.6382 2.79523 99.6105 2.84362 99.5979L3.28637 99.4825C3.33476 99.4699 3.38031 99.4761 3.42301 99.5011C3.46571 99.5261 3.49337 99.5629 3.50599 99.6113L3.64033 100.127C3.96621 100.088 4.25936 100.113 4.5198 100.2C4.78381 100.281 4.99848 100.4 5.1638 100.559C5.33397 100.716 5.44723 100.883 5.50358 101.059C5.51494 101.103 5.50988 101.143 5.48841 101.18C5.46695 101.216 5.43444 101.24 5.39089 101.252L4.71587 101.428C4.60941 101.455 4.52484 101.428 4.46217 101.346C4.39761 101.198 4.26982 101.094 4.07881 101.035C3.88653 100.972 3.66701 100.972 3.42022 101.037C3.15408 101.106 2.95684 101.212 2.82848 101.354C2.70013 101.496 2.66118 101.663 2.71164 101.857C2.74696 101.992 2.81468 102.094 2.91481 102.161C3.01494 102.228 3.15609 102.273 3.33827 102.298C3.5253 102.322 3.78679 102.334 4.12276 102.334C4.57381 102.32 4.94092 102.34 5.22408 102.396C5.51207 102.45 5.74053 102.553 5.90943 102.705C6.07834 102.858 6.2 103.077 6.27443 103.362C6.38291 103.778 6.32184 104.159 6.09121 104.503C5.85931 104.842 5.49142 105.106 4.98754 105.295L5.11809 105.795C5.13071 105.844 5.1245 105.889 5.09945 105.932C5.07441 105.975 5.0377 106.002 4.98931 106.015L4.54655 106.13Z" fill="#00FFE0"/>
<path d="M32.7912 85.8899C32.7512 85.8961 32.715 85.8874 32.6826 85.8637C32.6509 85.8441 32.6316 85.8122 32.6247 85.7682L32.5594 85.348C32.2669 85.3648 32.0082 85.3353 31.7833 85.2596C31.5617 85.1793 31.3845 85.0675 31.2515 84.9242C31.122 84.7763 31.0389 84.6109 31.0022 84.4281C30.9966 84.3921 31.004 84.3602 31.0242 84.3324C31.0485 84.3041 31.0787 84.2871 31.1147 84.2815L31.649 84.1984C31.693 84.1916 31.7286 84.1963 31.7557 84.2125C31.7862 84.2242 31.8166 84.2482 31.8468 84.2845C31.912 84.4137 32.0218 84.5134 32.1762 84.5837C32.3346 84.6533 32.5398 84.6686 32.792 84.6294C33.0721 84.5858 33.2771 84.5068 33.4068 84.3923C33.536 84.2739 33.5875 84.1306 33.5613 83.9625C33.5439 83.8505 33.4936 83.764 33.4103 83.7032C33.3271 83.6423 33.2074 83.5974 33.0512 83.5684C32.8944 83.5354 32.6663 83.5053 32.367 83.4781C31.8773 83.4394 31.5081 83.3452 31.2594 83.1953C31.014 83.0408 30.8646 82.7915 30.811 82.4473C30.7625 82.1351 30.8338 81.8556 31.0249 81.6086C31.2194 81.357 31.5091 81.1767 31.8938 81.0677L31.8294 80.6535C31.8226 80.6095 31.8313 80.5733 31.8556 80.5449C31.8792 80.5125 31.9111 80.4932 31.9511 80.487L32.3173 80.4301C32.3573 80.4238 32.3935 80.4326 32.4259 80.4562C32.4582 80.4799 32.4775 80.5117 32.4838 80.5517L32.55 80.978C32.8158 80.9735 33.05 81.017 33.2528 81.1085C33.4589 81.1953 33.6222 81.3093 33.7425 81.4504C33.8668 81.5909 33.9445 81.7346 33.9755 81.8815C33.9811 81.9175 33.9738 81.9494 33.9535 81.9771C33.9332 82.0048 33.9051 82.0215 33.8691 82.0271L33.3108 82.1139C33.2227 82.1276 33.1568 82.0989 33.1129 82.0279C33.073 81.9029 32.9785 81.809 32.8293 81.7461C32.6796 81.6792 32.5026 81.6617 32.2985 81.6934C32.0784 81.7276 31.9109 81.7967 31.7959 81.9007C31.6809 82.0046 31.6358 82.1367 31.6607 82.2967C31.6781 82.4088 31.7244 82.4959 31.7997 82.558C31.8749 82.62 31.9849 82.6685 32.1297 82.7034C32.2785 82.7376 32.4883 82.7685 32.759 82.7961C33.1236 82.8214 33.4178 82.8679 33.6414 82.9356C33.8691 83.0027 34.0448 83.1044 34.1685 83.241C34.2922 83.3775 34.3724 83.5638 34.4091 83.7999C34.4626 84.1441 34.3824 84.4456 34.1685 84.7043C33.954 84.959 33.6361 85.1416 33.2147 85.2522L33.2791 85.6665C33.2853 85.7065 33.2766 85.7427 33.2529 85.775C33.2293 85.8074 33.1974 85.8267 33.1574 85.8329L32.7912 85.8899Z" fill="#00FFE0"/>
<path d="M73.9769 105.597C73.9415 105.583 73.9162 105.558 73.9012 105.524C73.8848 105.493 73.8842 105.458 73.8996 105.419L74.0464 105.046C73.8009 104.921 73.6048 104.774 73.4582 104.606C73.3165 104.435 73.2258 104.26 73.1859 104.08C73.1511 103.899 73.1622 103.725 73.2195 103.559C73.232 103.527 73.2532 103.505 73.2828 103.492C73.316 103.48 73.3486 103.481 73.3805 103.493L73.8538 103.68C73.8928 103.695 73.9195 103.716 73.9338 103.742C73.953 103.766 73.9662 103.8 73.9735 103.844C73.965 103.98 74.0067 104.113 74.0987 104.244C74.1941 104.375 74.3536 104.485 74.577 104.573C74.8251 104.671 75.0291 104.705 75.1889 104.673C75.3501 104.639 75.4601 104.547 75.5188 104.398C75.5579 104.299 75.5582 104.204 75.5195 104.115C75.4808 104.027 75.405 103.933 75.292 103.835C75.1804 103.734 75.0095 103.601 74.7794 103.437C74.4001 103.172 74.1452 102.92 74.0145 102.68C73.8887 102.438 73.8859 102.165 74.0062 101.86C74.1152 101.583 74.306 101.39 74.5787 101.28C74.8563 101.169 75.1772 101.16 75.5414 101.254L75.6861 100.887C75.7015 100.848 75.7257 100.823 75.759 100.812C75.7936 100.797 75.8286 100.796 75.864 100.81L76.1885 100.938C76.2239 100.952 76.2492 100.976 76.2642 101.011C76.2792 101.045 76.2798 101.081 76.2658 101.116L76.1169 101.494C76.3348 101.616 76.5043 101.763 76.6255 101.934C76.7516 102.102 76.8299 102.272 76.8605 102.444C76.8946 102.617 76.8894 102.771 76.8447 102.905C76.8321 102.937 76.811 102.959 76.7814 102.972C76.7517 102.985 76.7209 102.985 76.689 102.973L76.1944 102.778C76.1164 102.747 76.0765 102.692 76.0747 102.614C76.1017 102.493 76.0696 102.372 75.9784 102.25C75.8886 102.125 75.7533 102.026 75.5725 101.955C75.3775 101.878 75.2086 101.854 75.0657 101.884C74.9229 101.914 74.8236 102 74.7677 102.141C74.7285 102.241 74.7247 102.333 74.7563 102.42C74.7879 102.506 74.8541 102.598 74.9551 102.695C75.0596 102.793 75.2153 102.918 75.4219 103.069C75.706 103.263 75.9227 103.441 76.0722 103.602C76.2251 103.765 76.3194 103.931 76.3549 104.101C76.3904 104.27 76.3669 104.46 76.2845 104.669C76.1642 104.974 75.9558 105.181 75.6591 105.289C75.3638 105.394 75.0187 105.391 74.624 105.28L74.4793 105.647C74.4653 105.683 74.441 105.708 74.4064 105.723C74.3718 105.738 74.3368 105.739 74.3013 105.725L73.9769 105.597Z" fill="#00FFE0"/>
<path d="M46.9948 104.576C46.9701 104.588 46.9452 104.589 46.92 104.58C46.8959 104.573 46.8776 104.556 46.8651 104.529L46.7459 104.27C46.5604 104.334 46.3883 104.363 46.2294 104.355C46.0718 104.344 45.9371 104.304 45.8251 104.236C45.7144 104.165 45.6305 104.073 45.5734 103.962C45.5631 103.94 45.562 103.918 45.57 103.897C45.5805 103.874 45.5968 103.857 45.619 103.847L45.9481 103.696C45.9753 103.683 45.9991 103.68 46.0195 103.685C46.0413 103.687 46.0653 103.697 46.0915 103.715C46.1572 103.786 46.2463 103.83 46.3587 103.847C46.4735 103.863 46.6087 103.835 46.764 103.764C46.9366 103.684 47.0542 103.596 47.1169 103.498C47.1784 103.398 47.1853 103.296 47.1376 103.193C47.1058 103.124 47.0575 103.077 46.9927 103.053C46.9279 103.029 46.8425 103.022 46.7365 103.032C46.6294 103.04 46.4768 103.062 46.2789 103.1C45.9561 103.164 45.7008 103.171 45.513 103.12C45.3265 103.066 45.1844 102.933 45.0867 102.721C44.9982 102.528 44.9929 102.335 45.0708 102.141C45.15 101.943 45.3036 101.773 45.5316 101.633L45.4141 101.377C45.4016 101.35 45.4006 101.325 45.4111 101.303C45.4204 101.277 45.4374 101.259 45.462 101.248L45.6876 101.144C45.7123 101.132 45.7372 101.131 45.7624 101.141C45.7876 101.15 45.8059 101.167 45.8173 101.192L45.9382 101.454C46.1087 101.403 46.2677 101.388 46.4152 101.41C46.564 101.428 46.6901 101.471 46.7936 101.54C46.8995 101.608 46.9759 101.686 47.0229 101.775C47.0331 101.797 47.0342 101.819 47.0262 101.841C47.0182 101.863 47.0031 101.878 46.981 101.889L46.637 102.047C46.5827 102.072 46.535 102.066 46.4937 102.028C46.445 101.955 46.3668 101.911 46.2592 101.898C46.1503 101.883 46.0331 101.904 45.9073 101.962C45.7717 102.024 45.6764 102.099 45.6213 102.187C45.5662 102.276 45.5614 102.369 45.6068 102.468C45.6386 102.537 45.6845 102.584 45.7444 102.61C45.8042 102.637 45.884 102.648 45.9838 102.644C46.086 102.638 46.2269 102.62 46.4064 102.588C46.6461 102.537 46.8443 102.513 47.0009 102.516C47.1599 102.518 47.2919 102.551 47.3967 102.616C47.5014 102.682 47.5873 102.787 47.6543 102.932C47.752 103.144 47.7556 103.353 47.6651 103.56C47.5736 103.763 47.4021 103.939 47.1508 104.088L47.2683 104.343C47.2796 104.368 47.2807 104.393 47.2713 104.418C47.262 104.443 47.245 104.461 47.2204 104.473L46.9948 104.576Z" fill="#00FFE0"/>
<path d="M4.32001 87.9169C4.29344 87.9113 4.27282 87.8973 4.25813 87.8748C4.24289 87.8549 4.23834 87.8304 4.24448 87.8012L4.30311 87.5222C4.11576 87.4634 3.96054 87.3837 3.83748 87.2829C3.71764 87.18 3.63302 87.0679 3.58363 86.9466C3.53746 86.8231 3.52456 86.6998 3.54494 86.5765C3.54996 86.5525 3.56212 86.5343 3.58141 86.5217C3.60336 86.5097 3.62628 86.5062 3.65019 86.5112L4.00484 86.5858C4.03406 86.5919 4.05524 86.6033 4.06839 86.6199C4.08475 86.6345 4.09811 86.6567 4.10846 86.6866C4.1187 86.7831 4.16388 86.8716 4.24402 86.9523C4.32681 87.0335 4.45188 87.0917 4.61924 87.1268C4.8052 87.1659 4.95241 87.165 5.06089 87.124C5.16993 87.0803 5.23617 87.0027 5.25963 86.8911C5.27526 86.8168 5.2642 86.7506 5.22643 86.6928C5.18867 86.6349 5.12427 86.5784 5.03324 86.5232C4.94277 86.4653 4.80692 86.3924 4.62571 86.3043C4.32787 86.1641 4.11875 86.0175 3.99833 85.8646C3.88112 85.7096 3.84653 85.5178 3.89456 85.2894C3.93812 85.0821 4.04908 84.9238 4.22744 84.8143C4.40901 84.7026 4.63332 84.6583 4.90036 84.6811L4.95816 84.4062C4.9643 84.3769 4.97835 84.3563 5.00029 84.3443C5.0228 84.3296 5.04733 84.325 5.0739 84.3306L5.31697 84.3817C5.34353 84.3873 5.36416 84.4013 5.37885 84.4239C5.39353 84.4464 5.39808 84.4709 5.3925 84.4975L5.33303 84.7804C5.50067 84.8406 5.63722 84.9234 5.74266 85.0288C5.85133 85.132 5.92665 85.2422 5.96862 85.3592C6.01326 85.4768 6.0279 85.5852 6.01255 85.6847C6.00752 85.7086 5.99537 85.7268 5.97608 85.7394C5.95679 85.752 5.93519 85.7558 5.91128 85.7507L5.5407 85.6728C5.48225 85.6606 5.44771 85.6269 5.43707 85.572C5.44166 85.4842 5.40465 85.4029 5.32606 85.3281C5.24802 85.2507 5.14126 85.1978 5.00578 85.1693C4.85967 85.1386 4.73825 85.1422 4.64152 85.1801C4.54478 85.218 4.48525 85.2901 4.46291 85.3963C4.44727 85.4707 4.45568 85.5363 4.48813 85.593C4.52058 85.6498 4.57806 85.7063 4.66057 85.7624C4.74572 85.8192 4.86989 85.8883 5.03307 85.9697C5.25568 86.072 5.42907 86.1709 5.55325 86.2663C5.68008 86.3623 5.76609 86.4678 5.81129 86.5827C5.85648 86.6976 5.8626 86.8334 5.82965 86.9902C5.78163 87.2186 5.65991 87.3886 5.46449 87.5001C5.26963 87.6089 5.02701 87.6481 4.73662 87.6175L4.67882 87.8925C4.67323 87.919 4.65919 87.9397 4.63668 87.9544C4.61418 87.969 4.58965 87.9736 4.56308 87.968L4.32001 87.9169Z" fill="#00FFE0"/>
<path d="M125.124 103.788C125.105 103.799 125.085 103.801 125.064 103.795C125.044 103.791 125.028 103.779 125.016 103.757L124.903 103.555C124.757 103.618 124.619 103.652 124.489 103.656C124.361 103.656 124.249 103.633 124.154 103.584C124.06 103.533 123.986 103.464 123.933 103.377C123.923 103.36 123.921 103.342 123.926 103.324C123.933 103.305 123.945 103.291 123.963 103.281L124.22 103.138C124.242 103.126 124.261 103.122 124.278 103.125C124.296 103.125 124.316 103.132 124.338 103.144C124.396 103.198 124.471 103.229 124.563 103.236C124.657 103.241 124.765 103.21 124.887 103.143C125.022 103.068 125.112 102.989 125.157 102.905C125.201 102.82 125.2 102.737 125.155 102.656C125.125 102.602 125.083 102.567 125.029 102.552C124.975 102.536 124.905 102.536 124.82 102.551C124.733 102.563 124.611 102.591 124.452 102.633C124.194 102.706 123.987 102.727 123.832 102.698C123.677 102.665 123.553 102.565 123.461 102.399C123.377 102.248 123.361 102.092 123.413 101.929C123.465 101.764 123.579 101.617 123.755 101.489L123.644 101.289C123.632 101.267 123.63 101.247 123.637 101.228C123.643 101.207 123.656 101.191 123.675 101.181L123.852 101.082C123.871 101.072 123.891 101.069 123.912 101.075C123.933 101.081 123.949 101.094 123.96 101.113L124.074 101.319C124.21 101.267 124.338 101.245 124.459 101.253C124.581 101.259 124.686 101.286 124.774 101.336C124.864 101.384 124.931 101.443 124.975 101.513C124.984 101.53 124.987 101.548 124.981 101.566C124.976 101.584 124.965 101.598 124.948 101.607L124.678 101.757C124.636 101.781 124.596 101.778 124.561 101.75C124.517 101.694 124.45 101.664 124.362 101.66C124.273 101.654 124.179 101.678 124.081 101.733C123.974 101.792 123.902 101.859 123.862 101.934C123.823 102.008 123.825 102.085 123.868 102.162C123.898 102.216 123.938 102.252 123.988 102.269C124.038 102.287 124.104 102.291 124.185 102.282C124.267 102.271 124.38 102.247 124.524 102.21C124.716 102.155 124.875 102.123 125.002 102.115C125.132 102.107 125.241 102.126 125.33 102.172C125.419 102.219 125.495 102.299 125.558 102.413C125.651 102.579 125.667 102.749 125.606 102.922C125.544 103.092 125.416 103.246 125.221 103.382L125.332 103.582C125.343 103.601 125.345 103.621 125.339 103.642C125.333 103.663 125.32 103.679 125.301 103.69L125.124 103.788Z" fill="#00FFE0"/>
<path d="M85.4013 85.41C85.3719 85.4263 85.3413 85.4299 85.3093 85.4207C85.2789 85.4145 85.2548 85.3952 85.2369 85.3629L85.0658 85.0543C84.8428 85.151 84.6329 85.2021 84.4361 85.2074C84.2406 85.2082 84.0706 85.1718 83.926 85.0983C83.7828 85.0201 83.6708 84.9151 83.59 84.7832C83.5753 84.7567 83.5719 84.7298 83.5798 84.7024C83.5906 84.6733 83.6092 84.6515 83.6357 84.6368L84.028 84.4193C84.0603 84.4014 84.0894 84.3949 84.1152 84.3998C84.1423 84.4002 84.1728 84.4102 84.2067 84.4298C84.2944 84.5118 84.4084 84.5581 84.5488 84.5686C84.692 84.5776 84.8563 84.5307 85.0414 84.4281C85.2471 84.314 85.3842 84.1939 85.4525 84.0676C85.5192 83.9385 85.5183 83.8122 85.4499 83.6887C85.4043 83.6064 85.3404 83.5535 85.2581 83.5299C85.1759 83.5063 85.0698 83.5056 84.9399 83.5277C84.8084 83.5468 84.6221 83.5886 84.3812 83.653C83.9888 83.7629 83.6743 83.7951 83.4377 83.7495C83.2024 83.6994 83.0147 83.5479 82.8746 83.2952C82.7475 83.0659 82.7231 82.8278 82.8014 82.5808C82.8809 82.3293 83.0549 82.106 83.3234 81.9111L83.1547 81.6069C83.1368 81.5746 83.1333 81.5439 83.1441 81.5148C83.1532 81.4829 83.1725 81.4587 83.2019 81.4424L83.4708 81.2934C83.5002 81.2771 83.5309 81.2735 83.5629 81.2827C83.5948 81.2919 83.619 81.3111 83.6353 81.3405L83.8088 81.6535C84.0145 81.5741 84.2093 81.541 84.3934 81.5542C84.5788 81.5628 84.7385 81.6049 84.8726 81.6804C85.0096 81.7543 85.1112 81.844 85.1773 81.9495C85.192 81.9759 85.1954 82.0029 85.1876 82.0303C85.1797 82.0577 85.1625 82.0787 85.1361 82.0934L84.7261 82.3207C84.6615 82.3565 84.6019 82.353 84.5474 82.3102C84.4806 82.2243 84.3801 82.1782 84.246 82.1719C84.1102 82.1626 83.9674 82.1995 83.8175 82.2826C83.6559 82.3722 83.5451 82.474 83.4853 82.5878C83.4254 82.7017 83.4281 82.8174 83.4933 82.9349C83.5389 83.0172 83.5999 83.0718 83.6762 83.0986C83.7526 83.1255 83.8521 83.1317 83.9749 83.1175C84.1005 83.1016 84.2727 83.0657 84.4915 83.0098C84.7827 82.9252 85.0251 82.8773 85.2186 82.866C85.4151 82.8531 85.581 82.8822 85.7164 82.9531C85.8518 83.0241 85.9676 83.1463 86.0637 83.3197C86.2038 83.5724 86.2276 83.8301 86.1349 84.0928C86.0407 84.3525 85.8453 84.5857 85.5488 84.7923L85.7174 85.0965C85.7337 85.1259 85.7372 85.1566 85.7281 85.1885C85.7189 85.2205 85.6996 85.2447 85.6702 85.2609L85.4013 85.41Z" fill="#00FFE0"/>
</svg>
