<svg width="439" height="102" viewBox="0 0 439 102" fill="none" xmlns="http://www.w3.org/2000/svg">
<rect width="439" height="102" fill="white" fill-opacity="0.1"/>
<path d="M8.96 22C8.76 22 8.6 21.93 8.48 21.79C8.36 21.63 8.32 21.45 8.36 21.25L12.5 1.75C12.54 1.53 12.64 1.35 12.8 1.21C12.98 1.07 13.18 0.999999 13.4 0.999999H16.58C16.9 0.999999 17.12 1.07 17.24 1.21C17.36 1.35 17.44 1.47 17.48 1.57L22.37 13.18L24.8 1.75C24.84 1.53 24.95 1.35 25.13 1.21C25.31 1.07 25.5 0.999999 25.7 0.999999H29.3C29.52 0.999999 29.69 1.07 29.81 1.21C29.93 1.35 29.97 1.53 29.93 1.75L25.76 21.22C25.72 21.44 25.61 21.63 25.43 21.79C25.27 21.93 25.08 22 24.86 22H21.68C21.36 22 21.14 21.93 21.02 21.79C20.9 21.63 20.82 21.51 20.78 21.43L15.83 10.24L13.49 21.25C13.45 21.45 13.34 21.63 13.16 21.79C12.98 21.93 12.78 22 12.56 22H8.96ZM28.6618 22C28.4218 22 28.2518 21.9 28.1518 21.7C28.0518 21.5 28.0618 21.3 28.1818 21.1L39.3118 1.84C39.4318 1.62 39.6018 1.43 39.8218 1.27C40.0418 1.09 40.3218 0.999999 40.6618 0.999999H45.2818C45.6218 0.999999 45.8618 1.09 46.0018 1.27C46.1618 1.43 46.2518 1.62 46.2718 1.84L49.2118 21.1C49.2718 21.38 49.2218 21.6 49.0618 21.76C48.9018 21.92 48.7218 22 48.5218 22H44.8918C44.5918 22 44.3718 21.93 44.2318 21.79C44.1118 21.65 44.0318 21.48 43.9918 21.28L43.4818 18.31H35.4718L33.6718 21.37C33.5718 21.51 33.4318 21.65 33.2518 21.79C33.0918 21.93 32.8618 22 32.5618 22H28.6618ZM37.6018 13.99H43.1818L42.0718 6.07L37.6018 13.99ZM54.4777 22C54.2577 22 54.0877 21.93 53.9677 21.79C53.8477 21.63 53.8077 21.45 53.8477 21.25L57.1777 5.71H51.8377C51.6377 5.71 51.4777 5.64 51.3577 5.5C51.2377 5.34 51.1977 5.16 51.2377 4.96L51.9277 1.75C51.9677 1.53 52.0677 1.35 52.2277 1.21C52.4077 1.07 52.6077 0.999999 52.8277 0.999999H68.9677C69.1877 0.999999 69.3477 1.07 69.4477 1.21C69.5677 1.35 69.6077 1.53 69.5677 1.75L68.8777 4.96C68.8377 5.16 68.7277 5.34 68.5477 5.5C68.3877 5.64 68.1977 5.71 67.9777 5.71H62.6677L59.3377 21.25C59.2977 21.45 59.1877 21.63 59.0077 21.79C58.8477 21.93 58.6577 22 58.4377 22H54.4777ZM68.6963 22C68.4963 22 68.3363 21.93 68.2163 21.79C68.0963 21.63 68.0563 21.45 68.0963 21.25L72.2363 1.75C72.2763 1.53 72.3863 1.35 72.5663 1.21C72.7463 1.07 72.9363 0.999999 73.1363 0.999999H87.1463C87.3663 0.999999 87.5363 1.07 87.6563 1.21C87.7763 1.35 87.8163 1.53 87.7763 1.75L87.1763 4.57C87.1363 4.79 87.0263 4.97 86.8463 5.11C86.6663 5.25 86.4663 5.32 86.2463 5.32H76.7063L75.8063 9.37H84.7163C84.9363 9.37 85.0963 9.45 85.1963 9.61C85.3163 9.75 85.3563 9.93 85.3163 10.15L84.7463 12.76C84.7063 12.96 84.5963 13.14 84.4163 13.3C84.2563 13.44 84.0663 13.51 83.8463 13.51H74.9363L74.0663 17.68H83.8463C84.0663 17.68 84.2263 17.75 84.3263 17.89C84.4463 18.03 84.4863 18.21 84.4463 18.43L83.8463 21.25C83.8063 21.45 83.6963 21.63 83.5163 21.79C83.3563 21.93 83.1663 22 82.9463 22H68.6963ZM94.3311 22C94.1311 22 93.9711 21.93 93.8511 21.79C93.7311 21.63 93.6911 21.45 93.7311 21.25L97.8711 1.75C97.9111 1.53 98.0211 1.35 98.2011 1.21C98.3811 1.07 98.5711 0.999999 98.7711 0.999999H106.751C107.971 0.999999 109.071 1.14 110.051 1.42C111.051 1.7 111.881 2.13 112.541 2.71C113.201 3.29 113.661 4.02 113.921 4.9C114.181 5.76 114.191 6.77 113.951 7.93C113.471 10.23 112.461 11.93 110.921 13.03C109.381 14.13 107.321 14.68 104.741 14.68H100.691L99.3111 21.25C99.2711 21.45 99.1611 21.63 98.9811 21.79C98.8211 21.93 98.6311 22 98.4111 22H94.3311ZM101.501 10.54H104.951C105.751 10.54 106.471 10.32 107.111 9.88C107.771 9.44 108.201 8.77 108.401 7.87C108.501 7.35 108.521 6.89 108.461 6.49C108.401 6.09 108.191 5.77 107.831 5.53C107.491 5.29 106.961 5.17 106.241 5.17H102.641L101.501 10.54ZM111.572 22C111.332 22 111.162 21.9 111.062 21.7C110.962 21.5 110.972 21.3 111.092 21.1L122.222 1.84C122.342 1.62 122.512 1.43 122.732 1.27C122.952 1.09 123.232 0.999999 123.572 0.999999H128.192C128.532 0.999999 128.772 1.09 128.912 1.27C129.072 1.43 129.162 1.62 129.182 1.84L132.122 21.1C132.182 21.38 132.132 21.6 131.972 21.76C131.812 21.92 131.632 22 131.432 22H127.802C127.502 22 127.282 21.93 127.142 21.79C127.022 21.65 126.942 21.48 126.902 21.28L126.392 18.31H118.382L116.582 21.37C116.482 21.51 116.342 21.65 116.162 21.79C116.002 21.93 115.772 22 115.472 22H111.572ZM120.512 13.99H126.092L124.982 6.07L120.512 13.99ZM135.503 22C135.283 22 135.113 21.93 134.993 21.79C134.893 21.63 134.863 21.45 134.903 21.25L139.043 1.75C139.083 1.53 139.193 1.35 139.373 1.21C139.553 1.07 139.753 0.999999 139.973 0.999999H148.133C150.733 0.999999 152.643 1.6 153.863 2.8C155.083 3.98 155.463 5.66 155.003 7.84C154.703 9.26 154.103 10.46 153.203 11.44C152.323 12.42 151.273 13.16 150.053 13.66L152.603 21.04C152.623 21.1 152.633 21.15 152.633 21.19C152.633 21.23 152.623 21.29 152.603 21.37C152.583 21.53 152.493 21.68 152.333 21.82C152.173 21.94 152.013 22 151.853 22H147.863C147.483 22 147.223 21.91 147.083 21.73C146.963 21.53 146.873 21.35 146.813 21.19L144.803 14.59H141.743L140.303 21.25C140.263 21.45 140.153 21.63 139.973 21.79C139.793 21.93 139.593 22 139.373 22H135.503ZM142.613 10.33H146.093C147.033 10.33 147.783 10.1 148.343 9.64C148.903 9.18 149.273 8.56 149.453 7.78C149.613 7 149.513 6.37 149.153 5.89C148.813 5.41 148.153 5.17 147.173 5.17H143.723L142.613 10.33ZM156.245 22C156.025 22 155.855 21.93 155.735 21.79C155.635 21.63 155.605 21.45 155.645 21.25L159.785 1.75C159.825 1.53 159.935 1.35 160.115 1.21C160.295 1.07 160.495 0.999999 160.715 0.999999H168.875C171.475 0.999999 173.385 1.6 174.605 2.8C175.825 3.98 176.205 5.66 175.745 7.84C175.445 9.26 174.845 10.46 173.945 11.44C173.065 12.42 172.015 13.16 170.795 13.66L173.345 21.04C173.365 21.1 173.375 21.15 173.375 21.19C173.375 21.23 173.365 21.29 173.345 21.37C173.325 21.53 173.235 21.68 173.075 21.82C172.915 21.94 172.755 22 172.595 22H168.605C168.225 22 167.965 21.91 167.825 21.73C167.705 21.53 167.615 21.35 167.555 21.19L165.545 14.59H162.485L161.045 21.25C161.005 21.45 160.895 21.63 160.715 21.79C160.535 21.93 160.335 22 160.115 22H156.245ZM163.355 10.33H166.835C167.775 10.33 168.525 10.1 169.085 9.64C169.645 9.18 170.015 8.56 170.195 7.78C170.355 7 170.255 6.37 169.895 5.89C169.555 5.41 168.895 5.17 167.915 5.17H164.465L163.355 10.33ZM184.7 22.3C183.44 22.3 182.27 22.13 181.19 21.79C180.13 21.45 179.22 20.94 178.46 20.26C177.72 19.58 177.19 18.73 176.87 17.71C176.57 16.69 176.53 15.5 176.75 14.14C176.91 13.28 177.08 12.42 177.26 11.56C177.46 10.68 177.66 9.81 177.86 8.95C178.52 6.25 179.71 4.2 181.43 2.8C183.15 1.4 185.47 0.699999 188.39 0.699999C189.65 0.699999 190.81 0.879999 191.87 1.24C192.95 1.58 193.86 2.1 194.6 2.8C195.36 3.5 195.89 4.36 196.19 5.38C196.51 6.4 196.55 7.59 196.31 8.95C196.17 9.81 196 10.68 195.8 11.56C195.62 12.42 195.43 13.28 195.23 14.14C194.55 16.88 193.35 18.93 191.63 20.29C189.91 21.63 187.6 22.3 184.7 22.3ZM185.12 17.98C186.2 17.98 187.14 17.66 187.94 17.02C188.76 16.38 189.34 15.36 189.68 13.96C189.9 13.08 190.09 12.25 190.25 11.47C190.43 10.69 190.59 9.88 190.73 9.04C190.99 7.64 190.87 6.62 190.37 5.98C189.87 5.34 189.08 5.02 188 5.02C186.92 5.02 185.97 5.34 185.15 5.98C184.35 6.62 183.78 7.64 183.44 9.04C183.22 9.88 183.02 10.69 182.84 11.47C182.68 12.25 182.52 13.08 182.36 13.96C182.12 15.36 182.24 16.38 182.72 17.02C183.2 17.66 184 17.98 185.12 17.98ZM201.988 22C201.768 22 201.598 21.93 201.478 21.79C201.358 21.63 201.318 21.45 201.358 21.25L204.688 5.71H199.348C199.148 5.71 198.988 5.64 198.868 5.5C198.748 5.34 198.708 5.16 198.748 4.96L199.438 1.75C199.478 1.53 199.578 1.35 199.738 1.21C199.918 1.07 200.118 0.999999 200.338 0.999999H216.478C216.698 0.999999 216.858 1.07 216.958 1.21C217.078 1.35 217.118 1.53 217.078 1.75L216.388 4.96C216.348 5.16 216.238 5.34 216.058 5.5C215.898 5.64 215.708 5.71 215.488 5.71H210.178L206.848 21.25C206.808 21.45 206.698 21.63 206.518 21.79C206.358 21.93 206.168 22 205.948 22H201.988ZM220.796 22C220.576 22 220.406 21.93 220.286 21.79C220.166 21.63 220.126 21.45 220.166 21.25L223.496 5.71H218.156C217.956 5.71 217.796 5.64 217.676 5.5C217.556 5.34 217.516 5.16 217.556 4.96L218.246 1.75C218.286 1.53 218.386 1.35 218.546 1.21C218.726 1.07 218.926 0.999999 219.146 0.999999H235.286C235.506 0.999999 235.666 1.07 235.766 1.21C235.886 1.35 235.926 1.53 235.886 1.75L235.196 4.96C235.156 5.16 235.046 5.34 234.866 5.5C234.706 5.64 234.516 5.71 234.296 5.71H228.986L225.656 21.25C225.616 21.45 225.506 21.63 225.326 21.79C225.166 21.93 224.976 22 224.756 22H220.796Z" fill="white"/>
<path d="M10.04 59C9.90667 59 9.79333 58.9533 9.7 58.86C9.60667 58.7667 9.56 58.6533 9.56 58.52V45.5C9.56 45.3533 9.60667 45.2333 9.7 45.14C9.79333 45.0467 9.90667 45 10.04 45H14.92C16.2667 45 17.3733 45.2067 18.24 45.62C19.12 46.0333 19.78 46.6467 20.22 47.46C20.6733 48.2733 20.9067 49.2667 20.92 50.44C20.9467 51.0267 20.96 51.5467 20.96 52C20.96 52.4533 20.9467 52.9667 20.92 53.54C20.8933 54.78 20.6667 55.8067 20.24 56.62C19.8133 57.42 19.1667 58.02 18.3 58.42C17.4467 58.8067 16.3533 59 15.02 59H10.04ZM12.34 56.7H14.92C15.6667 56.7 16.2733 56.5933 16.74 56.38C17.2067 56.1667 17.5467 55.8267 17.76 55.36C17.9867 54.88 18.1067 54.2533 18.12 53.48C18.1333 53.08 18.14 52.7333 18.14 52.44C18.1533 52.1333 18.1533 51.8333 18.14 51.54C18.14 51.2333 18.1333 50.8867 18.12 50.5C18.0933 49.4067 17.82 48.6 17.3 48.08C16.78 47.56 15.9533 47.3 14.82 47.3H12.34V56.7ZM27.8625 59.2C26.3825 59.2 25.2092 58.7733 24.3425 57.92C23.4758 57.0667 23.0092 55.8533 22.9425 54.28C22.9292 54.1467 22.9225 53.98 22.9225 53.78C22.9225 53.5667 22.9292 53.4 22.9425 53.28C22.9958 52.2667 23.2225 51.4 23.6225 50.68C24.0358 49.9467 24.6025 49.3867 25.3225 49C26.0425 48.6 26.8892 48.4 27.8625 48.4C28.9425 48.4 29.8492 48.6267 30.5825 49.08C31.3158 49.52 31.8692 50.14 32.2425 50.94C32.6158 51.7267 32.8025 52.64 32.8025 53.68V54.1C32.8025 54.2333 32.7558 54.3467 32.6625 54.44C32.5692 54.5333 32.4492 54.58 32.3025 54.58H25.6625C25.6625 54.58 25.6625 54.6 25.6625 54.64C25.6625 54.68 25.6625 54.7133 25.6625 54.74C25.6758 55.2067 25.7625 55.64 25.9225 56.04C26.0958 56.4267 26.3425 56.74 26.6625 56.98C26.9958 57.22 27.3892 57.34 27.8425 57.34C28.2158 57.34 28.5292 57.2867 28.7825 57.18C29.0358 57.06 29.2425 56.9267 29.4025 56.78C29.5625 56.6333 29.6758 56.5133 29.7425 56.42C29.8625 56.26 29.9558 56.1667 30.0225 56.14C30.1025 56.1 30.2158 56.08 30.3625 56.08H32.0825C32.2158 56.08 32.3225 56.12 32.4025 56.2C32.4958 56.28 32.5358 56.38 32.5225 56.5C32.5092 56.7133 32.3958 56.9733 32.1825 57.28C31.9825 57.5867 31.6892 57.8867 31.3025 58.18C30.9158 58.4733 30.4292 58.72 29.8425 58.92C29.2692 59.1067 28.6092 59.2 27.8625 59.2ZM25.6625 52.9H30.0825V52.84C30.0825 52.32 29.9958 51.8667 29.8225 51.48C29.6492 51.08 29.3958 50.7733 29.0625 50.56C28.7292 50.3333 28.3292 50.22 27.8625 50.22C27.3958 50.22 26.9958 50.3333 26.6625 50.56C26.3292 50.7733 26.0758 51.08 25.9025 51.48C25.7425 51.8667 25.6625 52.32 25.6625 52.84V52.9ZM38.8655 59.2C38.0655 59.2 37.3788 59.1067 36.8055 58.92C36.2455 58.7333 35.7855 58.5 35.4255 58.22C35.0655 57.94 34.7988 57.66 34.6255 57.38C34.4521 57.1 34.3588 56.8667 34.3455 56.68C34.3321 56.5333 34.3721 56.42 34.4655 56.34C34.5721 56.2467 34.6855 56.2 34.8055 56.2H36.3855C36.4388 56.2 36.4855 56.2067 36.5255 56.22C36.5655 56.2333 36.6188 56.2733 36.6855 56.34C36.8588 56.4867 37.0388 56.64 37.2255 56.8C37.4255 56.96 37.6588 57.1 37.9255 57.22C38.1921 57.3267 38.5255 57.38 38.9255 57.38C39.4455 57.38 39.8788 57.28 40.2255 57.08C40.5855 56.8667 40.7655 56.5667 40.7655 56.18C40.7655 55.9 40.6855 55.6733 40.5255 55.5C40.3788 55.3267 40.0988 55.1733 39.6855 55.04C39.2721 54.8933 38.6855 54.74 37.9255 54.58C37.1788 54.4067 36.5588 54.1867 36.0655 53.92C35.5721 53.6533 35.2055 53.32 34.9655 52.92C34.7255 52.52 34.6055 52.0533 34.6055 51.52C34.6055 51 34.7588 50.5067 35.0655 50.04C35.3855 49.56 35.8521 49.1667 36.4655 48.86C37.0921 48.5533 37.8655 48.4 38.7855 48.4C39.5055 48.4 40.1321 48.4933 40.6655 48.68C41.1988 48.8533 41.6388 49.0733 41.9855 49.34C42.3455 49.6067 42.6188 49.88 42.8055 50.16C42.9921 50.4267 43.0921 50.66 43.1055 50.86C43.1188 51.0067 43.0788 51.1267 42.9855 51.22C42.8921 51.3 42.7855 51.34 42.6655 51.34H41.1855C41.1188 51.34 41.0588 51.3267 41.0055 51.3C40.9521 51.2733 40.8988 51.24 40.8455 51.2C40.6988 51.0667 40.5388 50.9267 40.3655 50.78C40.1921 50.62 39.9788 50.4867 39.7255 50.38C39.4855 50.2733 39.1655 50.22 38.7655 50.22C38.2588 50.22 37.8721 50.3333 37.6055 50.56C37.3388 50.7733 37.2055 51.0467 37.2055 51.38C37.2055 51.6067 37.2655 51.8067 37.3855 51.98C37.5188 52.14 37.7788 52.2933 38.1655 52.44C38.5521 52.5867 39.1388 52.74 39.9255 52.9C40.8188 53.06 41.5255 53.3 42.0455 53.62C42.5788 53.9267 42.9521 54.2867 43.1655 54.7C43.3921 55.1 43.5055 55.5467 43.5055 56.04C43.5055 56.64 43.3255 57.18 42.9655 57.66C42.6188 58.14 42.0988 58.52 41.4055 58.8C40.7255 59.0667 39.8788 59.2 38.8655 59.2ZM46.05 59C45.9167 59 45.8033 58.9533 45.71 58.86C45.6167 58.7667 45.57 58.6533 45.57 58.52V49.08C45.57 48.9467 45.6167 48.8333 45.71 48.74C45.8033 48.6467 45.9167 48.6 46.05 48.6H47.71C47.8567 48.6 47.97 48.6467 48.05 48.74C48.1433 48.8333 48.19 48.9467 48.19 49.08V58.52C48.19 58.6533 48.1433 58.7667 48.05 58.86C47.97 58.9533 47.8567 59 47.71 59H46.05ZM45.97 46.88C45.8367 46.88 45.7233 46.8333 45.63 46.74C45.5367 46.6467 45.49 46.5333 45.49 46.4V44.96C45.49 44.8267 45.5367 44.7133 45.63 44.62C45.7233 44.5267 45.8367 44.48 45.97 44.48H47.79C47.9367 44.48 48.0567 44.5267 48.15 44.62C48.2433 44.7133 48.29 44.8267 48.29 44.96V46.4C48.29 46.5333 48.2433 46.6467 48.15 46.74C48.0567 46.8333 47.9367 46.88 47.79 46.88H45.97ZM55.5434 63.4C54.5701 63.4 53.7701 63.2733 53.1434 63.02C52.5168 62.7667 52.0234 62.46 51.6634 62.1C51.3034 61.74 51.0434 61.38 50.8834 61.02C50.7368 60.6733 50.6568 60.4 50.6434 60.2C50.6301 60.0667 50.6701 59.9467 50.7634 59.84C50.8701 59.7467 50.9901 59.7 51.1234 59.7H52.8634C52.9968 59.7 53.1034 59.7267 53.1834 59.78C53.2634 59.8467 53.3301 59.96 53.3834 60.12C53.4634 60.2933 53.5701 60.48 53.7034 60.68C53.8368 60.88 54.0368 61.0467 54.3034 61.18C54.5834 61.3267 54.9634 61.4 55.4434 61.4C55.9501 61.4 56.3768 61.3267 56.7234 61.18C57.0701 61.0333 57.3301 60.7867 57.5034 60.44C57.6901 60.0933 57.7834 59.6133 57.7834 59V57.64C57.4634 58.0267 57.0501 58.34 56.5434 58.58C56.0501 58.82 55.4368 58.94 54.7034 58.94C53.9968 58.94 53.3768 58.8267 52.8434 58.6C52.3234 58.36 51.8901 58.0333 51.5434 57.62C51.1968 57.1933 50.9301 56.6933 50.7434 56.12C50.5701 55.5467 50.4701 54.9133 50.4434 54.22C50.4301 53.86 50.4301 53.5 50.4434 53.14C50.4701 52.4733 50.5701 51.8533 50.7434 51.28C50.9301 50.7067 51.1968 50.2067 51.5434 49.78C51.8901 49.34 52.3234 49 52.8434 48.76C53.3768 48.52 53.9968 48.4 54.7034 48.4C55.4634 48.4 56.1034 48.5467 56.6234 48.84C57.1434 49.12 57.5701 49.4733 57.9034 49.9V49.1C57.9034 48.9533 57.9501 48.8333 58.0434 48.74C58.1368 48.6467 58.2501 48.6 58.3834 48.6H60.0034C60.1368 48.6 60.2501 48.6467 60.3434 48.74C60.4368 48.8333 60.4834 48.9533 60.4834 49.1L60.5034 58.74C60.5034 59.7 60.3234 60.5267 59.9634 61.22C59.6034 61.9133 59.0568 62.4467 58.3234 62.82C57.6034 63.2067 56.6768 63.4 55.5434 63.4ZM55.4434 56.82C55.9901 56.82 56.4301 56.7 56.7634 56.46C57.0968 56.22 57.3434 55.9067 57.5034 55.52C57.6634 55.1333 57.7568 54.74 57.7834 54.34C57.7968 54.1667 57.8034 53.9467 57.8034 53.68C57.8034 53.4133 57.7968 53.2 57.7834 53.04C57.7568 52.6267 57.6634 52.2333 57.5034 51.86C57.3434 51.4733 57.0968 51.16 56.7634 50.92C56.4301 50.6667 55.9901 50.54 55.4434 50.54C54.8968 50.54 54.4568 50.6667 54.1234 50.92C53.7901 51.16 53.5501 51.48 53.4034 51.88C53.2701 52.28 53.1901 52.72 53.1634 53.2C53.1368 53.52 53.1368 53.8467 53.1634 54.18C53.1901 54.6467 53.2701 55.0867 53.4034 55.5C53.5501 55.9 53.7901 56.22 54.1234 56.46C54.4568 56.7 54.8968 56.82 55.4434 56.82ZM63.6477 59C63.5143 59 63.401 58.9533 63.3077 58.86C63.2143 58.7667 63.1677 58.6533 63.1677 58.52V49.08C63.1677 48.9467 63.2143 48.8333 63.3077 48.74C63.401 48.6467 63.5143 48.6 63.6477 48.6H65.2877C65.421 48.6 65.5343 48.6467 65.6277 48.74C65.721 48.8333 65.7677 48.9467 65.7677 49.08V49.9C66.1143 49.4733 66.5543 49.12 67.0877 48.84C67.6343 48.5467 68.3077 48.4 69.1077 48.4C69.921 48.4 70.6277 48.5867 71.2277 48.96C71.8277 49.32 72.2877 49.8333 72.6077 50.5C72.941 51.1667 73.1077 51.9667 73.1077 52.9V58.52C73.1077 58.6533 73.061 58.7667 72.9677 58.86C72.8743 58.9533 72.761 59 72.6277 59H70.8677C70.7343 59 70.621 58.9533 70.5277 58.86C70.4343 58.7667 70.3877 58.6533 70.3877 58.52V53.02C70.3877 52.2467 70.1943 51.64 69.8077 51.2C69.4343 50.76 68.8877 50.54 68.1677 50.54C67.4743 50.54 66.921 50.76 66.5077 51.2C66.0943 51.64 65.8877 52.2467 65.8877 53.02V58.52C65.8877 58.6533 65.841 58.7667 65.7477 58.86C65.6543 58.9533 65.541 59 65.4077 59H63.6477ZM80.1281 59.2C78.6481 59.2 77.4748 58.7733 76.6081 57.92C75.7415 57.0667 75.2748 55.8533 75.2081 54.28C75.1948 54.1467 75.1881 53.98 75.1881 53.78C75.1881 53.5667 75.1948 53.4 75.2081 53.28C75.2615 52.2667 75.4881 51.4 75.8881 50.68C76.3015 49.9467 76.8681 49.3867 77.5881 49C78.3081 48.6 79.1548 48.4 80.1281 48.4C81.2081 48.4 82.1148 48.6267 82.8481 49.08C83.5815 49.52 84.1348 50.14 84.5081 50.94C84.8815 51.7267 85.0681 52.64 85.0681 53.68V54.1C85.0681 54.2333 85.0215 54.3467 84.9281 54.44C84.8348 54.5333 84.7148 54.58 84.5681 54.58H77.9281C77.9281 54.58 77.9281 54.6 77.9281 54.64C77.9281 54.68 77.9281 54.7133 77.9281 54.74C77.9415 55.2067 78.0281 55.64 78.1881 56.04C78.3615 56.4267 78.6081 56.74 78.9281 56.98C79.2615 57.22 79.6548 57.34 80.1081 57.34C80.4815 57.34 80.7948 57.2867 81.0481 57.18C81.3015 57.06 81.5081 56.9267 81.6681 56.78C81.8281 56.6333 81.9415 56.5133 82.0081 56.42C82.1281 56.26 82.2215 56.1667 82.2881 56.14C82.3681 56.1 82.4815 56.08 82.6281 56.08H84.3481C84.4815 56.08 84.5881 56.12 84.6681 56.2C84.7615 56.28 84.8015 56.38 84.7881 56.5C84.7748 56.7133 84.6615 56.9733 84.4481 57.28C84.2481 57.5867 83.9548 57.8867 83.5681 58.18C83.1815 58.4733 82.6948 58.72 82.1081 58.92C81.5348 59.1067 80.8748 59.2 80.1281 59.2ZM77.9281 52.9H82.3481V52.84C82.3481 52.32 82.2615 51.8667 82.0881 51.48C81.9148 51.08 81.6615 50.7733 81.3281 50.56C80.9948 50.3333 80.5948 50.22 80.1281 50.22C79.6615 50.22 79.2615 50.3333 78.9281 50.56C78.5948 50.7733 78.3415 51.08 78.1681 51.48C78.0081 51.8667 77.9281 52.32 77.9281 52.84V52.9ZM87.6711 59C87.5378 59 87.4244 58.9533 87.3311 58.86C87.2378 58.7667 87.1911 58.6533 87.1911 58.52V49.1C87.1911 48.9533 87.2378 48.8333 87.3311 48.74C87.4244 48.6467 87.5378 48.6 87.6711 48.6H89.2911C89.4244 48.6 89.5378 48.6467 89.6311 48.74C89.7378 48.8333 89.7911 48.9533 89.7911 49.1V49.92C90.0978 49.4933 90.4911 49.1667 90.9711 48.94C91.4644 48.7133 92.0311 48.6 92.6711 48.6H93.4911C93.6378 48.6 93.7511 48.6467 93.8311 48.74C93.9244 48.8333 93.9711 48.9467 93.9711 49.08V50.52C93.9711 50.6533 93.9244 50.7667 93.8311 50.86C93.7511 50.9533 93.6378 51 93.4911 51H91.9311C91.2911 51 90.7911 51.18 90.4311 51.54C90.0844 51.8867 89.9111 52.38 89.9111 53.02V58.52C89.9111 58.6533 89.8644 58.7667 89.7711 58.86C89.6778 58.9533 89.5578 59 89.4111 59H87.6711ZM94.3367 60.5C94.2167 60.5 94.1234 60.46 94.0567 60.38C93.9901 60.3 93.9634 60.2 93.9767 60.08L94.5167 56.68C94.5434 56.5067 94.6034 56.36 94.6967 56.24C94.8034 56.1067 94.9567 56.04 95.1567 56.04H96.9967C97.1034 56.04 97.1901 56.08 97.2567 56.16C97.3234 56.2267 97.3567 56.3133 97.3567 56.42C97.3567 56.5133 97.3367 56.6 97.2967 56.68L96.0167 60C95.9634 60.1333 95.8834 60.2467 95.7767 60.34C95.6834 60.4467 95.5434 60.5 95.3567 60.5H94.3367ZM108.8 59.2C107.84 59.2 106.994 59.02 106.26 58.66C105.54 58.3 104.974 57.78 104.56 57.1C104.16 56.4067 103.94 55.5733 103.9 54.6C103.887 54.4 103.88 54.14 103.88 53.82C103.88 53.4867 103.887 53.2133 103.9 53C103.94 52.0267 104.16 51.2 104.56 50.52C104.974 49.8267 105.54 49.3 106.26 48.94C106.994 48.58 107.84 48.4 108.8 48.4C109.654 48.4 110.38 48.52 110.98 48.76C111.58 48.9867 112.074 49.2867 112.46 49.66C112.847 50.02 113.134 50.4 113.32 50.8C113.52 51.1867 113.627 51.54 113.64 51.86C113.654 52.0067 113.607 52.1267 113.5 52.22C113.407 52.3 113.294 52.34 113.16 52.34H111.4C111.267 52.34 111.16 52.3067 111.08 52.24C111.014 52.1733 110.947 52.0733 110.88 51.94C110.68 51.4067 110.414 51.0333 110.08 50.82C109.76 50.5933 109.347 50.48 108.84 50.48C108.174 50.48 107.64 50.6933 107.24 51.12C106.854 51.5333 106.647 52.1933 106.62 53.1C106.594 53.6067 106.594 54.0733 106.62 54.5C106.647 55.42 106.854 56.0867 107.24 56.5C107.64 56.9133 108.174 57.12 108.84 57.12C109.36 57.12 109.78 57.0133 110.1 56.8C110.42 56.5733 110.68 56.1933 110.88 55.66C110.947 55.5267 111.014 55.4267 111.08 55.36C111.16 55.2933 111.267 55.26 111.4 55.26H113.16C113.294 55.26 113.407 55.3067 113.5 55.4C113.607 55.48 113.654 55.5933 113.64 55.74C113.627 55.98 113.56 56.2533 113.44 56.56C113.334 56.8533 113.154 57.16 112.9 57.48C112.66 57.7867 112.354 58.0733 111.98 58.34C111.607 58.5933 111.154 58.8 110.62 58.96C110.1 59.12 109.494 59.2 108.8 59.2ZM120.326 59.2C119.26 59.2 118.36 59.0133 117.626 58.64C116.906 58.2667 116.353 57.74 115.966 57.06C115.593 56.38 115.38 55.5867 115.326 54.68C115.313 54.44 115.306 54.1467 115.306 53.8C115.306 53.4533 115.313 53.16 115.326 52.92C115.38 52 115.6 51.2067 115.986 50.54C116.386 49.86 116.946 49.3333 117.666 48.96C118.4 48.5867 119.286 48.4 120.326 48.4C121.366 48.4 122.246 48.5867 122.966 48.96C123.7 49.3333 124.26 49.86 124.646 50.54C125.046 51.2067 125.273 52 125.326 52.92C125.34 53.16 125.346 53.4533 125.346 53.8C125.346 54.1467 125.34 54.44 125.326 54.68C125.273 55.5867 125.053 56.38 124.666 57.06C124.293 57.74 123.74 58.2667 123.006 58.64C122.286 59.0133 121.393 59.2 120.326 59.2ZM120.326 57.22C121.033 57.22 121.58 57 121.966 56.56C122.353 56.1067 122.566 55.4467 122.606 54.58C122.62 54.38 122.626 54.12 122.626 53.8C122.626 53.48 122.62 53.22 122.606 53.02C122.566 52.1533 122.353 51.5 121.966 51.06C121.58 50.6067 121.033 50.38 120.326 50.38C119.62 50.38 119.073 50.6067 118.686 51.06C118.3 51.5 118.086 52.1533 118.046 53.02C118.033 53.22 118.026 53.48 118.026 53.8C118.026 54.12 118.033 54.38 118.046 54.58C118.086 55.4467 118.3 56.1067 118.686 56.56C119.073 57 119.62 57.22 120.326 57.22ZM131.422 59.2C130.729 59.2 130.116 59.0867 129.582 58.86C129.062 58.62 128.629 58.2867 128.282 57.86C127.936 57.4333 127.669 56.9333 127.482 56.36C127.296 55.7733 127.189 55.1333 127.162 54.44C127.149 54.2 127.142 53.9867 127.142 53.8C127.142 53.6 127.149 53.38 127.162 53.14C127.189 52.4733 127.289 51.8533 127.462 51.28C127.649 50.7067 127.916 50.2067 128.262 49.78C128.622 49.34 129.062 49 129.582 48.76C130.116 48.52 130.729 48.4 131.422 48.4C132.142 48.4 132.749 48.5267 133.242 48.78C133.749 49.02 134.169 49.3333 134.502 49.72V45.28C134.502 45.1467 134.542 45.0333 134.622 44.94C134.716 44.8467 134.836 44.8 134.982 44.8H136.682C136.816 44.8 136.929 44.8467 137.022 44.94C137.116 45.0333 137.162 45.1467 137.162 45.28V58.52C137.162 58.6533 137.116 58.7667 137.022 58.86C136.929 58.9533 136.816 59 136.682 59H135.102C134.956 59 134.836 58.9533 134.742 58.86C134.662 58.7667 134.622 58.6533 134.622 58.52V57.78C134.289 58.1933 133.862 58.5333 133.342 58.8C132.836 59.0667 132.196 59.2 131.422 59.2ZM132.162 57.06C132.722 57.06 133.169 56.9333 133.502 56.68C133.836 56.4267 134.082 56.1067 134.242 55.72C134.402 55.32 134.489 54.9133 134.502 54.5C134.516 54.26 134.522 54.0067 134.522 53.74C134.522 53.46 134.516 53.2 134.502 52.96C134.489 52.56 134.396 52.18 134.222 51.82C134.049 51.4467 133.796 51.14 133.462 50.9C133.129 50.66 132.696 50.54 132.162 50.54C131.602 50.54 131.156 50.6667 130.822 50.92C130.502 51.16 130.269 51.48 130.122 51.88C129.976 52.28 129.889 52.72 129.862 53.2C129.849 53.6 129.849 54 129.862 54.4C129.889 54.88 129.976 55.32 130.122 55.72C130.269 56.12 130.502 56.4467 130.822 56.7C131.156 56.94 131.602 57.06 132.162 57.06ZM144.308 59.2C142.828 59.2 141.654 58.7733 140.788 57.92C139.921 57.0667 139.454 55.8533 139.388 54.28C139.374 54.1467 139.368 53.98 139.368 53.78C139.368 53.5667 139.374 53.4 139.388 53.28C139.441 52.2667 139.668 51.4 140.068 50.68C140.481 49.9467 141.048 49.3867 141.768 49C142.488 48.6 143.334 48.4 144.308 48.4C145.388 48.4 146.294 48.6267 147.028 49.08C147.761 49.52 148.314 50.14 148.688 50.94C149.061 51.7267 149.248 52.64 149.248 53.68V54.1C149.248 54.2333 149.201 54.3467 149.108 54.44C149.014 54.5333 148.894 54.58 148.748 54.58H142.108C142.108 54.58 142.108 54.6 142.108 54.64C142.108 54.68 142.108 54.7133 142.108 54.74C142.121 55.2067 142.208 55.64 142.368 56.04C142.541 56.4267 142.788 56.74 143.108 56.98C143.441 57.22 143.834 57.34 144.288 57.34C144.661 57.34 144.974 57.2867 145.228 57.18C145.481 57.06 145.688 56.9267 145.848 56.78C146.008 56.6333 146.121 56.5133 146.188 56.42C146.308 56.26 146.401 56.1667 146.468 56.14C146.548 56.1 146.661 56.08 146.808 56.08H148.528C148.661 56.08 148.768 56.12 148.848 56.2C148.941 56.28 148.981 56.38 148.968 56.5C148.954 56.7133 148.841 56.9733 148.628 57.28C148.428 57.5867 148.134 57.8867 147.748 58.18C147.361 58.4733 146.874 58.72 146.288 58.92C145.714 59.1067 145.054 59.2 144.308 59.2ZM142.108 52.9H146.528V52.84C146.528 52.32 146.441 51.8667 146.268 51.48C146.094 51.08 145.841 50.7733 145.508 50.56C145.174 50.3333 144.774 50.22 144.308 50.22C143.841 50.22 143.441 50.3333 143.108 50.56C142.774 50.7733 142.521 51.08 142.348 51.48C142.188 51.8667 142.108 52.32 142.108 52.84V52.9ZM151.851 59C151.717 59 151.604 58.9533 151.511 58.86C151.417 58.7667 151.371 58.6533 151.371 58.52V49.1C151.371 48.9533 151.417 48.8333 151.511 48.74C151.604 48.6467 151.717 48.6 151.851 48.6H153.471C153.604 48.6 153.717 48.6467 153.811 48.74C153.917 48.8333 153.971 48.9533 153.971 49.1V49.92C154.277 49.4933 154.671 49.1667 155.151 48.94C155.644 48.7133 156.211 48.6 156.851 48.6H157.671C157.817 48.6 157.931 48.6467 158.011 48.74C158.104 48.8333 158.151 48.9467 158.151 49.08V50.52C158.151 50.6533 158.104 50.7667 158.011 50.86C157.931 50.9533 157.817 51 157.671 51H156.111C155.471 51 154.971 51.18 154.611 51.54C154.264 51.8867 154.091 52.38 154.091 53.02V58.52C154.091 58.6533 154.044 58.7667 153.951 58.86C153.857 58.9533 153.737 59 153.591 59H151.851ZM166.871 59.2C166.178 59.2 165.551 59.0667 164.991 58.8C164.431 58.52 163.985 58.1533 163.651 57.7C163.331 57.2333 163.171 56.7133 163.171 56.14C163.171 55.2067 163.551 54.4667 164.311 53.92C165.071 53.36 166.065 52.9867 167.291 52.8L170.031 52.4V51.98C170.031 51.42 169.891 50.9867 169.611 50.68C169.331 50.3733 168.851 50.22 168.171 50.22C167.691 50.22 167.298 50.32 166.991 50.52C166.698 50.7067 166.478 50.96 166.331 51.28C166.225 51.4533 166.071 51.54 165.871 51.54H164.291C164.145 51.54 164.031 51.5 163.951 51.42C163.885 51.34 163.851 51.2333 163.851 51.1C163.865 50.8867 163.951 50.6267 164.111 50.32C164.285 50.0133 164.538 49.72 164.871 49.44C165.218 49.1467 165.665 48.9 166.211 48.7C166.758 48.5 167.418 48.4 168.191 48.4C169.031 48.4 169.738 48.5067 170.311 48.72C170.898 48.92 171.365 49.1933 171.711 49.54C172.058 49.8867 172.311 50.2933 172.471 50.76C172.631 51.2267 172.711 51.72 172.711 52.24V58.52C172.711 58.6533 172.665 58.7667 172.571 58.86C172.478 58.9533 172.365 59 172.231 59H170.611C170.465 59 170.345 58.9533 170.251 58.86C170.171 58.7667 170.131 58.6533 170.131 58.52V57.74C169.958 57.98 169.725 58.2133 169.431 58.44C169.138 58.6667 168.778 58.8533 168.351 59C167.938 59.1333 167.445 59.2 166.871 59.2ZM167.551 57.3C168.018 57.3 168.438 57.2 168.811 57C169.198 56.8 169.498 56.4933 169.711 56.08C169.938 55.6533 170.051 55.12 170.051 54.48V54.06L168.051 54.38C167.265 54.5 166.678 54.6933 166.291 54.96C165.905 55.2267 165.711 55.5533 165.711 55.94C165.711 56.2333 165.798 56.4867 165.971 56.7C166.158 56.9 166.391 57.0533 166.671 57.16C166.951 57.2533 167.245 57.3 167.551 57.3ZM175.757 59C175.624 59 175.51 58.9533 175.417 58.86C175.324 58.7667 175.277 58.6533 175.277 58.52V49.08C175.277 48.9467 175.324 48.8333 175.417 48.74C175.51 48.6467 175.624 48.6 175.757 48.6H177.397C177.53 48.6 177.644 48.6467 177.737 48.74C177.83 48.8333 177.877 48.9467 177.877 49.08V49.9C178.224 49.4733 178.664 49.12 179.197 48.84C179.744 48.5467 180.417 48.4 181.217 48.4C182.03 48.4 182.737 48.5867 183.337 48.96C183.937 49.32 184.397 49.8333 184.717 50.5C185.05 51.1667 185.217 51.9667 185.217 52.9V58.52C185.217 58.6533 185.17 58.7667 185.077 58.86C184.984 58.9533 184.87 59 184.737 59H182.977C182.844 59 182.73 58.9533 182.637 58.86C182.544 58.7667 182.497 58.6533 182.497 58.52V53.02C182.497 52.2467 182.304 51.64 181.917 51.2C181.544 50.76 180.997 50.54 180.277 50.54C179.584 50.54 179.03 50.76 178.617 51.2C178.204 51.64 177.997 52.2467 177.997 53.02V58.52C177.997 58.6533 177.95 58.7667 177.857 58.86C177.764 58.9533 177.65 59 177.517 59H175.757ZM191.618 59.2C190.924 59.2 190.311 59.0867 189.778 58.86C189.258 58.62 188.824 58.2867 188.478 57.86C188.131 57.4333 187.864 56.9333 187.678 56.36C187.491 55.7733 187.384 55.1333 187.358 54.44C187.344 54.2 187.338 53.9867 187.338 53.8C187.338 53.6 187.344 53.38 187.358 53.14C187.384 52.4733 187.484 51.8533 187.658 51.28C187.844 50.7067 188.111 50.2067 188.458 49.78C188.818 49.34 189.258 49 189.778 48.76C190.311 48.52 190.924 48.4 191.618 48.4C192.338 48.4 192.944 48.5267 193.438 48.78C193.944 49.02 194.364 49.3333 194.698 49.72V45.28C194.698 45.1467 194.738 45.0333 194.818 44.94C194.911 44.8467 195.031 44.8 195.178 44.8H196.878C197.011 44.8 197.124 44.8467 197.218 44.94C197.311 45.0333 197.358 45.1467 197.358 45.28V58.52C197.358 58.6533 197.311 58.7667 197.218 58.86C197.124 58.9533 197.011 59 196.878 59H195.298C195.151 59 195.031 58.9533 194.938 58.86C194.858 58.7667 194.818 58.6533 194.818 58.52V57.78C194.484 58.1933 194.058 58.5333 193.538 58.8C193.031 59.0667 192.391 59.2 191.618 59.2ZM192.358 57.06C192.918 57.06 193.364 56.9333 193.698 56.68C194.031 56.4267 194.278 56.1067 194.438 55.72C194.598 55.32 194.684 54.9133 194.698 54.5C194.711 54.26 194.718 54.0067 194.718 53.74C194.718 53.46 194.711 53.2 194.698 52.96C194.684 52.56 194.591 52.18 194.418 51.82C194.244 51.4467 193.991 51.14 193.658 50.9C193.324 50.66 192.891 50.54 192.358 50.54C191.798 50.54 191.351 50.6667 191.018 50.92C190.698 51.16 190.464 51.48 190.318 51.88C190.171 52.28 190.084 52.72 190.058 53.2C190.044 53.6 190.044 54 190.058 54.4C190.084 54.88 190.171 55.32 190.318 55.72C190.464 56.12 190.698 56.4467 191.018 56.7C191.351 56.94 191.798 57.06 192.358 57.06ZM143.195 85.2C141.715 85.2 140.541 84.7733 139.675 83.92C138.808 83.0667 138.341 81.8533 138.275 80.28C138.261 80.1467 138.255 79.98 138.255 79.78C138.255 79.5667 138.261 79.4 138.275 79.28C138.328 78.2667 138.555 77.4 138.955 76.68C139.368 75.9467 139.935 75.3867 140.655 75C141.375 74.6 142.221 74.4 143.195 74.4C144.275 74.4 145.181 74.6267 145.915 75.08C146.648 75.52 147.201 76.14 147.575 76.94C147.948 77.7267 148.135 78.64 148.135 79.68V80.1C148.135 80.2333 148.088 80.3467 147.995 80.44C147.901 80.5333 147.781 80.58 147.635 80.58H140.995C140.995 80.58 140.995 80.6 140.995 80.64C140.995 80.68 140.995 80.7133 140.995 80.74C141.008 81.2067 141.095 81.64 141.255 82.04C141.428 82.4267 141.675 82.74 141.995 82.98C142.328 83.22 142.721 83.34 143.175 83.34C143.548 83.34 143.861 83.2867 144.115 83.18C144.368 83.06 144.575 82.9267 144.735 82.78C144.895 82.6333 145.008 82.5133 145.075 82.42C145.195 82.26 145.288 82.1667 145.355 82.14C145.435 82.1 145.548 82.08 145.695 82.08H147.415C147.548 82.08 147.655 82.12 147.735 82.2C147.828 82.28 147.868 82.38 147.855 82.5C147.841 82.7133 147.728 82.9733 147.515 83.28C147.315 83.5867 147.021 83.8867 146.635 84.18C146.248 84.4733 145.761 84.72 145.175 84.92C144.601 85.1067 143.941 85.2 143.195 85.2ZM140.995 78.9H145.415V78.84C145.415 78.32 145.328 77.8667 145.155 77.48C144.981 77.08 144.728 76.7733 144.395 76.56C144.061 76.3333 143.661 76.22 143.195 76.22C142.728 76.22 142.328 76.3333 141.995 76.56C141.661 76.7733 141.408 77.08 141.235 77.48C141.075 77.8667 140.995 78.32 140.995 78.84V78.9ZM150.738 85C150.604 85 150.491 84.9533 150.398 84.86C150.304 84.7667 150.257 84.6533 150.257 84.52V75.08C150.257 74.9467 150.304 74.8333 150.398 74.74C150.491 74.6467 150.604 74.6 150.738 74.6H152.378C152.511 74.6 152.624 74.6467 152.718 74.74C152.811 74.8333 152.858 74.9467 152.858 75.08V75.9C153.204 75.4733 153.644 75.12 154.178 74.84C154.724 74.5467 155.398 74.4 156.198 74.4C157.011 74.4 157.718 74.5867 158.318 74.96C158.918 75.32 159.378 75.8333 159.698 76.5C160.031 77.1667 160.198 77.9667 160.198 78.9V84.52C160.198 84.6533 160.151 84.7667 160.058 84.86C159.964 84.9533 159.851 85 159.718 85H157.958C157.824 85 157.711 84.9533 157.618 84.86C157.524 84.7667 157.478 84.6533 157.478 84.52V79.02C157.478 78.2467 157.284 77.64 156.898 77.2C156.524 76.76 155.978 76.54 155.258 76.54C154.564 76.54 154.011 76.76 153.598 77.2C153.184 77.64 152.978 78.2467 152.978 79.02V84.52C152.978 84.6533 152.931 84.7667 152.838 84.86C152.744 84.9533 152.631 85 152.498 85H150.738ZM167.321 85C166.521 85 165.847 84.86 165.301 84.58C164.754 84.3 164.347 83.8867 164.081 83.34C163.814 82.78 163.681 82.0867 163.681 81.26V76.72H162.101C161.967 76.72 161.854 76.6733 161.761 76.58C161.667 76.4867 161.621 76.3667 161.621 76.22V75.08C161.621 74.9467 161.667 74.8333 161.761 74.74C161.854 74.6467 161.967 74.6 162.101 74.6H163.681V71.28C163.681 71.1467 163.721 71.0333 163.801 70.94C163.894 70.8467 164.014 70.8 164.161 70.8H165.781C165.914 70.8 166.027 70.8467 166.121 70.94C166.214 71.0333 166.261 71.1467 166.261 71.28V74.6H168.761C168.894 74.6 169.007 74.6467 169.101 74.74C169.194 74.8333 169.241 74.9467 169.241 75.08V76.22C169.241 76.3667 169.194 76.4867 169.101 76.58C169.007 76.6733 168.894 76.72 168.761 76.72H166.261V81.06C166.261 81.6067 166.354 82.0333 166.541 82.34C166.741 82.6467 167.081 82.8 167.561 82.8H168.941C169.074 82.8 169.187 82.8467 169.281 82.94C169.374 83.0333 169.421 83.1467 169.421 83.28V84.52C169.421 84.6533 169.374 84.7667 169.281 84.86C169.187 84.9533 169.074 85 168.941 85H167.321ZM171.695 85C171.562 85 171.448 84.9533 171.355 84.86C171.262 84.7667 171.215 84.6533 171.215 84.52V71.28C171.215 71.1467 171.262 71.0333 171.355 70.94C171.448 70.8467 171.562 70.8 171.695 70.8H173.475C173.622 70.8 173.735 70.8467 173.815 70.94C173.908 71.0333 173.955 71.1467 173.955 71.28V75.84C174.315 75.4133 174.755 75.0667 175.275 74.8C175.795 74.5333 176.435 74.4 177.195 74.4C178.008 74.4 178.715 74.5867 179.315 74.96C179.928 75.32 180.402 75.8333 180.735 76.5C181.068 77.1667 181.235 77.9667 181.235 78.9V84.52C181.235 84.6533 181.188 84.7667 181.095 84.86C181.002 84.9533 180.888 85 180.755 85H178.955C178.822 85 178.708 84.9533 178.615 84.86C178.522 84.7667 178.475 84.6533 178.475 84.52V79.02C178.475 78.2467 178.282 77.64 177.895 77.2C177.522 76.76 176.975 76.54 176.255 76.54C175.562 76.54 175.002 76.76 174.575 77.2C174.162 77.64 173.955 78.2467 173.955 79.02V84.52C173.955 84.6533 173.908 84.7667 173.815 84.86C173.735 84.9533 173.622 85 173.475 85H171.695ZM187.633 85.2C186.82 85.2 186.113 85.02 185.513 84.66C184.926 84.2867 184.473 83.7667 184.153 83.1C183.833 82.42 183.673 81.62 183.673 80.7V75.08C183.673 74.9467 183.72 74.8333 183.813 74.74C183.906 74.6467 184.02 74.6 184.153 74.6H185.913C186.06 74.6 186.173 74.6467 186.253 74.74C186.346 74.8333 186.393 74.9467 186.393 75.08V80.58C186.393 82.2333 187.12 83.06 188.573 83.06C189.266 83.06 189.813 82.84 190.213 82.4C190.626 81.96 190.833 81.3533 190.833 80.58V75.08C190.833 74.9467 190.88 74.8333 190.973 74.74C191.066 74.6467 191.18 74.6 191.313 74.6H193.073C193.206 74.6 193.32 74.6467 193.413 74.74C193.506 74.8333 193.553 74.9467 193.553 75.08V84.52C193.553 84.6533 193.506 84.7667 193.413 84.86C193.32 84.9533 193.206 85 193.073 85H191.453C191.306 85 191.186 84.9533 191.093 84.86C191.013 84.7667 190.973 84.6533 190.973 84.52V83.7C190.613 84.1667 190.166 84.5333 189.633 84.8C189.1 85.0667 188.433 85.2 187.633 85.2ZM200.135 85.2C199.335 85.2 198.648 85.1067 198.075 84.92C197.515 84.7333 197.055 84.5 196.695 84.22C196.335 83.94 196.068 83.66 195.895 83.38C195.722 83.1 195.628 82.8667 195.615 82.68C195.602 82.5333 195.642 82.42 195.735 82.34C195.842 82.2467 195.955 82.2 196.075 82.2H197.655C197.708 82.2 197.755 82.2067 197.795 82.22C197.835 82.2333 197.888 82.2733 197.955 82.34C198.128 82.4867 198.308 82.64 198.495 82.8C198.695 82.96 198.928 83.1 199.195 83.22C199.462 83.3267 199.795 83.38 200.195 83.38C200.715 83.38 201.148 83.28 201.495 83.08C201.855 82.8667 202.035 82.5667 202.035 82.18C202.035 81.9 201.955 81.6733 201.795 81.5C201.648 81.3267 201.368 81.1733 200.955 81.04C200.542 80.8933 199.955 80.74 199.195 80.58C198.448 80.4067 197.828 80.1867 197.335 79.92C196.842 79.6533 196.475 79.32 196.235 78.92C195.995 78.52 195.875 78.0533 195.875 77.52C195.875 77 196.028 76.5067 196.335 76.04C196.655 75.56 197.122 75.1667 197.735 74.86C198.362 74.5533 199.135 74.4 200.055 74.4C200.775 74.4 201.402 74.4933 201.935 74.68C202.468 74.8533 202.908 75.0733 203.255 75.34C203.615 75.6067 203.888 75.88 204.075 76.16C204.262 76.4267 204.362 76.66 204.375 76.86C204.388 77.0067 204.348 77.1267 204.255 77.22C204.162 77.3 204.055 77.34 203.935 77.34H202.455C202.388 77.34 202.328 77.3267 202.275 77.3C202.222 77.2733 202.168 77.24 202.115 77.2C201.968 77.0667 201.808 76.9267 201.635 76.78C201.462 76.62 201.248 76.4867 200.995 76.38C200.755 76.2733 200.435 76.22 200.035 76.22C199.528 76.22 199.142 76.3333 198.875 76.56C198.608 76.7733 198.475 77.0467 198.475 77.38C198.475 77.6067 198.535 77.8067 198.655 77.98C198.788 78.14 199.048 78.2933 199.435 78.44C199.822 78.5867 200.408 78.74 201.195 78.9C202.088 79.06 202.795 79.3 203.315 79.62C203.848 79.9267 204.222 80.2867 204.435 80.7C204.662 81.1 204.775 81.5467 204.775 82.04C204.775 82.64 204.595 83.18 204.235 83.66C203.888 84.14 203.368 84.52 202.675 84.8C201.995 85.0667 201.148 85.2 200.135 85.2ZM207.32 85C207.186 85 207.073 84.9533 206.98 84.86C206.886 84.7667 206.84 84.6533 206.84 84.52V75.08C206.84 74.9467 206.886 74.8333 206.98 74.74C207.073 74.6467 207.186 74.6 207.32 74.6H208.98C209.126 74.6 209.24 74.6467 209.32 74.74C209.413 74.8333 209.46 74.9467 209.46 75.08V84.52C209.46 84.6533 209.413 84.7667 209.32 84.86C209.24 84.9533 209.126 85 208.98 85H207.32ZM207.24 72.88C207.106 72.88 206.993 72.8333 206.9 72.74C206.806 72.6467 206.76 72.5333 206.76 72.4V70.96C206.76 70.8267 206.806 70.7133 206.9 70.62C206.993 70.5267 207.106 70.48 207.24 70.48H209.06C209.206 70.48 209.326 70.5267 209.42 70.62C209.513 70.7133 209.56 70.8267 209.56 70.96V72.4C209.56 72.5333 209.513 72.6467 209.42 72.74C209.326 72.8333 209.206 72.88 209.06 72.88H207.24ZM215.133 85.2C214.44 85.2 213.813 85.0667 213.253 84.8C212.693 84.52 212.246 84.1533 211.913 83.7C211.593 83.2333 211.433 82.7133 211.433 82.14C211.433 81.2067 211.813 80.4667 212.573 79.92C213.333 79.36 214.326 78.9867 215.553 78.8L218.293 78.4V77.98C218.293 77.42 218.153 76.9867 217.873 76.68C217.593 76.3733 217.113 76.22 216.433 76.22C215.953 76.22 215.56 76.32 215.253 76.52C214.96 76.7067 214.74 76.96 214.593 77.28C214.486 77.4533 214.333 77.54 214.133 77.54H212.553C212.406 77.54 212.293 77.5 212.213 77.42C212.146 77.34 212.113 77.2333 212.113 77.1C212.126 76.8867 212.213 76.6267 212.373 76.32C212.546 76.0133 212.8 75.72 213.133 75.44C213.48 75.1467 213.926 74.9 214.473 74.7C215.02 74.5 215.68 74.4 216.453 74.4C217.293 74.4 218 74.5067 218.573 74.72C219.16 74.92 219.626 75.1933 219.973 75.54C220.32 75.8867 220.573 76.2933 220.733 76.76C220.893 77.2267 220.973 77.72 220.973 78.24V84.52C220.973 84.6533 220.926 84.7667 220.833 84.86C220.74 84.9533 220.626 85 220.493 85H218.873C218.726 85 218.606 84.9533 218.513 84.86C218.433 84.7667 218.393 84.6533 218.393 84.52V83.74C218.22 83.98 217.986 84.2133 217.693 84.44C217.4 84.6667 217.04 84.8533 216.613 85C216.2 85.1333 215.706 85.2 215.133 85.2ZM215.813 83.3C216.28 83.3 216.7 83.2 217.073 83C217.46 82.8 217.76 82.4933 217.973 82.08C218.2 81.6533 218.313 81.12 218.313 80.48V80.06L216.313 80.38C215.526 80.5 214.94 80.6933 214.553 80.96C214.166 81.2267 213.973 81.5533 213.973 81.94C213.973 82.2333 214.06 82.4867 214.233 82.7C214.42 82.9 214.653 83.0533 214.933 83.16C215.213 83.2533 215.506 83.3 215.813 83.3ZM227.479 85.2C226.679 85.2 225.992 85.1067 225.419 84.92C224.859 84.7333 224.399 84.5 224.039 84.22C223.679 83.94 223.412 83.66 223.239 83.38C223.065 83.1 222.972 82.8667 222.959 82.68C222.945 82.5333 222.985 82.42 223.079 82.34C223.185 82.2467 223.299 82.2 223.419 82.2H224.999C225.052 82.2 225.099 82.2067 225.139 82.22C225.179 82.2333 225.232 82.2733 225.299 82.34C225.472 82.4867 225.652 82.64 225.839 82.8C226.039 82.96 226.272 83.1 226.539 83.22C226.805 83.3267 227.139 83.38 227.539 83.38C228.059 83.38 228.492 83.28 228.839 83.08C229.199 82.8667 229.379 82.5667 229.379 82.18C229.379 81.9 229.299 81.6733 229.139 81.5C228.992 81.3267 228.712 81.1733 228.299 81.04C227.885 80.8933 227.299 80.74 226.539 80.58C225.792 80.4067 225.172 80.1867 224.679 79.92C224.185 79.6533 223.819 79.32 223.579 78.92C223.339 78.52 223.219 78.0533 223.219 77.52C223.219 77 223.372 76.5067 223.679 76.04C223.999 75.56 224.465 75.1667 225.079 74.86C225.705 74.5533 226.479 74.4 227.399 74.4C228.119 74.4 228.745 74.4933 229.279 74.68C229.812 74.8533 230.252 75.0733 230.599 75.34C230.959 75.6067 231.232 75.88 231.419 76.16C231.605 76.4267 231.705 76.66 231.719 76.86C231.732 77.0067 231.692 77.1267 231.599 77.22C231.505 77.3 231.399 77.34 231.279 77.34H229.799C229.732 77.34 229.672 77.3267 229.619 77.3C229.565 77.2733 229.512 77.24 229.459 77.2C229.312 77.0667 229.152 76.9267 228.979 76.78C228.805 76.62 228.592 76.4867 228.339 76.38C228.099 76.2733 227.779 76.22 227.379 76.22C226.872 76.22 226.485 76.3333 226.219 76.56C225.952 76.7733 225.819 77.0467 225.819 77.38C225.819 77.6067 225.879 77.8067 225.999 77.98C226.132 78.14 226.392 78.2933 226.779 78.44C227.165 78.5867 227.752 78.74 228.539 78.9C229.432 79.06 230.139 79.3 230.659 79.62C231.192 79.9267 231.565 80.2867 231.779 80.7C232.005 81.1 232.119 81.5467 232.119 82.04C232.119 82.64 231.939 83.18 231.579 83.66C231.232 84.14 230.712 84.52 230.019 84.8C229.339 85.0667 228.492 85.2 227.479 85.2ZM238.844 85C238.044 85 237.371 84.86 236.824 84.58C236.278 84.3 235.871 83.8867 235.604 83.34C235.338 82.78 235.204 82.0867 235.204 81.26V76.72H233.624C233.491 76.72 233.378 76.6733 233.284 76.58C233.191 76.4867 233.144 76.3667 233.144 76.22V75.08C233.144 74.9467 233.191 74.8333 233.284 74.74C233.378 74.6467 233.491 74.6 233.624 74.6H235.204V71.28C235.204 71.1467 235.244 71.0333 235.324 70.94C235.418 70.8467 235.538 70.8 235.684 70.8H237.304C237.438 70.8 237.551 70.8467 237.644 70.94C237.738 71.0333 237.784 71.1467 237.784 71.28V74.6H240.284C240.418 74.6 240.531 74.6467 240.624 74.74C240.718 74.8333 240.764 74.9467 240.764 75.08V76.22C240.764 76.3667 240.718 76.4867 240.624 76.58C240.531 76.6733 240.418 76.72 240.284 76.72H237.784V81.06C237.784 81.6067 237.878 82.0333 238.064 82.34C238.264 82.6467 238.604 82.8 239.084 82.8H240.464C240.598 82.8 240.711 82.8467 240.804 82.94C240.898 83.0333 240.944 83.1467 240.944 83.28V84.52C240.944 84.6533 240.898 84.7667 240.804 84.86C240.711 84.9533 240.598 85 240.464 85H238.844ZM243.078 85C242.945 85 242.832 84.9533 242.738 84.86C242.645 84.7667 242.598 84.6533 242.598 84.52V82.54C242.598 82.3933 242.645 82.2733 242.738 82.18C242.832 82.0867 242.945 82.04 243.078 82.04H245.078C245.212 82.04 245.325 82.0867 245.418 82.18C245.512 82.2733 245.558 82.3933 245.558 82.54V84.52C245.558 84.6533 245.512 84.7667 245.418 84.86C245.325 84.9533 245.212 85 245.078 85H243.078Z" fill="white"/>
<path d="M14.02 89.4C13.0467 89.4 12.2467 89.2733 11.62 89.02C10.9933 88.7667 10.5 88.46 10.14 88.1C9.78 87.74 9.52 87.38 9.36 87.02C9.21333 86.6733 9.13333 86.4 9.12 86.2C9.10667 86.0667 9.14667 85.9467 9.24 85.84C9.34667 85.7467 9.46667 85.7 9.6 85.7H11.34C11.4733 85.7 11.58 85.7267 11.66 85.78C11.74 85.8467 11.8067 85.96 11.86 86.12C11.94 86.2933 12.0467 86.48 12.18 86.68C12.3133 86.88 12.5133 87.0467 12.78 87.18C13.06 87.3267 13.44 87.4 13.92 87.4C14.4267 87.4 14.8533 87.3267 15.2 87.18C15.5467 87.0333 15.8067 86.7867 15.98 86.44C16.1667 86.0933 16.26 85.6133 16.26 85V83.64C15.94 84.0267 15.5267 84.34 15.02 84.58C14.5267 84.82 13.9133 84.94 13.18 84.94C12.4733 84.94 11.8533 84.8267 11.32 84.6C10.8 84.36 10.3667 84.0333 10.02 83.62C9.67333 83.1933 9.40667 82.6933 9.22 82.12C9.04667 81.5467 8.94667 80.9133 8.92 80.22C8.90667 79.86 8.90667 79.5 8.92 79.14C8.94667 78.4733 9.04667 77.8533 9.22 77.28C9.40667 76.7067 9.67333 76.2067 10.02 75.78C10.3667 75.34 10.8 75 11.32 74.76C11.8533 74.52 12.4733 74.4 13.18 74.4C13.94 74.4 14.58 74.5467 15.1 74.84C15.62 75.12 16.0467 75.4733 16.38 75.9V75.1C16.38 74.9533 16.4267 74.8333 16.52 74.74C16.6133 74.6467 16.7267 74.6 16.86 74.6H18.48C18.6133 74.6 18.7267 74.6467 18.82 74.74C18.9133 74.8333 18.96 74.9533 18.96 75.1L18.98 84.74C18.98 85.7 18.8 86.5267 18.44 87.22C18.08 87.9133 17.5333 88.4467 16.8 88.82C16.08 89.2067 15.1533 89.4 14.02 89.4ZM13.92 82.82C14.4667 82.82 14.9067 82.7 15.24 82.46C15.5733 82.22 15.82 81.9067 15.98 81.52C16.14 81.1333 16.2333 80.74 16.26 80.34C16.2733 80.1667 16.28 79.9467 16.28 79.68C16.28 79.4133 16.2733 79.2 16.26 79.04C16.2333 78.6267 16.14 78.2333 15.98 77.86C15.82 77.4733 15.5733 77.16 15.24 76.92C14.9067 76.6667 14.4667 76.54 13.92 76.54C13.3733 76.54 12.9333 76.6667 12.6 76.92C12.2667 77.16 12.0267 77.48 11.88 77.88C11.7467 78.28 11.6667 78.72 11.64 79.2C11.6133 79.52 11.6133 79.8467 11.64 80.18C11.6667 80.6467 11.7467 81.0867 11.88 81.5C12.0267 81.9 12.2667 82.22 12.6 82.46C12.9333 82.7 13.3733 82.82 13.92 82.82ZM24.6642 85.2C23.9709 85.2 23.3442 85.0667 22.7842 84.8C22.2242 84.52 21.7776 84.1533 21.4442 83.7C21.1242 83.2333 20.9642 82.7133 20.9642 82.14C20.9642 81.2067 21.3442 80.4667 22.1042 79.92C22.8642 79.36 23.8576 78.9867 25.0842 78.8L27.8242 78.4V77.98C27.8242 77.42 27.6842 76.9867 27.4042 76.68C27.1242 76.3733 26.6442 76.22 25.9642 76.22C25.4842 76.22 25.0909 76.32 24.7842 76.52C24.4909 76.7067 24.2709 76.96 24.1242 77.28C24.0176 77.4533 23.8642 77.54 23.6642 77.54H22.0842C21.9376 77.54 21.8242 77.5 21.7442 77.42C21.6776 77.34 21.6442 77.2333 21.6442 77.1C21.6576 76.8867 21.7442 76.6267 21.9042 76.32C22.0776 76.0133 22.3309 75.72 22.6642 75.44C23.0109 75.1467 23.4576 74.9 24.0042 74.7C24.5509 74.5 25.2109 74.4 25.9842 74.4C26.8242 74.4 27.5309 74.5067 28.1042 74.72C28.6909 74.92 29.1576 75.1933 29.5042 75.54C29.8509 75.8867 30.1042 76.2933 30.2642 76.76C30.4242 77.2267 30.5042 77.72 30.5042 78.24V84.52C30.5042 84.6533 30.4576 84.7667 30.3642 84.86C30.2709 84.9533 30.1576 85 30.0242 85H28.4042C28.2576 85 28.1376 84.9533 28.0442 84.86C27.9642 84.7667 27.9242 84.6533 27.9242 84.52V83.74C27.7509 83.98 27.5176 84.2133 27.2242 84.44C26.9309 84.6667 26.5709 84.8533 26.1442 85C25.7309 85.1333 25.2376 85.2 24.6642 85.2ZM25.3442 83.3C25.8109 83.3 26.2309 83.2 26.6042 83C26.9909 82.8 27.2909 82.4933 27.5042 82.08C27.7309 81.6533 27.8442 81.12 27.8442 80.48V80.06L25.8442 80.38C25.0576 80.5 24.4709 80.6933 24.0842 80.96C23.6976 81.2267 23.5042 81.5533 23.5042 81.94C23.5042 82.2333 23.5909 82.4867 23.7642 82.7C23.9509 82.9 24.1842 83.0533 24.4642 83.16C24.7442 83.2533 25.0376 83.3 25.3442 83.3ZM33.55 85C33.4167 85 33.3033 84.9533 33.21 84.86C33.1167 84.7667 33.07 84.6533 33.07 84.52V75.08C33.07 74.9467 33.1167 74.8333 33.21 74.74C33.3033 74.6467 33.4167 74.6 33.55 74.6H35.11C35.2433 74.6 35.3567 74.6467 35.45 74.74C35.5433 74.8333 35.59 74.9467 35.59 75.08V75.76C35.87 75.3867 36.2433 75.0733 36.71 74.82C37.19 74.5533 37.7567 74.4133 38.41 74.4C39.93 74.3733 40.99 74.9667 41.59 76.18C41.8967 75.6467 42.3367 75.22 42.91 74.9C43.4967 74.5667 44.1433 74.4 44.85 74.4C45.5433 74.4 46.17 74.56 46.73 74.88C47.3033 75.2 47.75 75.6867 48.07 76.34C48.4033 76.98 48.57 77.7933 48.57 78.78V84.52C48.57 84.6533 48.5233 84.7667 48.43 84.86C48.3367 84.9533 48.2233 85 48.09 85H46.45C46.3167 85 46.2033 84.9533 46.11 84.86C46.0167 84.7667 45.97 84.6533 45.97 84.52V78.94C45.97 78.34 45.8833 77.8667 45.71 77.52C45.5367 77.16 45.3033 76.9067 45.01 76.76C44.7167 76.6133 44.39 76.54 44.03 76.54C43.7367 76.54 43.4433 76.6133 43.15 76.76C42.8567 76.9067 42.6167 77.16 42.43 77.52C42.2433 77.8667 42.15 78.34 42.15 78.94V84.52C42.15 84.6533 42.1033 84.7667 42.01 84.86C41.9167 84.9533 41.8033 85 41.67 85H40.03C39.8967 85 39.7833 84.9533 39.69 84.86C39.5967 84.7667 39.55 84.6533 39.55 84.52V78.94C39.55 78.34 39.4567 77.8667 39.27 77.52C39.0833 77.16 38.8433 76.9067 38.55 76.76C38.2567 76.6133 37.9433 76.54 37.61 76.54C37.3033 76.54 37.0033 76.62 36.71 76.78C36.4167 76.9267 36.1767 77.1733 35.99 77.52C35.8033 77.8667 35.71 78.34 35.71 78.94V84.52C35.71 84.6533 35.6633 84.7667 35.57 84.86C35.4767 84.9533 35.3633 85 35.23 85H33.55ZM51.5969 85C51.4635 85 51.3502 84.9533 51.2569 84.86C51.1635 84.7667 51.1169 84.6533 51.1169 84.52V75.08C51.1169 74.9467 51.1635 74.8333 51.2569 74.74C51.3502 74.6467 51.4635 74.6 51.5969 74.6H53.2569C53.4035 74.6 53.5169 74.6467 53.5969 74.74C53.6902 74.8333 53.7369 74.9467 53.7369 75.08V84.52C53.7369 84.6533 53.6902 84.7667 53.5969 84.86C53.5169 84.9533 53.4035 85 53.2569 85H51.5969ZM51.5169 72.88C51.3835 72.88 51.2702 72.8333 51.1769 72.74C51.0835 72.6467 51.0369 72.5333 51.0369 72.4V70.96C51.0369 70.8267 51.0835 70.7133 51.1769 70.62C51.2702 70.5267 51.3835 70.48 51.5169 70.48H53.3369C53.4835 70.48 53.6035 70.5267 53.6969 70.62C53.7902 70.7133 53.8369 70.8267 53.8369 70.96V72.4C53.8369 72.5333 53.7902 72.6467 53.6969 72.74C53.6035 72.8333 53.4835 72.88 53.3369 72.88H51.5169ZM57.9903 85C57.857 85 57.7436 84.9533 57.6503 84.86C57.557 84.7667 57.5103 84.6533 57.5103 84.52V76.72H55.8903C55.757 76.72 55.6436 76.6733 55.5503 76.58C55.457 76.4867 55.4103 76.3667 55.4103 76.22V75.08C55.4103 74.9467 55.457 74.8333 55.5503 74.74C55.6436 74.6467 55.757 74.6 55.8903 74.6H57.5103V73.78C57.5103 72.98 57.657 72.32 57.9503 71.8C58.2436 71.2667 58.677 70.8667 59.2503 70.6C59.8236 70.3333 60.5503 70.2 61.4303 70.2H65.5103C65.657 70.2 65.7703 70.2467 65.8503 70.34C65.9436 70.4333 65.9903 70.5467 65.9903 70.68V71.82C65.9903 71.9667 65.9436 72.0867 65.8503 72.18C65.7703 72.2733 65.657 72.32 65.5103 72.32H61.5103C60.977 72.32 60.6103 72.4533 60.4103 72.72C60.2103 72.9867 60.1103 73.3733 60.1103 73.88V74.6H65.5103C65.657 74.6 65.7703 74.6467 65.8503 74.74C65.9436 74.8333 65.9903 74.9467 65.9903 75.08V84.52C65.9903 84.6533 65.9436 84.7667 65.8503 84.86C65.7703 84.9533 65.657 85 65.5103 85H63.8903C63.757 85 63.6436 84.9533 63.5503 84.86C63.457 84.7667 63.4103 84.6533 63.4103 84.52V76.72H60.1103V84.52C60.1103 84.6533 60.0636 84.7667 59.9703 84.86C59.877 84.9533 59.7636 85 59.6303 85H57.9903ZM73.1559 85.2C72.1959 85.2 71.3493 85.02 70.6159 84.66C69.8959 84.3 69.3293 83.78 68.9159 83.1C68.5159 82.4067 68.2959 81.5733 68.2559 80.6C68.2426 80.4 68.2359 80.14 68.2359 79.82C68.2359 79.4867 68.2426 79.2133 68.2559 79C68.2959 78.0267 68.5159 77.2 68.9159 76.52C69.3293 75.8267 69.8959 75.3 70.6159 74.94C71.3493 74.58 72.1959 74.4 73.1559 74.4C74.0093 74.4 74.7359 74.52 75.3359 74.76C75.9359 74.9867 76.4293 75.2867 76.8159 75.66C77.2026 76.02 77.4893 76.4 77.6759 76.8C77.8759 77.1867 77.9826 77.54 77.9959 77.86C78.0093 78.0067 77.9626 78.1267 77.8559 78.22C77.7626 78.3 77.6493 78.34 77.5159 78.34H75.7559C75.6226 78.34 75.5159 78.3067 75.4359 78.24C75.3693 78.1733 75.3026 78.0733 75.2359 77.94C75.0359 77.4067 74.7693 77.0333 74.4359 76.82C74.1159 76.5933 73.7026 76.48 73.1959 76.48C72.5293 76.48 71.9959 76.6933 71.5959 77.12C71.2093 77.5333 71.0026 78.1933 70.9759 79.1C70.9493 79.6067 70.9493 80.0733 70.9759 80.5C71.0026 81.42 71.2093 82.0867 71.5959 82.5C71.9959 82.9133 72.5293 83.12 73.1959 83.12C73.7159 83.12 74.1359 83.0133 74.4559 82.8C74.7759 82.5733 75.0359 82.1933 75.2359 81.66C75.3026 81.5267 75.3693 81.4267 75.4359 81.36C75.5159 81.2933 75.6226 81.26 75.7559 81.26H77.5159C77.6493 81.26 77.7626 81.3067 77.8559 81.4C77.9626 81.48 78.0093 81.5933 77.9959 81.74C77.9826 81.98 77.9159 82.2533 77.7959 82.56C77.6893 82.8533 77.5093 83.16 77.2559 83.48C77.0159 83.7867 76.7093 84.0733 76.3359 84.34C75.9626 84.5933 75.5093 84.8 74.9759 84.96C74.4559 85.12 73.8493 85.2 73.1559 85.2ZM83.1017 85.2C82.4084 85.2 81.7817 85.0667 81.2217 84.8C80.6617 84.52 80.2151 84.1533 79.8817 83.7C79.5617 83.2333 79.4017 82.7133 79.4017 82.14C79.4017 81.2067 79.7817 80.4667 80.5417 79.92C81.3017 79.36 82.2951 78.9867 83.5217 78.8L86.2617 78.4V77.98C86.2617 77.42 86.1217 76.9867 85.8417 76.68C85.5617 76.3733 85.0817 76.22 84.4017 76.22C83.9217 76.22 83.5284 76.32 83.2217 76.52C82.9284 76.7067 82.7084 76.96 82.5617 77.28C82.4551 77.4533 82.3017 77.54 82.1017 77.54H80.5217C80.3751 77.54 80.2617 77.5 80.1817 77.42C80.1151 77.34 80.0817 77.2333 80.0817 77.1C80.0951 76.8867 80.1817 76.6267 80.3417 76.32C80.5151 76.0133 80.7684 75.72 81.1017 75.44C81.4484 75.1467 81.8951 74.9 82.4417 74.7C82.9884 74.5 83.6484 74.4 84.4217 74.4C85.2617 74.4 85.9684 74.5067 86.5417 74.72C87.1284 74.92 87.5951 75.1933 87.9417 75.54C88.2884 75.8867 88.5417 76.2933 88.7017 76.76C88.8617 77.2267 88.9417 77.72 88.9417 78.24V84.52C88.9417 84.6533 88.8951 84.7667 88.8017 84.86C88.7084 84.9533 88.5951 85 88.4617 85H86.8417C86.6951 85 86.5751 84.9533 86.4817 84.86C86.4017 84.7667 86.3617 84.6533 86.3617 84.52V83.74C86.1884 83.98 85.9551 84.2133 85.6617 84.44C85.3684 84.6667 85.0084 84.8533 84.5817 85C84.1684 85.1333 83.6751 85.2 83.1017 85.2ZM83.7817 83.3C84.2484 83.3 84.6684 83.2 85.0417 83C85.4284 82.8 85.7284 82.4933 85.9417 82.08C86.1684 81.6533 86.2817 81.12 86.2817 80.48V80.06L84.2817 80.38C83.4951 80.5 82.9084 80.6933 82.5217 80.96C82.1351 81.2267 81.9417 81.5533 81.9417 81.94C81.9417 82.2333 82.0284 82.4867 82.2017 82.7C82.3884 82.9 82.6217 83.0533 82.9017 83.16C83.1817 83.2533 83.4751 83.3 83.7817 83.3ZM96.1098 85C95.3098 85 94.6365 84.86 94.0898 84.58C93.5432 84.3 93.1365 83.8867 92.8698 83.34C92.6032 82.78 92.4698 82.0867 92.4698 81.26V76.72H90.8898C90.7565 76.72 90.6432 76.6733 90.5498 76.58C90.4565 76.4867 90.4098 76.3667 90.4098 76.22V75.08C90.4098 74.9467 90.4565 74.8333 90.5498 74.74C90.6432 74.6467 90.7565 74.6 90.8898 74.6H92.4698V71.28C92.4698 71.1467 92.5098 71.0333 92.5898 70.94C92.6832 70.8467 92.8032 70.8 92.9498 70.8H94.5698C94.7032 70.8 94.8165 70.8467 94.9098 70.94C95.0032 71.0333 95.0498 71.1467 95.0498 71.28V74.6H97.5498C97.6832 74.6 97.7965 74.6467 97.8898 74.74C97.9832 74.8333 98.0298 74.9467 98.0298 75.08V76.22C98.0298 76.3667 97.9832 76.4867 97.8898 76.58C97.7965 76.6733 97.6832 76.72 97.5498 76.72H95.0498V81.06C95.0498 81.6067 95.1432 82.0333 95.3298 82.34C95.5298 82.6467 95.8698 82.8 96.3498 82.8H97.7298C97.8632 82.8 97.9765 82.8467 98.0698 82.94C98.1632 83.0333 98.2098 83.1467 98.2098 83.28V84.52C98.2098 84.6533 98.1632 84.7667 98.0698 84.86C97.9765 84.9533 97.8632 85 97.7298 85H96.1098ZM100.464 85C100.331 85 100.217 84.9533 100.124 84.86C100.031 84.7667 99.9841 84.6533 99.9841 84.52V75.08C99.9841 74.9467 100.031 74.8333 100.124 74.74C100.217 74.6467 100.331 74.6 100.464 74.6H102.124C102.271 74.6 102.384 74.6467 102.464 74.74C102.557 74.8333 102.604 74.9467 102.604 75.08V84.52C102.604 84.6533 102.557 84.7667 102.464 84.86C102.384 84.9533 102.271 85 102.124 85H100.464ZM100.384 72.88C100.251 72.88 100.137 72.8333 100.044 72.74C99.9507 72.6467 99.9041 72.5333 99.9041 72.4V70.96C99.9041 70.8267 99.9507 70.7133 100.044 70.62C100.137 70.5267 100.251 70.48 100.384 70.48H102.204C102.351 70.48 102.471 70.5267 102.564 70.62C102.657 70.7133 102.704 70.8267 102.704 70.96V72.4C102.704 72.5333 102.657 72.6467 102.564 72.74C102.471 72.8333 102.351 72.88 102.204 72.88H100.384ZM109.858 85.2C108.791 85.2 107.891 85.0133 107.158 84.64C106.438 84.2667 105.884 83.74 105.498 83.06C105.124 82.38 104.911 81.5867 104.858 80.68C104.844 80.44 104.838 80.1467 104.838 79.8C104.838 79.4533 104.844 79.16 104.858 78.92C104.911 78 105.131 77.2067 105.518 76.54C105.918 75.86 106.478 75.3333 107.198 74.96C107.931 74.5867 108.818 74.4 109.858 74.4C110.898 74.4 111.778 74.5867 112.498 74.96C113.231 75.3333 113.791 75.86 114.178 76.54C114.578 77.2067 114.804 78 114.858 78.92C114.871 79.16 114.878 79.4533 114.878 79.8C114.878 80.1467 114.871 80.44 114.858 80.68C114.804 81.5867 114.584 82.38 114.198 83.06C113.824 83.74 113.271 84.2667 112.538 84.64C111.818 85.0133 110.924 85.2 109.858 85.2ZM109.858 83.22C110.564 83.22 111.111 83 111.498 82.56C111.884 82.1067 112.098 81.4467 112.138 80.58C112.151 80.38 112.158 80.12 112.158 79.8C112.158 79.48 112.151 79.22 112.138 79.02C112.098 78.1533 111.884 77.5 111.498 77.06C111.111 76.6067 110.564 76.38 109.858 76.38C109.151 76.38 108.604 76.6067 108.218 77.06C107.831 77.5 107.618 78.1533 107.578 79.02C107.564 79.22 107.558 79.48 107.558 79.8C107.558 80.12 107.564 80.38 107.578 80.58C107.618 81.4467 107.831 82.1067 108.218 82.56C108.604 83 109.151 83.22 109.858 83.22ZM117.573 85C117.44 85 117.327 84.9533 117.233 84.86C117.14 84.7667 117.093 84.6533 117.093 84.52V75.08C117.093 74.9467 117.14 74.8333 117.233 74.74C117.327 74.6467 117.44 74.6 117.573 74.6H119.213C119.347 74.6 119.46 74.6467 119.553 74.74C119.647 74.8333 119.693 74.9467 119.693 75.08V75.9C120.04 75.4733 120.48 75.12 121.013 74.84C121.56 74.5467 122.233 74.4 123.033 74.4C123.847 74.4 124.553 74.5867 125.153 74.96C125.753 75.32 126.213 75.8333 126.533 76.5C126.867 77.1667 127.033 77.9667 127.033 78.9V84.52C127.033 84.6533 126.987 84.7667 126.893 84.86C126.8 84.9533 126.687 85 126.553 85H124.793C124.66 85 124.547 84.9533 124.453 84.86C124.36 84.7667 124.313 84.6533 124.313 84.52V79.02C124.313 78.2467 124.12 77.64 123.733 77.2C123.36 76.76 122.813 76.54 122.093 76.54C121.4 76.54 120.847 76.76 120.433 77.2C120.02 77.64 119.813 78.2467 119.813 79.02V84.52C119.813 84.6533 119.767 84.7667 119.673 84.86C119.58 84.9533 119.467 85 119.333 85H117.573Z" fill="#00FFE0"/>
<path d="M131.635 76.2326C131.576 76.2561 131.517 76.2553 131.46 76.2303C131.404 76.2112 131.363 76.169 131.337 76.1039L131.091 75.4817C130.648 75.6093 130.241 75.6542 129.869 75.6163C129.501 75.5701 129.19 75.4603 128.936 75.2867C128.686 75.1048 128.501 74.8799 128.381 74.6121C128.36 74.5587 128.36 74.5072 128.382 74.4576C128.409 74.4056 128.449 74.3691 128.503 74.3479L129.294 74.0345C129.359 74.0086 129.415 74.0035 129.462 74.019C129.513 74.0263 129.568 74.0525 129.627 74.0977C129.772 74.2733 129.975 74.3882 130.237 74.4422C130.504 74.494 130.824 74.4459 131.198 74.298C131.612 74.1336 131.899 73.941 132.059 73.7202C132.216 73.4935 132.245 73.2557 132.146 73.0069C132.081 72.841 131.973 72.7258 131.824 72.6614C131.675 72.597 131.476 72.5698 131.226 72.5796C130.974 72.5835 130.614 72.6167 130.145 72.6791C129.38 72.7903 128.781 72.7742 128.347 72.6308C127.916 72.4791 127.6 72.1485 127.398 71.6389C127.215 71.1767 127.227 70.7229 127.435 70.2774C127.646 69.8236 128.027 69.4461 128.58 69.1449L128.337 68.5316C128.311 68.4665 128.312 68.4079 128.339 68.3559C128.364 68.298 128.406 68.2573 128.465 68.2338L129.008 68.019C129.067 67.9955 129.125 67.9963 129.183 68.0213C129.241 68.0463 129.282 68.0885 129.305 68.1477L129.555 68.7788C129.962 68.6795 130.336 68.6647 130.679 68.7344C131.026 68.7959 131.316 68.914 131.55 69.0887C131.79 69.2611 131.959 69.4545 132.058 69.6691C132.079 69.7224 132.079 69.7739 132.057 69.8235C132.036 69.8732 131.998 69.9086 131.945 69.9297L131.118 70.2572C130.988 70.3089 130.877 70.2878 130.785 70.194C130.68 70.0162 130.502 69.9049 130.251 69.8603C129.998 69.8098 129.721 69.8444 129.419 69.9642C129.093 70.0933 128.86 70.2577 128.719 70.4573C128.579 70.6568 128.556 70.8751 128.65 71.1121C128.715 71.278 128.817 71.3955 128.954 71.4646C129.091 71.5337 129.277 71.5698 129.511 71.5729C129.751 71.5736 130.084 71.5481 130.509 71.4962C131.077 71.4081 131.545 71.377 131.912 71.403C132.284 71.4267 132.59 71.5218 132.827 71.6882C133.064 71.8547 133.252 72.1127 133.391 72.4623C133.593 72.9718 133.574 73.4623 133.336 73.9338C133.096 74.3993 132.671 74.7903 132.063 75.1067L132.306 75.72C132.33 75.7792 132.329 75.8378 132.304 75.8957C132.279 75.9536 132.237 75.9943 132.177 76.0178L131.635 76.2326Z" fill="#00FFE0"/>
<path d="M4.54655 93.1304C4.49816 93.143 4.45261 93.1368 4.40991 93.1117C4.36847 93.0915 4.34081 93.0548 4.32694 93.0016L4.19449 92.4935C3.83726 92.5505 3.5158 92.5464 3.23012 92.4814C2.94802 92.4102 2.71641 92.2949 2.5353 92.1354C2.35777 91.9698 2.23516 91.7769 2.16745 91.5569C2.1561 91.5133 2.16116 91.4733 2.18262 91.4367C2.20893 91.3988 2.24385 91.3742 2.2874 91.3628L2.93339 91.1944C2.98662 91.1806 3.03091 91.1819 3.06625 91.1986C3.10516 91.2091 3.14545 91.2348 3.18709 91.2756C3.28321 91.4262 3.43046 91.5351 3.62883 91.6023C3.83204 91.6681 4.08607 91.6613 4.39092 91.5819C4.72965 91.4936 4.9716 91.3711 5.11679 91.2144C5.26071 91.0528 5.30619 90.8704 5.25321 90.6672C5.21789 90.5317 5.14532 90.4318 5.03552 90.3674C4.92571 90.303 4.77309 90.2627 4.57765 90.2464C4.38095 90.2254 4.09705 90.2167 3.72595 90.2204C3.11964 90.2338 2.6544 90.1638 2.33024 90.0106C2.00965 89.8513 1.79511 89.5636 1.68663 89.1475C1.58824 88.77 1.6411 88.4178 1.84523 88.0907C2.05293 87.7575 2.38631 87.5 2.84539 87.3183L2.71483 86.8175C2.70095 86.7643 2.70717 86.7187 2.73347 86.6809C2.75851 86.6382 2.79523 86.6105 2.84362 86.5979L3.28637 86.4825C3.33476 86.4699 3.38031 86.4761 3.42301 86.5011C3.46571 86.5261 3.49337 86.5629 3.50599 86.6113L3.64033 87.1266C3.96621 87.0882 4.25936 87.1125 4.5198 87.1996C4.78381 87.2807 4.99848 87.4004 5.1638 87.5589C5.33397 87.716 5.44723 87.8829 5.50358 88.0594C5.51494 88.103 5.50988 88.143 5.48841 88.1796C5.46695 88.2162 5.43444 88.2402 5.39089 88.2516L4.71587 88.4275C4.60941 88.4553 4.52484 88.4282 4.46217 88.3464C4.39761 88.1979 4.26982 88.0942 4.07881 88.0355C3.88653 87.9719 3.66701 87.9723 3.42022 88.0366C3.15408 88.106 2.95684 88.2117 2.82848 88.3537C2.70013 88.4957 2.66118 88.6634 2.71164 88.857C2.74696 88.9925 2.81468 89.0937 2.91481 89.1606C3.01494 89.2275 3.15609 89.2734 3.33827 89.2983C3.5253 89.3219 3.78679 89.3338 4.12276 89.3341C4.57381 89.3198 4.94092 89.3404 5.22408 89.3958C5.51207 89.4499 5.74053 89.5531 5.90943 89.7055C6.07834 89.8578 6.2 90.0767 6.27443 90.3622C6.38291 90.7784 6.32184 91.1586 6.09121 91.503C5.85931 91.8425 5.49142 92.1063 4.98754 92.2945L5.11809 92.7954C5.13071 92.8437 5.1245 92.8893 5.09945 92.932C5.07441 92.9747 5.0377 93.0023 4.98931 93.015L4.54655 93.1304Z" fill="#00FFE0"/>
<path d="M32.7912 72.8899C32.7512 72.8961 32.715 72.8874 32.6826 72.8637C32.6509 72.8441 32.6316 72.8122 32.6247 72.7682L32.5594 72.348C32.2669 72.3648 32.0082 72.3353 31.7833 72.2596C31.5617 72.1793 31.3845 72.0675 31.2515 71.9242C31.122 71.7763 31.0389 71.6109 31.0022 71.4281C30.9966 71.3921 31.004 71.3602 31.0242 71.3324C31.0485 71.3041 31.0787 71.2871 31.1147 71.2815L31.649 71.1984C31.693 71.1916 31.7286 71.1963 31.7557 71.2125C31.7862 71.2242 31.8166 71.2482 31.8468 71.2845C31.912 71.4137 32.0218 71.5134 32.1762 71.5837C32.3346 71.6533 32.5398 71.6686 32.792 71.6294C33.0721 71.5858 33.2771 71.5068 33.4068 71.3923C33.536 71.2739 33.5875 71.1306 33.5613 70.9625C33.5439 70.8505 33.4936 70.764 33.4103 70.7032C33.3271 70.6423 33.2074 70.5974 33.0512 70.5684C32.8944 70.5354 32.6663 70.5053 32.367 70.4781C31.8773 70.4394 31.5081 70.3452 31.2594 70.1953C31.014 70.0408 30.8646 69.7915 30.811 69.4473C30.7625 69.1351 30.8338 68.8556 31.0249 68.6086C31.2194 68.357 31.5091 68.1767 31.8938 68.0677L31.8294 67.6535C31.8226 67.6095 31.8313 67.5733 31.8556 67.5449C31.8792 67.5125 31.9111 67.4932 31.9511 67.487L32.3173 67.4301C32.3573 67.4238 32.3935 67.4326 32.4259 67.4562C32.4582 67.4799 32.4775 67.5117 32.4838 67.5517L32.55 67.978C32.8158 67.9735 33.05 68.017 33.2528 68.1085C33.4589 68.1953 33.6222 68.3093 33.7425 68.4504C33.8668 68.5909 33.9445 68.7346 33.9755 68.8815C33.9811 68.9175 33.9738 68.9494 33.9535 68.9771C33.9332 69.0048 33.9051 69.0215 33.8691 69.0271L33.3108 69.1139C33.2227 69.1276 33.1568 69.0989 33.1129 69.0279C33.073 68.9029 32.9785 68.809 32.8293 68.7461C32.6796 68.6792 32.5026 68.6617 32.2985 68.6934C32.0784 68.7276 31.9109 68.7967 31.7959 68.9007C31.6809 69.0046 31.6358 69.1367 31.6607 69.2967C31.6781 69.4088 31.7244 69.4959 31.7997 69.558C31.8749 69.62 31.9849 69.6685 32.1297 69.7034C32.2785 69.7376 32.4883 69.7685 32.759 69.7961C33.1236 69.8214 33.4178 69.8679 33.6414 69.9356C33.8691 70.0027 34.0448 70.1044 34.1685 70.241C34.2922 70.3775 34.3724 70.5638 34.4091 70.7999C34.4626 71.1441 34.3824 71.4456 34.1685 71.7043C33.954 71.959 33.6361 72.1416 33.2147 72.2522L33.2791 72.6665C33.2853 72.7065 33.2766 72.7427 33.2529 72.775C33.2293 72.8074 33.1974 72.8267 33.1574 72.8329L32.7912 72.8899Z" fill="#00FFE0"/>
<path d="M73.9769 92.5966C73.9415 92.5826 73.9162 92.5583 73.9012 92.5237C73.8848 92.4926 73.8842 92.4576 73.8996 92.4186L74.0464 92.0463C73.8009 91.9209 73.6048 91.7739 73.4582 91.6055C73.3165 91.4349 73.2258 91.2599 73.1859 91.0803C73.1511 90.8986 73.1622 90.7248 73.2195 90.5589C73.232 90.527 73.2532 90.5046 73.2828 90.4917C73.316 90.4802 73.3486 90.4808 73.3805 90.4933L73.8538 90.6799C73.8928 90.6953 73.9195 90.7161 73.9338 90.7422C73.953 90.7662 73.9662 90.8001 73.9735 90.8439C73.965 90.9798 74.0067 91.113 74.0987 91.2435C74.1941 91.3754 74.3536 91.4853 74.577 91.5734C74.8251 91.6713 75.0291 91.7046 75.1889 91.6733C75.3501 91.6386 75.4601 91.5467 75.5188 91.3978C75.5579 91.2985 75.5582 91.2044 75.5195 91.1154C75.4808 91.0265 75.405 90.9331 75.292 90.8352C75.1804 90.7339 75.0095 90.601 74.7794 90.4365C74.4001 90.1723 74.1452 89.9202 74.0145 89.6802C73.8887 89.4381 73.8859 89.1645 74.0062 88.8596C74.1152 88.5831 74.306 88.39 74.5787 88.2803C74.8563 88.1686 75.1772 88.1599 75.5414 88.2543L75.6861 87.8874C75.7015 87.8484 75.7257 87.8231 75.759 87.8116C75.7936 87.7966 75.8286 87.7961 75.864 87.8101L76.1885 87.938C76.2239 87.9519 76.2492 87.9762 76.2642 88.0108C76.2792 88.0454 76.2798 88.0805 76.2658 88.1159L76.1169 88.4935C76.3348 88.6163 76.5043 88.763 76.6255 88.9337C76.7516 89.1022 76.8299 89.2724 76.8605 89.4442C76.8946 89.6174 76.8894 89.771 76.8447 89.905C76.8321 89.9369 76.811 89.9593 76.7814 89.9722C76.7517 89.9851 76.7209 89.9853 76.689 89.9727L76.1944 89.7777C76.1164 89.7469 76.0765 89.6923 76.0747 89.6137C76.1017 89.4933 76.0696 89.3721 75.9784 89.2501C75.8886 89.1245 75.7533 89.0261 75.5725 88.9548C75.3775 88.878 75.2086 88.8544 75.0657 88.8841C74.9229 88.9138 74.8236 88.9996 74.7677 89.1414C74.7285 89.2407 74.7247 89.3334 74.7563 89.4196C74.7879 89.5058 74.8541 89.5975 74.9551 89.6946C75.0596 89.7932 75.2153 89.9181 75.4219 90.0692C75.706 90.2631 75.9227 90.4407 76.0722 90.6021C76.2251 90.7648 76.3194 90.931 76.3549 91.1007C76.3904 91.2704 76.3669 91.4598 76.2845 91.669C76.1642 91.9739 75.9558 92.1805 75.6591 92.2889C75.3638 92.3937 75.0187 92.3908 74.624 92.2802L74.4793 92.6472C74.4653 92.6826 74.441 92.7079 74.4064 92.7229C74.3718 92.7379 74.3368 92.7385 74.3013 92.7245L73.9769 92.5966Z" fill="#00FFE0"/>
<path d="M46.9948 91.5765C46.9701 91.5878 46.9452 91.5888 46.92 91.5795C46.8959 91.5727 46.8776 91.5557 46.8651 91.5286L46.7459 91.2697C46.5604 91.3342 46.3883 91.3626 46.2294 91.3551C46.0718 91.344 45.9371 91.3044 45.8251 91.2364C45.7144 91.1648 45.6305 91.0735 45.5734 90.9623C45.5631 90.9401 45.562 90.9182 45.57 90.8966C45.5805 90.8739 45.5968 90.8574 45.619 90.8472L45.9481 90.6956C45.9753 90.6831 45.9991 90.6796 46.0195 90.6852C46.0413 90.6871 46.0653 90.697 46.0915 90.7148C46.1572 90.7861 46.2463 90.8303 46.3587 90.8473C46.4735 90.8631 46.6087 90.8353 46.764 90.7637C46.9366 90.6843 47.0542 90.5957 47.1169 90.4982C47.1784 90.3981 47.1853 90.2963 47.1376 90.1927C47.1058 90.1237 47.0575 90.0772 46.9927 90.0533C46.9279 90.0293 46.8425 90.0223 46.7365 90.0323C46.6294 90.0398 46.4768 90.0622 46.2789 90.0995C45.9561 90.1645 45.7008 90.1715 45.513 90.1205C45.3265 90.0659 45.1844 89.9326 45.0867 89.7205C44.9982 89.5282 44.9929 89.3349 45.0708 89.1406C45.15 88.9428 45.3036 88.7734 45.5316 88.6326L45.4141 88.3774C45.4016 88.3502 45.4006 88.3253 45.4111 88.3026C45.4204 88.2774 45.4374 88.2591 45.462 88.2477L45.6876 88.1438C45.7123 88.1325 45.7372 88.1315 45.7624 88.1408C45.7876 88.1501 45.8059 88.1671 45.8173 88.1917L45.9382 88.4543C46.1087 88.4027 46.2677 88.3878 46.4152 88.4095C46.564 88.4277 46.6901 88.4712 46.7936 88.5401C46.8995 88.6079 46.9759 88.6863 47.0229 88.7752C47.0331 88.7974 47.0342 88.8193 47.0262 88.8409C47.0182 88.8625 47.0031 88.8785 46.981 88.8887L46.637 89.0471C46.5827 89.072 46.535 89.0656 46.4937 89.0279C46.445 88.9546 46.3668 88.9114 46.2592 88.8983C46.1503 88.8826 46.0331 88.9038 45.9073 88.9617C45.7717 89.0241 45.6764 89.0994 45.6213 89.1875C45.5662 89.2756 45.5614 89.369 45.6068 89.4676C45.6386 89.5366 45.6845 89.5843 45.7444 89.6105C45.8042 89.6367 45.884 89.6478 45.9838 89.6437C46.086 89.6385 46.2269 89.6199 46.4064 89.588C46.6461 89.5374 46.8443 89.5135 47.0009 89.5161C47.1599 89.5175 47.2919 89.5509 47.3967 89.6162C47.5014 89.6815 47.5873 89.7869 47.6543 89.9324C47.752 90.1445 47.7556 90.3535 47.6651 90.5595C47.5736 90.763 47.4021 90.9391 47.1508 91.0877L47.2683 91.3429C47.2796 91.3676 47.2807 91.3925 47.2713 91.4177C47.262 91.4429 47.245 91.4612 47.2204 91.4726L46.9948 91.5765Z" fill="#00FFE0"/>
<path d="M4.32001 74.917C4.29344 74.9114 4.27282 74.8973 4.25813 74.8748C4.24289 74.855 4.23834 74.8305 4.24448 74.8012L4.30311 74.5223C4.11576 74.4635 3.96054 74.3837 3.83748 74.2829C3.71764 74.1801 3.63302 74.068 3.58363 73.9466C3.53746 73.8232 3.52456 73.6998 3.54494 73.5765C3.54996 73.5526 3.56212 73.5344 3.58141 73.5218C3.60336 73.5097 3.62628 73.5062 3.65019 73.5113L4.00484 73.5858C4.03406 73.592 4.05524 73.6033 4.06839 73.62C4.08475 73.6345 4.09811 73.6567 4.10846 73.6867C4.1187 73.7831 4.16388 73.8717 4.24402 73.9523C4.32681 74.0335 4.45188 74.0917 4.61924 74.1269C4.8052 74.166 4.95241 74.165 5.06089 74.124C5.16993 74.0804 5.23617 74.0028 5.25963 73.8912C5.27526 73.8168 5.2642 73.7507 5.22643 73.6928C5.18867 73.635 5.12427 73.5784 5.03324 73.5232C4.94277 73.4654 4.80692 73.3924 4.62571 73.3044C4.32787 73.1641 4.11875 73.0175 3.99833 72.8646C3.88112 72.7096 3.84653 72.5179 3.89456 72.2894C3.93812 72.0822 4.04908 71.9238 4.22744 71.8143C4.40901 71.7027 4.63332 71.6583 4.90036 71.6812L4.95816 71.4062C4.9643 71.377 4.97835 71.3564 5.00029 71.3443C5.0228 71.3297 5.04733 71.3251 5.0739 71.3307L5.31697 71.3818C5.34353 71.3874 5.36416 71.4014 5.37885 71.4239C5.39353 71.4464 5.39808 71.471 5.3925 71.4975L5.33303 71.7804C5.50067 71.8406 5.63722 71.9234 5.74266 72.0288C5.85133 72.1321 5.92665 72.2423 5.96862 72.3593C6.01326 72.4768 6.0279 72.5853 6.01255 72.6847C6.00752 72.7086 5.99537 72.7269 5.97608 72.7395C5.95679 72.7521 5.93519 72.7558 5.91128 72.7508L5.5407 72.6729C5.48225 72.6606 5.44771 72.627 5.43707 72.5721C5.44166 72.4843 5.40465 72.403 5.32606 72.3282C5.24802 72.2508 5.14126 72.1978 5.00578 72.1693C4.85967 72.1386 4.73825 72.1422 4.64152 72.1801C4.54478 72.2181 4.48525 72.2901 4.46291 72.3964C4.44727 72.4708 4.45568 72.5364 4.48813 72.5931C4.52058 72.6499 4.57806 72.7063 4.66057 72.7625C4.74572 72.8192 4.86989 72.8883 5.03307 72.9698C5.25568 73.0721 5.42907 73.1709 5.55325 73.2664C5.68008 73.3624 5.76609 73.4679 5.81129 73.5828C5.85648 73.6977 5.8626 73.8335 5.82965 73.9902C5.78163 74.2187 5.65991 74.3887 5.46449 74.5001C5.26963 74.609 5.02701 74.6481 4.73662 74.6176L4.67882 74.8925C4.67323 74.9191 4.65919 74.9397 4.63668 74.9544C4.61418 74.9691 4.58965 74.9737 4.56308 74.9681L4.32001 74.917Z" fill="#00FFE0"/>
<path d="M125.124 90.7883C125.105 90.799 125.085 90.8014 125.064 90.7954C125.044 90.7913 125.028 90.7786 125.016 90.7574L124.903 90.5545C124.757 90.6183 124.619 90.652 124.489 90.6557C124.361 90.6563 124.249 90.6325 124.154 90.5842C124.06 90.5329 123.986 90.4639 123.933 90.3772C123.923 90.3598 123.921 90.3421 123.926 90.3241C123.933 90.305 123.945 90.2906 123.963 90.281L124.22 90.1377C124.242 90.1259 124.261 90.1216 124.278 90.1248C124.296 90.125 124.316 90.1315 124.338 90.1444C124.396 90.1983 124.471 90.2286 124.563 90.2355C124.657 90.2413 124.765 90.2104 124.887 90.1428C125.022 90.0676 125.112 89.9885 125.157 89.9054C125.201 89.8204 125.2 89.7374 125.155 89.6562C125.125 89.6022 125.083 89.5674 125.029 89.5519C124.975 89.5365 124.905 89.5361 124.82 89.5507C124.733 89.5633 124.611 89.5909 124.452 89.6335C124.194 89.706 123.987 89.7274 123.832 89.6976C123.677 89.6648 123.553 89.5653 123.461 89.3992C123.377 89.2485 123.361 89.0919 123.413 88.9294C123.465 88.7639 123.579 88.617 123.755 88.4886L123.644 88.2887C123.632 88.2675 123.63 88.2473 123.637 88.2282C123.643 88.2071 123.656 88.1913 123.675 88.1805L123.852 88.0823C123.871 88.0716 123.891 88.0692 123.912 88.0752C123.933 88.0812 123.949 88.0939 123.96 88.1132L124.074 88.3189C124.21 88.2665 124.338 88.2446 124.459 88.2532C124.581 88.2588 124.686 88.2864 124.774 88.3359C124.864 88.3844 124.931 88.4433 124.975 88.5127C124.984 88.5301 124.987 88.5478 124.981 88.5658C124.976 88.5838 124.965 88.5977 124.948 88.6073L124.678 88.7571C124.636 88.7807 124.596 88.7784 124.561 88.7503C124.517 88.6939 124.45 88.6636 124.362 88.6595C124.273 88.6535 124.179 88.6779 124.081 88.7326C123.974 88.7917 123.902 88.8587 123.862 88.9336C123.823 89.0085 123.825 89.0846 123.868 89.1618C123.898 89.2159 123.938 89.2518 123.988 89.2694C124.038 89.287 124.104 89.291 124.185 89.2816C124.267 89.2711 124.38 89.2473 124.524 89.2104C124.716 89.1546 124.875 89.1229 125.002 89.1154C125.132 89.1068 125.241 89.1258 125.33 89.1723C125.419 89.2189 125.495 89.2992 125.558 89.4131C125.651 89.5793 125.667 89.7487 125.606 89.9215C125.544 90.0924 125.416 90.2458 125.221 90.3819L125.332 90.5819C125.343 90.6012 125.345 90.6214 125.339 90.6424C125.333 90.6634 125.32 90.6793 125.301 90.69L125.124 90.7883Z" fill="#00FFE0"/>
<path d="M85.4013 72.4101C85.3719 72.4264 85.3413 72.4299 85.3093 72.4208C85.2789 72.4145 85.2548 72.3953 85.2369 72.3629L85.0658 72.0543C84.8428 72.1511 84.6329 72.2021 84.4361 72.2075C84.2406 72.2083 84.0706 72.1719 83.926 72.0983C83.7828 72.0202 83.6708 71.9152 83.59 71.7832C83.5753 71.7568 83.5719 71.7298 83.5798 71.7024C83.5906 71.6734 83.6092 71.6515 83.6357 71.6369L84.028 71.4194C84.0603 71.4015 84.0894 71.395 84.1152 71.3999C84.1423 71.4002 84.1728 71.4102 84.2067 71.4298C84.2944 71.5118 84.4084 71.5581 84.5488 71.5687C84.692 71.5776 84.8563 71.5308 85.0414 71.4281C85.2471 71.3141 85.3842 71.194 85.4525 71.0677C85.5192 70.9385 85.5183 70.8122 85.4499 70.6888C85.4043 70.6065 85.3404 70.5536 85.2581 70.53C85.1759 70.5064 85.0698 70.5057 84.9399 70.5277C84.8084 70.5469 84.6221 70.5886 84.3812 70.653C83.9888 70.763 83.6743 70.7952 83.4377 70.7496C83.2024 70.6994 83.0147 70.548 82.8746 70.2952C82.7475 70.066 82.7231 69.8279 82.8014 69.5809C82.8809 69.3293 83.0549 69.1061 83.3234 68.9111L83.1547 68.607C83.1368 68.5746 83.1333 68.5439 83.1441 68.5149C83.1532 68.4829 83.1725 68.4588 83.2019 68.4425L83.4708 68.2934C83.5002 68.2771 83.5309 68.2736 83.5629 68.2827C83.5948 68.2919 83.619 68.3112 83.6353 68.3406L83.8088 68.6536C84.0145 68.5741 84.2093 68.541 84.3934 68.5542C84.5788 68.5629 84.7385 68.605 84.8726 68.6805C85.0096 68.7544 85.1112 68.8441 85.1773 68.9496C85.192 68.976 85.1954 69.0029 85.1876 69.0303C85.1797 69.0578 85.1625 69.0788 85.1361 69.0935L84.7261 69.3207C84.6615 69.3566 84.6019 69.3531 84.5474 69.3103C84.4806 69.2244 84.3801 69.1783 84.246 69.1719C84.1102 69.1627 83.9674 69.1996 83.8175 69.2827C83.6559 69.3723 83.5451 69.474 83.4853 69.5879C83.4254 69.7017 83.4281 69.8174 83.4933 69.935C83.5389 70.0173 83.5999 70.0718 83.6762 70.0987C83.7526 70.1255 83.8521 70.1318 83.9749 70.1176C84.1005 70.1017 84.2727 70.0658 84.4915 70.0098C84.7827 69.9252 85.0251 69.8773 85.2186 69.8661C85.4151 69.8532 85.581 69.8822 85.7164 69.9532C85.8518 70.0241 85.9676 70.1463 86.0637 70.3197C86.2038 70.5725 86.2276 70.8302 86.1349 71.0928C86.0407 71.3525 85.8453 71.5857 85.5488 71.7924L85.7174 72.0965C85.7337 72.1259 85.7372 72.1566 85.7281 72.1886C85.7189 72.2206 85.6996 72.2447 85.6702 72.261L85.4013 72.4101Z" fill="#00FFE0"/>
</svg>
