<svg width="997" height="1000" viewBox="0 0 997 1000" fill="none" xmlns="http://www.w3.org/2000/svg">
<path d="M282 -164H720L795 116H202L282 -164Z" fill="#333642"/>
<path d="M719.616 -163.5L794.349 115.5H202.663L282.377 -163.5H719.616Z" stroke="white" stroke-opacity="0.2"/>
<path d="M191 155H806L795 115H202L191 155Z" fill="#333642"/>
<path d="M805.344 154.5L794.618 115.5H202.382L191.656 154.5H805.344Z" stroke="white" stroke-opacity="0.2"/>
<rect x="460" y="122.564" width="75" height="26" rx="3" transform="rotate(-2.64994 460 122.564)" fill="#E1D5C9"/>
<path d="M473.245 138.969L475.538 130.622L477.06 130.552L480.126 138.651L478.831 138.711L476.338 131.823L476.29 131.825L474.492 138.912L473.245 138.969ZM474.502 137.061L474.457 136.09L478.605 135.898L478.65 136.869L474.502 137.061ZM486.825 138.401C486.625 138.41 486.431 138.379 486.244 138.308C486.056 138.236 485.901 138.091 485.779 137.873C485.657 137.654 485.586 137.333 485.566 136.909C485.548 136.51 485.489 136.184 485.389 135.933C485.289 135.681 485.164 135.487 485.014 135.349C484.871 135.204 484.718 135.103 484.555 135.046C484.392 134.99 484.235 134.965 484.083 134.972L482.249 135.057L482.411 138.545L481.164 138.603L480.783 130.38L484.356 130.214C484.787 130.194 485.179 130.264 485.53 130.424C485.89 130.584 486.177 130.819 486.392 131.129C486.615 131.439 486.736 131.814 486.756 132.253C486.78 132.757 486.668 133.203 486.422 133.59C486.175 133.97 485.838 134.214 485.411 134.322L485.413 134.382C485.705 134.448 485.947 134.577 486.14 134.769C486.341 134.96 486.496 135.201 486.606 135.492C486.715 135.775 486.778 136.085 486.793 136.42C486.818 136.964 486.88 137.341 486.978 137.553C487.076 137.765 487.242 137.897 487.477 137.95L487.491 138.262C487.413 138.306 487.314 138.338 487.195 138.36C487.084 138.381 486.961 138.395 486.825 138.401ZM482.203 134.05L484.18 133.958C484.636 133.937 484.977 133.789 485.205 133.515C485.44 133.231 485.548 132.886 485.529 132.478C485.511 132.071 485.376 131.757 485.125 131.536C484.883 131.315 484.55 131.214 484.126 131.234L482.077 131.329L482.203 134.05ZM490.994 138.268C490.555 138.288 490.144 138.243 489.763 138.133C489.389 138.022 489.056 137.833 488.763 137.566C488.47 137.292 488.233 136.922 488.051 136.458C487.878 135.994 487.775 135.418 487.743 134.73L487.692 133.628C487.66 132.94 487.714 132.357 487.852 131.878C487.99 131.4 488.192 131.014 488.459 130.721C488.725 130.42 489.039 130.198 489.401 130.053C489.77 129.908 490.167 129.825 490.591 129.806L490.758 129.798C491.382 129.769 491.919 129.864 492.369 130.084C492.828 130.303 493.184 130.651 493.439 131.127C493.693 131.596 493.837 132.194 493.87 132.921L492.659 132.977C492.635 132.45 492.555 132.025 492.42 131.703C492.293 131.373 492.09 131.138 491.811 130.998C491.532 130.851 491.165 130.788 490.709 130.809C490.445 130.821 490.204 130.873 489.983 130.963C489.771 131.045 489.585 131.182 489.426 131.373C489.266 131.557 489.146 131.807 489.064 132.123C488.983 132.439 488.953 132.833 488.975 133.304L489.05 134.922C489.071 135.394 489.138 135.787 489.248 136.102C489.359 136.41 489.502 136.651 489.678 136.827C489.854 136.995 490.052 137.114 490.271 137.184C490.499 137.246 490.744 137.27 491.008 137.258C491.695 137.226 492.17 137.028 492.434 136.664C492.705 136.291 492.822 135.713 492.786 134.93L493.961 134.875C493.993 135.578 493.905 136.175 493.695 136.665C493.486 137.156 493.167 137.539 492.739 137.815C492.311 138.083 491.785 138.231 491.162 138.26L490.994 138.268ZM495.539 137.937L495.159 129.714L496.381 129.658L496.543 133.158L499.516 133.02L499.354 129.52L500.589 129.463L500.969 137.686L499.735 137.743L499.564 134.063L496.592 134.201L496.762 137.881L495.539 137.937ZM503.122 137.587L503.077 136.604L504.755 136.526L504.465 130.269L502.787 130.346L502.742 129.363L507.369 129.149L507.414 130.132L505.736 130.21L506.026 136.467L507.704 136.389L507.749 137.372L503.122 137.587ZM511.868 137.182L508.803 129.083L510.097 129.023L512.59 135.911L512.638 135.909L514.449 128.821L515.683 128.764L513.391 137.111L511.868 137.182ZM517.258 136.932L516.877 128.709L522.248 128.461L522.127 129.487L518.183 129.67L518.299 132.175L521.871 132.01L521.917 133.005L518.345 133.17L518.468 135.831L522.484 135.645L522.7 136.68L517.258 136.932Z" fill="#24262E"/>
</svg>
