<svg width="750" height="1000" viewBox="0 0 750 1000" fill="none" xmlns="http://www.w3.org/2000/svg">
<path d="M158 -164H596L671 116H78L158 -164Z" fill="#333642"/>
<path d="M595.616 -163.5L670.349 115.5H78.6631L158.377 -163.5H595.616Z" stroke="white" stroke-opacity="0.2"/>
<path d="M67 155H682L671 115H78L67 155Z" fill="#333642"/>
<path d="M681.344 154.5L670.618 115.5H78.3818L67.6562 154.5H681.344Z" stroke="white" stroke-opacity="0.2"/>
<rect x="336" y="122.564" width="75" height="26" rx="3" transform="rotate(-2.64994 336 122.564)" fill="#E1D5C9"/>
<path d="M349.245 138.969L351.538 130.622L353.06 130.552L356.126 138.651L354.831 138.711L352.338 131.823L352.29 131.825L350.492 138.912L349.245 138.969ZM350.502 137.061L350.457 136.09L354.605 135.898L354.65 136.869L350.502 137.061ZM362.825 138.401C362.625 138.41 362.431 138.379 362.244 138.308C362.056 138.236 361.901 138.091 361.779 137.873C361.657 137.654 361.586 137.333 361.566 136.909C361.548 136.51 361.489 136.184 361.389 135.933C361.289 135.681 361.164 135.487 361.014 135.349C360.871 135.204 360.718 135.103 360.555 135.046C360.392 134.99 360.235 134.965 360.083 134.972L358.249 135.057L358.411 138.545L357.164 138.603L356.783 130.38L360.356 130.214C360.787 130.194 361.179 130.264 361.53 130.424C361.89 130.584 362.177 130.819 362.392 131.129C362.615 131.439 362.736 131.814 362.756 132.253C362.78 132.757 362.668 133.203 362.422 133.59C362.175 133.97 361.838 134.214 361.411 134.322L361.413 134.382C361.705 134.448 361.947 134.577 362.14 134.769C362.341 134.96 362.496 135.201 362.606 135.492C362.715 135.775 362.778 136.085 362.793 136.42C362.818 136.964 362.88 137.341 362.978 137.553C363.076 137.765 363.242 137.897 363.477 137.95L363.491 138.262C363.413 138.306 363.314 138.338 363.195 138.36C363.084 138.381 362.961 138.395 362.825 138.401ZM358.203 134.05L360.18 133.958C360.636 133.937 360.977 133.789 361.205 133.515C361.44 133.231 361.548 132.886 361.529 132.478C361.511 132.071 361.376 131.757 361.125 131.536C360.883 131.315 360.55 131.214 360.126 131.234L358.077 131.329L358.203 134.05ZM366.994 138.268C366.555 138.288 366.144 138.243 365.763 138.133C365.389 138.022 365.056 137.833 364.763 137.566C364.47 137.292 364.233 136.922 364.051 136.458C363.878 135.994 363.775 135.418 363.743 134.73L363.692 133.628C363.66 132.94 363.714 132.357 363.852 131.878C363.99 131.4 364.192 131.014 364.459 130.721C364.725 130.42 365.039 130.198 365.401 130.053C365.77 129.908 366.167 129.825 366.591 129.806L366.758 129.798C367.382 129.769 367.919 129.864 368.369 130.084C368.828 130.303 369.184 130.651 369.439 131.127C369.693 131.596 369.837 132.194 369.87 132.921L368.659 132.977C368.635 132.45 368.555 132.025 368.42 131.703C368.293 131.373 368.09 131.138 367.811 130.998C367.532 130.851 367.165 130.788 366.709 130.809C366.445 130.821 366.204 130.873 365.983 130.963C365.771 131.045 365.585 131.182 365.426 131.373C365.266 131.557 365.146 131.807 365.064 132.123C364.983 132.439 364.953 132.833 364.975 133.304L365.05 134.922C365.071 135.394 365.138 135.787 365.248 136.102C365.359 136.41 365.502 136.651 365.678 136.827C365.854 136.995 366.052 137.114 366.271 137.184C366.499 137.246 366.744 137.27 367.008 137.258C367.695 137.226 368.17 137.028 368.434 136.664C368.705 136.291 368.822 135.713 368.786 134.93L369.961 134.875C369.993 135.578 369.905 136.175 369.695 136.665C369.486 137.156 369.167 137.539 368.739 137.815C368.311 138.083 367.785 138.231 367.162 138.26L366.994 138.268ZM371.539 137.937L371.159 129.714L372.381 129.658L372.543 133.158L375.516 133.02L375.354 129.52L376.589 129.463L376.969 137.686L375.735 137.743L375.564 134.063L372.592 134.201L372.762 137.881L371.539 137.937ZM379.122 137.587L379.077 136.604L380.755 136.526L380.465 130.269L378.787 130.346L378.742 129.363L383.369 129.149L383.414 130.132L381.736 130.21L382.026 136.467L383.704 136.389L383.749 137.372L379.122 137.587ZM387.868 137.182L384.803 129.083L386.097 129.023L388.59 135.911L388.638 135.909L390.449 128.821L391.683 128.764L389.391 137.111L387.868 137.182ZM393.258 136.932L392.877 128.709L398.248 128.461L398.127 129.487L394.183 129.67L394.299 132.175L397.871 132.01L397.917 133.005L394.345 133.17L394.468 135.831L398.484 135.645L398.7 136.68L393.258 136.932Z" fill="#24262E"/>
</svg>
