<svg width="552" height="62" viewBox="0 0 552 62" fill="none" xmlns="http://www.w3.org/2000/svg">
<g clip-path="url(#clip0_1357_899)">
<path d="M33.5296 34.9164C26.6994 51.3164 10.6769 62 -7.08858 62H-16.25C-39.446 62 -58.25 80.804 -58.25 104C-58.25 127.196 -39.446 146 -16.25 146H536.25H559.25C582.446 146 601.25 127.196 601.25 104V100.997C601.25 79.4596 583.79 62 562.253 62C546.507 62 532.306 52.5311 526.253 37.9958L521.708 27.0837C514.878 10.6836 498.856 0 481.09 0H77.4099C59.6444 0 43.6219 10.6836 36.7917 27.0836L33.5296 34.9164Z" fill="#C1AB91"/>
</g>
<defs>
<clipPath id="clip0_1357_899">
<rect width="551" height="62" fill="white" transform="translate(0.25)"/>
</clipPath>
</defs>
</svg>
